<svg id="Grupo_1176478" data-name="Grupo 1176478" xmlns="http://www.w3.org/2000/svg" xmlns:xlink="http://www.w3.org/1999/xlink" width="190" height="147.151" viewBox="0 0 190 147.151">
  <defs>
    <clipPath id="clip-path">
      <rect id="Rectángulo_414167" data-name="Rectángulo 414167" width="190" height="147.151" fill="none"/>
    </clipPath>
    <clipPath id="clip-path-3">
      <path id="Trazado_1040172" data-name="Trazado 1040172" d="M57.689,45.341,64.624,47.1l6.669.561,8.671,6.506a9.384,9.384,0,0,0,4.931-4.181c1.506-2.988-.06-6.078-3.623-8.136a18.2,18.2,0,0,0-6.011-2.062,23.9,23.9,0,0,0-4.02-.339c-6.118,0-11.751,2.315-13.551,5.887" transform="translate(-57.689 -39.454)" fill="none"/>
    </clipPath>
    <linearGradient id="linear-gradient" x1="-1.758" y1="7.653" x2="-1.728" y2="7.653" gradientUnits="objectBoundingBox">
      <stop offset="0" stop-color="#ff98ff"/>
      <stop offset="1" stop-color="#ffaff5"/>
    </linearGradient>
    <clipPath id="clip-path-5">
      <rect id="Rectángulo_414095" data-name="Rectángulo 414095" width="19.316" height="5.655" fill="none"/>
    </clipPath>
    <clipPath id="clip-path-6">
      <path id="Trazado_1040185" data-name="Trazado 1040185" d="M63.381,75.286a3.474,3.474,0,0,1-.208.691A5.343,5.343,0,0,1,61.6,77.971a9.339,9.339,0,0,1-3.189,1.658,16.077,16.077,0,0,1-4.092.687,15.865,15.865,0,0,1-4.14-.287,12.54,12.54,0,0,1-3.413-1.2A7.8,7.8,0,0,1,44.7,77.319a4.16,4.16,0,0,1-.6-.777,4.171,4.171,0,0,0,.553.816A7.34,7.34,0,0,0,46.673,79a12.035,12.035,0,0,0,3.445,1.324,16.468,16.468,0,0,0,8.389-.409,9.113,9.113,0,0,0,3.224-1.8A5.166,5.166,0,0,0,63.228,76a3.448,3.448,0,0,0,.168-.711c.022-.166.024-.256.024-.256s-.007.09-.038.255" transform="translate(-44.104 -75.031)" fill="none"/>
    </clipPath>
    <radialGradient id="radial-gradient" cx="0.535" cy="0.937" r="2.351" gradientTransform="matrix(0.295, 0, 0, -1, -1.408, 28.575)" gradientUnits="objectBoundingBox">
      <stop offset="0" stop-color="#ff9412"/>
      <stop offset="0.23" stop-color="#c1700d"/>
      <stop offset="0.766" stop-color="#372003"/>
      <stop offset="1"/>
    </radialGradient>
    <clipPath id="clip-path-7">
      <rect id="Rectángulo_414099" data-name="Rectángulo 414099" width="27.463" height="7.815" fill="none"/>
    </clipPath>
    <clipPath id="clip-path-8">
      <path id="Trazado_1040187" data-name="Trazado 1040187" d="M85.38,49.956a5.532,5.532,0,0,1-.342.956,7.478,7.478,0,0,1-2.286,2.741A15.538,15.538,0,0,1,78.2,55.892a20.8,20.8,0,0,1-5.745.991,24.78,24.78,0,0,1-5.828-.447,18.539,18.539,0,0,1-4.841-1.58,10.634,10.634,0,0,1-2.923-2.1,8.4,8.4,0,0,1-.659-.777l-.211-.294.187.31a6.9,6.9,0,0,0,.607.829,10.15,10.15,0,0,0,2.859,2.294,17.629,17.629,0,0,0,4.89,1.766,25.285,25.285,0,0,0,5.94.525,21.215,21.215,0,0,0,5.867-1.082,14.927,14.927,0,0,0,4.594-2.44,7.323,7.323,0,0,0,2.2-2.93,4.853,4.853,0,0,0,.276-.991c.04-.234.048-.36.048-.36s-.018.125-.075.354" transform="translate(-57.992 -49.602)" fill="none"/>
    </clipPath>
    <radialGradient id="radial-gradient-2" cx="0.5" cy="0.496" r="1.283" gradientTransform="matrix(0.287, 0, 0, -1, -1.318, 26.363)" xlink:href="#radial-gradient"/>
    <clipPath id="clip-path-9">
      <rect id="Rectángulo_414102" data-name="Rectángulo 414102" width="49.03" height="28.399" fill="none"/>
    </clipPath>
    <clipPath id="clip-path-10">
      <rect id="Rectángulo_414103" data-name="Rectángulo 414103" width="77.992" height="45.13" fill="none"/>
    </clipPath>
    <clipPath id="clip-path-11">
      <rect id="Rectángulo_414104" data-name="Rectángulo 414104" width="2.438" height="2.381" fill="none"/>
    </clipPath>
    <clipPath id="clip-path-13">
      <rect id="Rectángulo_414106" data-name="Rectángulo 414106" width="2.437" height="2.381" fill="none"/>
    </clipPath>
    <clipPath id="clip-path-25">
      <path id="Trazado_1040276" data-name="Trazado 1040276" d="M59.081,92.41l58.782,33.937,39.155-22.606L98.236,69.8Z" transform="translate(-59.081 -69.804)" fill="none"/>
    </clipPath>
    <clipPath id="clip-path-26">
      <rect id="Rectángulo_414119" data-name="Rectángulo 414119" width="49.03" height="28.4" fill="none"/>
    </clipPath>
    <clipPath id="clip-path-29">
      <rect id="Rectángulo_414126" data-name="Rectángulo 414126" width="51.201" height="34.938" fill="none"/>
    </clipPath>
    <clipPath id="clip-path-30">
      <path id="Trazado_1040277" data-name="Trazado 1040277" d="M144.412,64.264l-.016,5.288c.01-3.66-2.4-7.327-7.227-10.113-9.6-5.541-25.154-5.541-34.688,0-4.734,2.751-7.1,6.36-7.114,9.973l.015-5.289c.011-3.614,2.38-7.222,7.114-9.973,9.534-5.54,25.092-5.54,34.688,0,4.827,2.787,7.237,6.453,7.228,10.114" transform="translate(-95.367 -49.995)" fill="none"/>
    </clipPath>
    <linearGradient id="linear-gradient-2" x1="-1.701" y1="5.004" x2="-1.683" y2="5.004" gradientUnits="objectBoundingBox">
      <stop offset="0" stop-color="#d473f1"/>
      <stop offset="1" stop-color="#962dcc"/>
    </linearGradient>
    <clipPath id="clip-path-31">
      <rect id="Rectángulo_414123" data-name="Rectángulo 414123" width="49.029" height="28.399" fill="none"/>
    </clipPath>
    <clipPath id="clip-path-32">
      <path id="Trazado_1040279" data-name="Trazado 1040279" d="M102.614,77.863c9.593,5.538,25.151,5.538,34.681,0s9.483-14.552-.109-20.09-25.154-5.541-34.688,0-9.479,14.55.116,20.09" transform="translate(-95.384 -53.617)" fill="none"/>
    </clipPath>
    <linearGradient id="linear-gradient-3" x1="-1.505" y1="3.26" x2="-1.488" y2="3.26" gradientUnits="objectBoundingBox">
      <stop offset="0" stop-color="#ffc5ff"/>
      <stop offset="1" stop-color="#ffdeff"/>
    </linearGradient>
    <clipPath id="clip-path-33">
      <path id="Trazado_1040280" data-name="Trazado 1040280" d="M145.336,66.284l-.015,5.289c-.011,3.774-2.485,7.543-7.43,10.416-9.949,5.781-26.2,5.781-36.209,0-5.041-2.91-7.558-6.74-7.548-10.563l.015-5.288c-.01,3.823,2.507,7.652,7.548,10.562,10.014,5.781,26.26,5.781,36.209,0,4.945-2.874,7.419-6.642,7.43-10.416" transform="translate(-94.134 -66.138)" fill="none"/>
    </clipPath>
    <linearGradient id="linear-gradient-4" x1="-1.608" y1="4.127" x2="-1.591" y2="4.127" gradientUnits="objectBoundingBox">
      <stop offset="0" stop-color="#962dcc"/>
      <stop offset="1" stop-color="#d473f1"/>
    </linearGradient>
    <clipPath id="clip-path-34">
      <path id="Trazado_1040281" data-name="Trazado 1040281" d="M137.793,53.618c10.014,5.782,10.066,15.192.115,20.976s-26.2,5.781-36.209,0-10.07-15.194-.121-20.975,26.2-5.784,36.215,0M102.46,74.151c9.593,5.539,25.151,5.539,34.681,0s9.483-14.552-.109-20.09-25.154-5.54-34.688,0-9.479,14.551.116,20.09" transform="translate(-94.151 -49.28)" fill="none"/>
    </clipPath>
    <linearGradient id="linear-gradient-5" x1="-1.42" y1="3.241" x2="-1.405" y2="3.241" gradientUnits="objectBoundingBox">
      <stop offset="0" stop-color="#f5abff"/>
      <stop offset="0.456" stop-color="#ffc5ff"/>
      <stop offset="1" stop-color="#ffdeff"/>
    </linearGradient>
    <clipPath id="clip-path-35">
      <path id="Trazado_1040283" data-name="Trazado 1040283" d="M151.992,82.248l-.024-.014Zm-8.123-3.707a4.545,4.545,0,0,0-2.057,3.563,1.457,1.457,0,0,0,.589,1.324l6.656,3.842a1.454,1.454,0,0,1-.589-1.324,4.544,4.544,0,0,1,2.057-3.562,1.45,1.45,0,0,1,1.442-.151l-6.631-3.828a1.05,1.05,0,0,0-.549-.145,1.863,1.863,0,0,0-.919.281" transform="translate(-141.812 -78.261)" fill="none"/>
    </clipPath>
    <linearGradient id="linear-gradient-6" x1="-9.519" y1="6.074" x2="-9.451" y2="6.074" gradientUnits="objectBoundingBox">
      <stop offset="0" stop-color="#ffdefa"/>
      <stop offset="0.517" stop-color="#ffbbfa"/>
      <stop offset="0.764" stop-color="#f1adf6"/>
      <stop offset="1" stop-color="#e09df1"/>
    </linearGradient>
    <clipPath id="clip-path-37">
      <rect id="Rectángulo_414130" data-name="Rectángulo 414130" width="5.349" height="6.617" fill="none"/>
    </clipPath>
    <clipPath id="clip-path-38">
      <path id="Trazado_1040286" data-name="Trazado 1040286" d="M177.028,103.95c.874-4.285,3.756-6.55,5.313-6.529-2-.7-5.752,2.884-5.313,6.529" transform="translate(-176.993 -97.333)" fill="none"/>
    </clipPath>
    <radialGradient id="radial-gradient-3" cx="0.829" cy="0.085" r="1.192" gradientTransform="matrix(1.256, 0, 0, -1, 6.875, 17.326)" gradientUnits="objectBoundingBox">
      <stop offset="0" stop-color="#ffa962"/>
      <stop offset="0.007" stop-color="#f5a25e"/>
      <stop offset="0.048" stop-color="#c7844c"/>
      <stop offset="0.093" stop-color="#9c673c"/>
      <stop offset="0.142" stop-color="#774e2d"/>
      <stop offset="0.195" stop-color="#563921"/>
      <stop offset="0.254" stop-color="#3b2716"/>
      <stop offset="0.32" stop-color="#25180e"/>
      <stop offset="0.398" stop-color="#140d07"/>
      <stop offset="0.493" stop-color="#080503"/>
      <stop offset="0.627" stop-color="#010100"/>
      <stop offset="1"/>
    </radialGradient>
    <clipPath id="clip-path-39">
      <rect id="Rectángulo_414138" data-name="Rectángulo 414138" width="15.282" height="15.282" fill="none"/>
    </clipPath>
    <clipPath id="clip-path-40">
      <path id="Trazado_1040290" data-name="Trazado 1040290" d="M186.414,90.922a7.641,7.641,0,1,1-10.806,0,7.641,7.641,0,0,1,10.806,0" transform="translate(-173.37 -88.685)" fill="none"/>
    </clipPath>
    <radialGradient id="radial-gradient-4" cx="0.5" cy="0.5" r="0.322" gradientTransform="matrix(1, 0, 0, -1, 0, 6.22)" gradientUnits="objectBoundingBox">
      <stop offset="0" stop-color="#ffa962"/>
      <stop offset="0.005" stop-color="#f5a25e"/>
      <stop offset="0.035" stop-color="#c7844c"/>
      <stop offset="0.069" stop-color="#9c673c"/>
      <stop offset="0.105" stop-color="#774e2d"/>
      <stop offset="0.144" stop-color="#563921"/>
      <stop offset="0.188" stop-color="#3b2716"/>
      <stop offset="0.237" stop-color="#25180e"/>
      <stop offset="0.294" stop-color="#140d07"/>
      <stop offset="0.364" stop-color="#080503"/>
      <stop offset="0.464" stop-color="#010100"/>
      <stop offset="0.739"/>
      <stop offset="1"/>
    </radialGradient>
    <clipPath id="clip-path-41">
      <rect id="Rectángulo_414139" data-name="Rectángulo 414139" width="6.333" height="7.122" fill="none"/>
    </clipPath>
    <clipPath id="clip-path-42">
      <path id="Trazado_1040299" data-name="Trazado 1040299" d="M32.219,84.938v19.046a1.988,1.988,0,0,0,1.164,1.6,6.213,6.213,0,0,0,5.624,0,1.963,1.963,0,0,0,1.165-1.645V84.9Z" transform="translate(-32.219 -84.897)" fill="none"/>
    </clipPath>
    <linearGradient id="linear-gradient-7" x1="-3.541" y1="3.375" x2="-3.431" y2="3.375" gradientUnits="objectBoundingBox">
      <stop offset="0" stop-color="#d66ee5"/>
      <stop offset="1" stop-color="#ea82f5"/>
    </linearGradient>
    <clipPath id="clip-path-44">
      <path id="Trazado_1040301" data-name="Trazado 1040301" d="M40.493,93.64v15.611a1.991,1.991,0,0,0,1.165,1.6,6.219,6.219,0,0,0,5.624,0,1.966,1.966,0,0,0,1.165-1.646V93.6Z" transform="translate(-40.493 -93.599)" fill="none"/>
    </clipPath>
    <linearGradient id="linear-gradient-8" x1="-4.45" y1="3.594" x2="-4.34" y2="3.594" xlink:href="#linear-gradient-7"/>
    <clipPath id="clip-path-46">
      <path id="Trazado_1040303" data-name="Trazado 1040303" d="M48.767,102.212V114.5a1.991,1.991,0,0,0,1.166,1.6,6.217,6.217,0,0,0,5.623,0,1.967,1.967,0,0,0,1.165-1.645V102.169Z" transform="translate(-48.767 -102.169)" fill="none"/>
    </clipPath>
    <linearGradient id="linear-gradient-9" x1="-5.36" y1="3.893" x2="-5.25" y2="3.893" xlink:href="#linear-gradient-7"/>
    <clipPath id="clip-path-48">
      <path id="Trazado_1040305" data-name="Trazado 1040305" d="M57.171,112.153v7.838a1.989,1.989,0,0,0,1.165,1.6,6.213,6.213,0,0,0,5.624,0,1.965,1.965,0,0,0,1.164-1.644v-7.838Z" transform="translate(-57.171 -112.111)" fill="none"/>
    </clipPath>
    <linearGradient id="linear-gradient-10" x1="-6.283" y1="4.725" x2="-6.173" y2="4.725" xlink:href="#linear-gradient-7"/>
    <clipPath id="clip-path-50">
      <path id="Trazado_1040307" data-name="Trazado 1040307" d="M65.574,121.533v3.875a1.99,1.99,0,0,0,1.164,1.6,6.219,6.219,0,0,0,5.624,0,1.964,1.964,0,0,0,1.165-1.645v-3.875Z" transform="translate(-65.574 -121.491)" fill="none"/>
    </clipPath>
    <linearGradient id="linear-gradient-11" x1="-7.207" y1="6.365" x2="-7.097" y2="6.365" xlink:href="#linear-gradient-7"/>
    <clipPath id="clip-path-52">
      <path id="Trazado_1040309" data-name="Trazado 1040309" d="M91.371,129.179l-5.21,3.024L98.548,142.85l5.211-3.024a.813.813,0,0,0,.338-.745l.005-1.614a2.2,2.2,0,0,0-.2-.872,2.784,2.784,0,0,0-.449-.705,2.036,2.036,0,0,0-.513-.431l-10.736-6.2a1.058,1.058,0,0,0-.524-.16.6.6,0,0,0-.307.078" transform="translate(-86.161 -129.101)" fill="none"/>
    </clipPath>
    <linearGradient id="linear-gradient-12" x1="-3.264" y1="1.792" x2="-3.225" y2="1.792" gradientUnits="objectBoundingBox">
      <stop offset="0" stop-color="#ffebff"/>
      <stop offset="1" stop-color="#e8bdf1"/>
    </linearGradient>
    <clipPath id="clip-path-54">
      <rect id="Rectángulo_414157" data-name="Rectángulo 414157" width="13.688" height="19.079" fill="none"/>
    </clipPath>
    <clipPath id="clip-path-55">
      <rect id="Rectángulo_414165" data-name="Rectángulo 414165" width="51.52" height="51.521" fill="none"/>
    </clipPath>
    <clipPath id="clip-path-56">
      <path id="Trazado_1040315" data-name="Trazado 1040315" d="M125.96,135.05a25.76,25.76,0,1,1-25.76-25.76,25.76,25.76,0,0,1,25.76,25.76" transform="translate(-74.44 -109.29)" fill="none"/>
    </clipPath>
    <radialGradient id="radial-gradient-5" cx="0.5" cy="0.5" r="0.5" gradientTransform="matrix(1, 0, 0, -1, 0, 2)" gradientUnits="objectBoundingBox">
      <stop offset="0" stop-color="#db4dff"/>
      <stop offset="0.012" stop-color="#d34af6"/>
      <stop offset="0.089" stop-color="#a73ac3"/>
      <stop offset="0.171" stop-color="#7f2c94"/>
      <stop offset="0.256" stop-color="#5d206c"/>
      <stop offset="0.346" stop-color="#40164b"/>
      <stop offset="0.442" stop-color="#280e2f"/>
      <stop offset="0.545" stop-color="#16071a"/>
      <stop offset="0.659" stop-color="#09030b"/>
      <stop offset="0.794" stop-color="#020002"/>
      <stop offset="1"/>
    </radialGradient>
  </defs>
  <g id="Grupo_1176665" data-name="Grupo 1176665" clip-path="url(#clip-path)">
    <g id="Grupo_1176479" data-name="Grupo 1176479">
      <g id="Grupo_1176478-2" data-name="Grupo 1176478" clip-path="url(#clip-path)">
        <path id="Trazado_1040167" data-name="Trazado 1040167" d="M57.077,48.826V73.189c-.033,2.115,1.348,4.236,4.142,5.849,5.524,3.189,14.481,3.189,20,0,2.728-1.575,4.109-3.634,4.142-5.7V48.977Z" transform="translate(-7.134 -6.102)" fill="#6d00ba"/>
        <path id="Trazado_1040168" data-name="Trazado 1040168" d="M57.917,48.83l-.84,0V73.189a5.181,5.181,0,0,0,.84,2.829Z" transform="translate(-7.134 -6.102)" fill="#6d00ba"/>
        <path id="Trazado_1040169" data-name="Trazado 1040169" d="M83.623,48.968l-14.971-.08V81.1c4.81.82,10.223.141,14.018-2.05q.508-.293.953-.607Z" transform="translate(-8.58 -6.11)" fill="#e29700"/>
        <path id="Trazado_1040170" data-name="Trazado 1040170" d="M83.17,48.965V79.723a14.66,14.66,0,0,0,1.314-.666c2.729-1.576,4.11-3.635,4.142-5.7V48.994Z" transform="translate(-10.395 -6.12)" fill="#d66ee5"/>
        <path id="Trazado_1040171" data-name="Trazado 1040171" d="M72.669,48.838l8.671,6.507A22,22,0,0,1,68.7,56.709Z" transform="translate(-8.586 -6.104)" fill="#ffd03b"/>
      </g>
    </g>
    <g id="Grupo_1176481" data-name="Grupo 1176481" transform="translate(50.479 34.523)">
      <g id="Grupo_1176480" data-name="Grupo 1176480" clip-path="url(#clip-path-3)">
        <rect id="Rectángulo_414093" data-name="Rectángulo 414093" width="28.712" height="14.717" transform="translate(0 0)" fill="url(#linear-gradient)"/>
      </g>
    </g>
    <g id="Grupo_1176551" data-name="Grupo 1176551">
      <g id="Grupo_1176550" data-name="Grupo 1176550" clip-path="url(#clip-path)">
        <path id="Trazado_1040173" data-name="Trazado 1040173" d="M71.331,48.838l-3.969,7.871a18.24,18.24,0,0,1-6.038-2.035,9.284,9.284,0,0,1-3.331-3.089Z" transform="translate(-7.248 -6.104)" fill="#8a18ed"/>
        <path id="Trazado_1040174" data-name="Trazado 1040174" d="M71.207,48.506,57.869,51.253a4.807,4.807,0,0,1-.265-5.07Z" transform="translate(-7.125 -5.772)" fill="#8a18ed"/>
        <path id="Trazado_1040175" data-name="Trazado 1040175" d="M54.515,74.838v19.95a14.472,14.472,0,0,0,7.316-1.666c1.911-1.1,2.877-2.545,2.9-3.991V74.892Z" transform="translate(-6.814 -9.354)" fill="#e29700"/>
        <path id="Trazado_1040176" data-name="Trazado 1040176" d="M46.08,74.793V92.675c.214.152.444.3.69.441a15,15,0,0,0,8.587,1.6V74.842Z" transform="translate(-5.759 -9.348)" fill="#d66ee5"/>
        <path id="Trazado_1040177" data-name="Trazado 1040177" d="M64.924,74.893V91.707a3.954,3.954,0,0,0,1.108-2.57V74.9Z" transform="translate(-8.114 -9.36)" fill="#e29700"/>
        <path id="Trazado_1040178" data-name="Trazado 1040178" d="M46.529,74.8l-2.976-.016V89.018c-.024,1.481.943,2.965,2.9,4.1l.075.04Z" transform="translate(-5.443 -9.346)" fill="#6d00ba"/>
        <path id="Trazado_1040179" data-name="Trazado 1040179" d="M53.877,74.756,55.455,80.4a14.451,14.451,0,0,1-8.535-1.6Z" transform="translate(-5.864 -9.343)" fill="#ffacf6"/>
        <path id="Trazado_1040180" data-name="Trazado 1040180" d="M61.828,70.135c3.094,1.787,3.821,4.388,1.852,6.64l-8.81-2.6Z" transform="translate(-6.858 -8.766)" fill="#ffd03b"/>
        <path id="Trazado_1040181" data-name="Trazado 1040181" d="M63.681,77.352c-1.476,1.689-4,2.755-7.232,3.052l-1.578-5.648Z" transform="translate(-6.858 -9.343)" fill="#ffd03b"/>
        <path id="Trazado_1040182" data-name="Trazado 1040182" d="M53.456,74.385,46.5,78.429c-3.093-1.786-3.819-4.388-1.852-6.639Z" transform="translate(-5.443 -8.973)" fill="#8a18ed"/>
        <path id="Trazado_1040183" data-name="Trazado 1040183" d="M55.125,68.291l-1.513,5.647-8.808-2.6c1.965-2.251,6.012-3.447,10.321-3.052" transform="translate(-5.6 -8.526)" fill="#e467e8"/>
        <path id="Trazado_1040184" data-name="Trazado 1040184" d="M61.828,69.906l-6.957,4.043L56.383,68.3a12.946,12.946,0,0,1,5.445,1.6" transform="translate(-6.858 -8.537)" fill="#9e5bf4"/>
        <g id="Grupo_1176486" data-name="Grupo 1176486" transform="translate(38.592 65.654)" style="mix-blend-mode: screen;isolation: isolate">
          <g id="Grupo_1176485" data-name="Grupo 1176485">
            <g id="Grupo_1176484" data-name="Grupo 1176484" clip-path="url(#clip-path-5)">
              <g id="Grupo_1176483" data-name="Grupo 1176483" transform="translate(0 0)">
                <g id="Grupo_1176482" data-name="Grupo 1176482" clip-path="url(#clip-path-6)">
                  <rect id="Rectángulo_414094" data-name="Rectángulo 414094" width="19.316" height="5.704" transform="translate(0 0)" fill="url(#radial-gradient)"/>
                </g>
              </g>
            </g>
          </g>
        </g>
        <g id="Grupo_1176496" data-name="Grupo 1176496" transform="translate(50.744 43.403)" style="mix-blend-mode: screen;isolation: isolate">
          <g id="Grupo_1176495" data-name="Grupo 1176495">
            <g id="Grupo_1176494" data-name="Grupo 1176494" clip-path="url(#clip-path-7)">
              <g id="Grupo_1176493" data-name="Grupo 1176493" transform="translate(0 0)">
                <g id="Grupo_1176492" data-name="Grupo 1176492" clip-path="url(#clip-path-8)">
                  <rect id="Rectángulo_414098" data-name="Rectángulo 414098" width="27.463" height="7.871" transform="translate(0 0)" fill="url(#radial-gradient-2)"/>
                </g>
              </g>
            </g>
          </g>
        </g>
        <g id="Grupo_1176504" data-name="Grupo 1176504" transform="translate(84.505 66.3)" opacity="0.2" style="mix-blend-mode: screen;isolation: isolate">
          <g id="Grupo_1176503" data-name="Grupo 1176503">
            <g id="Grupo_1176502" data-name="Grupo 1176502" clip-path="url(#clip-path-9)">
              <path id="Trazado_1040189" data-name="Trazado 1040189" d="M103.807,100.016c-9.6-5.541-9.648-14.552-.117-20.09s25.093-5.541,34.687,0,9.644,14.55.111,20.09-25.089,5.538-34.681,0" transform="translate(-96.576 -75.77)" fill="#db4dff"/>
            </g>
          </g>
        </g>
        <g id="Grupo_1176507" data-name="Grupo 1176507" transform="translate(83.427 65.675)" opacity="0.6" style="mix-blend-mode: multiply;isolation: isolate">
          <g id="Grupo_1176506" data-name="Grupo 1176506">
            <g id="Grupo_1176505" data-name="Grupo 1176505" clip-path="url(#clip-path-10)">
              <path id="Trazado_1040190" data-name="Trazado 1040190" d="M172.961,116.315l-24.768-14.3a2,2,0,0,0-1.808,0l-.147.084-5.2-3c7.947-5.818,7.255-14.329-2.057-19.705-10.017-5.784-26.264-5.784-36.216,0s-9.9,15.192.122,20.976c9.28,5.357,23.9,5.74,33.915,1.169l5.2,3-.144.084a.551.551,0,0,0,0,1.044l24.767,14.3a2,2,0,0,0,1.809,0l4.522-2.61a.552.552,0,0,0,0-1.045M103.653,99.927c-9.6-5.541-9.648-14.552-.117-20.09s25.093-5.541,34.687,0,9.644,14.55.111,20.09-25.089,5.538-34.681,0" transform="translate(-95.343 -75.056)" fill="#3a0155"/>
            </g>
          </g>
        </g>
        <path id="Trazado_1040191" data-name="Trazado 1040191" d="M117.863,129.576,59.081,95.639V99.1l58.782,33.937Z" transform="translate(-7.384 -11.953)" fill="#c6a1ce"/>
        <path id="Trazado_1040192" data-name="Trazado 1040192" d="M63.475,98.176l-4.394-2.537V99.1l4.394,2.537Z" transform="translate(-7.384 -11.953)" fill="#962dcc"/>
        <path id="Trazado_1040193" data-name="Trazado 1040193" d="M165.415,112.055,126.26,134.661v-3.466l39.155-22.606Z" transform="translate(-15.78 -13.572)" fill="#e8bdf1"/>
        <path id="Trazado_1040194" data-name="Trazado 1040194" d="M117.863,126.347,59.081,92.41,98.237,69.8l58.782,33.938Z" transform="translate(-7.384 -8.724)" fill="#ffebff"/>
        <path id="Trazado_1040195" data-name="Trazado 1040195" d="M63.466,94.941,59.081,92.41,98.237,69.8l4.385,2.531Z" transform="translate(-7.384 -8.724)" fill="#ffbbfa"/>
        <path id="Trazado_1040196" data-name="Trazado 1040196" d="M105.923,72.287l-1.527.882-2.352-1.358,1.527-.882Z" transform="translate(-12.754 -8.865)" fill="#d473f1"/>
        <path id="Trazado_1040197" data-name="Trazado 1040197" d="M99.055,71.94l.538-.311a4.8,4.8,0,0,1-.322-.612,2.316,2.316,0,0,1-.115-2.04.813.813,0,0,1,.728-.358c1.04,0,2.443,1.211,3.063,2.643a3.473,3.473,0,0,1,.3,1.153l.616.355a3.716,3.716,0,0,0-.345-1.754C102.783,69.327,101.188,68,99.884,68a1.433,1.433,0,0,0-1.245.636,2.822,2.822,0,0,0,.065,2.625,5.566,5.566,0,0,0,.351.676" transform="translate(-12.292 -8.499)" fill="#ffebff"/>
        <g id="Grupo_1176510" data-name="Grupo 1176510" transform="translate(88.459 59.865)" style="mix-blend-mode: screen;isolation: isolate">
          <g id="Grupo_1176509" data-name="Grupo 1176509">
            <g id="Grupo_1176508" data-name="Grupo 1176508" clip-path="url(#clip-path-11)">
              <path id="Trazado_1040198" data-name="Trazado 1040198" d="M101.1,68.451c-.049.115.117.158.185.188a3.361,3.361,0,0,1,.683.41,4.594,4.594,0,0,1,1.355,1.717c.038.084.236-.022.2-.1-.809-1.674-2.333-2.432-2.424-2.219" transform="translate(-101.094 -68.416)" fill="#fff"/>
            </g>
          </g>
        </g>
        <path id="Trazado_1040199" data-name="Trazado 1040199" d="M102.8,74.09l-1.527.882-2.352-1.358,1.527-.882Z" transform="translate(-12.364 -9.09)" fill="#d473f1"/>
        <path id="Trazado_1040200" data-name="Trazado 1040200" d="M95.932,73.743l.537-.311a4.911,4.911,0,0,1-.321-.612,2.316,2.316,0,0,1-.115-2.04.813.813,0,0,1,.728-.358c1.04,0,2.443,1.211,3.063,2.643a3.472,3.472,0,0,1,.3,1.153l.616.355a3.717,3.717,0,0,0-.345-1.754c-.732-1.691-2.328-3.015-3.631-3.015a1.433,1.433,0,0,0-1.245.636,2.822,2.822,0,0,0,.065,2.625,5.56,5.56,0,0,0,.351.676" transform="translate(-11.902 -8.725)" fill="#ffebff"/>
        <g id="Grupo_1176513" data-name="Grupo 1176513" transform="translate(85.726 61.443)" style="mix-blend-mode: screen;isolation: isolate">
          <g id="Grupo_1176512" data-name="Grupo 1176512">
            <g id="Grupo_1176511" data-name="Grupo 1176511" clip-path="url(#clip-path-11)">
              <path id="Trazado_1040201" data-name="Trazado 1040201" d="M97.98,70.254c-.049.115.117.158.185.188a3.361,3.361,0,0,1,.683.41,4.594,4.594,0,0,1,1.355,1.717c.038.084.236-.022.2-.1-.809-1.674-2.332-2.432-2.424-2.219" transform="translate(-97.971 -70.219)" fill="#fff"/>
            </g>
          </g>
        </g>
        <path id="Trazado_1040202" data-name="Trazado 1040202" d="M99.677,75.893l-1.527.882L95.8,75.417l1.527-.882Z" transform="translate(-11.973 -9.316)" fill="#d473f1"/>
        <path id="Trazado_1040203" data-name="Trazado 1040203" d="M92.809,75.546l.537-.311a4.908,4.908,0,0,1-.321-.612,2.316,2.316,0,0,1-.115-2.04.813.813,0,0,1,.728-.358c1.04,0,2.443,1.211,3.063,2.643a3.472,3.472,0,0,1,.3,1.153l.616.355a3.714,3.714,0,0,0-.345-1.754c-.732-1.691-2.328-3.015-3.631-3.015a1.433,1.433,0,0,0-1.245.636,2.822,2.822,0,0,0,.065,2.625,5.561,5.561,0,0,0,.351.676" transform="translate(-11.511 -8.95)" fill="#ffebff"/>
        <g id="Grupo_1176516" data-name="Grupo 1176516" transform="translate(82.993 63.021)" style="mix-blend-mode: screen;isolation: isolate">
          <g id="Grupo_1176515" data-name="Grupo 1176515">
            <g id="Grupo_1176514" data-name="Grupo 1176514" clip-path="url(#clip-path-13)">
              <path id="Trazado_1040204" data-name="Trazado 1040204" d="M94.857,72.057c-.049.115.117.158.185.188a3.36,3.36,0,0,1,.683.41,4.594,4.594,0,0,1,1.355,1.717c.039.084.236-.022.2-.1-.809-1.674-2.333-2.432-2.424-2.219" transform="translate(-94.848 -72.022)" fill="#fff"/>
            </g>
          </g>
        </g>
        <path id="Trazado_1040205" data-name="Trazado 1040205" d="M96.554,77.7l-1.527.882L92.675,77.22l1.527-.882Z" transform="translate(-11.583 -9.541)" fill="#d473f1"/>
        <path id="Trazado_1040206" data-name="Trazado 1040206" d="M89.686,77.349l.537-.311a4.908,4.908,0,0,1-.321-.612,2.316,2.316,0,0,1-.115-2.04.813.813,0,0,1,.728-.358c1.04,0,2.443,1.211,3.063,2.643a3.471,3.471,0,0,1,.3,1.153l.616.355a3.716,3.716,0,0,0-.345-1.754c-.732-1.691-2.328-3.015-3.631-3.015a1.433,1.433,0,0,0-1.245.636,2.822,2.822,0,0,0,.065,2.625,5.562,5.562,0,0,0,.351.676" transform="translate(-11.121 -9.175)" fill="#ffebff"/>
        <g id="Grupo_1176519" data-name="Grupo 1176519" transform="translate(80.261 64.598)" style="mix-blend-mode: screen;isolation: isolate">
          <g id="Grupo_1176518" data-name="Grupo 1176518">
            <g id="Grupo_1176517" data-name="Grupo 1176517" clip-path="url(#clip-path-11)">
              <path id="Trazado_1040207" data-name="Trazado 1040207" d="M91.734,73.86c-.049.115.117.158.185.188a3.325,3.325,0,0,1,.683.41,4.58,4.58,0,0,1,1.355,1.717c.038.083.236-.023.2-.1-.809-1.674-2.333-2.432-2.425-2.219" transform="translate(-91.725 -73.825)" fill="#fff"/>
            </g>
          </g>
        </g>
        <path id="Trazado_1040208" data-name="Trazado 1040208" d="M93.43,79.5l-1.527.882-2.352-1.358,1.527-.882Z" transform="translate(-11.193 -9.766)" fill="#d473f1"/>
        <path id="Trazado_1040209" data-name="Trazado 1040209" d="M86.562,79.152l.538-.311a4.8,4.8,0,0,1-.322-.612,2.316,2.316,0,0,1-.115-2.04.813.813,0,0,1,.728-.358c1.04,0,2.443,1.211,3.063,2.643a3.472,3.472,0,0,1,.3,1.153l.616.355a3.7,3.7,0,0,0-.345-1.754c-.732-1.691-2.327-3.015-3.631-3.015a1.433,1.433,0,0,0-1.245.636,2.822,2.822,0,0,0,.065,2.625,5.561,5.561,0,0,0,.351.676" transform="translate(-10.731 -9.401)" fill="#ffebff"/>
        <g id="Grupo_1176522" data-name="Grupo 1176522" transform="translate(77.528 66.176)" style="mix-blend-mode: screen;isolation: isolate">
          <g id="Grupo_1176521" data-name="Grupo 1176521">
            <g id="Grupo_1176520" data-name="Grupo 1176520" clip-path="url(#clip-path-13)">
              <path id="Trazado_1040210" data-name="Trazado 1040210" d="M88.611,75.663c-.049.115.117.158.185.188a3.324,3.324,0,0,1,.683.41,4.58,4.58,0,0,1,1.355,1.717c.038.083.236-.023.2-.1-.809-1.674-2.332-2.432-2.424-2.219" transform="translate(-88.602 -75.628)" fill="#fff"/>
            </g>
          </g>
        </g>
        <path id="Trazado_1040211" data-name="Trazado 1040211" d="M90.307,81.3l-1.527.882-2.352-1.358,1.527-.882Z" transform="translate(-10.802 -9.992)" fill="#d473f1"/>
        <path id="Trazado_1040212" data-name="Trazado 1040212" d="M83.439,80.955l.537-.311a4.914,4.914,0,0,1-.321-.612,2.316,2.316,0,0,1-.115-2.04.813.813,0,0,1,.728-.358c1.04,0,2.443,1.211,3.063,2.643a3.472,3.472,0,0,1,.3,1.153l.616.355a3.716,3.716,0,0,0-.345-1.754c-.732-1.691-2.327-3.015-3.631-3.015a1.433,1.433,0,0,0-1.245.636,2.822,2.822,0,0,0,.065,2.625,5.56,5.56,0,0,0,.351.676" transform="translate(-10.34 -9.626)" fill="#ffebff"/>
        <g id="Grupo_1176525" data-name="Grupo 1176525" transform="translate(74.795 67.754)" style="mix-blend-mode: screen;isolation: isolate">
          <g id="Grupo_1176524" data-name="Grupo 1176524">
            <g id="Grupo_1176523" data-name="Grupo 1176523" clip-path="url(#clip-path-13)">
              <path id="Trazado_1040213" data-name="Trazado 1040213" d="M85.488,77.467c-.049.115.117.158.185.188a3.325,3.325,0,0,1,.683.41,4.58,4.58,0,0,1,1.355,1.717c.038.083.236-.023.2-.1-.809-1.674-2.333-2.432-2.424-2.219" transform="translate(-85.479 -77.432)" fill="#fff"/>
            </g>
          </g>
        </g>
        <path id="Trazado_1040214" data-name="Trazado 1040214" d="M87.184,83.105l-1.527.882-2.352-1.358,1.527-.882Z" transform="translate(-10.412 -10.217)" fill="#d473f1"/>
        <path id="Trazado_1040215" data-name="Trazado 1040215" d="M80.316,82.758l.537-.311a4.91,4.91,0,0,1-.321-.612,2.316,2.316,0,0,1-.115-2.04.813.813,0,0,1,.728-.358c1.04,0,2.443,1.211,3.063,2.643a3.472,3.472,0,0,1,.3,1.153l.616.355a3.716,3.716,0,0,0-.345-1.754c-.732-1.691-2.328-3.015-3.631-3.015a1.433,1.433,0,0,0-1.245.636,2.822,2.822,0,0,0,.065,2.625,5.558,5.558,0,0,0,.351.676" transform="translate(-9.95 -9.851)" fill="#ffebff"/>
        <g id="Grupo_1176528" data-name="Grupo 1176528" transform="translate(72.062 69.332)" style="mix-blend-mode: screen;isolation: isolate">
          <g id="Grupo_1176527" data-name="Grupo 1176527">
            <g id="Grupo_1176526" data-name="Grupo 1176526" clip-path="url(#clip-path-13)">
              <path id="Trazado_1040216" data-name="Trazado 1040216" d="M82.365,79.27c-.049.115.117.158.185.188a3.325,3.325,0,0,1,.683.41,4.58,4.58,0,0,1,1.355,1.717c.038.083.236-.023.2-.1-.809-1.674-2.332-2.432-2.424-2.219" transform="translate(-82.356 -79.235)" fill="#fff"/>
            </g>
          </g>
        </g>
        <path id="Trazado_1040217" data-name="Trazado 1040217" d="M84.061,84.909l-1.527.882-2.352-1.358,1.527-.882Z" transform="translate(-10.022 -10.443)" fill="#d473f1"/>
        <path id="Trazado_1040218" data-name="Trazado 1040218" d="M77.193,84.561l.537-.311a4.91,4.91,0,0,1-.321-.612,2.316,2.316,0,0,1-.115-2.04.812.812,0,0,1,.728-.357c1.04,0,2.443,1.21,3.063,2.643a3.472,3.472,0,0,1,.3,1.153l.616.355a3.716,3.716,0,0,0-.345-1.754c-.732-1.691-2.328-3.015-3.631-3.015a1.435,1.435,0,0,0-1.245.636,2.822,2.822,0,0,0,.065,2.625,5.5,5.5,0,0,0,.351.676" transform="translate(-9.56 -10.077)" fill="#ffebff"/>
        <g id="Grupo_1176531" data-name="Grupo 1176531" transform="translate(69.33 70.909)" style="mix-blend-mode: screen;isolation: isolate">
          <g id="Grupo_1176530" data-name="Grupo 1176530">
            <g id="Grupo_1176529" data-name="Grupo 1176529" clip-path="url(#clip-path-11)">
              <path id="Trazado_1040219" data-name="Trazado 1040219" d="M79.242,81.073c-.049.115.117.158.185.188a3.326,3.326,0,0,1,.683.41,4.58,4.58,0,0,1,1.355,1.717c.038.083.236-.023.2-.1-.809-1.674-2.333-2.432-2.424-2.219" transform="translate(-79.232 -81.038)" fill="#fff"/>
            </g>
          </g>
        </g>
        <path id="Trazado_1040220" data-name="Trazado 1040220" d="M80.938,86.712l-1.527.882-2.352-1.358,1.527-.882Z" transform="translate(-9.631 -10.668)" fill="#d473f1"/>
        <path id="Trazado_1040221" data-name="Trazado 1040221" d="M74.07,86.365l.538-.311a4.8,4.8,0,0,1-.322-.612,2.316,2.316,0,0,1-.115-2.04.813.813,0,0,1,.728-.358c1.04,0,2.443,1.211,3.063,2.643a3.472,3.472,0,0,1,.3,1.153l.616.355a3.716,3.716,0,0,0-.345-1.754C77.8,83.752,76.2,82.427,74.9,82.427a1.433,1.433,0,0,0-1.245.636,2.822,2.822,0,0,0,.065,2.625,5.563,5.563,0,0,0,.351.676" transform="translate(-9.169 -10.302)" fill="#ffebff"/>
        <g id="Grupo_1176534" data-name="Grupo 1176534" transform="translate(66.597 72.487)" style="mix-blend-mode: screen;isolation: isolate">
          <g id="Grupo_1176533" data-name="Grupo 1176533">
            <g id="Grupo_1176532" data-name="Grupo 1176532" clip-path="url(#clip-path-13)">
              <path id="Trazado_1040222" data-name="Trazado 1040222" d="M76.119,82.876c-.049.115.117.158.185.188a3.325,3.325,0,0,1,.683.41,4.58,4.58,0,0,1,1.355,1.717c.038.083.236-.023.2-.1-.809-1.674-2.333-2.432-2.424-2.219" transform="translate(-76.109 -82.841)" fill="#fff"/>
            </g>
          </g>
        </g>
        <path id="Trazado_1040223" data-name="Trazado 1040223" d="M77.815,88.515l-1.527.882-2.352-1.358,1.527-.882Z" transform="translate(-9.241 -10.893)" fill="#d473f1"/>
        <path id="Trazado_1040224" data-name="Trazado 1040224" d="M70.947,88.168l.537-.311a4.912,4.912,0,0,1-.321-.612,2.316,2.316,0,0,1-.115-2.04.813.813,0,0,1,.728-.358c1.04,0,2.443,1.211,3.063,2.643a3.493,3.493,0,0,1,.3,1.153l.616.355a3.716,3.716,0,0,0-.345-1.754c-.732-1.691-2.328-3.015-3.631-3.015a1.433,1.433,0,0,0-1.245.636,2.822,2.822,0,0,0,.065,2.625,5.561,5.561,0,0,0,.351.676" transform="translate(-8.779 -10.527)" fill="#ffebff"/>
        <g id="Grupo_1176537" data-name="Grupo 1176537" transform="translate(63.864 74.065)" style="mix-blend-mode: screen;isolation: isolate">
          <g id="Grupo_1176536" data-name="Grupo 1176536">
            <g id="Grupo_1176535" data-name="Grupo 1176535" clip-path="url(#clip-path-13)">
              <path id="Trazado_1040225" data-name="Trazado 1040225" d="M73,84.679c-.049.115.117.158.185.188a3.362,3.362,0,0,1,.683.41,4.594,4.594,0,0,1,1.355,1.717c.038.084.236-.022.2-.1-.809-1.674-2.332-2.432-2.424-2.219" transform="translate(-72.986 -84.644)" fill="#fff"/>
            </g>
          </g>
        </g>
        <path id="Trazado_1040226" data-name="Trazado 1040226" d="M74.692,90.318l-1.527.882-2.352-1.358,1.527-.882Z" transform="translate(-8.851 -11.119)" fill="#d473f1"/>
        <path id="Trazado_1040227" data-name="Trazado 1040227" d="M67.824,89.971l.537-.311a4.91,4.91,0,0,1-.321-.612,2.316,2.316,0,0,1-.115-2.04.813.813,0,0,1,.728-.358c1.04,0,2.443,1.211,3.063,2.643a3.472,3.472,0,0,1,.3,1.153l.616.355a3.716,3.716,0,0,0-.345-1.754c-.732-1.691-2.328-3.015-3.631-3.015a1.433,1.433,0,0,0-1.245.636,2.822,2.822,0,0,0,.065,2.625,5.561,5.561,0,0,0,.351.676" transform="translate(-8.389 -10.753)" fill="#ffebff"/>
        <g id="Grupo_1176540" data-name="Grupo 1176540" transform="translate(61.131 75.643)" style="mix-blend-mode: screen;isolation: isolate">
          <g id="Grupo_1176539" data-name="Grupo 1176539">
            <g id="Grupo_1176538" data-name="Grupo 1176538" clip-path="url(#clip-path-13)">
              <path id="Trazado_1040228" data-name="Trazado 1040228" d="M69.872,86.482c-.049.115.117.158.185.188a3.362,3.362,0,0,1,.683.41A4.593,4.593,0,0,1,72.1,88.8c.039.084.236-.022.2-.1-.809-1.674-2.333-2.432-2.424-2.219" transform="translate(-69.863 -86.447)" fill="#fff"/>
            </g>
          </g>
        </g>
        <path id="Trazado_1040229" data-name="Trazado 1040229" d="M71.569,92.121,70.042,93,67.69,91.645l1.527-.882Z" transform="translate(-8.46 -11.344)" fill="#d473f1"/>
        <path id="Trazado_1040230" data-name="Trazado 1040230" d="M64.7,91.774l.537-.311a4.908,4.908,0,0,1-.321-.612,2.316,2.316,0,0,1-.115-2.04.813.813,0,0,1,.728-.358c1.04,0,2.443,1.211,3.063,2.643a3.471,3.471,0,0,1,.3,1.153l.616.355a3.716,3.716,0,0,0-.345-1.754c-.732-1.691-2.328-3.015-3.631-3.015a1.433,1.433,0,0,0-1.245.636A2.822,2.822,0,0,0,64.35,91.1a5.562,5.562,0,0,0,.351.676" transform="translate(-7.998 -10.978)" fill="#ffebff"/>
        <g id="Grupo_1176543" data-name="Grupo 1176543" transform="translate(58.399 77.22)" style="mix-blend-mode: screen;isolation: isolate">
          <g id="Grupo_1176542" data-name="Grupo 1176542">
            <g id="Grupo_1176541" data-name="Grupo 1176541" clip-path="url(#clip-path-13)">
              <path id="Trazado_1040231" data-name="Trazado 1040231" d="M66.749,88.285c-.049.115.117.158.185.188a3.361,3.361,0,0,1,.683.41A4.594,4.594,0,0,1,68.972,90.6c.038.084.236-.022.2-.1-.809-1.674-2.332-2.432-2.424-2.219" transform="translate(-66.74 -88.25)" fill="#fff"/>
            </g>
          </g>
        </g>
        <path id="Trazado_1040232" data-name="Trazado 1040232" d="M68.446,93.924l-1.527.882-2.352-1.358,1.527-.882Z" transform="translate(-8.07 -11.569)" fill="#d473f1"/>
        <path id="Trazado_1040233" data-name="Trazado 1040233" d="M61.578,93.577l.538-.311a4.8,4.8,0,0,1-.322-.612,2.316,2.316,0,0,1-.115-2.04.813.813,0,0,1,.728-.358c1.04,0,2.443,1.211,3.063,2.643a3.5,3.5,0,0,1,.3,1.153l.615.355a3.705,3.705,0,0,0-.345-1.754c-.732-1.691-2.328-3.015-3.631-3.015a1.431,1.431,0,0,0-1.244.636,2.819,2.819,0,0,0,.064,2.625,5.563,5.563,0,0,0,.351.676" transform="translate(-7.608 -11.203)" fill="#ffebff"/>
        <g id="Grupo_1176546" data-name="Grupo 1176546" transform="translate(55.666 78.798)" style="mix-blend-mode: screen;isolation: isolate">
          <g id="Grupo_1176545" data-name="Grupo 1176545">
            <g id="Grupo_1176544" data-name="Grupo 1176544" clip-path="url(#clip-path-13)">
              <path id="Trazado_1040234" data-name="Trazado 1040234" d="M63.626,90.088c-.049.115.117.158.185.188a3.361,3.361,0,0,1,.683.41A4.593,4.593,0,0,1,65.849,92.4c.039.084.236-.022.2-.1-.809-1.674-2.332-2.432-2.424-2.219" transform="translate(-63.617 -90.053)" fill="#fff"/>
            </g>
          </g>
        </g>
        <path id="Trazado_1040235" data-name="Trazado 1040235" d="M65.323,95.727l-1.527.882-2.352-1.358,1.527-.882Z" transform="translate(-7.68 -11.795)" fill="#d473f1"/>
        <path id="Trazado_1040236" data-name="Trazado 1040236" d="M58.107,94.71A4.693,4.693,0,0,0,58.8,95.8l.115.14v-.826l.078-.045a4.97,4.97,0,0,1-.321-.612,2.313,2.313,0,0,1-.115-2.04.813.813,0,0,1,.728-.358c1.04,0,2.443,1.211,3.063,2.643a3.494,3.494,0,0,1,.3,1.152l.616.356a3.705,3.705,0,0,0-.346-1.754c-.732-1.691-2.327-3.016-3.63-3.016a1.434,1.434,0,0,0-1.245.637A2.819,2.819,0,0,0,58.1,94.7l0,.007" transform="translate(-7.218 -11.429)" fill="#ffebff"/>
        <g id="Grupo_1176549" data-name="Grupo 1176549" transform="translate(52.933 80.376)" style="mix-blend-mode: screen;isolation: isolate">
          <g id="Grupo_1176548" data-name="Grupo 1176548">
            <g id="Grupo_1176547" data-name="Grupo 1176547" clip-path="url(#clip-path-13)">
              <path id="Trazado_1040237" data-name="Trazado 1040237" d="M60.5,91.891c-.049.115.117.158.185.188a3.4,3.4,0,0,1,.683.41,4.594,4.594,0,0,1,1.355,1.717c.039.084.236-.021.2-.094-.809-1.674-2.333-2.432-2.424-2.22" transform="translate(-60.494 -91.856)" fill="#fff"/>
            </g>
          </g>
        </g>
        <path id="Trazado_1040238" data-name="Trazado 1040238" d="M92.3,98.528a1.658,1.658,0,0,0,.705.126,1.488,1.488,0,0,0,.68-.08c.035-.02.04-.064.017-.131-.018-.037-.047-.091-.091-.163s-.4-.451-1.059-1.135a3.2,3.2,0,0,0,1.173-1.793A1.278,1.278,0,0,0,93,93.96a2.841,2.841,0,0,0-1.629-.372,4.288,4.288,0,0,0-1.865.619,3.318,3.318,0,0,0-.923.785q-.383.473-.131.619a2.109,2.109,0,0,0,.724.136,12.175,12.175,0,0,1,2.51,2.194,3.286,3.286,0,0,0,.619.588m-2.144-3.259a1.516,1.516,0,0,1,.544-.526,1.647,1.647,0,0,1,.711-.224,1.226,1.226,0,0,1,.706.172.605.605,0,0,1,.274.671,2.208,2.208,0,0,1-.536,1.049,6.673,6.673,0,0,0-1.185-.986,1.449,1.449,0,0,0-.514-.156" transform="translate(-11.042 -11.696)" fill="#bfacbf"/>
        <path id="Trazado_1040239" data-name="Trazado 1040239" d="M92.2,91.512c-.157.091-.149.186.025.287a16.724,16.724,0,0,1,2.322,1.617q1.1.912,1.773,1.577a6.833,6.833,0,0,0,.85.767,1.673,1.673,0,0,0,.693.118,1.483,1.483,0,0,0,.679-.08q.253-.146-1.856-2.108A17.934,17.934,0,0,0,95.3,92.548a14.131,14.131,0,0,0-1.325-.915,2.141,2.141,0,0,0-.944-.2,1.821,1.821,0,0,0-.832.083" transform="translate(-11.51 -11.427)" fill="#bfacbf"/>
        <path id="Trazado_1040240" data-name="Trazado 1040240" d="M100.229,90.5a2.776,2.776,0,0,0-1.277.264,1.129,1.129,0,0,0-.54.754,1.852,1.852,0,0,0,.048,1.029,3.727,3.727,0,0,0,.487.97,2.2,2.2,0,0,0,.676.662,2.391,2.391,0,0,0,1.167.2,2.532,2.532,0,0,0,1.185-.226,1.326,1.326,0,0,0,.557-1.328,3.567,3.567,0,0,0,.85.224,1,1,0,0,0,.571-.038q.158-.091,0-.252c-.064-.064-.12-.118-.17-.164s-.132-.113-.249-.2-.234-.185-.353-.284a5.309,5.309,0,0,1-.444-.428,2.237,2.237,0,0,0-.371-.34.963.963,0,0,0-.4-.071,1.34,1.34,0,0,0-.536-.591,2.464,2.464,0,0,0-1.2-.176m.71,1.1a1.409,1.409,0,0,1,.471.815,1.247,1.247,0,0,1-.079.75.949.949,0,0,1-.361.43.375.375,0,0,1-.4.018,1.875,1.875,0,0,1-.718-1.17q-.257-.9.265-1.2.218-.126.837.2c-.075.051-.081.1-.018.161" transform="translate(-12.294 -11.311)" fill="#bfacbf"/>
        <path id="Trazado_1040241" data-name="Trazado 1040241" d="M102.7,88.675a1.715,1.715,0,0,0-.819.181.061.061,0,0,0-.035.07,3.881,3.881,0,0,0,.967.735,7.6,7.6,0,0,1,1.368,1.076q.122.13.266.319c.1.126.177.227.244.3a.876.876,0,0,0,.218.181,1.828,1.828,0,0,0,.641.083,1.524,1.524,0,0,0,.684-.078.351.351,0,0,0,.143-.361,1.556,1.556,0,0,0-.1-.475c-.055-.139-.113-.277-.174-.417s-.121-.27-.179-.395-.1-.218-.13-.282-.069-.151-.118-.264-.086-.2-.109-.264-.05-.141-.082-.234a1.086,1.086,0,0,1-.057-.224c-.005-.057-.01-.128-.012-.214a.208.208,0,0,1,.116-.2c.082-.047.249,0,.5.148a5.515,5.515,0,0,1,1.05.923,5.993,5.993,0,0,0,.888.83.606.606,0,0,0,.628.06q.539-.312-.645-1.6a5.513,5.513,0,0,0-1.264-1.012,2.587,2.587,0,0,0-1.167-.291,2.064,2.064,0,0,0-1.132.2q-.567.327.444,2.49a7.148,7.148,0,0,0-1.394-1.178,1.522,1.522,0,0,0-.74-.115" transform="translate(-12.729 -10.908)" fill="#bfacbf"/>
        <path id="Trazado_1040242" data-name="Trazado 1040242" d="M91.862,88.39c-.312.15-.416.675.13.411,3.218-1.551,10.6-5.674,15.566-4.6,2.569.555,2.956,2.378,2.6,3.741-.706,2.677-3.751,5.1-6.983,6.979-3.533,2.051-13.179,6.274-18.19,3.325-2.583-1.521-1.4-3.973-.067-5.679,2.074-2.65,5.732-4.857,9.75-6.561.272-.116.537-.7.054-.5-5.4,2.292-14.78,7.824-11.486,12.283,3.441,4.66,15.44.041,19.179-1.964,3.89-2.085,12.833-8.49,7.03-11.674-4.757-2.609-14.372,2.692-17.58,4.238" transform="translate(-10.317 -10.429)" fill="#bfacbf"/>
        <path id="Trazado_1040243" data-name="Trazado 1040243" d="M111.283,100.046l8.973-5.181a.4.4,0,0,0,0-.756,1.444,1.444,0,0,0-1.309,0l-8.974,5.181a.4.4,0,0,0,0,.756,1.446,1.446,0,0,0,1.31,0" transform="translate(-13.711 -11.743)" fill="#bfacbf"/>
        <path id="Trazado_1040244" data-name="Trazado 1040244" d="M104.647,102.785l-3.89,2.246a.4.4,0,0,0,0,.756,1.451,1.451,0,0,0,1.31,0l3.89-2.246a.4.4,0,0,0,0-.756,1.446,1.446,0,0,0-1.31,0" transform="translate(-12.559 -12.827)" fill="#bfacbf"/>
        <path id="Trazado_1040245" data-name="Trazado 1040245" d="M95.721,109.618l1.851-1.068a.4.4,0,0,0,0-.756,1.444,1.444,0,0,0-1.309,0l-1.851,1.068a.4.4,0,0,0,0,.756,1.444,1.444,0,0,0,1.309,0" transform="translate(-11.766 -13.453)" fill="#bfacbf"/>
        <path id="Trazado_1040246" data-name="Trazado 1040246" d="M117.077,100.162a1.446,1.446,0,0,0,1.31,0l5.656-3.266a.4.4,0,0,0,0-.757,1.449,1.449,0,0,0-1.31,0l-5.657,3.266a.4.4,0,0,0,0,.756" transform="translate(-14.599 -11.996)" fill="#bfacbf"/>
        <path id="Trazado_1040247" data-name="Trazado 1040247" d="M113.823,103.1a.4.4,0,0,0,0-.756,1.446,1.446,0,0,0-1.31,0l-2.04,1.178a.4.4,0,0,0,0,.756,1.446,1.446,0,0,0,1.31,0Z" transform="translate(-13.774 -12.771)" fill="#bfacbf"/>
        <path id="Trazado_1040248" data-name="Trazado 1040248" d="M99.137,111.124l7.5-4.328a.4.4,0,0,0,0-.756,1.444,1.444,0,0,0-1.309,0l-7.5,4.328a.4.4,0,0,0,0,.756,1.444,1.444,0,0,0,1.309,0" transform="translate(-12.193 -13.234)" fill="#bfacbf"/>
        <path id="Trazado_1040249" data-name="Trazado 1040249" d="M116.806,103.582a.4.4,0,0,0,0,.756,1.444,1.444,0,0,0,1.309,0l4.745-2.74a.4.4,0,0,0,0-.756,1.444,1.444,0,0,0-1.309,0Z" transform="translate(-14.565 -12.584)" fill="#bfacbf"/>
        <path id="Trazado_1040250" data-name="Trazado 1040250" d="M111.756,106.729l-1.945,1.124a.4.4,0,0,0,0,.756,1.449,1.449,0,0,0,1.309,0l1.945-1.124a.4.4,0,0,0,0-.756,1.444,1.444,0,0,0-1.309,0" transform="translate(-13.691 -13.32)" fill="#bfacbf"/>
        <path id="Trazado_1040251" data-name="Trazado 1040251" d="M105.134,110.392l-3.891,2.246a.4.4,0,0,0,0,.756,1.446,1.446,0,0,0,1.31,0l3.89-2.246a.4.4,0,0,0,0-.756,1.444,1.444,0,0,0-1.309,0" transform="translate(-12.62 -13.778)" fill="#bfacbf"/>
        <path id="Trazado_1040252" data-name="Trazado 1040252" d="M112.95,109.985l-1.944,1.123a.4.4,0,0,0,0,.756,1.444,1.444,0,0,0,1.309,0l1.945-1.123a.4.4,0,0,0,0-.756,1.446,1.446,0,0,0-1.31,0" transform="translate(-13.84 -13.727)" fill="#bfacbf"/>
        <path id="Trazado_1040253" data-name="Trazado 1040253" d="M106.511,113.711l-1.851,1.068a.4.4,0,0,0,0,.756,1.444,1.444,0,0,0,1.309,0l1.851-1.068a.4.4,0,0,0,0-.756,1.444,1.444,0,0,0-1.309,0" transform="translate(-13.047 -14.192)" fill="#bfacbf"/>
        <path id="Trazado_1040254" data-name="Trazado 1040254" d="M124.866,108.056l6.928-4a.4.4,0,0,0,0-.756,1.444,1.444,0,0,0-1.309,0l-6.928,4a.4.4,0,0,0,0,.756,1.444,1.444,0,0,0,1.309,0" transform="translate(-15.409 -12.891)" fill="#bfacbf"/>
        <path id="Trazado_1040255" data-name="Trazado 1040255" d="M118.23,110.627l-3.89,2.246a.4.4,0,0,0,0,.756,1.451,1.451,0,0,0,1.31,0l3.889-2.246a.4.4,0,0,0,0-.756,1.444,1.444,0,0,0-1.309,0" transform="translate(-14.257 -13.807)" fill="#bfacbf"/>
        <path id="Trazado_1040256" data-name="Trazado 1040256" d="M109.3,117.46l1.851-1.068a.4.4,0,0,0,0-.756,1.444,1.444,0,0,0-1.309,0l-1.852,1.068a.4.4,0,0,0,0,.756,1.446,1.446,0,0,0,1.31,0" transform="translate(-13.464 -14.433)" fill="#bfacbf"/>
        <path id="Trazado_1040257" data-name="Trazado 1040257" d="M130.66,108.163a1.446,1.446,0,0,0,1.31,0l3.727-2.152a.4.4,0,0,0,0-.756,1.449,1.449,0,0,0-1.31,0l-3.727,2.152a.4.4,0,0,0,0,.756" transform="translate(-16.297 -13.136)" fill="#bfacbf"/>
        <path id="Trazado_1040258" data-name="Trazado 1040258" d="M127.406,110.938a.4.4,0,0,0,0-.756,1.444,1.444,0,0,0-1.309,0l-2.041,1.178a.4.4,0,0,0,0,.756,1.446,1.446,0,0,0,1.31,0Z" transform="translate(-15.471 -13.751)" fill="#bfacbf"/>
        <path id="Trazado_1040259" data-name="Trazado 1040259" d="M112.72,118.967l7.5-4.327a.4.4,0,0,0,0-.757,1.449,1.449,0,0,0-1.309,0l-7.5,4.329a.4.4,0,0,0,0,.755,1.446,1.446,0,0,0,1.31,0" transform="translate(-13.891 -14.214)" fill="#bfacbf"/>
        <path id="Trazado_1040260" data-name="Trazado 1040260" d="M130.389,111.425a.4.4,0,0,0,0,.756,1.446,1.446,0,0,0,1.31,0l4.744-2.74a.4.4,0,0,0,0-.756,1.444,1.444,0,0,0-1.309,0Z" transform="translate(-16.263 -13.564)" fill="#bfacbf"/>
        <path id="Trazado_1040261" data-name="Trazado 1040261" d="M118.717,118.235l-3.891,2.246a.4.4,0,0,0,0,.756,1.446,1.446,0,0,0,1.31,0l3.89-2.246a.4.4,0,0,0,0-.756,1.444,1.444,0,0,0-1.309,0" transform="translate(-14.318 -14.758)" fill="#bfacbf"/>
        <path id="Trazado_1040262" data-name="Trazado 1040262" d="M133.514,113.789l-2.04,1.178a.4.4,0,0,0,0,.756,1.444,1.444,0,0,0,1.309,0l2.04-1.178a.4.4,0,0,0,0-.756,1.444,1.444,0,0,0-1.309,0" transform="translate(-16.398 -14.202)" fill="#bfacbf"/>
        <path id="Trazado_1040263" data-name="Trazado 1040263" d="M126.533,117.828l-1.944,1.123a.4.4,0,0,0,0,.756,1.444,1.444,0,0,0,1.309,0l1.944-1.123a.4.4,0,0,0,0-.756,1.444,1.444,0,0,0-1.309,0" transform="translate(-15.538 -14.707)" fill="#bfacbf"/>
        <path id="Trazado_1040264" data-name="Trazado 1040264" d="M120.094,121.553l-1.851,1.068a.4.4,0,0,0,0,.756,1.444,1.444,0,0,0,1.309,0l1.851-1.068a.4.4,0,0,0,0-.756,1.444,1.444,0,0,0-1.309,0" transform="translate(-14.745 -15.173)" fill="#bfacbf"/>
        <path id="Trazado_1040265" data-name="Trazado 1040265" d="M138.45,115.9l6.928-4a.4.4,0,0,0,0-.756,1.444,1.444,0,0,0-1.309,0l-6.928,4a.4.4,0,0,0,0,.756,1.444,1.444,0,0,0,1.309,0" transform="translate(-17.107 -13.872)" fill="#bfacbf"/>
        <path id="Trazado_1040266" data-name="Trazado 1040266" d="M131.813,118.469l-3.89,2.246a.4.4,0,0,0,0,.756,1.451,1.451,0,0,0,1.31,0l3.889-2.246a.4.4,0,0,0,0-.756,1.444,1.444,0,0,0-1.309,0" transform="translate(-15.954 -14.787)" fill="#bfacbf"/>
        <path id="Trazado_1040267" data-name="Trazado 1040267" d="M122.887,125.3l1.851-1.068a.4.4,0,0,0,0-.756,1.444,1.444,0,0,0-1.309,0l-1.851,1.068a.4.4,0,0,0,0,.756,1.444,1.444,0,0,0,1.309,0" transform="translate(-15.161 -15.413)" fill="#bfacbf"/>
        <path id="Trazado_1040268" data-name="Trazado 1040268" d="M126.3,126.809l7.5-4.328a.4.4,0,0,0,0-.756,1.444,1.444,0,0,0-1.309,0l-7.5,4.328a.4.4,0,0,0,0,.756,1.446,1.446,0,0,0,1.31,0" transform="translate(-15.588 -15.194)" fill="#bfacbf"/>
        <path id="Trazado_1040269" data-name="Trazado 1040269" d="M124.055,91.3l3.149,1.818,3.148-1.818L127.2,89.484Zm5.653,0-2.5,1.446L124.7,91.3l2.5-1.446Z" transform="translate(-15.505 -11.184)" fill="#bfacbf"/>
        <path id="Trazado_1040270" data-name="Trazado 1040270" d="M131.267,95.465l3.149,1.818,3.148-1.818-3.148-1.818Zm5.654,0-2.5,1.446-2.5-1.446,2.5-1.446Z" transform="translate(-16.406 -11.704)" fill="#bfacbf"/>
        <path id="Trazado_1040271" data-name="Trazado 1040271" d="M138.478,99.628l3.149,1.818,3.148-1.818-3.148-1.818Zm5.653,0-2.5,1.446-2.5-1.446,2.5-1.446Z" transform="translate(-17.308 -12.225)" fill="#bfacbf"/>
        <path id="Trazado_1040272" data-name="Trazado 1040272" d="M145.689,103.792l3.149,1.818,3.148-1.818-3.148-1.818Zm5.653,0-2.5,1.446-2.5-1.446,2.5-1.446Z" transform="translate(-18.209 -12.745)" fill="#bfacbf"/>
        <path id="Trazado_1040273" data-name="Trazado 1040273" d="M152.9,107.955l3.149,1.818,3.148-1.818-3.148-1.818Zm5.654,0-2.5,1.446-2.5-1.446,2.5-1.446Z" transform="translate(-19.11 -13.265)" fill="#bfacbf"/>
      </g>
    </g>
    <g id="Grupo_1176559" data-name="Grupo 1176559" transform="translate(51.697 61.08)">
      <g id="Grupo_1176558" data-name="Grupo 1176558" clip-path="url(#clip-path-25)">
        <g id="Grupo_1176554" data-name="Grupo 1176554" transform="translate(31.766 1.16)" opacity="0.2" style="mix-blend-mode: screen;isolation: isolate">
          <g id="Grupo_1176553" data-name="Grupo 1176553">
            <g id="Grupo_1176552" data-name="Grupo 1176552" clip-path="url(#clip-path-26)">
              <path id="Trazado_1040274" data-name="Trazado 1040274" d="M102.614,95.376c-9.6-5.541-9.647-14.552-.116-20.09s25.092-5.541,34.687,0,9.644,14.55.11,20.09-25.088,5.538-34.681,0" transform="translate(-95.384 -71.13)" fill="#db4dff"/>
            </g>
          </g>
        </g>
        <g id="Grupo_1176557" data-name="Grupo 1176557" transform="translate(30.687 0.535)" opacity="0.3" style="mix-blend-mode: multiply;isolation: isolate">
          <g id="Grupo_1176556" data-name="Grupo 1176556">
            <g id="Grupo_1176555" data-name="Grupo 1176555" clip-path="url(#clip-path-10)">
              <path id="Trazado_1040275" data-name="Trazado 1040275" d="M171.768,111.675,147,97.375a2,2,0,0,0-1.809,0l-.146.084-5.2-3c7.948-5.818,7.255-14.329-2.056-19.705-10.017-5.784-26.264-5.784-36.216,0s-9.9,15.192.122,20.976c9.28,5.357,23.9,5.74,33.914,1.169l5.2,3-.146.084a.551.551,0,0,0,0,1.044l24.767,14.3a2,2,0,0,0,1.809,0l4.522-2.61a.551.551,0,0,0,0-1.045M102.46,95.287c-9.6-5.541-9.647-14.552-.116-20.09s25.092-5.541,34.687,0,9.644,14.55.11,20.09-25.088,5.538-34.681,0" transform="translate(-94.151 -70.416)" fill="#3a0155"/>
            </g>
          </g>
        </g>
      </g>
    </g>
    <g id="Grupo_1176575" data-name="Grupo 1176575">
      <g id="Grupo_1176574" data-name="Grupo 1176574" clip-path="url(#clip-path)">
        <g id="Grupo_1176573" data-name="Grupo 1176573" transform="translate(82.369 43.121)" style="isolation: isolate">
          <g id="Grupo_1176572" data-name="Grupo 1176572">
            <g id="Grupo_1176571" data-name="Grupo 1176571" clip-path="url(#clip-path-29)">
              <g id="Grupo_1176561" data-name="Grupo 1176561" transform="translate(1.079 0.625)">
                <g id="Grupo_1176560" data-name="Grupo 1176560" clip-path="url(#clip-path-30)">
                  <rect id="Rectángulo_414121" data-name="Rectángulo 414121" width="49.054" height="20.942" transform="translate(0 -1.385)" fill="url(#linear-gradient-2)"/>
                </g>
              </g>
              <path id="Trazado_1040278" data-name="Trazado 1040278" d="M102.5,57.522c9.533-5.541,25.092-5.541,34.688,0,4.427,2.556,6.817,5.852,7.175,9.206.414-3.938-1.976-7.96-7.175-10.962-9.6-5.54-25.155-5.54-34.688,0-5.131,2.981-7.48,6.969-7.062,10.881.35-3.325,2.7-6.59,7.062-9.126" transform="translate(-94.291 -49.571)" fill="#6c0099"/>
              <g id="Grupo_1176566" data-name="Grupo 1176566" transform="translate(1.094 3.795)" opacity="0.2" style="mix-blend-mode: screen;isolation: isolate">
                <g id="Grupo_1176565" data-name="Grupo 1176565">
                  <g id="Grupo_1176564" data-name="Grupo 1176564" clip-path="url(#clip-path-31)">
                    <g id="Grupo_1176563" data-name="Grupo 1176563" transform="translate(0 0)">
                      <g id="Grupo_1176562" data-name="Grupo 1176562" clip-path="url(#clip-path-32)">
                        <rect id="Rectángulo_414122" data-name="Rectángulo 414122" width="53.862" height="31.169" transform="translate(-2.416 -1.385)" fill="url(#linear-gradient-3)"/>
                      </g>
                    </g>
                  </g>
                </g>
              </g>
              <g id="Grupo_1176568" data-name="Grupo 1176568" transform="translate(0 14.751)">
                <g id="Grupo_1176567" data-name="Grupo 1176567" clip-path="url(#clip-path-33)">
                  <rect id="Rectángulo_414124" data-name="Rectángulo 414124" width="51.212" height="21.632" transform="translate(-0.01)" fill="url(#linear-gradient-4)"/>
                </g>
              </g>
              <g id="Grupo_1176570" data-name="Grupo 1176570" transform="translate(0.015 0)">
                <g id="Grupo_1176569" data-name="Grupo 1176569" clip-path="url(#clip-path-34)">
                  <rect id="Rectángulo_414125" data-name="Rectángulo 414125" width="56.23" height="32.54" transform="translate(-2.522 -1.446)" fill="url(#linear-gradient-5)"/>
                </g>
              </g>
            </g>
          </g>
        </g>
        <path id="Trazado_1040282" data-name="Trazado 1040282" d="M149.419,86.5c0,1.312.921,1.844,2.057,1.187a4.545,4.545,0,0,0,2.056-3.562c0-1.312-.921-1.844-2.056-1.187a4.546,4.546,0,0,0-2.057,3.562" transform="translate(-18.675 -10.33)" fill="#8712ba"/>
      </g>
    </g>
    <g id="Grupo_1176577" data-name="Grupo 1176577" transform="translate(124.088 68.48)">
      <g id="Grupo_1176576" data-name="Grupo 1176576" clip-path="url(#clip-path-35)">
        <rect id="Rectángulo_414128" data-name="Rectángulo 414128" width="12.893" height="13.321" transform="matrix(0.5, -0.866, 0.866, 0.5, -3.901, 6.758)" fill="url(#linear-gradient-6)"/>
      </g>
    </g>
    <g id="Grupo_1176617" data-name="Grupo 1176617">
      <g id="Grupo_1176616" data-name="Grupo 1176616" clip-path="url(#clip-path)">
        <path id="Trazado_1040284" data-name="Trazado 1040284" d="M177.033,103.96c0,2.233,1.568,3.139,3.5,2.022a7.74,7.74,0,0,0,3.5-6.066c0-1.468-.677-2.362-1.69-2.486a2.969,2.969,0,0,0-1.811.464,7.741,7.741,0,0,0-3.5,6.066" transform="translate(-22.126 -12.176)" fill="#442a44"/>
        <path id="Trazado_1040285" data-name="Trazado 1040285" d="M179.46,95.6,154.437,81.152a2.449,2.449,0,0,0-2.5.232,7.74,7.74,0,0,0-3.5,6.066,2.475,2.475,0,0,0,1,2.254l25.022,14.447a2.477,2.477,0,0,1-1-2.254,7.741,7.741,0,0,1,3.5-6.066,2.445,2.445,0,0,1,2.5-.232" transform="translate(-18.552 -10.112)" fill="#563156"/>
        <g id="Grupo_1176582" data-name="Grupo 1176582" transform="translate(154.871 85.168)" style="mix-blend-mode: screen;isolation: isolate">
          <g id="Grupo_1176581" data-name="Grupo 1176581">
            <g id="Grupo_1176580" data-name="Grupo 1176580" clip-path="url(#clip-path-37)">
              <g id="Grupo_1176579" data-name="Grupo 1176579" transform="translate(0 0)">
                <g id="Grupo_1176578" data-name="Grupo 1176578" clip-path="url(#clip-path-38)">
                  <rect id="Rectángulo_414129" data-name="Rectángulo 414129" width="5.752" height="7.225" transform="translate(-0.404 -0.608)" fill="url(#radial-gradient-3)"/>
                </g>
              </g>
            </g>
          </g>
        </g>
        <g id="Grupo_1176602" data-name="Grupo 1176602" transform="translate(151.701 77.6)" style="mix-blend-mode: color-dodge;isolation: isolate">
          <g id="Grupo_1176601" data-name="Grupo 1176601">
            <g id="Grupo_1176600" data-name="Grupo 1176600" clip-path="url(#clip-path-39)">
              <g id="Grupo_1176599" data-name="Grupo 1176599" transform="translate(0 0)">
                <g id="Grupo_1176598" data-name="Grupo 1176598" clip-path="url(#clip-path-40)">
                  <rect id="Rectángulo_414137" data-name="Rectángulo 414137" width="23.722" height="23.722" transform="translate(-9.133 7.641) rotate(-45)" fill="url(#radial-gradient-4)"/>
                </g>
              </g>
            </g>
          </g>
        </g>
        <g id="Grupo_1176605" data-name="Grupo 1176605" transform="translate(141.7 95.941)" opacity="0.6" style="mix-blend-mode: multiply;isolation: isolate">
          <g id="Grupo_1176604" data-name="Grupo 1176604">
            <g id="Grupo_1176603" data-name="Grupo 1176603" clip-path="url(#clip-path-41)">
              <path id="Trazado_1040291" data-name="Trazado 1040291" d="M161.94,113.3v3.466l6.333-3.656v-3.467Z" transform="translate(-161.94 -109.645)" fill="#3a0155"/>
            </g>
          </g>
        </g>
        <path id="Trazado_1040294" data-name="Trazado 1040294" d="M119.155,141.326,73.018,114.588l0-1,46.137,26.738Z" transform="translate(-9.126 -14.197)" fill="#ce7819"/>
        <rect id="Rectángulo_414144" data-name="Rectángulo 414144" width="1.227" height="53.325" transform="translate(63.889 99.389) rotate(-59.906)" fill="#ef9830"/>
        <path id="Trazado_1040295" data-name="Trazado 1040295" d="M119.854,139.038,73.717,112.3l.871-.5,46.137,26.738Z" transform="translate(-9.214 -13.973)" fill="#ffac48"/>
        <path id="Trazado_1040296" data-name="Trazado 1040296" d="M127.156,142.355a3.616,3.616,0,0,1,1.138,1.071c.85,1.091,2.109,2.737,2.109,2.737l-.265.23s-1.835-.468-3.039-.863a6.832,6.832,0,0,1-1.425-.608l-.5-1.291.571-1.087Z" transform="translate(-15.645 -17.792)" fill="#ffd671"/>
        <path id="Trazado_1040297" data-name="Trazado 1040297" d="M130.771,146.231c-.545-.239-.688.335-.393.55l1.363.539Z" transform="translate(-16.276 -18.269)" fill="#442a44"/>
        <path id="Trazado_1040298" data-name="Trazado 1040298" d="M64.879,123.485a.19.19,0,0,0-.116-.139.187.187,0,0,0-.179.025l-.423.313L30.918,104.491V76.86l.43-.248a.187.187,0,0,0,.047-.285l-.537-.621a.188.188,0,0,0-.171-.061.185.185,0,0,0-.143.11L30.006,77a.187.187,0,0,0,.265.237l.272-.158V104.6a.19.19,0,0,0,.094.163l33.2,19.165-.338.25a.188.188,0,0,0,.018.312.19.19,0,0,0,.094.025H64.85a.187.187,0,0,0,.184-.223Z" transform="translate(-3.748 -9.454)" fill="#ea82f5"/>
      </g>
    </g>
    <g id="Grupo_1176619" data-name="Grupo 1176619" transform="translate(28.192 74.286)">
      <g id="Grupo_1176618" data-name="Grupo 1176618" clip-path="url(#clip-path-42)">
        <rect id="Rectángulo_414146" data-name="Rectángulo 414146" width="7.962" height="21.586" transform="translate(0 0)" fill="url(#linear-gradient-7)"/>
      </g>
    </g>
    <g id="Grupo_1176621" data-name="Grupo 1176621">
      <g id="Grupo_1176620" data-name="Grupo 1176620" clip-path="url(#clip-path)">
        <path id="Trazado_1040300" data-name="Trazado 1040300" d="M33.4,82.936a5.194,5.194,0,0,1,2.186-.644,5.039,5.039,0,0,1,4.144,1.225c.79.9.5,1.949-.743,2.665a5.8,5.8,0,0,1-3.427.645,4.31,4.31,0,0,1-2.9-1.226c-.79-.9-.5-1.948.744-2.665" transform="translate(-4.027 -10.281)" fill="#ffacf6"/>
      </g>
    </g>
    <g id="Grupo_1176623" data-name="Grupo 1176623" transform="translate(35.432 81.901)">
      <g id="Grupo_1176622" data-name="Grupo 1176622" clip-path="url(#clip-path-44)">
        <rect id="Rectángulo_414148" data-name="Rectángulo 414148" width="7.963" height="18.151" fill="url(#linear-gradient-8)"/>
      </g>
    </g>
    <g id="Grupo_1176625" data-name="Grupo 1176625">
      <g id="Grupo_1176624" data-name="Grupo 1176624" clip-path="url(#clip-path)">
        <path id="Trazado_1040302" data-name="Trazado 1040302" d="M41.677,91.638a5.186,5.186,0,0,1,2.186-.644,5.04,5.04,0,0,1,4.144,1.225c.79.9.5,1.949-.745,2.665a5.8,5.8,0,0,1-3.427.645,4.308,4.308,0,0,1-2.9-1.226c-.79-.9-.5-1.948.744-2.665" transform="translate(-5.061 -11.369)" fill="#ffacf6"/>
      </g>
    </g>
    <g id="Grupo_1176627" data-name="Grupo 1176627" transform="translate(42.672 89.399)">
      <g id="Grupo_1176626" data-name="Grupo 1176626" clip-path="url(#clip-path-46)">
        <rect id="Rectángulo_414150" data-name="Rectángulo 414150" width="7.962" height="14.832" fill="url(#linear-gradient-9)"/>
      </g>
    </g>
    <g id="Grupo_1176629" data-name="Grupo 1176629">
      <g id="Grupo_1176628" data-name="Grupo 1176628" clip-path="url(#clip-path)">
        <path id="Trazado_1040304" data-name="Trazado 1040304" d="M49.951,100.209a5.19,5.19,0,0,1,2.186-.644,5.039,5.039,0,0,1,4.144,1.225c.79.9.5,1.949-.744,2.665a5.8,5.8,0,0,1-3.427.645,4.31,4.31,0,0,1-2.9-1.226c-.79-.9-.5-1.948.744-2.665" transform="translate(-6.095 -12.44)" fill="#ffacf6"/>
      </g>
    </g>
    <g id="Grupo_1176631" data-name="Grupo 1176631" transform="translate(50.026 98.099)">
      <g id="Grupo_1176630" data-name="Grupo 1176630" clip-path="url(#clip-path-48)">
        <rect id="Rectángulo_414152" data-name="Rectángulo 414152" width="7.962" height="10.379" fill="url(#linear-gradient-10)"/>
      </g>
    </g>
    <g id="Grupo_1176633" data-name="Grupo 1176633">
      <g id="Grupo_1176632" data-name="Grupo 1176632" clip-path="url(#clip-path)">
        <path id="Trazado_1040306" data-name="Trazado 1040306" d="M58.354,110.15a5.193,5.193,0,0,1,2.186-.644,5.039,5.039,0,0,1,4.144,1.225c.79.9.5,1.949-.744,2.665a5.8,5.8,0,0,1-3.427.645,4.31,4.31,0,0,1-2.9-1.226c-.79-.9-.5-1.948.744-2.665" transform="translate(-7.145 -13.683)" fill="#ffacf6"/>
      </g>
    </g>
    <g id="Grupo_1176635" data-name="Grupo 1176635" transform="translate(57.378 106.307)">
      <g id="Grupo_1176634" data-name="Grupo 1176634" clip-path="url(#clip-path-50)">
        <rect id="Rectángulo_414154" data-name="Rectángulo 414154" width="7.962" height="6.416" fill="url(#linear-gradient-11)"/>
      </g>
    </g>
    <g id="Grupo_1176637" data-name="Grupo 1176637">
      <g id="Grupo_1176636" data-name="Grupo 1176636" clip-path="url(#clip-path)">
        <path id="Trazado_1040308" data-name="Trazado 1040308" d="M66.757,119.53a5.194,5.194,0,0,1,2.186-.644,5.039,5.039,0,0,1,4.144,1.225c.79.9.5,1.949-.743,2.665a5.8,5.8,0,0,1-3.427.645,4.31,4.31,0,0,1-2.9-1.226c-.79-.9-.5-1.948.744-2.665" transform="translate(-8.196 -14.855)" fill="#ffacf6"/>
      </g>
    </g>
    <g id="Grupo_1176639" data-name="Grupo 1176639" transform="translate(75.392 112.965)">
      <g id="Grupo_1176638" data-name="Grupo 1176638" clip-path="url(#clip-path-52)">
        <rect id="Rectángulo_414156" data-name="Rectángulo 414156" width="22.412" height="20.878" transform="matrix(0.866, -0.5, 0.5, 0.866, -5.954, 3.437)" fill="url(#linear-gradient-12)"/>
      </g>
    </g>
    <g id="Grupo_1176664" data-name="Grupo 1176664">
      <g id="Grupo_1176663" data-name="Grupo 1176663" clip-path="url(#clip-path)">
        <path id="Trazado_1040310" data-name="Trazado 1040310" d="M97.679,138.915l-10.736-6.2c-.643-.371-1.168-.076-1.171.662l0,1.614A2.558,2.558,0,0,0,86.931,137l10.736,6.2c.648.374,1.168.077,1.171-.662l0-1.613a2.552,2.552,0,0,0-1.163-2.009" transform="translate(-10.72 -16.567)" fill="#c6a1ce"/>
        <g id="Grupo_1176642" data-name="Grupo 1176642" transform="translate(26.075 42.586)" style="mix-blend-mode: screen;isolation: isolate">
          <g id="Grupo_1176641" data-name="Grupo 1176641">
            <g id="Grupo_1176640" data-name="Grupo 1176640" clip-path="url(#clip-path-54)">
              <path id="Trazado_1040311" data-name="Trazado 1040311" d="M35.3,53.394l-5.5,3.175v.767l5.5-3.174Zm8.185-4.725L36.329,52.8v.767l7.154-4.131ZM32.95,56.833,29.8,58.651v.767L32.95,57.6Zm6.1-3.522-5.069,2.926V57l5.069-2.927Zm1.031.171,3.408-1.967v-.767l-3.408,1.968ZM35.3,57.559l-5.5,3.175V61.5l5.5-3.174Zm8.185-4.725-7.154,4.13v.767l7.154-4.13ZM32.95,61,29.8,62.816v.767l3.15-1.818Zm1.031.172,5.069-2.927v-.767L33.981,60.4Zm6.1-3.522,3.408-1.967v-.767l-3.408,1.968ZM35.3,61.724,29.8,64.9v.767l5.5-3.175ZM43.483,57l-7.154,4.13V61.9l7.154-4.13ZM29.8,67.748l3.15-1.818v-.767L29.8,66.981Zm4.181-2.413,5.069-2.927v-.767l-5.069,2.926Zm6.1-3.522,3.408-1.967v-.767l-3.408,1.968Z" transform="translate(-29.8 -48.669)" fill="#fdc5ff"/>
            </g>
          </g>
        </g>
        <g id="Grupo_1176662" data-name="Grupo 1176662" transform="translate(65.136 95.631)" style="mix-blend-mode: screen;isolation: isolate">
          <g id="Grupo_1176661" data-name="Grupo 1176661">
            <g id="Grupo_1176660" data-name="Grupo 1176660" clip-path="url(#clip-path-55)">
              <g id="Grupo_1176659" data-name="Grupo 1176659" transform="translate(0 0)">
                <g id="Grupo_1176658" data-name="Grupo 1176658" clip-path="url(#clip-path-56)">
                  <rect id="Rectángulo_414164" data-name="Rectángulo 414164" width="51.52" height="51.521" transform="translate(0 0)" fill="url(#radial-gradient-5)"/>
                </g>
              </g>
            </g>
          </g>
        </g>
      </g>
    </g>
  </g>
</svg>
