<svg xmlns="http://www.w3.org/2000/svg" xmlns:xlink="http://www.w3.org/1999/xlink" width="137.224" height="120.761" viewBox="0 0 137.224 120.761">
  <defs>
    <clipPath id="clip-path">
      <rect id="Rect치ngulo_414049" data-name="Rect치ngulo 414049" width="137.223" height="70.004" fill="#9000f9"/>
    </clipPath>
    <clipPath id="clip-path-2">
      <rect id="Rect치ngulo_425012" data-name="Rect치ngulo 425012" width="110.73" height="116.484" fill="none"/>
    </clipPath>
  </defs>
  <g id="Grupo_1186354" data-name="Grupo 1186354" transform="translate(-1125 -1476.578)">
    <g id="Grupo_1176355" data-name="Grupo 1176355" transform="translate(738.699 -1120.883)">
      <g id="Enmascarar_grupo_1162743" data-name="Enmascarar grupo 1162743" transform="translate(386.301 2597.461)" clip-path="url(#clip-path)">
        <path id="Trazado_151731" data-name="Trazado 151731" d="M65.336,103.163a37.826,37.826,0,1,1,37.826-37.826,37.869,37.869,0,0,1-37.826,37.826m0,27.51A65.336,65.336,0,1,0,0,65.336,65.336,65.336,0,0,0,65.336,130.673Z" transform="translate(2.835 4.668)" fill="#91b3fa"/>
      </g>
      <g id="Grupo_1176352" data-name="Grupo 1176352" transform="translate(436.645 2631.342)">
        <path id="Trazado_145968" data-name="Trazado 145968" d="M43.44,0A43.44,43.44,0,1,1,0,43.44,43.44,43.44,0,0,1,43.44,0Z" transform="translate(0 0)" fill="#31313c" opacity="0.444" style="mix-blend-mode: multiply;isolation: isolate"/>
        <g id="Grupo_78276" data-name="Grupo 78276" transform="translate(16.96 17.958)">
          <g id="Grupo_53306" data-name="Grupo 53306">
            <path id="Trazado_99200" data-name="Trazado 99200" d="M415.394,50.788a.59.59,0,1,1-.59-.564A.577.577,0,0,1,415.394,50.788Z" transform="translate(-414.214 -50.224)" fill="#fff"/>
            <path id="Trazado_99201" data-name="Trazado 99201" d="M423.84,50.788a.59.59,0,1,1-.59-.564A.577.577,0,0,1,423.84,50.788Z" transform="translate(-417.352 -50.224)" fill="#fff"/>
            <path id="Trazado_99202" data-name="Trazado 99202" d="M432.286,50.788a.591.591,0,1,1-.59-.564A.577.577,0,0,1,432.286,50.788Z" transform="translate(-420.489 -50.224)" fill="#fff"/>
            <path id="Trazado_99203" data-name="Trazado 99203" d="M440.733,50.788a.59.59,0,1,1-.59-.564A.577.577,0,0,1,440.733,50.788Z" transform="translate(-423.627 -50.224)" fill="#fff"/>
            <path id="Trazado_99204" data-name="Trazado 99204" d="M449.179,50.788a.59.59,0,1,1-.59-.564A.577.577,0,0,1,449.179,50.788Z" transform="translate(-426.764 -50.224)" fill="#fff"/>
            <path id="Trazado_99205" data-name="Trazado 99205" d="M457.625,50.788a.59.59,0,1,1-.59-.564A.577.577,0,0,1,457.625,50.788Z" transform="translate(-429.902 -50.224)" fill="#fff"/>
            <path id="Trazado_99206" data-name="Trazado 99206" d="M466.072,50.788a.59.59,0,1,1-.59-.564A.578.578,0,0,1,466.072,50.788Z" transform="translate(-433.039 -50.224)" fill="#fff"/>
            <path id="Trazado_99207" data-name="Trazado 99207" d="M474.518,50.788a.59.59,0,1,1-.59-.564A.577.577,0,0,1,474.518,50.788Z" transform="translate(-436.177 -50.224)" fill="#fff"/>
            <path id="Trazado_99208" data-name="Trazado 99208" d="M482.964,50.788a.591.591,0,1,1-.59-.564A.577.577,0,0,1,482.964,50.788Z" transform="translate(-439.314 -50.224)" fill="#fff"/>
            <path id="Trazado_99209" data-name="Trazado 99209" d="M491.411,50.788a.591.591,0,1,1-.59-.564A.578.578,0,0,1,491.411,50.788Z" transform="translate(-442.452 -50.224)" fill="#fff"/>
            <path id="Trazado_99210" data-name="Trazado 99210" d="M499.857,50.788a.59.59,0,1,1-.59-.564A.577.577,0,0,1,499.857,50.788Z" transform="translate(-445.59 -50.224)" fill="#fff"/>
          </g>
          <g id="Grupo_53307" data-name="Grupo 53307" transform="translate(0 4.513)">
            <path id="Trazado_99211" data-name="Trazado 99211" d="M415.394,58.3a.59.59,0,1,1-.59-.564A.577.577,0,0,1,415.394,58.3Z" transform="translate(-414.214 -57.732)" fill="#fff"/>
            <path id="Trazado_99212" data-name="Trazado 99212" d="M423.84,58.3a.59.59,0,1,1-.59-.564A.577.577,0,0,1,423.84,58.3Z" transform="translate(-417.352 -57.732)" fill="#fff"/>
            <path id="Trazado_99213" data-name="Trazado 99213" d="M432.286,58.3a.591.591,0,1,1-.59-.564A.577.577,0,0,1,432.286,58.3Z" transform="translate(-420.489 -57.732)" fill="#fff"/>
            <path id="Trazado_99214" data-name="Trazado 99214" d="M440.733,58.3a.59.59,0,1,1-.59-.564A.577.577,0,0,1,440.733,58.3Z" transform="translate(-423.627 -57.732)" fill="#fff"/>
            <path id="Trazado_99215" data-name="Trazado 99215" d="M449.179,58.3a.59.59,0,1,1-.59-.564A.577.577,0,0,1,449.179,58.3Z" transform="translate(-426.764 -57.732)" fill="#fff"/>
            <path id="Trazado_99216" data-name="Trazado 99216" d="M457.625,58.3a.59.59,0,1,1-.59-.564A.577.577,0,0,1,457.625,58.3Z" transform="translate(-429.902 -57.732)" fill="#fff"/>
            <path id="Trazado_99217" data-name="Trazado 99217" d="M466.072,58.3a.59.59,0,1,1-.59-.564A.578.578,0,0,1,466.072,58.3Z" transform="translate(-433.039 -57.732)" fill="#fff"/>
            <path id="Trazado_99218" data-name="Trazado 99218" d="M474.518,58.3a.59.59,0,1,1-.59-.564A.577.577,0,0,1,474.518,58.3Z" transform="translate(-436.177 -57.732)" fill="#fff"/>
            <path id="Trazado_99219" data-name="Trazado 99219" d="M482.964,58.3a.591.591,0,1,1-.59-.564A.577.577,0,0,1,482.964,58.3Z" transform="translate(-439.314 -57.732)" fill="#fff"/>
            <path id="Trazado_99220" data-name="Trazado 99220" d="M491.411,58.3a.591.591,0,1,1-.59-.564A.578.578,0,0,1,491.411,58.3Z" transform="translate(-442.452 -57.732)" fill="#fff"/>
            <path id="Trazado_99221" data-name="Trazado 99221" d="M499.857,58.3a.59.59,0,1,1-.59-.564A.577.577,0,0,1,499.857,58.3Z" transform="translate(-445.59 -57.732)" fill="#fff"/>
          </g>
          <g id="Grupo_53308" data-name="Grupo 53308" transform="translate(0 9.026)">
            <ellipse id="Elipse_3955" data-name="Elipse 3955" cx="0.59" cy="0.564" rx="0.59" ry="0.564" fill="#fff"/>
            <path id="Trazado_99222" data-name="Trazado 99222" d="M423.84,65.8a.59.59,0,1,1-.59-.564A.578.578,0,0,1,423.84,65.8Z" transform="translate(-417.352 -65.24)" fill="#fff"/>
            <ellipse id="Elipse_3956" data-name="Elipse 3956" cx="0.59" cy="0.564" rx="0.59" ry="0.564" transform="translate(10.617)" fill="#fff"/>
            <path id="Trazado_99223" data-name="Trazado 99223" d="M440.733,65.8a.59.59,0,1,1-.59-.564A.578.578,0,0,1,440.733,65.8Z" transform="translate(-423.627 -65.24)" fill="#fff"/>
            <path id="Trazado_99224" data-name="Trazado 99224" d="M449.179,65.8a.59.59,0,1,1-.59-.564A.578.578,0,0,1,449.179,65.8Z" transform="translate(-426.764 -65.24)" fill="#fff"/>
            <ellipse id="Elipse_3957" data-name="Elipse 3957" cx="0.59" cy="0.564" rx="0.59" ry="0.564" transform="translate(26.544)" fill="#fff"/>
            <path id="Trazado_99225" data-name="Trazado 99225" d="M466.072,65.8a.59.59,0,1,1-.59-.564A.578.578,0,0,1,466.072,65.8Z" transform="translate(-433.039 -65.24)" fill="#fff"/>
            <ellipse id="Elipse_3958" data-name="Elipse 3958" cx="0.59" cy="0.564" rx="0.59" ry="0.564" transform="translate(37.161)" fill="#fff"/>
            <ellipse id="Elipse_3959" data-name="Elipse 3959" cx="0.59" cy="0.564" rx="0.59" ry="0.564" transform="translate(42.47)" fill="#fff"/>
            <path id="Trazado_99226" data-name="Trazado 99226" d="M491.411,65.8a.591.591,0,1,1-.59-.564A.578.578,0,0,1,491.411,65.8Z" transform="translate(-442.452 -65.24)" fill="#fff"/>
            <path id="Trazado_99227" data-name="Trazado 99227" d="M499.857,65.8a.59.59,0,1,1-.59-.564A.578.578,0,0,1,499.857,65.8Z" transform="translate(-445.59 -65.24)" fill="#fff"/>
          </g>
          <g id="Grupo_53309" data-name="Grupo 53309" transform="translate(0 13.538)">
            <ellipse id="Elipse_3960" data-name="Elipse 3960" cx="0.59" cy="0.564" rx="0.59" ry="0.564" transform="translate(0 0)" fill="#fff"/>
            <path id="Trazado_99228" data-name="Trazado 99228" d="M423.84,73.311a.59.59,0,1,1-.59-.564A.577.577,0,0,1,423.84,73.311Z" transform="translate(-417.352 -72.747)" fill="#fff"/>
            <ellipse id="Elipse_3961" data-name="Elipse 3961" cx="0.59" cy="0.564" rx="0.59" ry="0.564" transform="translate(10.617 0)" fill="#fff"/>
            <path id="Trazado_99229" data-name="Trazado 99229" d="M440.733,73.311a.59.59,0,1,1-.59-.564A.577.577,0,0,1,440.733,73.311Z" transform="translate(-423.627 -72.747)" fill="#fff"/>
            <path id="Trazado_99230" data-name="Trazado 99230" d="M449.179,73.311a.59.59,0,1,1-.59-.564A.577.577,0,0,1,449.179,73.311Z" transform="translate(-426.764 -72.747)" fill="#fff"/>
            <ellipse id="Elipse_3962" data-name="Elipse 3962" cx="0.59" cy="0.564" rx="0.59" ry="0.564" transform="translate(26.544 0)" fill="#fff"/>
            <path id="Trazado_99231" data-name="Trazado 99231" d="M466.072,73.311a.59.59,0,1,1-.59-.564A.578.578,0,0,1,466.072,73.311Z" transform="translate(-433.039 -72.747)" fill="#fff"/>
            <ellipse id="Elipse_3963" data-name="Elipse 3963" cx="0.59" cy="0.564" rx="0.59" ry="0.564" transform="translate(37.161 0)" fill="#fff"/>
            <ellipse id="Elipse_3964" data-name="Elipse 3964" cx="0.59" cy="0.564" rx="0.59" ry="0.564" transform="translate(42.47 0)" fill="#fff"/>
            <path id="Trazado_99232" data-name="Trazado 99232" d="M491.411,73.311a.59.59,0,1,1-.59-.564A.578.578,0,0,1,491.411,73.311Z" transform="translate(-442.452 -72.747)" fill="#fff"/>
            <path id="Trazado_99233" data-name="Trazado 99233" d="M499.857,73.311a.59.59,0,1,1-.59-.564A.577.577,0,0,1,499.857,73.311Z" transform="translate(-445.59 -72.747)" fill="#fff"/>
          </g>
          <g id="Grupo_53310" data-name="Grupo 53310" transform="translate(0 18.051)">
            <path id="Trazado_99234" data-name="Trazado 99234" d="M415.394,80.819a.59.59,0,1,1-.59-.564A.577.577,0,0,1,415.394,80.819Z" transform="translate(-414.214 -80.255)" fill="#fff"/>
            <path id="Trazado_99235" data-name="Trazado 99235" d="M423.84,80.819a.59.59,0,1,1-.59-.564A.577.577,0,0,1,423.84,80.819Z" transform="translate(-417.352 -80.255)" fill="#fff"/>
            <path id="Trazado_99236" data-name="Trazado 99236" d="M432.286,80.819a.59.59,0,1,1-.59-.564A.577.577,0,0,1,432.286,80.819Z" transform="translate(-420.489 -80.255)" fill="#fff"/>
            <path id="Trazado_99237" data-name="Trazado 99237" d="M440.733,80.819a.59.59,0,1,1-.59-.564A.577.577,0,0,1,440.733,80.819Z" transform="translate(-423.627 -80.255)" fill="#fff"/>
            <path id="Trazado_99238" data-name="Trazado 99238" d="M449.179,80.819a.59.59,0,1,1-.59-.564A.577.577,0,0,1,449.179,80.819Z" transform="translate(-426.764 -80.255)" fill="#fff"/>
            <path id="Trazado_99239" data-name="Trazado 99239" d="M457.625,80.819a.59.59,0,1,1-.59-.564A.577.577,0,0,1,457.625,80.819Z" transform="translate(-429.902 -80.255)" fill="#fff"/>
            <path id="Trazado_99240" data-name="Trazado 99240" d="M466.072,80.819a.59.59,0,1,1-.59-.564A.578.578,0,0,1,466.072,80.819Z" transform="translate(-433.039 -80.255)" fill="#fff"/>
            <path id="Trazado_99241" data-name="Trazado 99241" d="M474.518,80.819a.59.59,0,1,1-.59-.564A.577.577,0,0,1,474.518,80.819Z" transform="translate(-436.177 -80.255)" fill="#fff"/>
            <path id="Trazado_99242" data-name="Trazado 99242" d="M482.964,80.819a.59.59,0,1,1-.59-.564A.577.577,0,0,1,482.964,80.819Z" transform="translate(-439.314 -80.255)" fill="#fff"/>
            <path id="Trazado_99243" data-name="Trazado 99243" d="M491.411,80.819a.59.59,0,1,1-.59-.564A.578.578,0,0,1,491.411,80.819Z" transform="translate(-442.452 -80.255)" fill="#fff"/>
            <path id="Trazado_99244" data-name="Trazado 99244" d="M499.857,80.819a.59.59,0,1,1-.59-.564A.577.577,0,0,1,499.857,80.819Z" transform="translate(-445.59 -80.255)" fill="#fff"/>
          </g>
          <g id="Grupo_53311" data-name="Grupo 53311" transform="translate(0 22.564)">
            <ellipse id="Elipse_3965" data-name="Elipse 3965" cx="0.59" cy="0.564" rx="0.59" ry="0.564" transform="translate(0 0)" fill="#fff"/>
            <path id="Trazado_99245" data-name="Trazado 99245" d="M423.84,88.327a.59.59,0,1,1-.59-.564A.577.577,0,0,1,423.84,88.327Z" transform="translate(-417.352 -87.763)" fill="#fff"/>
            <ellipse id="Elipse_3966" data-name="Elipse 3966" cx="0.59" cy="0.564" rx="0.59" ry="0.564" transform="translate(10.617 0)" fill="#fff"/>
            <path id="Trazado_99246" data-name="Trazado 99246" d="M440.733,88.327a.59.59,0,1,1-.59-.564A.577.577,0,0,1,440.733,88.327Z" transform="translate(-423.627 -87.763)" fill="#fff"/>
            <path id="Trazado_99247" data-name="Trazado 99247" d="M449.179,88.327a.59.59,0,1,1-.59-.564A.577.577,0,0,1,449.179,88.327Z" transform="translate(-426.764 -87.763)" fill="#fff"/>
            <ellipse id="Elipse_3967" data-name="Elipse 3967" cx="0.59" cy="0.564" rx="0.59" ry="0.564" transform="translate(26.544 0)" fill="#fff"/>
            <path id="Trazado_99248" data-name="Trazado 99248" d="M466.072,88.327a.59.59,0,1,1-.59-.564A.578.578,0,0,1,466.072,88.327Z" transform="translate(-433.039 -87.763)" fill="#fff"/>
            <ellipse id="Elipse_3968" data-name="Elipse 3968" cx="0.59" cy="0.564" rx="0.59" ry="0.564" transform="translate(37.161 0)" fill="#fff"/>
            <ellipse id="Elipse_3969" data-name="Elipse 3969" cx="0.59" cy="0.564" rx="0.59" ry="0.564" transform="translate(42.47 0)" fill="#fff"/>
            <path id="Trazado_99249" data-name="Trazado 99249" d="M491.411,88.327a.59.59,0,1,1-.59-.564A.578.578,0,0,1,491.411,88.327Z" transform="translate(-442.452 -87.763)" fill="#fff"/>
            <path id="Trazado_99250" data-name="Trazado 99250" d="M499.857,88.327a.59.59,0,1,1-.59-.564A.577.577,0,0,1,499.857,88.327Z" transform="translate(-445.59 -87.763)" fill="#fff"/>
          </g>
          <g id="Grupo_53312" data-name="Grupo 53312" transform="translate(0 27.077)">
            <ellipse id="Elipse_3970" data-name="Elipse 3970" cx="0.59" cy="0.564" rx="0.59" ry="0.564" fill="#fff"/>
            <path id="Trazado_99251" data-name="Trazado 99251" d="M423.84,95.835a.59.59,0,1,1-.59-.564A.577.577,0,0,1,423.84,95.835Z" transform="translate(-417.352 -95.271)" fill="#fff"/>
            <ellipse id="Elipse_3971" data-name="Elipse 3971" cx="0.59" cy="0.564" rx="0.59" ry="0.564" transform="translate(10.617)" fill="#fff"/>
            <path id="Trazado_99252" data-name="Trazado 99252" d="M440.733,95.835a.59.59,0,1,1-.59-.564A.577.577,0,0,1,440.733,95.835Z" transform="translate(-423.627 -95.271)" fill="#fff"/>
            <path id="Trazado_99253" data-name="Trazado 99253" d="M449.179,95.835a.59.59,0,1,1-.59-.564A.577.577,0,0,1,449.179,95.835Z" transform="translate(-426.764 -95.271)" fill="#fff"/>
            <ellipse id="Elipse_3972" data-name="Elipse 3972" cx="0.59" cy="0.564" rx="0.59" ry="0.564" transform="translate(26.544)" fill="#fff"/>
            <path id="Trazado_99254" data-name="Trazado 99254" d="M466.072,95.835a.59.59,0,1,1-.59-.564A.578.578,0,0,1,466.072,95.835Z" transform="translate(-433.039 -95.271)" fill="#fff"/>
            <ellipse id="Elipse_3973" data-name="Elipse 3973" cx="0.59" cy="0.564" rx="0.59" ry="0.564" transform="translate(37.161)" fill="#fff"/>
            <ellipse id="Elipse_3974" data-name="Elipse 3974" cx="0.59" cy="0.564" rx="0.59" ry="0.564" transform="translate(42.47)" fill="#fff"/>
            <path id="Trazado_99255" data-name="Trazado 99255" d="M491.411,95.835a.591.591,0,1,1-.59-.564A.578.578,0,0,1,491.411,95.835Z" transform="translate(-442.452 -95.271)" fill="#fff"/>
            <path id="Trazado_99256" data-name="Trazado 99256" d="M499.857,95.835a.59.59,0,1,1-.59-.564A.577.577,0,0,1,499.857,95.835Z" transform="translate(-445.59 -95.271)" fill="#fff"/>
          </g>
          <g id="Grupo_53313" data-name="Grupo 53313" transform="translate(0 31.589)">
            <path id="Trazado_99257" data-name="Trazado 99257" d="M415.394,103.343a.59.59,0,1,1-.59-.564A.577.577,0,0,1,415.394,103.343Z" transform="translate(-414.214 -102.779)" fill="#fff"/>
            <path id="Trazado_99258" data-name="Trazado 99258" d="M423.84,103.343a.59.59,0,1,1-.59-.564A.577.577,0,0,1,423.84,103.343Z" transform="translate(-417.352 -102.779)" fill="#fff"/>
            <path id="Trazado_99259" data-name="Trazado 99259" d="M432.286,103.343a.591.591,0,1,1-.59-.564A.577.577,0,0,1,432.286,103.343Z" transform="translate(-420.489 -102.779)" fill="#fff"/>
            <path id="Trazado_99260" data-name="Trazado 99260" d="M440.733,103.343a.59.59,0,1,1-.59-.564A.577.577,0,0,1,440.733,103.343Z" transform="translate(-423.627 -102.779)" fill="#fff"/>
            <path id="Trazado_99261" data-name="Trazado 99261" d="M449.179,103.343a.59.59,0,1,1-.59-.564A.577.577,0,0,1,449.179,103.343Z" transform="translate(-426.764 -102.779)" fill="#fff"/>
            <path id="Trazado_99262" data-name="Trazado 99262" d="M457.625,103.343a.59.59,0,1,1-.59-.564A.577.577,0,0,1,457.625,103.343Z" transform="translate(-429.902 -102.779)" fill="#fff"/>
            <path id="Trazado_99263" data-name="Trazado 99263" d="M466.072,103.343a.59.59,0,1,1-.59-.564A.578.578,0,0,1,466.072,103.343Z" transform="translate(-433.039 -102.779)" fill="#fff"/>
            <path id="Trazado_99264" data-name="Trazado 99264" d="M474.518,103.343a.59.59,0,1,1-.59-.564A.577.577,0,0,1,474.518,103.343Z" transform="translate(-436.177 -102.779)" fill="#fff"/>
            <path id="Trazado_99265" data-name="Trazado 99265" d="M482.964,103.343a.591.591,0,1,1-.59-.564A.577.577,0,0,1,482.964,103.343Z" transform="translate(-439.314 -102.779)" fill="#fff"/>
            <path id="Trazado_99266" data-name="Trazado 99266" d="M491.411,103.343a.591.591,0,1,1-.59-.564A.578.578,0,0,1,491.411,103.343Z" transform="translate(-442.452 -102.779)" fill="#fff"/>
            <path id="Trazado_99267" data-name="Trazado 99267" d="M499.857,103.343a.59.59,0,1,1-.59-.564A.577.577,0,0,1,499.857,103.343Z" transform="translate(-445.59 -102.779)" fill="#fff"/>
          </g>
          <g id="Grupo_53314" data-name="Grupo 53314" transform="translate(0 36.102)">
            <ellipse id="Elipse_3975" data-name="Elipse 3975" cx="0.59" cy="0.564" rx="0.59" ry="0.564" fill="#fff"/>
            <path id="Trazado_99268" data-name="Trazado 99268" d="M423.84,110.851a.59.59,0,1,1-.59-.564A.578.578,0,0,1,423.84,110.851Z" transform="translate(-417.352 -110.287)" fill="#fff"/>
            <ellipse id="Elipse_3976" data-name="Elipse 3976" cx="0.59" cy="0.564" rx="0.59" ry="0.564" transform="translate(10.617)" fill="#fff"/>
            <path id="Trazado_99269" data-name="Trazado 99269" d="M440.733,110.851a.59.59,0,1,1-.59-.564A.578.578,0,0,1,440.733,110.851Z" transform="translate(-423.627 -110.287)" fill="#fff"/>
            <path id="Trazado_99270" data-name="Trazado 99270" d="M449.179,110.851a.59.59,0,1,1-.59-.564A.578.578,0,0,1,449.179,110.851Z" transform="translate(-426.764 -110.287)" fill="#fff"/>
            <ellipse id="Elipse_3977" data-name="Elipse 3977" cx="0.59" cy="0.564" rx="0.59" ry="0.564" transform="translate(26.544)" fill="#fff"/>
            <path id="Trazado_99271" data-name="Trazado 99271" d="M466.072,110.851a.59.59,0,1,1-.59-.564A.578.578,0,0,1,466.072,110.851Z" transform="translate(-433.039 -110.287)" fill="#fff"/>
            <ellipse id="Elipse_3978" data-name="Elipse 3978" cx="0.59" cy="0.564" rx="0.59" ry="0.564" transform="translate(37.161)" fill="#fff"/>
            <ellipse id="Elipse_3979" data-name="Elipse 3979" cx="0.59" cy="0.564" rx="0.59" ry="0.564" transform="translate(42.47)" fill="#fff"/>
            <path id="Trazado_99272" data-name="Trazado 99272" d="M491.411,110.851a.591.591,0,1,1-.59-.564A.578.578,0,0,1,491.411,110.851Z" transform="translate(-442.452 -110.287)" fill="#fff"/>
            <path id="Trazado_99273" data-name="Trazado 99273" d="M499.857,110.851a.59.59,0,1,1-.59-.564A.578.578,0,0,1,499.857,110.851Z" transform="translate(-445.59 -110.287)" fill="#fff"/>
          </g>
          <g id="Grupo_53315" data-name="Grupo 53315" transform="translate(0 40.615)">
            <path id="Trazado_99274" data-name="Trazado 99274" d="M415.394,118.358a.59.59,0,1,1-.59-.564A.578.578,0,0,1,415.394,118.358Z" transform="translate(-414.214 -117.794)" fill="#fff"/>
            <path id="Trazado_99275" data-name="Trazado 99275" d="M423.84,118.358a.59.59,0,1,1-.59-.564A.578.578,0,0,1,423.84,118.358Z" transform="translate(-417.352 -117.794)" fill="#fff"/>
            <path id="Trazado_99276" data-name="Trazado 99276" d="M432.286,118.358a.59.59,0,1,1-.59-.564A.578.578,0,0,1,432.286,118.358Z" transform="translate(-420.489 -117.794)" fill="#fff"/>
            <path id="Trazado_99277" data-name="Trazado 99277" d="M440.733,118.358a.59.59,0,1,1-.59-.564A.578.578,0,0,1,440.733,118.358Z" transform="translate(-423.627 -117.794)" fill="#fff"/>
            <path id="Trazado_99278" data-name="Trazado 99278" d="M449.179,118.358a.59.59,0,1,1-.59-.564A.578.578,0,0,1,449.179,118.358Z" transform="translate(-426.764 -117.794)" fill="#fff"/>
            <path id="Trazado_99279" data-name="Trazado 99279" d="M457.625,118.358a.59.59,0,1,1-.59-.564A.578.578,0,0,1,457.625,118.358Z" transform="translate(-429.902 -117.794)" fill="#fff"/>
            <path id="Trazado_99280" data-name="Trazado 99280" d="M466.072,118.358a.59.59,0,1,1-.59-.564A.578.578,0,0,1,466.072,118.358Z" transform="translate(-433.039 -117.794)" fill="#fff"/>
            <path id="Trazado_99281" data-name="Trazado 99281" d="M474.518,118.358a.59.59,0,1,1-.59-.564A.578.578,0,0,1,474.518,118.358Z" transform="translate(-436.177 -117.794)" fill="#fff"/>
            <path id="Trazado_99282" data-name="Trazado 99282" d="M482.964,118.358a.59.59,0,1,1-.59-.564A.578.578,0,0,1,482.964,118.358Z" transform="translate(-439.314 -117.794)" fill="#fff"/>
            <path id="Trazado_99283" data-name="Trazado 99283" d="M491.411,118.358a.59.59,0,1,1-.59-.564A.578.578,0,0,1,491.411,118.358Z" transform="translate(-442.452 -117.794)" fill="#fff"/>
            <path id="Trazado_99284" data-name="Trazado 99284" d="M499.857,118.358a.59.59,0,1,1-.59-.564A.578.578,0,0,1,499.857,118.358Z" transform="translate(-445.59 -117.794)" fill="#fff"/>
          </g>
          <g id="Grupo_53316" data-name="Grupo 53316" transform="translate(0 45.128)">
            <ellipse id="Elipse_3980" data-name="Elipse 3980" cx="0.59" cy="0.564" rx="0.59" ry="0.564" transform="translate(0 0)" fill="#fff"/>
            <path id="Trazado_99285" data-name="Trazado 99285" d="M423.84,125.866a.59.59,0,1,1-.59-.564A.577.577,0,0,1,423.84,125.866Z" transform="translate(-417.352 -125.302)" fill="#fff"/>
            <ellipse id="Elipse_3981" data-name="Elipse 3981" cx="0.59" cy="0.564" rx="0.59" ry="0.564" transform="translate(10.617 0)" fill="#fff"/>
            <path id="Trazado_99286" data-name="Trazado 99286" d="M440.733,125.866a.59.59,0,1,1-.59-.564A.577.577,0,0,1,440.733,125.866Z" transform="translate(-423.627 -125.302)" fill="#fff"/>
            <path id="Trazado_99287" data-name="Trazado 99287" d="M449.179,125.866a.59.59,0,1,1-.59-.564A.577.577,0,0,1,449.179,125.866Z" transform="translate(-426.764 -125.302)" fill="#fff"/>
            <ellipse id="Elipse_3982" data-name="Elipse 3982" cx="0.59" cy="0.564" rx="0.59" ry="0.564" transform="translate(26.544 0)" fill="#fff"/>
            <path id="Trazado_99288" data-name="Trazado 99288" d="M466.072,125.866a.59.59,0,1,1-.59-.564A.578.578,0,0,1,466.072,125.866Z" transform="translate(-433.039 -125.302)" fill="#fff"/>
            <ellipse id="Elipse_3983" data-name="Elipse 3983" cx="0.59" cy="0.564" rx="0.59" ry="0.564" transform="translate(37.161 0)" fill="#fff"/>
            <ellipse id="Elipse_3984" data-name="Elipse 3984" cx="0.59" cy="0.564" rx="0.59" ry="0.564" transform="translate(42.47 0)" fill="#fff"/>
            <path id="Trazado_99289" data-name="Trazado 99289" d="M491.411,125.866a.59.59,0,1,1-.59-.564A.578.578,0,0,1,491.411,125.866Z" transform="translate(-442.452 -125.302)" fill="#fff"/>
            <path id="Trazado_99290" data-name="Trazado 99290" d="M499.857,125.866a.59.59,0,1,1-.59-.564A.577.577,0,0,1,499.857,125.866Z" transform="translate(-445.59 -125.302)" fill="#fff"/>
          </g>
          <g id="Grupo_53317" data-name="Grupo 53317" transform="translate(0 49.641)">
            <ellipse id="Elipse_3985" data-name="Elipse 3985" cx="0.59" cy="0.564" rx="0.59" ry="0.564" transform="translate(0 0)" fill="#fff"/>
            <path id="Trazado_99291" data-name="Trazado 99291" d="M423.84,133.374a.59.59,0,1,1-.59-.564A.577.577,0,0,1,423.84,133.374Z" transform="translate(-417.352 -132.81)" fill="#fff"/>
            <ellipse id="Elipse_3986" data-name="Elipse 3986" cx="0.59" cy="0.564" rx="0.59" ry="0.564" transform="translate(10.617 0)" fill="#fff"/>
            <path id="Trazado_99292" data-name="Trazado 99292" d="M440.733,133.374a.59.59,0,1,1-.59-.564A.577.577,0,0,1,440.733,133.374Z" transform="translate(-423.627 -132.81)" fill="#fff"/>
            <path id="Trazado_99293" data-name="Trazado 99293" d="M449.179,133.374a.59.59,0,1,1-.59-.564A.577.577,0,0,1,449.179,133.374Z" transform="translate(-426.764 -132.81)" fill="#fff"/>
            <ellipse id="Elipse_3987" data-name="Elipse 3987" cx="0.59" cy="0.564" rx="0.59" ry="0.564" transform="translate(26.544 0)" fill="#fff"/>
            <path id="Trazado_99294" data-name="Trazado 99294" d="M466.072,133.374a.59.59,0,1,1-.59-.564A.578.578,0,0,1,466.072,133.374Z" transform="translate(-433.039 -132.81)" fill="#fff"/>
            <ellipse id="Elipse_3988" data-name="Elipse 3988" cx="0.59" cy="0.564" rx="0.59" ry="0.564" transform="translate(37.161 0)" fill="#fff"/>
            <ellipse id="Elipse_3989" data-name="Elipse 3989" cx="0.59" cy="0.564" rx="0.59" ry="0.564" transform="translate(42.47 0)" fill="#fff"/>
            <path id="Trazado_99295" data-name="Trazado 99295" d="M491.411,133.374a.59.59,0,1,1-.59-.564A.578.578,0,0,1,491.411,133.374Z" transform="translate(-442.452 -132.81)" fill="#fff"/>
            <path id="Trazado_99296" data-name="Trazado 99296" d="M499.857,133.374a.59.59,0,1,1-.59-.564A.577.577,0,0,1,499.857,133.374Z" transform="translate(-445.59 -132.81)" fill="#fff"/>
          </g>
        </g>
      </g>
    </g>
    <g id="Grupo_1182549" data-name="Grupo 1182549" transform="translate(1138.247 1476.578)">
      <g id="Grupo_1182548" data-name="Grupo 1182548" transform="translate(0 0)" clip-path="url(#clip-path-2)">
        <path id="Trazado_1045185" data-name="Trazado 1045185" d="M106.162,47.928,66.115,24.807c-6.034-3.484-15.826-3.489-21.829,0L4.507,47.923c-6,3.49-5.964,9.16.072,12.646l40.045,23.12c6.036,3.485,15.827,3.489,21.831,0l39.779-23.117c6-3.489,5.963-9.16-.072-12.644" transform="translate(0.018 14.071)" fill="#8b7bff"/>
        <path id="Trazado_1045186" data-name="Trazado 1045186" d="M110.691,42.327c-.015.163-.026.325-.056.487-.025.132-.064.263-.1.4-.041.154-.078.309-.134.462-.044.126-.1.25-.159.376-.07.162-.139.322-.226.482-.062.114-.136.229-.208.343-.111.181-.229.361-.361.538-.078.106-.163.209-.25.314a9.284,9.284,0,0,1-.654.7c-.087.083-.163.168-.253.248-.147.132-.312.26-.471.389s-.281.232-.435.343c-.173.126-.363.245-.549.366s-.381.258-.59.379L66.472,71.269c-.462.268-.953.508-1.454.735-.144.065-.291.126-.438.186q-.591.248-1.209.459c-.15.051-.3.1-.446.152-.261.083-.529.155-.8.227-.2.056-.4.114-.608.163-.279.067-.564.124-.848.181-.2.039-.389.083-.587.119q-.868.152-1.757.245c-.18.018-.361.029-.542.044-.35.029-.7.056-1.054.07-.221.01-.443.015-.665.018-.284.007-.567.008-.851,0-.235,0-.472-.011-.708-.02-.261-.011-.523-.025-.783-.042-.239-.016-.477-.036-.714-.059-.26-.026-.518-.054-.775-.087-.23-.029-.459-.062-.688-.1-.276-.042-.549-.091-.822-.142-.214-.041-.426-.083-.637-.129-.325-.072-.644-.152-.961-.235-.176-.047-.355-.092-.529-.142-.565-.165-1.118-.35-1.652-.559-.268-.1-.526-.217-.783-.332-.131-.057-.266-.111-.4-.172-.387-.185-.766-.379-1.129-.59L4.595,48.149C1.557,46.394.039,44.087.046,41.781L0,57.9C-.007,60.2,1.511,62.51,4.549,64.265L44.6,87.385c.363.211.742.405,1.129.59.129.06.265.114.4.172.23.1.458.209.694.3.028.011.059.02.088.029.534.209,1.087.394,1.654.559.044.013.087.031.131.044.129.038.265.062.394.1.319.085.639.165.964.237.085.018.167.044.253.062.126.026.257.042.384.067.273.051.546.1.822.142.109.018.216.041.325.057s.242.025.363.041c.258.033.515.06.775.087.123.011.243.029.368.041s.23.01.346.018c.26.018.521.031.783.042.132,0,.263.018.394.021.1,0,.209,0,.314,0,.284,0,.567,0,.851,0,.141,0,.281,0,.42,0,.083,0,.163-.013.245-.016.353-.015.7-.041,1.054-.07.139-.011.279-.013.417-.028.042,0,.083-.013.126-.018q.887-.091,1.757-.243l.088-.013c.168-.029.332-.072.5-.106.284-.057.569-.114.85-.181.2-.049.4-.108.606-.163.268-.072.534-.144.8-.227.056-.018.116-.031.173-.049.093-.031.18-.072.273-.1.413-.141.815-.294,1.209-.459.147-.06.294-.121.438-.186a16.14,16.14,0,0,0,1.454-.735L106.2,64.269c.064-.036.126-.074.188-.111.142-.085.263-.176.4-.265.188-.123.379-.243.554-.369.152-.111.289-.227.431-.342.16-.129.324-.257.471-.389.029-.028.065-.052.095-.078.06-.056.1-.116.16-.172a8.7,8.7,0,0,0,.654-.7c.042-.051.1-.1.142-.152s.069-.108.108-.16c.132-.176.25-.356.363-.538.046-.075.108-.149.15-.225.023-.039.034-.078.056-.118.087-.16.157-.322.227-.482.039-.093.095-.185.129-.278.013-.033.016-.065.028-.1.056-.154.093-.309.134-.464.026-.1.067-.206.088-.309.007-.028,0-.056.01-.085.029-.162.041-.325.056-.49.01-.1.033-.208.036-.312,0-.046,0-.092,0-.137l.046-16.115c0,.15-.025.3-.038.451" transform="translate(0 26.491)" fill="#483f9e"/>
        <path id="Trazado_1045187" data-name="Trazado 1045187" d="M98.055,49.3,58.008,26.177a12.5,12.5,0,0,0-11.347,0L6.876,49.3c-3.121,1.814-3.1,4.755.036,6.569L46.959,78.99a12.494,12.494,0,0,0,11.339,0L98.084,55.87c3.128-1.819,3.111-4.762-.029-6.574" transform="translate(2.883 15.735)" fill="#16003b"/>
        <path id="Trazado_1045188" data-name="Trazado 1045188" d="M41.066,0,36.254,2.8l4.843,2.8,4.812-2.8Z" transform="translate(22.986 0)" fill="#e84df9"/>
        <path id="Trazado_1045189" data-name="Trazado 1045189" d="M39.251,4.508l-.085,49.92,4.812-2.8.085-49.92Z" transform="translate(24.833 1.085)" fill="#b720b3"/>
        <path id="Trazado_1045190" data-name="Trazado 1045190" d="M36.287,1.712,36.2,51.631l4.843,2.8L41.13,4.509Z" transform="translate(22.953 1.086)" fill="#ac00b3"/>
        <path id="Trazado_1045191" data-name="Trazado 1045191" d="M35.179,18.986l-4.812,2.8,4.843,2.8,4.812-2.8Z" transform="translate(19.253 12.038)" fill="#e84df9"/>
        <path id="Trazado_1045192" data-name="Trazado 1045192" d="M33.364,23.494,33.279,47.98l4.812-2.8L38.176,20.7Z" transform="translate(21.1 13.123)" fill="#b720b3"/>
        <path id="Trazado_1045193" data-name="Trazado 1045193" d="M30.4,20.7l-.085,24.486,4.843,2.8.085-24.488Z" transform="translate(19.22 13.123)" fill="#ac00b3"/>
        <path id="Trazado_1045194" data-name="Trazado 1045194" d="M29.289,18.986l-4.812,2.8,4.843,2.8,4.812-2.8Z" transform="translate(15.519 12.038)" fill="#e84df9"/>
        <path id="Trazado_1045195" data-name="Trazado 1045195" d="M27.474,23.494l-.085,30.079,4.812-2.8L32.286,20.7Z" transform="translate(17.365 13.123)" fill="#b720b3"/>
        <path id="Trazado_1045196" data-name="Trazado 1045196" d="M24.509,20.7l-.085,30.079,4.843,2.8.085-30.081Z" transform="translate(15.486 13.123)" fill="#ac00b3"/>
        <path id="Trazado_1045197" data-name="Trazado 1045197" d="M23.4,11.7l-4.812,2.8,4.843,2.8,4.812-2.8Z" transform="translate(11.786 7.416)" fill="#e84df9"/>
        <path id="Trazado_1045198" data-name="Trazado 1045198" d="M21.586,16.2,21.5,63.787l4.812-2.8L26.4,13.407Z" transform="translate(13.633 8.501)" fill="#b720b3"/>
        <path id="Trazado_1045199" data-name="Trazado 1045199" d="M18.622,13.407,18.537,60.99l4.843,2.8L23.465,16.2Z" transform="translate(11.753 8.501)" fill="#ac00b3"/>
        <path id="Trazado_1045200" data-name="Trazado 1045200" d="M17.511,25.83l-4.812,2.8,4.843,2.8,4.812-2.8Z" transform="translate(8.052 16.378)" fill="#e84df9"/>
        <path id="Trazado_1045201" data-name="Trazado 1045201" d="M15.7,30.339l-.085,30.079,4.812-2.8.085-30.081Z" transform="translate(9.898 17.463)" fill="#b720b3"/>
        <path id="Trazado_1045202" data-name="Trazado 1045202" d="M12.732,27.542l-.085,30.079,4.843,2.8.085-30.079Z" transform="translate(8.018 17.463)" fill="#ac00b3"/>
        <path id="Trazado_1045203" data-name="Trazado 1045203" d="M52.879,19.842l-4.812,2.8,4.843,2.8,4.812-2.8Z" transform="translate(30.476 12.581)" fill="#39d4f0"/>
        <path id="Trazado_1045204" data-name="Trazado 1045204" d="M51.064,24.35l-.085,28.816,4.812-2.8.085-28.816Z" transform="translate(32.323 13.666)" fill="#4ab3d6"/>
        <path id="Trazado_1045205" data-name="Trazado 1045205" d="M48.1,21.553l-.085,28.816,4.843,2.8.085-28.815Z" transform="translate(30.443 13.666)" fill="#3296bd"/>
        <path id="Trazado_1045206" data-name="Trazado 1045206" d="M46.992,25.912l-4.812,2.8,4.843,2.8,4.812-2.8Z" transform="translate(26.743 16.43)" fill="#39d4f0"/>
        <path id="Trazado_1045207" data-name="Trazado 1045207" d="M45.177,30.421l-.085,24.486,4.812-2.8.085-24.488Z" transform="translate(28.59 17.515)" fill="#4ab3d6"/>
        <path id="Trazado_1045208" data-name="Trazado 1045208" d="M42.213,27.624,42.128,52.11l4.843,2.8.085-24.488Z" transform="translate(26.71 17.515)" fill="#3296bd"/>
        <path id="Trazado_1045209" data-name="Trazado 1045209" d="M41.1,15.563l-4.812,2.8,4.843,2.8,4.812-2.8Z" transform="translate(23.009 9.868)" fill="#39d4f0"/>
        <path id="Trazado_1045210" data-name="Trazado 1045210" d="M39.287,20.071,39.2,67.062l4.812-2.8.085-46.99Z" transform="translate(24.855 10.953)" fill="#4ab3d6"/>
        <path id="Trazado_1045211" data-name="Trazado 1045211" d="M36.322,17.274l-.085,46.992,4.843,2.8.085-46.992Z" transform="translate(22.976 10.953)" fill="#3296bd"/>
        <path id="Trazado_1045212" data-name="Trazado 1045212" d="M35.215,31.406,30.4,34.2,35.246,37l4.812-2.8Z" transform="translate(19.276 19.913)" fill="#39d4f0"/>
        <path id="Trazado_1045213" data-name="Trazado 1045213" d="M33.4,35.914l-.085,26.694,4.812-2.8.085-26.7Z" transform="translate(21.123 20.998)" fill="#4ab3d6"/>
        <path id="Trazado_1045214" data-name="Trazado 1045214" d="M30.435,33.117,30.35,59.811l4.843,2.8.085-26.694Z" transform="translate(19.243 20.998)" fill="#3296bd"/>
        <path id="Trazado_1045215" data-name="Trazado 1045215" d="M29.324,41.961l-4.812,2.8,4.843,2.8,4.812-2.8Z" transform="translate(15.541 26.605)" fill="#39d4f0"/>
        <path id="Trazado_1045216" data-name="Trazado 1045216" d="M27.509,46.469l-.085,15.04,4.812-2.8.085-15.041Z" transform="translate(17.388 27.69)" fill="#4ab3d6"/>
        <path id="Trazado_1045217" data-name="Trazado 1045217" d="M24.545,43.672l-.085,15.04,4.843,2.8.085-15.041Z" transform="translate(15.508 27.69)" fill="#3296bd"/>
      </g>
    </g>
  </g>
</svg>
