<svg xmlns="http://www.w3.org/2000/svg" xmlns:xlink="http://www.w3.org/1999/xlink" width="137.225" height="120.761" viewBox="0 0 137.225 120.761">
  <defs>
    <clipPath id="clip-path">
      <rect id="Rectángulo_414049" data-name="Rectángulo 414049" width="137.223" height="70.004" fill="#9000f9"/>
    </clipPath>
  </defs>
  <g id="Grupo_1186357" data-name="Grupo 1186357" transform="translate(11466.023 9595.41)">
    <g id="Grupo_1182537" data-name="Grupo 1182537" transform="translate(-11852.324 -12192.871)">
      <g id="Enmascarar_grupo_1162743" data-name="Enmascarar grupo 1162743" transform="translate(386.301 2597.461)" clip-path="url(#clip-path)">
        <path id="Trazado_151731" data-name="Trazado 151731" d="M65.336,103.163a37.826,37.826,0,1,1,37.826-37.826,37.869,37.869,0,0,1-37.826,37.826m0,27.51A65.336,65.336,0,1,0,0,65.336,65.336,65.336,0,0,0,65.336,130.673Z" transform="translate(2.835 4.668)" fill="#91b3fa"/>
      </g>
      <g id="Grupo_1176352" data-name="Grupo 1176352" transform="translate(436.645 2631.342)">
        <path id="Trazado_145968" data-name="Trazado 145968" d="M43.44,0A43.44,43.44,0,1,1,0,43.44,43.44,43.44,0,0,1,43.44,0Z" transform="translate(0 0)" fill="#31313c" opacity="0.444" style="mix-blend-mode: multiply;isolation: isolate"/>
        <g id="Grupo_78276" data-name="Grupo 78276" transform="translate(16.96 17.958)">
          <g id="Grupo_53306" data-name="Grupo 53306">
            <path id="Trazado_99200" data-name="Trazado 99200" d="M415.394,50.788a.59.59,0,1,1-.59-.564A.577.577,0,0,1,415.394,50.788Z" transform="translate(-414.214 -50.224)" fill="#fff"/>
            <path id="Trazado_99201" data-name="Trazado 99201" d="M423.84,50.788a.59.59,0,1,1-.59-.564A.577.577,0,0,1,423.84,50.788Z" transform="translate(-417.352 -50.224)" fill="#fff"/>
            <path id="Trazado_99202" data-name="Trazado 99202" d="M432.286,50.788a.591.591,0,1,1-.59-.564A.577.577,0,0,1,432.286,50.788Z" transform="translate(-420.489 -50.224)" fill="#fff"/>
            <path id="Trazado_99203" data-name="Trazado 99203" d="M440.733,50.788a.59.59,0,1,1-.59-.564A.577.577,0,0,1,440.733,50.788Z" transform="translate(-423.627 -50.224)" fill="#fff"/>
            <path id="Trazado_99204" data-name="Trazado 99204" d="M449.179,50.788a.59.59,0,1,1-.59-.564A.577.577,0,0,1,449.179,50.788Z" transform="translate(-426.764 -50.224)" fill="#fff"/>
            <path id="Trazado_99205" data-name="Trazado 99205" d="M457.625,50.788a.59.59,0,1,1-.59-.564A.577.577,0,0,1,457.625,50.788Z" transform="translate(-429.902 -50.224)" fill="#fff"/>
            <path id="Trazado_99206" data-name="Trazado 99206" d="M466.072,50.788a.59.59,0,1,1-.59-.564A.578.578,0,0,1,466.072,50.788Z" transform="translate(-433.039 -50.224)" fill="#fff"/>
            <path id="Trazado_99207" data-name="Trazado 99207" d="M474.518,50.788a.59.59,0,1,1-.59-.564A.577.577,0,0,1,474.518,50.788Z" transform="translate(-436.177 -50.224)" fill="#fff"/>
            <path id="Trazado_99208" data-name="Trazado 99208" d="M482.964,50.788a.591.591,0,1,1-.59-.564A.577.577,0,0,1,482.964,50.788Z" transform="translate(-439.314 -50.224)" fill="#fff"/>
            <path id="Trazado_99209" data-name="Trazado 99209" d="M491.411,50.788a.591.591,0,1,1-.59-.564A.578.578,0,0,1,491.411,50.788Z" transform="translate(-442.452 -50.224)" fill="#fff"/>
            <path id="Trazado_99210" data-name="Trazado 99210" d="M499.857,50.788a.59.59,0,1,1-.59-.564A.577.577,0,0,1,499.857,50.788Z" transform="translate(-445.59 -50.224)" fill="#fff"/>
          </g>
          <g id="Grupo_53307" data-name="Grupo 53307" transform="translate(0 4.513)">
            <path id="Trazado_99211" data-name="Trazado 99211" d="M415.394,58.3a.59.59,0,1,1-.59-.564A.577.577,0,0,1,415.394,58.3Z" transform="translate(-414.214 -57.732)" fill="#fff"/>
            <path id="Trazado_99212" data-name="Trazado 99212" d="M423.84,58.3a.59.59,0,1,1-.59-.564A.577.577,0,0,1,423.84,58.3Z" transform="translate(-417.352 -57.732)" fill="#fff"/>
            <path id="Trazado_99213" data-name="Trazado 99213" d="M432.286,58.3a.591.591,0,1,1-.59-.564A.577.577,0,0,1,432.286,58.3Z" transform="translate(-420.489 -57.732)" fill="#fff"/>
            <path id="Trazado_99214" data-name="Trazado 99214" d="M440.733,58.3a.59.59,0,1,1-.59-.564A.577.577,0,0,1,440.733,58.3Z" transform="translate(-423.627 -57.732)" fill="#fff"/>
            <path id="Trazado_99215" data-name="Trazado 99215" d="M449.179,58.3a.59.59,0,1,1-.59-.564A.577.577,0,0,1,449.179,58.3Z" transform="translate(-426.764 -57.732)" fill="#fff"/>
            <path id="Trazado_99216" data-name="Trazado 99216" d="M457.625,58.3a.59.59,0,1,1-.59-.564A.577.577,0,0,1,457.625,58.3Z" transform="translate(-429.902 -57.732)" fill="#fff"/>
            <path id="Trazado_99217" data-name="Trazado 99217" d="M466.072,58.3a.59.59,0,1,1-.59-.564A.578.578,0,0,1,466.072,58.3Z" transform="translate(-433.039 -57.732)" fill="#fff"/>
            <path id="Trazado_99218" data-name="Trazado 99218" d="M474.518,58.3a.59.59,0,1,1-.59-.564A.577.577,0,0,1,474.518,58.3Z" transform="translate(-436.177 -57.732)" fill="#fff"/>
            <path id="Trazado_99219" data-name="Trazado 99219" d="M482.964,58.3a.591.591,0,1,1-.59-.564A.577.577,0,0,1,482.964,58.3Z" transform="translate(-439.314 -57.732)" fill="#fff"/>
            <path id="Trazado_99220" data-name="Trazado 99220" d="M491.411,58.3a.591.591,0,1,1-.59-.564A.578.578,0,0,1,491.411,58.3Z" transform="translate(-442.452 -57.732)" fill="#fff"/>
            <path id="Trazado_99221" data-name="Trazado 99221" d="M499.857,58.3a.59.59,0,1,1-.59-.564A.577.577,0,0,1,499.857,58.3Z" transform="translate(-445.59 -57.732)" fill="#fff"/>
          </g>
          <g id="Grupo_53308" data-name="Grupo 53308" transform="translate(0 9.026)">
            <ellipse id="Elipse_3955" data-name="Elipse 3955" cx="0.59" cy="0.564" rx="0.59" ry="0.564" fill="#fff"/>
            <path id="Trazado_99222" data-name="Trazado 99222" d="M423.84,65.8a.59.59,0,1,1-.59-.564A.578.578,0,0,1,423.84,65.8Z" transform="translate(-417.352 -65.24)" fill="#fff"/>
            <ellipse id="Elipse_3956" data-name="Elipse 3956" cx="0.59" cy="0.564" rx="0.59" ry="0.564" transform="translate(10.617)" fill="#fff"/>
            <path id="Trazado_99223" data-name="Trazado 99223" d="M440.733,65.8a.59.59,0,1,1-.59-.564A.578.578,0,0,1,440.733,65.8Z" transform="translate(-423.627 -65.24)" fill="#fff"/>
            <path id="Trazado_99224" data-name="Trazado 99224" d="M449.179,65.8a.59.59,0,1,1-.59-.564A.578.578,0,0,1,449.179,65.8Z" transform="translate(-426.764 -65.24)" fill="#fff"/>
            <ellipse id="Elipse_3957" data-name="Elipse 3957" cx="0.59" cy="0.564" rx="0.59" ry="0.564" transform="translate(26.544)" fill="#fff"/>
            <path id="Trazado_99225" data-name="Trazado 99225" d="M466.072,65.8a.59.59,0,1,1-.59-.564A.578.578,0,0,1,466.072,65.8Z" transform="translate(-433.039 -65.24)" fill="#fff"/>
            <ellipse id="Elipse_3958" data-name="Elipse 3958" cx="0.59" cy="0.564" rx="0.59" ry="0.564" transform="translate(37.161)" fill="#fff"/>
            <ellipse id="Elipse_3959" data-name="Elipse 3959" cx="0.59" cy="0.564" rx="0.59" ry="0.564" transform="translate(42.47)" fill="#fff"/>
            <path id="Trazado_99226" data-name="Trazado 99226" d="M491.411,65.8a.591.591,0,1,1-.59-.564A.578.578,0,0,1,491.411,65.8Z" transform="translate(-442.452 -65.24)" fill="#fff"/>
            <path id="Trazado_99227" data-name="Trazado 99227" d="M499.857,65.8a.59.59,0,1,1-.59-.564A.578.578,0,0,1,499.857,65.8Z" transform="translate(-445.59 -65.24)" fill="#fff"/>
          </g>
          <g id="Grupo_53309" data-name="Grupo 53309" transform="translate(0 13.538)">
            <ellipse id="Elipse_3960" data-name="Elipse 3960" cx="0.59" cy="0.564" rx="0.59" ry="0.564" transform="translate(0 0)" fill="#fff"/>
            <path id="Trazado_99228" data-name="Trazado 99228" d="M423.84,73.311a.59.59,0,1,1-.59-.564A.577.577,0,0,1,423.84,73.311Z" transform="translate(-417.352 -72.747)" fill="#fff"/>
            <ellipse id="Elipse_3961" data-name="Elipse 3961" cx="0.59" cy="0.564" rx="0.59" ry="0.564" transform="translate(10.617 0)" fill="#fff"/>
            <path id="Trazado_99229" data-name="Trazado 99229" d="M440.733,73.311a.59.59,0,1,1-.59-.564A.577.577,0,0,1,440.733,73.311Z" transform="translate(-423.627 -72.747)" fill="#fff"/>
            <path id="Trazado_99230" data-name="Trazado 99230" d="M449.179,73.311a.59.59,0,1,1-.59-.564A.577.577,0,0,1,449.179,73.311Z" transform="translate(-426.764 -72.747)" fill="#fff"/>
            <ellipse id="Elipse_3962" data-name="Elipse 3962" cx="0.59" cy="0.564" rx="0.59" ry="0.564" transform="translate(26.544 0)" fill="#fff"/>
            <path id="Trazado_99231" data-name="Trazado 99231" d="M466.072,73.311a.59.59,0,1,1-.59-.564A.578.578,0,0,1,466.072,73.311Z" transform="translate(-433.039 -72.747)" fill="#fff"/>
            <ellipse id="Elipse_3963" data-name="Elipse 3963" cx="0.59" cy="0.564" rx="0.59" ry="0.564" transform="translate(37.161 0)" fill="#fff"/>
            <ellipse id="Elipse_3964" data-name="Elipse 3964" cx="0.59" cy="0.564" rx="0.59" ry="0.564" transform="translate(42.47 0)" fill="#fff"/>
            <path id="Trazado_99232" data-name="Trazado 99232" d="M491.411,73.311a.59.59,0,1,1-.59-.564A.578.578,0,0,1,491.411,73.311Z" transform="translate(-442.452 -72.747)" fill="#fff"/>
            <path id="Trazado_99233" data-name="Trazado 99233" d="M499.857,73.311a.59.59,0,1,1-.59-.564A.577.577,0,0,1,499.857,73.311Z" transform="translate(-445.59 -72.747)" fill="#fff"/>
          </g>
          <g id="Grupo_53310" data-name="Grupo 53310" transform="translate(0 18.051)">
            <path id="Trazado_99234" data-name="Trazado 99234" d="M415.394,80.819a.59.59,0,1,1-.59-.564A.577.577,0,0,1,415.394,80.819Z" transform="translate(-414.214 -80.255)" fill="#fff"/>
            <path id="Trazado_99235" data-name="Trazado 99235" d="M423.84,80.819a.59.59,0,1,1-.59-.564A.577.577,0,0,1,423.84,80.819Z" transform="translate(-417.352 -80.255)" fill="#fff"/>
            <path id="Trazado_99236" data-name="Trazado 99236" d="M432.286,80.819a.59.59,0,1,1-.59-.564A.577.577,0,0,1,432.286,80.819Z" transform="translate(-420.489 -80.255)" fill="#fff"/>
            <path id="Trazado_99237" data-name="Trazado 99237" d="M440.733,80.819a.59.59,0,1,1-.59-.564A.577.577,0,0,1,440.733,80.819Z" transform="translate(-423.627 -80.255)" fill="#fff"/>
            <path id="Trazado_99238" data-name="Trazado 99238" d="M449.179,80.819a.59.59,0,1,1-.59-.564A.577.577,0,0,1,449.179,80.819Z" transform="translate(-426.764 -80.255)" fill="#fff"/>
            <path id="Trazado_99239" data-name="Trazado 99239" d="M457.625,80.819a.59.59,0,1,1-.59-.564A.577.577,0,0,1,457.625,80.819Z" transform="translate(-429.902 -80.255)" fill="#fff"/>
            <path id="Trazado_99240" data-name="Trazado 99240" d="M466.072,80.819a.59.59,0,1,1-.59-.564A.578.578,0,0,1,466.072,80.819Z" transform="translate(-433.039 -80.255)" fill="#fff"/>
            <path id="Trazado_99241" data-name="Trazado 99241" d="M474.518,80.819a.59.59,0,1,1-.59-.564A.577.577,0,0,1,474.518,80.819Z" transform="translate(-436.177 -80.255)" fill="#fff"/>
            <path id="Trazado_99242" data-name="Trazado 99242" d="M482.964,80.819a.59.59,0,1,1-.59-.564A.577.577,0,0,1,482.964,80.819Z" transform="translate(-439.314 -80.255)" fill="#fff"/>
            <path id="Trazado_99243" data-name="Trazado 99243" d="M491.411,80.819a.59.59,0,1,1-.59-.564A.578.578,0,0,1,491.411,80.819Z" transform="translate(-442.452 -80.255)" fill="#fff"/>
            <path id="Trazado_99244" data-name="Trazado 99244" d="M499.857,80.819a.59.59,0,1,1-.59-.564A.577.577,0,0,1,499.857,80.819Z" transform="translate(-445.59 -80.255)" fill="#fff"/>
          </g>
          <g id="Grupo_53311" data-name="Grupo 53311" transform="translate(0 22.564)">
            <ellipse id="Elipse_3965" data-name="Elipse 3965" cx="0.59" cy="0.564" rx="0.59" ry="0.564" transform="translate(0 0)" fill="#fff"/>
            <path id="Trazado_99245" data-name="Trazado 99245" d="M423.84,88.327a.59.59,0,1,1-.59-.564A.577.577,0,0,1,423.84,88.327Z" transform="translate(-417.352 -87.763)" fill="#fff"/>
            <ellipse id="Elipse_3966" data-name="Elipse 3966" cx="0.59" cy="0.564" rx="0.59" ry="0.564" transform="translate(10.617 0)" fill="#fff"/>
            <path id="Trazado_99246" data-name="Trazado 99246" d="M440.733,88.327a.59.59,0,1,1-.59-.564A.577.577,0,0,1,440.733,88.327Z" transform="translate(-423.627 -87.763)" fill="#fff"/>
            <path id="Trazado_99247" data-name="Trazado 99247" d="M449.179,88.327a.59.59,0,1,1-.59-.564A.577.577,0,0,1,449.179,88.327Z" transform="translate(-426.764 -87.763)" fill="#fff"/>
            <ellipse id="Elipse_3967" data-name="Elipse 3967" cx="0.59" cy="0.564" rx="0.59" ry="0.564" transform="translate(26.544 0)" fill="#fff"/>
            <path id="Trazado_99248" data-name="Trazado 99248" d="M466.072,88.327a.59.59,0,1,1-.59-.564A.578.578,0,0,1,466.072,88.327Z" transform="translate(-433.039 -87.763)" fill="#fff"/>
            <ellipse id="Elipse_3968" data-name="Elipse 3968" cx="0.59" cy="0.564" rx="0.59" ry="0.564" transform="translate(37.161 0)" fill="#fff"/>
            <ellipse id="Elipse_3969" data-name="Elipse 3969" cx="0.59" cy="0.564" rx="0.59" ry="0.564" transform="translate(42.47 0)" fill="#fff"/>
            <path id="Trazado_99249" data-name="Trazado 99249" d="M491.411,88.327a.59.59,0,1,1-.59-.564A.578.578,0,0,1,491.411,88.327Z" transform="translate(-442.452 -87.763)" fill="#fff"/>
            <path id="Trazado_99250" data-name="Trazado 99250" d="M499.857,88.327a.59.59,0,1,1-.59-.564A.577.577,0,0,1,499.857,88.327Z" transform="translate(-445.59 -87.763)" fill="#fff"/>
          </g>
          <g id="Grupo_53312" data-name="Grupo 53312" transform="translate(0 27.077)">
            <ellipse id="Elipse_3970" data-name="Elipse 3970" cx="0.59" cy="0.564" rx="0.59" ry="0.564" fill="#fff"/>
            <path id="Trazado_99251" data-name="Trazado 99251" d="M423.84,95.835a.59.59,0,1,1-.59-.564A.577.577,0,0,1,423.84,95.835Z" transform="translate(-417.352 -95.271)" fill="#fff"/>
            <ellipse id="Elipse_3971" data-name="Elipse 3971" cx="0.59" cy="0.564" rx="0.59" ry="0.564" transform="translate(10.617)" fill="#fff"/>
            <path id="Trazado_99252" data-name="Trazado 99252" d="M440.733,95.835a.59.59,0,1,1-.59-.564A.577.577,0,0,1,440.733,95.835Z" transform="translate(-423.627 -95.271)" fill="#fff"/>
            <path id="Trazado_99253" data-name="Trazado 99253" d="M449.179,95.835a.59.59,0,1,1-.59-.564A.577.577,0,0,1,449.179,95.835Z" transform="translate(-426.764 -95.271)" fill="#fff"/>
            <ellipse id="Elipse_3972" data-name="Elipse 3972" cx="0.59" cy="0.564" rx="0.59" ry="0.564" transform="translate(26.544)" fill="#fff"/>
            <path id="Trazado_99254" data-name="Trazado 99254" d="M466.072,95.835a.59.59,0,1,1-.59-.564A.578.578,0,0,1,466.072,95.835Z" transform="translate(-433.039 -95.271)" fill="#fff"/>
            <ellipse id="Elipse_3973" data-name="Elipse 3973" cx="0.59" cy="0.564" rx="0.59" ry="0.564" transform="translate(37.161)" fill="#fff"/>
            <ellipse id="Elipse_3974" data-name="Elipse 3974" cx="0.59" cy="0.564" rx="0.59" ry="0.564" transform="translate(42.47)" fill="#fff"/>
            <path id="Trazado_99255" data-name="Trazado 99255" d="M491.411,95.835a.591.591,0,1,1-.59-.564A.578.578,0,0,1,491.411,95.835Z" transform="translate(-442.452 -95.271)" fill="#fff"/>
            <path id="Trazado_99256" data-name="Trazado 99256" d="M499.857,95.835a.59.59,0,1,1-.59-.564A.577.577,0,0,1,499.857,95.835Z" transform="translate(-445.59 -95.271)" fill="#fff"/>
          </g>
          <g id="Grupo_53313" data-name="Grupo 53313" transform="translate(0 31.589)">
            <path id="Trazado_99257" data-name="Trazado 99257" d="M415.394,103.343a.59.59,0,1,1-.59-.564A.577.577,0,0,1,415.394,103.343Z" transform="translate(-414.214 -102.779)" fill="#fff"/>
            <path id="Trazado_99258" data-name="Trazado 99258" d="M423.84,103.343a.59.59,0,1,1-.59-.564A.577.577,0,0,1,423.84,103.343Z" transform="translate(-417.352 -102.779)" fill="#fff"/>
            <path id="Trazado_99259" data-name="Trazado 99259" d="M432.286,103.343a.591.591,0,1,1-.59-.564A.577.577,0,0,1,432.286,103.343Z" transform="translate(-420.489 -102.779)" fill="#fff"/>
            <path id="Trazado_99260" data-name="Trazado 99260" d="M440.733,103.343a.59.59,0,1,1-.59-.564A.577.577,0,0,1,440.733,103.343Z" transform="translate(-423.627 -102.779)" fill="#fff"/>
            <path id="Trazado_99261" data-name="Trazado 99261" d="M449.179,103.343a.59.59,0,1,1-.59-.564A.577.577,0,0,1,449.179,103.343Z" transform="translate(-426.764 -102.779)" fill="#fff"/>
            <path id="Trazado_99262" data-name="Trazado 99262" d="M457.625,103.343a.59.59,0,1,1-.59-.564A.577.577,0,0,1,457.625,103.343Z" transform="translate(-429.902 -102.779)" fill="#fff"/>
            <path id="Trazado_99263" data-name="Trazado 99263" d="M466.072,103.343a.59.59,0,1,1-.59-.564A.578.578,0,0,1,466.072,103.343Z" transform="translate(-433.039 -102.779)" fill="#fff"/>
            <path id="Trazado_99264" data-name="Trazado 99264" d="M474.518,103.343a.59.59,0,1,1-.59-.564A.577.577,0,0,1,474.518,103.343Z" transform="translate(-436.177 -102.779)" fill="#fff"/>
            <path id="Trazado_99265" data-name="Trazado 99265" d="M482.964,103.343a.591.591,0,1,1-.59-.564A.577.577,0,0,1,482.964,103.343Z" transform="translate(-439.314 -102.779)" fill="#fff"/>
            <path id="Trazado_99266" data-name="Trazado 99266" d="M491.411,103.343a.591.591,0,1,1-.59-.564A.578.578,0,0,1,491.411,103.343Z" transform="translate(-442.452 -102.779)" fill="#fff"/>
            <path id="Trazado_99267" data-name="Trazado 99267" d="M499.857,103.343a.59.59,0,1,1-.59-.564A.577.577,0,0,1,499.857,103.343Z" transform="translate(-445.59 -102.779)" fill="#fff"/>
          </g>
          <g id="Grupo_53314" data-name="Grupo 53314" transform="translate(0 36.102)">
            <ellipse id="Elipse_3975" data-name="Elipse 3975" cx="0.59" cy="0.564" rx="0.59" ry="0.564" fill="#fff"/>
            <path id="Trazado_99268" data-name="Trazado 99268" d="M423.84,110.851a.59.59,0,1,1-.59-.564A.578.578,0,0,1,423.84,110.851Z" transform="translate(-417.352 -110.287)" fill="#fff"/>
            <ellipse id="Elipse_3976" data-name="Elipse 3976" cx="0.59" cy="0.564" rx="0.59" ry="0.564" transform="translate(10.617)" fill="#fff"/>
            <path id="Trazado_99269" data-name="Trazado 99269" d="M440.733,110.851a.59.59,0,1,1-.59-.564A.578.578,0,0,1,440.733,110.851Z" transform="translate(-423.627 -110.287)" fill="#fff"/>
            <path id="Trazado_99270" data-name="Trazado 99270" d="M449.179,110.851a.59.59,0,1,1-.59-.564A.578.578,0,0,1,449.179,110.851Z" transform="translate(-426.764 -110.287)" fill="#fff"/>
            <ellipse id="Elipse_3977" data-name="Elipse 3977" cx="0.59" cy="0.564" rx="0.59" ry="0.564" transform="translate(26.544)" fill="#fff"/>
            <path id="Trazado_99271" data-name="Trazado 99271" d="M466.072,110.851a.59.59,0,1,1-.59-.564A.578.578,0,0,1,466.072,110.851Z" transform="translate(-433.039 -110.287)" fill="#fff"/>
            <ellipse id="Elipse_3978" data-name="Elipse 3978" cx="0.59" cy="0.564" rx="0.59" ry="0.564" transform="translate(37.161)" fill="#fff"/>
            <ellipse id="Elipse_3979" data-name="Elipse 3979" cx="0.59" cy="0.564" rx="0.59" ry="0.564" transform="translate(42.47)" fill="#fff"/>
            <path id="Trazado_99272" data-name="Trazado 99272" d="M491.411,110.851a.591.591,0,1,1-.59-.564A.578.578,0,0,1,491.411,110.851Z" transform="translate(-442.452 -110.287)" fill="#fff"/>
            <path id="Trazado_99273" data-name="Trazado 99273" d="M499.857,110.851a.59.59,0,1,1-.59-.564A.578.578,0,0,1,499.857,110.851Z" transform="translate(-445.59 -110.287)" fill="#fff"/>
          </g>
          <g id="Grupo_53315" data-name="Grupo 53315" transform="translate(0 40.615)">
            <path id="Trazado_99274" data-name="Trazado 99274" d="M415.394,118.358a.59.59,0,1,1-.59-.564A.578.578,0,0,1,415.394,118.358Z" transform="translate(-414.214 -117.794)" fill="#fff"/>
            <path id="Trazado_99275" data-name="Trazado 99275" d="M423.84,118.358a.59.59,0,1,1-.59-.564A.578.578,0,0,1,423.84,118.358Z" transform="translate(-417.352 -117.794)" fill="#fff"/>
            <path id="Trazado_99276" data-name="Trazado 99276" d="M432.286,118.358a.59.59,0,1,1-.59-.564A.578.578,0,0,1,432.286,118.358Z" transform="translate(-420.489 -117.794)" fill="#fff"/>
            <path id="Trazado_99277" data-name="Trazado 99277" d="M440.733,118.358a.59.59,0,1,1-.59-.564A.578.578,0,0,1,440.733,118.358Z" transform="translate(-423.627 -117.794)" fill="#fff"/>
            <path id="Trazado_99278" data-name="Trazado 99278" d="M449.179,118.358a.59.59,0,1,1-.59-.564A.578.578,0,0,1,449.179,118.358Z" transform="translate(-426.764 -117.794)" fill="#fff"/>
            <path id="Trazado_99279" data-name="Trazado 99279" d="M457.625,118.358a.59.59,0,1,1-.59-.564A.578.578,0,0,1,457.625,118.358Z" transform="translate(-429.902 -117.794)" fill="#fff"/>
            <path id="Trazado_99280" data-name="Trazado 99280" d="M466.072,118.358a.59.59,0,1,1-.59-.564A.578.578,0,0,1,466.072,118.358Z" transform="translate(-433.039 -117.794)" fill="#fff"/>
            <path id="Trazado_99281" data-name="Trazado 99281" d="M474.518,118.358a.59.59,0,1,1-.59-.564A.578.578,0,0,1,474.518,118.358Z" transform="translate(-436.177 -117.794)" fill="#fff"/>
            <path id="Trazado_99282" data-name="Trazado 99282" d="M482.964,118.358a.59.59,0,1,1-.59-.564A.578.578,0,0,1,482.964,118.358Z" transform="translate(-439.314 -117.794)" fill="#fff"/>
            <path id="Trazado_99283" data-name="Trazado 99283" d="M491.411,118.358a.59.59,0,1,1-.59-.564A.578.578,0,0,1,491.411,118.358Z" transform="translate(-442.452 -117.794)" fill="#fff"/>
            <path id="Trazado_99284" data-name="Trazado 99284" d="M499.857,118.358a.59.59,0,1,1-.59-.564A.578.578,0,0,1,499.857,118.358Z" transform="translate(-445.59 -117.794)" fill="#fff"/>
          </g>
          <g id="Grupo_53316" data-name="Grupo 53316" transform="translate(0 45.128)">
            <ellipse id="Elipse_3980" data-name="Elipse 3980" cx="0.59" cy="0.564" rx="0.59" ry="0.564" transform="translate(0 0)" fill="#fff"/>
            <path id="Trazado_99285" data-name="Trazado 99285" d="M423.84,125.866a.59.59,0,1,1-.59-.564A.577.577,0,0,1,423.84,125.866Z" transform="translate(-417.352 -125.302)" fill="#fff"/>
            <ellipse id="Elipse_3981" data-name="Elipse 3981" cx="0.59" cy="0.564" rx="0.59" ry="0.564" transform="translate(10.617 0)" fill="#fff"/>
            <path id="Trazado_99286" data-name="Trazado 99286" d="M440.733,125.866a.59.59,0,1,1-.59-.564A.577.577,0,0,1,440.733,125.866Z" transform="translate(-423.627 -125.302)" fill="#fff"/>
            <path id="Trazado_99287" data-name="Trazado 99287" d="M449.179,125.866a.59.59,0,1,1-.59-.564A.577.577,0,0,1,449.179,125.866Z" transform="translate(-426.764 -125.302)" fill="#fff"/>
            <ellipse id="Elipse_3982" data-name="Elipse 3982" cx="0.59" cy="0.564" rx="0.59" ry="0.564" transform="translate(26.544 0)" fill="#fff"/>
            <path id="Trazado_99288" data-name="Trazado 99288" d="M466.072,125.866a.59.59,0,1,1-.59-.564A.578.578,0,0,1,466.072,125.866Z" transform="translate(-433.039 -125.302)" fill="#fff"/>
            <ellipse id="Elipse_3983" data-name="Elipse 3983" cx="0.59" cy="0.564" rx="0.59" ry="0.564" transform="translate(37.161 0)" fill="#fff"/>
            <ellipse id="Elipse_3984" data-name="Elipse 3984" cx="0.59" cy="0.564" rx="0.59" ry="0.564" transform="translate(42.47 0)" fill="#fff"/>
            <path id="Trazado_99289" data-name="Trazado 99289" d="M491.411,125.866a.59.59,0,1,1-.59-.564A.578.578,0,0,1,491.411,125.866Z" transform="translate(-442.452 -125.302)" fill="#fff"/>
            <path id="Trazado_99290" data-name="Trazado 99290" d="M499.857,125.866a.59.59,0,1,1-.59-.564A.577.577,0,0,1,499.857,125.866Z" transform="translate(-445.59 -125.302)" fill="#fff"/>
          </g>
          <g id="Grupo_53317" data-name="Grupo 53317" transform="translate(0 49.641)">
            <ellipse id="Elipse_3985" data-name="Elipse 3985" cx="0.59" cy="0.564" rx="0.59" ry="0.564" transform="translate(0 0)" fill="#fff"/>
            <path id="Trazado_99291" data-name="Trazado 99291" d="M423.84,133.374a.59.59,0,1,1-.59-.564A.577.577,0,0,1,423.84,133.374Z" transform="translate(-417.352 -132.81)" fill="#fff"/>
            <ellipse id="Elipse_3986" data-name="Elipse 3986" cx="0.59" cy="0.564" rx="0.59" ry="0.564" transform="translate(10.617 0)" fill="#fff"/>
            <path id="Trazado_99292" data-name="Trazado 99292" d="M440.733,133.374a.59.59,0,1,1-.59-.564A.577.577,0,0,1,440.733,133.374Z" transform="translate(-423.627 -132.81)" fill="#fff"/>
            <path id="Trazado_99293" data-name="Trazado 99293" d="M449.179,133.374a.59.59,0,1,1-.59-.564A.577.577,0,0,1,449.179,133.374Z" transform="translate(-426.764 -132.81)" fill="#fff"/>
            <ellipse id="Elipse_3987" data-name="Elipse 3987" cx="0.59" cy="0.564" rx="0.59" ry="0.564" transform="translate(26.544 0)" fill="#fff"/>
            <path id="Trazado_99294" data-name="Trazado 99294" d="M466.072,133.374a.59.59,0,1,1-.59-.564A.578.578,0,0,1,466.072,133.374Z" transform="translate(-433.039 -132.81)" fill="#fff"/>
            <ellipse id="Elipse_3988" data-name="Elipse 3988" cx="0.59" cy="0.564" rx="0.59" ry="0.564" transform="translate(37.161 0)" fill="#fff"/>
            <ellipse id="Elipse_3989" data-name="Elipse 3989" cx="0.59" cy="0.564" rx="0.59" ry="0.564" transform="translate(42.47 0)" fill="#fff"/>
            <path id="Trazado_99295" data-name="Trazado 99295" d="M491.411,133.374a.59.59,0,1,1-.59-.564A.578.578,0,0,1,491.411,133.374Z" transform="translate(-442.452 -132.81)" fill="#fff"/>
            <path id="Trazado_99296" data-name="Trazado 99296" d="M499.857,133.374a.59.59,0,1,1-.59-.564A.577.577,0,0,1,499.857,133.374Z" transform="translate(-445.59 -132.81)" fill="#fff"/>
          </g>
        </g>
      </g>
    </g>
    <g id="Grupo_1185836" data-name="Grupo 1185836" transform="translate(-11641.906 -9684.924)">
      <g id="Grupo_1185825" data-name="Grupo 1185825" transform="translate(175.883 114.163)">
        <g id="Grupo_1185811" data-name="Grupo 1185811">
          <g id="Grupo_1185800" data-name="Grupo 1185800">
            <g id="Grupo_1185799" data-name="Grupo 1185799" transform="translate(0)">
              <path id="Trazado_1055394" data-name="Trazado 1055394" d="M312.012,171.307c1.009-.595,1.087-2.174,1.048-2.9a.6.6,0,0,0-.3-.488l-82.772-47.783a4.862,4.862,0,0,0-4.453.025L176.395,148.81a1.031,1.031,0,0,0-.511.907c.023,1.36.111,1.969,1.183,2.6l81.983,47.319a4.86,4.86,0,0,0,4.454-.024Z" transform="translate(-175.884 -119.613)" fill="#fff" opacity="0.961"/>
            </g>
            <path id="Trazado_1055395" data-name="Trazado 1055395" d="M313.107,186.759a1.255,1.255,0,0,1-.307.794.132.132,0,0,1-.013.016c-.031.038-.064.075-.1.111l-.049.048c-.036.035-.075.069-.114.1l-.037.029c-.09.072-48.928,28.579-48.928,28.579v.013l-.023.013v.01a4.88,4.88,0,0,1-4.378.067v0l-82.319-47.53a2.018,2.018,0,0,1-.943-1.126h0a1.089,1.089,0,0,1-.015-.176l.007-1.3c0,.248.847.695.911.731l82.272,47.511c.136.067.272.134.429.2a4.27,4.27,0,0,0,.619.188l.127.025c.054.01.108.022.162.031q.127.019.255.033a.3.3,0,0,0,.036.005c.095.01.191.017.287.022H261a5.445,5.445,0,0,0,.6,0h.028c.088-.006.174-.015.259-.024.1-.011.2-.025.3-.044.117-.017.232-.044.348-.071.057-.013.112-.029.167-.045a2.964,2.964,0,0,0,.339-.113,2.776,2.776,0,0,0,.515-.25v.009s48.518-28.331,48.562-28.354c.516-.362.907-.807.906-1.212Z" transform="translate(-175.883 -136.444)" fill="#b2cddb"/>
          </g>
          <path id="Trazado_1055396" data-name="Trazado 1055396" d="M233.155,121.678l-52.222,30.563.428.245L233.606,121.9Z" transform="translate(-177.699 -120.356)" fill="rgba(44,146,201,0.2)"/>
          <g id="Grupo_1185810" data-name="Grupo 1185810" transform="translate(2.344 28.217)">
            <g id="Grupo_1185803" data-name="Grupo 1185803" transform="translate(0 0.91)">
              <g id="Grupo_1185802" data-name="Grupo 1185802">
                <g id="Grupo_1185801" data-name="Grupo 1185801">
                  <path id="Trazado_1055397" data-name="Trazado 1055397" d="M180.906,165.881a.344.344,0,0,0,0-.653,1.24,1.24,0,0,0-1.125.006.343.343,0,0,0,0,.652A1.242,1.242,0,0,0,180.906,165.881Z" transform="translate(-179.543 -165.096)" fill="#2c92c9" opacity="0.2"/>
                </g>
              </g>
            </g>
            <g id="Grupo_1185806" data-name="Grupo 1185806" transform="translate(1.817)">
              <g id="Grupo_1185805" data-name="Grupo 1185805">
                <g id="Grupo_1185804" data-name="Grupo 1185804">
                  <path id="Trazado_1055398" data-name="Trazado 1055398" d="M183.721,164.46a.343.343,0,0,0,0-.653,1.192,1.192,0,0,0-1.1.006.343.343,0,0,0,0,.653A1.194,1.194,0,0,0,183.721,164.46Z" transform="translate(-182.381 -163.675)" fill="#2c92c9" opacity="0.2"/>
                </g>
              </g>
            </g>
            <g id="Grupo_1185809" data-name="Grupo 1185809" transform="translate(0.185 1.091)">
              <g id="Grupo_1185808" data-name="Grupo 1185808">
                <g id="Grupo_1185807" data-name="Grupo 1185807">
                  <path id="Trazado_1055399" data-name="Trazado 1055399" d="M181.2,166.162a.343.343,0,0,0,0-.652,1.239,1.239,0,0,0-1.125.006.344.344,0,0,0,0,.653A1.237,1.237,0,0,0,181.2,166.162Z" transform="translate(-179.833 -165.378)" fill="#2c92c9" opacity="0.2"/>
                </g>
              </g>
            </g>
          </g>
        </g>
        <g id="Grupo_1185814" data-name="Grupo 1185814" transform="translate(56.263 39.573)">
          <g id="Grupo_1185813" data-name="Grupo 1185813">
            <g id="Grupo_1185812" data-name="Grupo 1185812">
              <path id="Trazado_1055400" data-name="Trazado 1055400" d="M263.969,196.26a.372.372,0,0,0,0,.688,1.293,1.293,0,0,0,1.185-.007l24.932-14.7c.3-.193.341-.5,0-.688a1.3,1.3,0,0,0-1.185.007Z" transform="translate(-263.74 -181.409)" fill="#2c92c9" opacity="0.2"/>
            </g>
          </g>
        </g>
        <g id="Grupo_1185817" data-name="Grupo 1185817" transform="translate(59.096 42.031)" opacity="0.2">
          <g id="Grupo_1185816" data-name="Grupo 1185816">
            <g id="Grupo_1185815" data-name="Grupo 1185815">
              <path id="Trazado_1055401" data-name="Trazado 1055401" d="M268.392,199.222a.373.373,0,0,0,0,.688,1.3,1.3,0,0,0,1.185-.007l23.585-13.827c.3-.193.34-.5,0-.688a1.293,1.293,0,0,0-1.185.007Z" transform="translate(-268.165 -185.247)" fill="#2c92c9"/>
            </g>
          </g>
        </g>
        <g id="Grupo_1185820" data-name="Grupo 1185820" transform="translate(65.068 45.233)" opacity="0.2">
          <g id="Grupo_1185819" data-name="Grupo 1185819">
            <g id="Grupo_1185818" data-name="Grupo 1185818">
              <path id="Trazado_1055402" data-name="Trazado 1055402" d="M277.719,204.222a.372.372,0,0,0,0,.688,1.3,1.3,0,0,0,1.185-.007l23.585-13.827c.305-.193.341-.5,0-.688a1.3,1.3,0,0,0-1.185.006Z" transform="translate(-277.491 -190.247)" fill="#2c92c9"/>
            </g>
          </g>
        </g>
        <g id="Grupo_1185823" data-name="Grupo 1185823" transform="translate(61.89 45.046)" opacity="0.2">
          <g id="Grupo_1185822" data-name="Grupo 1185822">
            <g id="Grupo_1185821" data-name="Grupo 1185821">
              <path id="Trazado_1055403" data-name="Trazado 1055403" d="M272.754,202.55a.373.373,0,0,0,.005.688,1.3,1.3,0,0,0,1.185-.007l21.2-12.448c.305-.193.341-.5,0-.687a1.3,1.3,0,0,0-1.186.006Z" transform="translate(-272.527 -189.956)" fill="#2c92c9"/>
            </g>
          </g>
        </g>
        <g id="Grupo_1185824" data-name="Grupo 1185824" transform="translate(19.243 9.603)">
          <path id="Trazado_1055404" data-name="Trazado 1055404" d="M247.229,134.609l26.78,15.579-41.273,23.647-26.8-15.578Z" transform="translate(-205.932 -134.609)" fill="#c7e0ef"/>
        </g>
      </g>
      <g id="Grupo_1185835" data-name="Grupo 1185835" transform="translate(207.228 104.457)">
        <g id="Grupo_1185828" data-name="Grupo 1185828" transform="translate(26.81)">
          <g id="Grupo_1185827" data-name="Grupo 1185827">
            <g id="block-copy-9_4_">
              <path id="path-8_12_" d="M288.547,112.25a.7.7,0,0,1-.4.541L281,116.92a1.978,1.978,0,0,1-.971.231h-.011v26.087a1.9,1.9,0,0,0,.946-.222l7.226-4.17a.612.612,0,0,0,.357-.595V112.24S288.548,112.225,288.547,112.25Z" transform="translate(-271.485 -107.254)" fill="#5959b5"/>
              <g id="Rectangle-Copy-2_4_" transform="translate(0)">
                <g id="Grupo_1185826" data-name="Grupo 1185826">
                  <path id="path-8_11_" d="M274.213,104.69a2.14,2.14,0,0,1,1.942,0l7.2,4.179a.594.594,0,0,1,0,1.125l-7.146,4.129a2.138,2.138,0,0,1-1.941,0l-7.17-4.176a.6.6,0,0,1,0-1.128Z" transform="translate(-266.696 -104.457)" fill="#706cd4"/>
                </g>
              </g>
              <path id="path-8_10_" d="M266.7,112.144a.684.684,0,0,0,.4.564l7.17,4.176a1.975,1.975,0,0,0,.959.234h0v26.087a1.9,1.9,0,0,1-.924-.225l-7.241-4.209a.693.693,0,0,1-.352-.4l-.013-.148v-26.08Z" transform="translate(-266.695 -107.222)" fill="#6565c9"/>
            </g>
          </g>
        </g>
        <g id="Grupo_1185831" data-name="Grupo 1185831" transform="translate(13.436 14.256)">
          <g id="Grupo_1185830" data-name="Grupo 1185830">
            <g id="block-copy-9_5_">
              <path id="path-8_15_" d="M267.663,134.511a.7.7,0,0,1-.4.541l-7.146,4.129a1.978,1.978,0,0,1-.971.231h-.011v19.575a1.909,1.909,0,0,0,.947-.222l7.226-4.17a.611.611,0,0,0,.357-.595V134.5S267.664,134.486,267.663,134.511Z" transform="translate(-250.601 -129.516)" fill="#08afaa"/>
              <g id="Rectangle-Copy-2_5_" transform="translate(0)">
                <g id="Grupo_1185829" data-name="Grupo 1185829">
                  <path id="path-8_14_" d="M253.329,126.951a2.14,2.14,0,0,1,1.942,0l7.2,4.179a.594.594,0,0,1,0,1.125l-7.146,4.129a2.138,2.138,0,0,1-1.941,0l-7.17-4.176a.6.6,0,0,1,0-1.128Z" transform="translate(-245.812 -126.718)" fill="#00cee5"/>
                </g>
              </g>
              <path id="path-8_13_" d="M245.812,134.4a.684.684,0,0,0,.4.564l7.17,4.176a1.975,1.975,0,0,0,.959.234h0v19.575a1.9,1.9,0,0,1-.924-.225l-7.241-4.209a.693.693,0,0,1-.352-.4l-.013-.148V134.4Z" transform="translate(-245.811 -129.483)" fill="#08c1c1"/>
            </g>
          </g>
        </g>
        <g id="Grupo_1185834" data-name="Grupo 1185834" transform="translate(0 30.998)">
          <g id="Grupo_1185833" data-name="Grupo 1185833">
            <g id="block-copy-9_6_">
              <path id="path-8_18_" d="M246.682,160.655a.7.7,0,0,1-.4.541l-7.146,4.129a1.977,1.977,0,0,1-.971.231h-.011v10.582a1.9,1.9,0,0,0,.946-.222l7.226-4.17a.611.611,0,0,0,.357-.595V160.645S246.683,160.629,246.682,160.655Z" transform="translate(-229.62 -155.659)" fill="#bc42c6"/>
              <g id="Rectangle-Copy-2_6_">
                <g id="Grupo_1185832" data-name="Grupo 1185832">
                  <path id="path-8_17_" d="M232.347,153.1a2.14,2.14,0,0,1,1.942,0l7.2,4.179a.594.594,0,0,1,0,1.125l-7.146,4.129a2.138,2.138,0,0,1-1.941,0l-7.17-4.176a.6.6,0,0,1,0-1.128Z" transform="translate(-224.83 -152.862)" fill="#e34ee6"/>
                </g>
              </g>
              <path id="path-8_16_" d="M224.831,160.548a.684.684,0,0,0,.4.564l7.17,4.176a1.975,1.975,0,0,0,.959.234h0V176.1a1.9,1.9,0,0,1-.924-.225l-7.241-4.209a.693.693,0,0,1-.352-.4l-.013-.148V160.548Z" transform="translate(-224.83 -155.626)" fill="#ce49d6"/>
            </g>
          </g>
        </g>
      </g>
    </g>
  </g>
</svg>
