<svg xmlns="http://www.w3.org/2000/svg" xmlns:xlink="http://www.w3.org/1999/xlink" width="166.967" height="116.924" viewBox="0 0 166.967 116.924">
  <defs>
    <linearGradient id="linear-gradient" x1="1.017" y1="0.515" x2="-0.203" y2="0.479" gradientUnits="objectBoundingBox">
      <stop offset="0" stop-color="#b6b9fe"/>
      <stop offset="1" stop-color="#5861d6"/>
    </linearGradient>
    <linearGradient id="linear-gradient-2" x1="1.001" y1="0.364" x2="-0.388" y2="0.741" gradientUnits="objectBoundingBox">
      <stop offset="0" stop-color="#e8e9ff"/>
      <stop offset="1" stop-color="#c0c0f6"/>
    </linearGradient>
    <clipPath id="clip-path">
      <path id="Trazado_1055416" data-name="Trazado 1055416" d="M62.767,0,46.705,24.094c-2.009,3.013-5.265,4.642-7.274,3.638s-5.265.625-7.274,3.638L24.884,42.281c-2.009,3.013-5.265,4.642-7.274,3.638s-5.265.625-7.274,3.638L0,65.062,4.679,67.4,62.767,33.671,67.446,2.34Z" fill="none"/>
    </clipPath>
    <clipPath id="clip-path-2">
      <rect id="Rectángulo_425643" data-name="Rectángulo 425643" width="85.428" height="76.342" fill="none"/>
    </clipPath>
    <clipPath id="clip-path-3">
      <rect id="Rectángulo_425638" data-name="Rectángulo 425638" width="19.581" height="30.842" fill="none"/>
    </clipPath>
    <clipPath id="clip-path-4">
      <path id="Trazado_1055417" data-name="Trazado 1055417" d="M219.154,2.34,214.475,0l-14.9,22.354L214.9,30.842Z" transform="translate(-199.573)" fill="none"/>
    </clipPath>
    <linearGradient id="linear-gradient-3" x1="-1.078" y1="2.328" x2="-1.072" y2="2.328" gradientUnits="objectBoundingBox">
      <stop offset="0" stop-color="#1494f7"/>
      <stop offset="1"/>
    </linearGradient>
    <clipPath id="clip-path-5">
      <rect id="Rectángulo_425640" data-name="Rectángulo 425640" width="22.076" height="21.778" fill="none"/>
    </clipPath>
    <clipPath id="clip-path-6">
      <path id="Trazado_1055418" data-name="Trazado 1055418" d="M10.336,194.162,0,209.667l4.679,2.34,13-7.55,4.394-11.687-4.74-2.362c-2.021-.74-5.08.873-7,3.753" transform="translate(0 -190.23)" fill="none"/>
    </clipPath>
    <clipPath id="clip-path-7">
      <rect id="Rectángulo_425642" data-name="Rectángulo 425642" width="22.656" height="21.627" fill="#7300c7"/>
    </clipPath>
    <clipPath id="clip-path-8">
      <path id="Trazado_1055419" data-name="Trazado 1055419" d="M93.488,136.019l13-7.55L110.84,116.9l-4.374-2.212c-2.009-1-5.265.625-7.274,3.638l-7.274,10.912a9.749,9.749,0,0,1-3.734,3.371Z" transform="translate(-88.184 -114.392)" fill="#7300c7"/>
    </clipPath>
    <clipPath id="clip-path-9">
      <path id="Trazado_1055420" data-name="Trazado 1055420" d="M66.215,33.851c-2.009,3.013-5.265,4.642-7.274,3.638s-5.265.625-7.274,3.638L44.394,52.038c-2.008,3.013-5.265,4.642-7.274,3.638s-5.265.625-7.274,3.638L19.51,74.819l62.767-31.39V9.757Z" transform="translate(-19.51 -9.757)" fill="none"/>
    </clipPath>
    <linearGradient id="linear-gradient-4" x1="-0.075" y1="1.137" x2="-0.071" y2="1.137" gradientUnits="objectBoundingBox">
      <stop offset="0" stop-color="#24678b"/>
      <stop offset="0.279" stop-color="#2f4a7f"/>
      <stop offset="0.757" stop-color="#421f6c"/>
      <stop offset="1" stop-color="#490f66"/>
    </linearGradient>
    <clipPath id="clip-path-10">
      <rect id="Rectángulo_425649" data-name="Rectángulo 425649" width="62.923" height="65.056" fill="none"/>
    </clipPath>
    <clipPath id="clip-path-11">
      <path id="Trazado_1055424" data-name="Trazado 1055424" d="M83.975,42.733c-2.009,3.013-5.265,4.642-7.274,3.638s-5.265.625-7.274,3.638L62.154,60.92c-2.009,3.013-5.265,4.642-7.274,3.637s-5.265.625-7.274,3.638L37.27,83.7l4.679,2.34,58.087-33.73,4.68-31.331-4.68-2.34Z" transform="translate(-37.27 -18.639)" fill="none"/>
    </clipPath>
    <linearGradient id="linear-gradient-5" x1="0.052" y1="0.901" x2="0.054" y2="0.901" gradientUnits="objectBoundingBox">
      <stop offset="0" stop-color="#f49d5b"/>
      <stop offset="1" stop-color="#f4c15b"/>
    </linearGradient>
    <clipPath id="clip-path-14">
      <path id="Trazado_1055425" data-name="Trazado 1055425" d="M47.606,212.8,37.27,228.306l4.679,2.34,13-7.55,4.394-11.687-4.74-2.361c-2.02-.74-5.08.873-7,3.753" transform="translate(-37.27 -208.869)" fill="none"/>
    </clipPath>
    <linearGradient id="linear-gradient-6" x1="-0.145" y1="1.004" x2="-0.137" y2="1.004" xlink:href="#linear-gradient-3"/>
    <clipPath id="clip-path-15">
      <rect id="Rectángulo_425655" data-name="Rectángulo 425655" width="22.656" height="21.627" fill="none"/>
    </clipPath>
    <clipPath id="clip-path-16">
      <path id="Trazado_1055426" data-name="Trazado 1055426" d="M130.758,154.658l13-7.55,4.35-11.569-4.374-2.212c-2.009-1-5.265.625-7.274,3.638l-7.274,10.911a9.747,9.747,0,0,1-3.734,3.372Z" transform="translate(-125.454 -133.031)" fill="none"/>
    </clipPath>
    <linearGradient id="linear-gradient-7" x1="-0.822" y1="1.581" x2="-0.815" y2="1.581" xlink:href="#linear-gradient-3"/>
    <clipPath id="clip-path-17">
      <path id="Trazado_1055427" data-name="Trazado 1055427" d="M103.485,52.49c-2.009,3.013-5.265,4.642-7.274,3.638s-5.265.625-7.274,3.638L81.664,70.677c-2.009,3.013-5.265,4.642-7.274,3.638s-5.265.625-7.274,3.638L56.78,93.458l62.767-31.39V28.4Z" transform="translate(-56.78 -28.396)" fill="none"/>
    </clipPath>
    <linearGradient id="linear-gradient-8" x1="-0.217" y1="1.069" x2="-0.213" y2="1.069" gradientUnits="objectBoundingBox">
      <stop offset="0" stop-color="#f3e5a5"/>
      <stop offset="1" stop-color="#f4c15b"/>
    </linearGradient>
    <clipPath id="clip-path-19">
      <rect id="Rectángulo_425659" data-name="Rectángulo 425659" width="4.679" height="36.012" fill="none"/>
    </clipPath>
    <clipPath id="clip-path-20">
      <path id="Trazado_1055428" data-name="Trazado 1055428" d="M303.655,54.65l-4.679-2.34V18.638l4.679,2.34Z" transform="translate(-298.976 -18.638)" fill="none"/>
    </clipPath>
    <linearGradient id="linear-gradient-9" x1="-15.324" y1="1.996" x2="-15.273" y2="1.996" xlink:href="#linear-gradient-5"/>
    <clipPath id="clip-path-21">
      <rect id="Rectángulo_425661" data-name="Rectángulo 425661" width="67.446" height="33.73" fill="none"/>
    </clipPath>
    <clipPath id="clip-path-22">
      <path id="Trazado_1055429" data-name="Trazado 1055429" d="M104.716,161.372l-4.679-2.34L37.27,190.422l4.679,2.34Z" transform="translate(-37.27 -159.032)" fill="none"/>
    </clipPath>
    <linearGradient id="linear-gradient-10" x1="-0.133" y1="1.133" x2="-0.129" y2="1.133" xlink:href="#linear-gradient-5"/>
    <clipPath id="clip-path-24">
      <path id="Trazado_1055431" data-name="Trazado 1055431" d="M121.245,61.372c-2.009,3.013-5.265,4.642-7.274,3.638s-5.265.625-7.274,3.638L99.423,79.559C97.415,82.573,94.158,84.2,92.15,83.2s-5.265.625-7.274,3.638L74.54,102.34l4.679,2.34,58.087-33.73,4.679-31.331-4.679-2.34Z" transform="translate(-74.54 -37.278)" fill="none"/>
    </clipPath>
    <linearGradient id="linear-gradient-11" x1="-0.042" y1="0.854" x2="-0.04" y2="0.854" gradientUnits="objectBoundingBox">
      <stop offset="0" stop-color="#0084ff"/>
      <stop offset="0.201" stop-color="#0097ff"/>
      <stop offset="0.607" stop-color="#00c9ff"/>
      <stop offset="1" stop-color="aqua"/>
    </linearGradient>
    <clipPath id="clip-path-27">
      <path id="Trazado_1055432" data-name="Trazado 1055432" d="M84.875,231.44,74.539,246.945l4.679,2.34,13-7.55,4.394-11.687-4.74-2.361c-2.021-.74-5.08.873-7,3.753" transform="translate(-74.539 -227.507)" fill="none"/>
    </clipPath>
    <linearGradient id="linear-gradient-12" x1="-0.433" y1="0.86" x2="-0.425" y2="0.86" xlink:href="#linear-gradient-3"/>
    <clipPath id="clip-path-29">
      <path id="Trazado_1055433" data-name="Trazado 1055433" d="M168.027,173.3l13-7.551,4.349-11.568L181,151.966c-2.009-1-5.265.625-7.274,3.638l-7.274,10.911a9.746,9.746,0,0,1-3.734,3.372Z" transform="translate(-162.723 -151.67)" fill="none"/>
    </clipPath>
    <linearGradient id="linear-gradient-13" x1="-1.108" y1="1.438" x2="-1.1" y2="1.438" xlink:href="#linear-gradient-3"/>
    <clipPath id="clip-path-30">
      <path id="Trazado_1055434" data-name="Trazado 1055434" d="M140.755,71.129c-2.009,3.013-5.265,4.642-7.274,3.638s-5.265.625-7.274,3.638l-7.274,10.912c-2.009,3.013-5.265,4.642-7.274,3.638s-5.265.625-7.274,3.638L94.05,112.1l62.767-31.39V47.035Z" transform="translate(-94.05 -47.035)" fill="none"/>
    </clipPath>
    <linearGradient id="linear-gradient-14" x1="-0.359" y1="1" x2="-0.356" y2="1" gradientUnits="objectBoundingBox">
      <stop offset="0" stop-color="#00e9ff"/>
      <stop offset="0.46" stop-color="#45f4ff"/>
      <stop offset="0.821" stop-color="#76fcff"/>
      <stop offset="1" stop-color="#89ffff"/>
    </linearGradient>
    <clipPath id="clip-path-33">
      <path id="Trazado_1055435" data-name="Trazado 1055435" d="M340.925,73.289l-4.679-2.34V37.277l4.679,2.34Z" transform="translate(-336.246 -37.277)" fill="none"/>
    </clipPath>
    <linearGradient id="linear-gradient-15" x1="-17.235" y1="1.872" x2="-17.183" y2="1.872" gradientUnits="objectBoundingBox">
      <stop offset="0" stop-color="#89ffff"/>
      <stop offset="0.179" stop-color="#76fcff"/>
      <stop offset="0.54" stop-color="#45f4ff"/>
      <stop offset="1" stop-color="#00e9ff"/>
    </linearGradient>
    <clipPath id="clip-path-35">
      <path id="Trazado_1055436" data-name="Trazado 1055436" d="M141.985,180.01l-4.679-2.34L74.539,209.06l4.679,2.34Z" transform="translate(-74.539 -177.67)" fill="none"/>
    </clipPath>
    <linearGradient id="linear-gradient-16" x1="-0.265" y1="1" x2="-0.262" y2="1" xlink:href="#linear-gradient-15"/>
  </defs>
  <g id="Grupo_1185944" data-name="Grupo 1185944" transform="translate(10653.594 8996)">
    <g id="Grupo_1185841" data-name="Grupo 1185841" transform="translate(-10648.505 -8984.668) rotate(3)">
      <g id="Grupo_1185725" data-name="Grupo 1185725">
        <path id="Trazado_1055155" data-name="Trazado 1055155" d="M160.09,49.924l-73.62,42.5c-2.98,1.721-8.235,1.5-11.677-.485L2.849,50.407C-.593,48.42-.97,45.386,2.011,43.666l73.62-42.5c2.98-1.721,8.235-1.5,11.677.483l71.943,41.536C162.693,45.17,163.07,48.2,160.09,49.924Z" transform="translate(0 3.652)" fill="url(#linear-gradient)"/>
        <path id="Trazado_1055156" data-name="Trazado 1055156" d="M160.09,49.924l-73.62,42.5c-2.98,1.721-8.235,1.5-11.677-.485L2.849,50.407C-.593,48.42-.97,45.386,2.011,43.665l73.62-42.5c2.98-1.721,8.235-1.5,11.677.485l71.943,41.536C162.693,45.168,163.07,48.2,160.09,49.924Z" fill="url(#linear-gradient-2)"/>
        <g id="Grupo_1185724" data-name="Grupo 1185724" transform="translate(59.699 34.839)">
          <path id="Trazado_1055157" data-name="Trazado 1055157" d="M14.036,15.245,26.4,8.1c2.286-1.319,2-3.624-.641-5.149l-2.936-1.7C20.19-.263,16.2-.428,13.912.891L1.543,8.032c-2.286,1.319-2,3.625.641,5.149l2.936,1.7C7.758,16.4,11.75,16.565,14.036,15.245Z" transform="translate(0 23.265)" fill="#a29afb"/>
          <path id="Trazado_1055158" data-name="Trazado 1055158" d="M29.37.89,1.543,16.956c-2.286,1.319-2,3.625.641,5.149L5.12,23.8c2.639,1.524,6.632,1.689,8.916.369L41.862,8.1c2.285-1.319,2-3.624-.641-5.149l-2.936-1.7C35.647-.263,31.656-.429,29.37.89Z" transform="translate(24.838)" fill="#a29afb"/>
          <path id="Trazado_1055159" data-name="Trazado 1055159" d="M2.843,36.827,63.786,1.642,60.941,0,0,35.185Z" transform="translate(14.927 8.619)" fill="#a29afb"/>
          <path id="Trazado_1055160" data-name="Trazado 1055160" d="M2.844,26.4,45.734,1.642,42.891,0,0,24.763Z" transform="translate(18.97 21.375)" fill="#a29afb"/>
        </g>
      </g>
      <path id="Trazado_1055161" data-name="Trazado 1055161" d="M94.324,22.094,38.268,54.459c-2.124,1.226-5.869,1.072-8.322-.345L2.03,38c-2.452-1.416-2.721-3.578-.6-4.8L57.489.827C59.612-.4,63.358-.244,65.81,1.172L93.727,17.29C96.18,18.7,96.449,20.868,94.324,22.094Z" transform="translate(16.053 9.64)" fill="#a29afb"/>
    </g>
    <g id="Grupo_1185943" data-name="Grupo 1185943" transform="translate(-10625.618 -8996)">
      <g id="Grupo_1185846" data-name="Grupo 1185846" transform="translate(0 0)">
        <g id="Grupo_1185845" data-name="Grupo 1185845" clip-path="url(#clip-path)">
          <path id="Trazado_1055439" data-name="Trazado 1055439" d="M0,0H67.446V67.4H0Z" transform="translate(0 0)" fill="#842c95"/>
        </g>
      </g>
      <g id="Grupo_1185863" data-name="Grupo 1185863" transform="translate(0 0)">
        <g id="Grupo_1185862" data-name="Grupo 1185862" clip-path="url(#clip-path-2)">
          <g id="Grupo_1185851" data-name="Grupo 1185851" transform="translate(47.865)" style="mix-blend-mode: screen;isolation: isolate">
            <g id="Grupo_1185850" data-name="Grupo 1185850">
              <g id="Grupo_1185849" data-name="Grupo 1185849" clip-path="url(#clip-path-3)">
                <g id="Grupo_1185848" data-name="Grupo 1185848">
                  <g id="Grupo_1185847" data-name="Grupo 1185847" clip-path="url(#clip-path-4)">
                    <rect id="Rectángulo_425637" data-name="Rectángulo 425637" width="36.528" height="33.309" transform="matrix(0.55, -0.835, 0.835, 0.55, -14.161, 21.525)" fill="url(#linear-gradient-3)"/>
                  </g>
                </g>
              </g>
            </g>
          </g>
          <g id="Grupo_1185856" data-name="Grupo 1185856" transform="translate(0 45.624)" style="mix-blend-mode: screen;isolation: isolate">
            <g id="Grupo_1185855" data-name="Grupo 1185855">
              <g id="Grupo_1185854" data-name="Grupo 1185854" clip-path="url(#clip-path-5)">
                <g id="Grupo_1185853" data-name="Grupo 1185853" transform="translate(0 0)">
                  <g id="Grupo_1185852" data-name="Grupo 1185852" clip-path="url(#clip-path-6)">
                    <path id="Trazado_1055438" data-name="Trazado 1055438" d="M0,0H30.992V30.93H0Z" transform="matrix(0.579, -0.816, 0.816, 0.579, -10.542, 14.3)" fill="#7300c7"/>
                  </g>
                </g>
              </g>
            </g>
          </g>
          <g id="Grupo_1185861" data-name="Grupo 1185861" transform="translate(21.15 27.435)" style="mix-blend-mode: screen;isolation: isolate">
            <g id="Grupo_1185860" data-name="Grupo 1185860">
              <g id="Grupo_1185859" data-name="Grupo 1185859" clip-path="url(#clip-path-7)">
                <g id="Grupo_1185858" data-name="Grupo 1185858" transform="translate(0 0)">
                  <g id="Grupo_1185857" data-name="Grupo 1185857" clip-path="url(#clip-path-8)">
                    <rect id="Rectángulo_425641" data-name="Rectángulo 425641" width="31.325" height="31.401" transform="matrix(0.579, -0.816, 0.816, 0.579, -10.54, 14.151)" fill="#7300c7"/>
                  </g>
                </g>
              </g>
            </g>
          </g>
        </g>
      </g>
      <g id="Grupo_1185865" data-name="Grupo 1185865" transform="translate(4.679 2.34)">
        <g id="Grupo_1185864" data-name="Grupo 1185864" transform="translate(0 0)" clip-path="url(#clip-path-9)">
          <rect id="Rectángulo_425644" data-name="Rectángulo 425644" width="62.767" height="65.062" transform="translate(0 0)" fill="url(#linear-gradient-4)"/>
        </g>
      </g>
      <g id="Grupo_1185878" data-name="Grupo 1185878" transform="translate(4.628 2.303)" style="mix-blend-mode: overlay;isolation: isolate">
        <g id="Grupo_1185877" data-name="Grupo 1185877" transform="translate(0 0)">
          <g id="Grupo_1185876" data-name="Grupo 1185876" clip-path="url(#clip-path-10)">
            <path id="Trazado_1055423" data-name="Trazado 1055423" d="M19.535,74.659a.24.24,0,0,1-.2-.373L29.483,59.064c2.07-3.106,5.471-4.774,7.581-3.719,1.9.951,5.027-.645,6.967-3.556L51.3,40.877c2.07-3.105,5.47-4.774,7.581-3.719,1.9.951,5.026-.645,6.967-3.556L81.779,9.709a.24.24,0,1,1,.4.266L66.251,33.867c-2.07,3.106-5.471,4.774-7.581,3.719-1.9-.951-5.026.645-6.967,3.556L44.43,52.054c-2.07,3.106-5.47,4.773-7.581,3.719-1.9-.951-5.026.645-6.967,3.556L19.734,74.552a.24.24,0,0,1-.2.107" transform="translate(-19.295 -9.603)" fill="#fff"/>
          </g>
        </g>
      </g>
      <rect id="Rectángulo_425650" data-name="Rectángulo 425650" width="85.428" height="76.342" transform="translate(0 0)" fill="none"/>
      <g id="Grupo_1185882" data-name="Grupo 1185882" transform="translate(8.939 4.47)">
        <g id="Grupo_1185881" data-name="Grupo 1185881" transform="translate(0 0)" clip-path="url(#clip-path-11)">
          <rect id="Rectángulo_425651" data-name="Rectángulo 425651" width="95.157" height="95.161" transform="matrix(0.661, -0.751, 0.751, 0.661, -33.428, 37.981)" fill="url(#linear-gradient-5)"/>
        </g>
      </g>
      <g id="Grupo_1185894" data-name="Grupo 1185894" transform="translate(0 0)">
        <g id="Grupo_1185893" data-name="Grupo 1185893" clip-path="url(#clip-path-2)">
          <g id="Grupo_1185887" data-name="Grupo 1185887" transform="translate(8.939 50.095)" style="mix-blend-mode: screen;isolation: isolate">
            <g id="Grupo_1185886" data-name="Grupo 1185886">
              <g id="Grupo_1185885" data-name="Grupo 1185885" clip-path="url(#clip-path-5)">
                <g id="Grupo_1185884" data-name="Grupo 1185884" transform="translate(0 0)">
                  <g id="Grupo_1185883" data-name="Grupo 1185883" clip-path="url(#clip-path-14)">
                    <rect id="Rectángulo_425652" data-name="Rectángulo 425652" width="30.992" height="30.93" transform="translate(-10.542 14.3) rotate(-54.65)" fill="url(#linear-gradient-6)"/>
                  </g>
                </g>
              </g>
            </g>
          </g>
          <g id="Grupo_1185892" data-name="Grupo 1185892" transform="translate(30.089 31.906)" style="mix-blend-mode: screen;isolation: isolate">
            <g id="Grupo_1185891" data-name="Grupo 1185891">
              <g id="Grupo_1185890" data-name="Grupo 1185890" clip-path="url(#clip-path-15)">
                <g id="Grupo_1185889" data-name="Grupo 1185889">
                  <g id="Grupo_1185888" data-name="Grupo 1185888" clip-path="url(#clip-path-16)">
                    <rect id="Rectángulo_425654" data-name="Rectángulo 425654" width="31.325" height="31.401" transform="matrix(0.579, -0.816, 0.816, 0.579, -10.54, 14.151)" fill="url(#linear-gradient-7)"/>
                  </g>
                </g>
              </g>
            </g>
          </g>
        </g>
      </g>
      <g id="Grupo_1185896" data-name="Grupo 1185896" transform="translate(13.618 6.81)">
        <g id="Grupo_1185895" data-name="Grupo 1185895" transform="translate(0 0)" clip-path="url(#clip-path-17)">
          <rect id="Rectángulo_425657" data-name="Rectángulo 425657" width="62.767" height="65.062" transform="translate(0 0)" fill="url(#linear-gradient-8)"/>
        </g>
      </g>
      <g id="Grupo_1185911" data-name="Grupo 1185911" transform="translate(0 0)">
        <g id="Grupo_1185910" data-name="Grupo 1185910" clip-path="url(#clip-path-2)">
          <g id="Grupo_1185901" data-name="Grupo 1185901" transform="translate(71.706 4.47)" opacity="0.2" style="mix-blend-mode: multiply;isolation: isolate">
            <g id="Grupo_1185900" data-name="Grupo 1185900">
              <g id="Grupo_1185899" data-name="Grupo 1185899" clip-path="url(#clip-path-19)">
                <g id="Grupo_1185898" data-name="Grupo 1185898">
                  <g id="Grupo_1185897" data-name="Grupo 1185897" clip-path="url(#clip-path-20)">
                    <rect id="Rectángulo_425658" data-name="Rectángulo 425658" width="4.679" height="36.012" fill="url(#linear-gradient-9)"/>
                  </g>
                </g>
              </g>
            </g>
          </g>
          <g id="Grupo_1185906" data-name="Grupo 1185906" transform="translate(8.939 38.142)" opacity="0.2" style="mix-blend-mode: multiply;isolation: isolate">
            <g id="Grupo_1185905" data-name="Grupo 1185905">
              <g id="Grupo_1185904" data-name="Grupo 1185904" clip-path="url(#clip-path-21)">
                <g id="Grupo_1185903" data-name="Grupo 1185903" transform="translate(0)">
                  <g id="Grupo_1185902" data-name="Grupo 1185902" clip-path="url(#clip-path-22)">
                    <rect id="Rectángulo_425660" data-name="Rectángulo 425660" width="67.446" height="33.73" transform="translate(0 0)" fill="url(#linear-gradient-10)"/>
                  </g>
                </g>
              </g>
            </g>
          </g>
          <g id="Grupo_1185909" data-name="Grupo 1185909" transform="translate(13.566 6.773)" style="mix-blend-mode: overlay;isolation: isolate">
            <g id="Grupo_1185908" data-name="Grupo 1185908">
              <g id="Grupo_1185907" data-name="Grupo 1185907" clip-path="url(#clip-path-10)">
                <path id="Trazado_1055430" data-name="Trazado 1055430" d="M56.8,93.3a.24.24,0,0,1-.2-.373L66.753,77.7c2.07-3.106,5.47-4.773,7.581-3.719,1.9.95,5.026-.645,6.967-3.556l7.274-10.912c2.071-3.105,5.472-4.773,7.581-3.719,1.9.95,5.026-.645,6.967-3.556l15.927-23.892a.24.24,0,0,1,.4.266L103.521,52.506c-2.07,3.105-5.47,4.774-7.581,3.719-1.9-.95-5.027.645-6.967,3.556L81.7,70.692c-2.07,3.106-5.47,4.774-7.581,3.719-1.9-.95-5.027.645-6.967,3.556L57,93.19a.24.24,0,0,1-.2.107" transform="translate(-56.565 -28.241)" fill="#fff"/>
              </g>
            </g>
          </g>
        </g>
      </g>
      <g id="Grupo_1185913" data-name="Grupo 1185913" transform="translate(17.878 8.941)">
        <g id="Grupo_1185912" data-name="Grupo 1185912" transform="translate(0 0)" clip-path="url(#clip-path-24)">
          <rect id="Rectángulo_425664" data-name="Rectángulo 425664" width="95.157" height="95.161" transform="matrix(0.661, -0.751, 0.751, 0.661, -33.428, 37.981)" fill="url(#linear-gradient-11)"/>
        </g>
      </g>
      <g id="Grupo_1185925" data-name="Grupo 1185925" transform="translate(0 0)">
        <g id="Grupo_1185924" data-name="Grupo 1185924" clip-path="url(#clip-path-2)">
          <g id="Grupo_1185918" data-name="Grupo 1185918" transform="translate(17.877 54.565)" style="mix-blend-mode: screen;isolation: isolate">
            <g id="Grupo_1185917" data-name="Grupo 1185917">
              <g id="Grupo_1185916" data-name="Grupo 1185916" clip-path="url(#clip-path-5)">
                <g id="Grupo_1185915" data-name="Grupo 1185915" transform="translate(0 0)">
                  <g id="Grupo_1185914" data-name="Grupo 1185914" clip-path="url(#clip-path-27)">
                    <rect id="Rectángulo_425665" data-name="Rectángulo 425665" width="30.993" height="30.93" transform="matrix(0.579, -0.816, 0.816, 0.579, -10.542, 14.3)" fill="url(#linear-gradient-12)"/>
                  </g>
                </g>
              </g>
            </g>
          </g>
          <g id="Grupo_1185923" data-name="Grupo 1185923" transform="translate(39.027 36.376)" style="mix-blend-mode: screen;isolation: isolate">
            <g id="Grupo_1185922" data-name="Grupo 1185922">
              <g id="Grupo_1185921" data-name="Grupo 1185921" clip-path="url(#clip-path-15)">
                <g id="Grupo_1185920" data-name="Grupo 1185920" transform="translate(0 0)">
                  <g id="Grupo_1185919" data-name="Grupo 1185919" clip-path="url(#clip-path-29)">
                    <rect id="Rectángulo_425667" data-name="Rectángulo 425667" width="31.325" height="31.401" transform="matrix(0.579, -0.816, 0.816, 0.579, -10.54, 14.151)" fill="url(#linear-gradient-13)"/>
                  </g>
                </g>
              </g>
            </g>
          </g>
        </g>
      </g>
      <g id="Grupo_1185927" data-name="Grupo 1185927" transform="translate(22.557 11.281)">
        <g id="Grupo_1185926" data-name="Grupo 1185926" transform="translate(0 0)" clip-path="url(#clip-path-30)">
          <rect id="Rectángulo_425670" data-name="Rectángulo 425670" width="62.767" height="65.062" transform="translate(0 0)" fill="url(#linear-gradient-14)"/>
        </g>
      </g>
      <g id="Grupo_1185942" data-name="Grupo 1185942" transform="translate(0 0)">
        <g id="Grupo_1185941" data-name="Grupo 1185941" clip-path="url(#clip-path-2)">
          <g id="Grupo_1185932" data-name="Grupo 1185932" transform="translate(80.644 8.94)" style="mix-blend-mode: multiply;isolation: isolate">
            <g id="Grupo_1185931" data-name="Grupo 1185931">
              <g id="Grupo_1185930" data-name="Grupo 1185930" clip-path="url(#clip-path-19)">
                <g id="Grupo_1185929" data-name="Grupo 1185929">
                  <g id="Grupo_1185928" data-name="Grupo 1185928" clip-path="url(#clip-path-33)">
                    <rect id="Rectángulo_425671" data-name="Rectángulo 425671" width="4.679" height="36.012" transform="translate(0 0)" fill="url(#linear-gradient-15)"/>
                  </g>
                </g>
              </g>
            </g>
          </g>
          <g id="Grupo_1185937" data-name="Grupo 1185937" transform="translate(17.877 42.612)" style="mix-blend-mode: multiply;isolation: isolate">
            <g id="Grupo_1185936" data-name="Grupo 1185936">
              <g id="Grupo_1185935" data-name="Grupo 1185935" clip-path="url(#clip-path-21)">
                <g id="Grupo_1185934" data-name="Grupo 1185934" transform="translate(0)">
                  <g id="Grupo_1185933" data-name="Grupo 1185933" clip-path="url(#clip-path-35)">
                    <rect id="Rectángulo_425673" data-name="Rectángulo 425673" width="67.446" height="33.73" transform="translate(0 0)" fill="url(#linear-gradient-16)"/>
                  </g>
                </g>
              </g>
            </g>
          </g>
          <g id="Grupo_1185940" data-name="Grupo 1185940" transform="translate(22.505 11.244)" style="mix-blend-mode: overlay;isolation: isolate">
            <g id="Grupo_1185939" data-name="Grupo 1185939">
              <g id="Grupo_1185938" data-name="Grupo 1185938" clip-path="url(#clip-path-10)">
                <path id="Trazado_1055437" data-name="Trazado 1055437" d="M94.075,111.936a.24.24,0,0,1-.2-.373l10.148-15.222c2.07-3.105,5.471-4.774,7.581-3.719,1.9.951,5.026-.645,6.967-3.556l7.274-10.911c2.07-3.105,5.47-4.774,7.581-3.719,1.9.951,5.027-.645,6.967-3.556l15.926-23.892a.24.24,0,1,1,.4.266L140.791,71.144c-2.07,3.105-5.47,4.773-7.581,3.719-1.9-.951-5.026.645-6.967,3.556L118.97,89.331c-2.07,3.105-5.47,4.774-7.581,3.719-1.9-.95-5.026.645-6.967,3.556L94.274,111.83a.24.24,0,0,1-.2.107" transform="translate(-93.835 -46.88)" fill="#fff"/>
              </g>
            </g>
          </g>
        </g>
      </g>
      <rect id="Rectángulo_425677" data-name="Rectángulo 425677" width="85.428" height="76.342" transform="translate(0 0)" fill="none"/>
    </g>
  </g>
</svg>
