<svg xmlns="http://www.w3.org/2000/svg" width="46.844" height="46" viewBox="0 0 46.844 46">
  <g id="Grupo_1186341" data-name="Grupo 1186341" transform="translate(-778.742 -2052.006)">
    <g id="Grupo_1022340" data-name="Grupo 1022340" transform="translate(361.586 -233.994)">
      <g id="Grupo_77443" data-name="Grupo 77443" transform="translate(177)">
        <rect id="Rect치ngulo_32442" data-name="Rect치ngulo 32442" width="31" height="31" transform="translate(256 2286)" fill="#dc49f8"/>
      </g>
      <rect id="Rect치ngulo_33680" data-name="Rect치ngulo 33680" width="43" height="46" transform="translate(421 2286)" fill="none"/>
    </g>
    <g id="Grupo_1186340" data-name="Grupo 1186340" transform="translate(752.294 2019.466)">
      <path id="Trazado_1055850" data-name="Trazado 1055850" d="M84.254,66.533A10.744,10.744,0,0,0,73.889,80.011l-.227.193c-.118-.047-.238-.089-.359-.125l-.135-.658a.815.815,0,0,0-.85-.653l-1.425.086a.821.821,0,0,0-.766.75l-.055.671c-.116.051-.23.107-.343.166l-.565-.374a.825.825,0,0,0-1.059.144l-.95,1.071a.815.815,0,0,0-.008,1.07l.436.513c-.047.118-.089.238-.125.359l-.658.135a.821.821,0,0,0-.653.85l.086,1.432a.816.816,0,0,0,.75.758l.671.055c.051.117.107.231.168.343l-.371.561a.819.819,0,0,0,.14,1.063l1.071.95a.816.816,0,0,0,1.07.01h0l.513-.436c.118.047.238.089.359.125l.135.658a.822.822,0,0,0,.8.654h.048L73.02,90.3a.822.822,0,0,0,.758-.75l.055-.671c.117-.051.231-.107.343-.168l.561.371a.824.824,0,0,0,1.063-.14l.95-1.071a.815.815,0,0,0,.008-1.07l-.436-.513c.047-.118.089-.238.125-.359l.542-.111a11.13,11.13,0,0,1,1.092,2.8,7.716,7.716,0,0,1,.192,1.121c.052.656.061,1.229.052,1.889a2.577,2.577,0,0,0,.746,1.855,2.614,2.614,0,0,0,.53.413v1.635a.576.576,0,0,0-.02,1.127l.02,0v1.81a.577.577,0,0,0-.02,1.128l.02,0v.483a1.658,1.658,0,0,0,1.655,1.655h.7a.578.578,0,0,0,.577.553h3.454a.578.578,0,0,0,.577-.553h.684a1.658,1.658,0,0,0,1.655-1.655V98.567l.063-.029a.577.577,0,0,0,.279-.767.571.571,0,0,0-.343-.3V95.625l.063-.029a.577.577,0,0,0,.279-.767.571.571,0,0,0-.343-.3v-.631a2.6,2.6,0,0,0,.529-.413,2.576,2.576,0,0,0,.749-1.854c-.008-.661,0-1.234.052-1.891a7.612,7.612,0,0,1,.192-1.121,11.147,11.147,0,0,1,1.487-3.468l1.734-2.7a10.744,10.744,0,0,0-9.4-15.913Zm-8.39,18.333a.577.577,0,0,0-.45.446,3.46,3.46,0,0,1-.282.816.574.574,0,0,0,.078.629l.481.567-.56.63-.619-.409a.571.571,0,0,0-.633,0,3.555,3.555,0,0,1-.778.381.575.575,0,0,0-.388.5l-.061.74-.842.051-.149-.726a.577.577,0,0,0-.446-.45,3.476,3.476,0,0,1-.818-.283.574.574,0,0,0-.627.079l-.567.481-.63-.56.409-.619a.577.577,0,0,0,0-.633,3.554,3.554,0,0,1-.381-.778.575.575,0,0,0-.5-.388l-.74-.061-.051-.842.726-.149a.577.577,0,0,0,.45-.446,3.476,3.476,0,0,1,.283-.818.577.577,0,0,0-.079-.627l-.481-.567.561-.632.617.409a.574.574,0,0,0,.632,0,3.628,3.628,0,0,1,.78-.381.575.575,0,0,0,.388-.5l.061-.74.842-.051.149.726a.577.577,0,0,0,.446.45,3.459,3.459,0,0,1,.816.282.566.566,0,0,0,.629-.078l.567-.481.632.561-.409.617a.58.58,0,0,0,0,.632,3.629,3.629,0,0,1,.381.78.575.575,0,0,0,.5.388l.74.061.051.842Zm11.888,15.219a.5.5,0,0,1-.5.5H81.258a.5.5,0,0,1-.5-.5V99.81a13.152,13.152,0,0,0,1.7.109,16.9,16.9,0,0,0,5.293-.908v1.074Zm0-2.3a15.16,15.16,0,0,1-6.993.861V96.868a13.156,13.156,0,0,0,1.7.109,16.9,16.9,0,0,0,5.293-.908Zm0-2.942a15.146,15.146,0,0,1-6.993.861V94.247c.052,0,.105.005.158.005h6.677c.053,0,.106,0,.158-.005Zm4.906-12.986-1.713,2.667A12.32,12.32,0,0,0,89.3,88.349a8.548,8.548,0,0,0-.217,1.3c-.056.692-.066,1.3-.058,2A1.435,1.435,0,0,1,87.594,93.1H80.917a1.435,1.435,0,0,1-1.434-1.455c.008-.7,0-1.3-.058-2a8.543,8.543,0,0,0-.22-1.3,12.291,12.291,0,0,0-1.452-3.523l-.079-1.31a.815.815,0,0,0-.75-.766l-.671-.055c-.051-.116-.107-.23-.166-.343l.374-.565a.822.822,0,0,0-.144-1.059l-1.069-.947a.806.806,0,0,0-.266-.158,9.564,9.564,0,1,1,17.676,2.233Z" transform="translate(-36.123 -26.839)"/>
      <path id="Trazado_1055851" data-name="Trazado 1055851" d="M184.991,96.037l-1.016.682a6.9,6.9,0,0,0-.839-.4l-.109-1.221a.95.95,0,0,0-.894-.859l-2.194-.116a.921.921,0,0,0-.981.763l-.235,1.2a6.972,6.972,0,0,0-.875.312l-.94-.787a.942.942,0,0,0-1.241.024l-1.635,1.472a.94.94,0,0,0-.151,1.231l.682,1.016a6.707,6.707,0,0,0-.4.837l-1.217.11a.952.952,0,0,0-.864.894l-.116,2.194a.956.956,0,0,0,.764.981l1.2.235a6.972,6.972,0,0,0,.312.875l-.787.94a.942.942,0,0,0,.024,1.241l1.469,1.633a.946.946,0,0,0,1.232.154l1.018-.682a6.705,6.705,0,0,0,.837.4l.11,1.217a.95.95,0,0,0,.892.864l2.2.116h.051a.952.952,0,0,0,.929-.766l.237-1.2a7.055,7.055,0,0,0,.875-.312l.939.785a.952.952,0,0,0,1.242-.023l1.633-1.469a.948.948,0,0,0,.152-1.234l-.681-1.016a7.013,7.013,0,0,0,.4-.837l1.217-.11a.946.946,0,0,0,.863-.892l.116-2.2a.951.951,0,0,0-.763-.98l-1.2-.237a7.039,7.039,0,0,0-.312-.875l.785-.939a.952.952,0,0,0-.023-1.242l-1.472-1.635a.94.94,0,0,0-1.231-.151Zm.744,4.136a5.739,5.739,0,0,1,.472,1.328.577.577,0,0,0,.453.441l1.382.272-.1,1.836-1.4.125a.58.58,0,0,0-.5.392,5.667,5.667,0,0,1-.608,1.269.577.577,0,0,0,.007.633l.787,1.173-1.366,1.229-1.083-.905a.585.585,0,0,0-.629-.075,5.7,5.7,0,0,1-1.327.472.579.579,0,0,0-.443.453l-.272,1.383-1.834-.1-.127-1.406a.58.58,0,0,0-.392-.5,5.579,5.579,0,0,1-1.269-.608.58.58,0,0,0-.633.007l-1.173.787-1.229-1.366.905-1.083a.579.579,0,0,0,.075-.629,5.7,5.7,0,0,1-.472-1.327.577.577,0,0,0-.453-.443l-1.383-.271.1-1.836,1.406-.127a.58.58,0,0,0,.5-.392,5.579,5.579,0,0,1,.608-1.269.577.577,0,0,0-.007-.633l-.787-1.173,1.366-1.229,1.083.905a.588.588,0,0,0,.629.075,5.7,5.7,0,0,1,1.327-.472.577.577,0,0,0,.443-.453l.271-1.382,1.836.1.125,1.4a.578.578,0,0,0,.393.5,5.759,5.759,0,0,1,1.27.608.574.574,0,0,0,.632-.007l1.173-.787,1.229,1.366-.905,1.083a.579.579,0,0,0-.075.629Z" transform="translate(-132.42 -51.943)"/>
      <path id="Trazado_1055852" data-name="Trazado 1055852" d="M219.9,135.306a4.769,4.769,0,0,0-.515,9.525c.087,0,.173.007.258.007a4.769,4.769,0,0,0,.257-9.532Zm3.351,4.957a3.6,3.6,0,0,1-1.194,2.5,3.532,3.532,0,0,1-2.61.919,3.615,3.615,0,0,1,.192-7.224c.066,0,.133,0,.2.006a3.616,3.616,0,0,1,3.413,3.8Z" transform="translate(-171.468 -89.417)"/>
      <path id="Trazado_1055853" data-name="Trazado 1055853" d="M248.428,157.248a.644.644,0,0,1,.7.589l1.072.058a1.4,1.4,0,0,0-1.258-1.381l.026-.485-.9-.048-.027.5a1.411,1.411,0,0,0-1.351,1.3c-.038.71.309,1.2,1.564,1.636.689.237.876.429.856.8-.016.3-.209.56-.768.53a.8.8,0,0,1-.8-.68l-1.071-.058a1.523,1.523,0,0,0,1.357,1.471l-.033.608.9.049.033-.611a1.423,1.423,0,0,0,1.461-1.374c.043-.8-.356-1.282-1.467-1.658-.8-.271-.966-.429-.948-.759C247.79,157.5,247.943,157.222,248.428,157.248Z" transform="translate(-200.223 -108.237)"/>
      <path id="Trazado_1055854" data-name="Trazado 1055854" d="M108.874,240.659a2.423,2.423,0,1,0-1.614,4.234c.049,0,.1,0,.147,0a2.424,2.424,0,0,0,1.468-4.229Zm-.663,2.653a1.268,1.268,0,1,1-1.024-2.108l.078,0a1.269,1.269,0,0,1,.946,2.111Z" transform="translate(-71.338 -184.739)"/>
      <path id="Trazado_1055855" data-name="Trazado 1055855" d="M344.68,38.45l1.447-.262a.577.577,0,0,0,.465-.671.565.565,0,0,0-.671-.465l-3.21.581a.577.577,0,0,0-.391.868l1.645,2.7a.578.578,0,0,0,.987-.6l-.62-1.017a19.517,19.517,0,0,1,7.8,25.1.578.578,0,1,0,1.046.491A20.676,20.676,0,0,0,344.68,38.45Z" transform="translate(-287.372)"/>
      <path id="Trazado_1055856" data-name="Trazado 1055856" d="M37.4,171.9a.578.578,0,1,0-1,.586l.6,1.027A19.492,19.492,0,0,1,29.587,148.3a.578.578,0,1,0-1.038-.508,20.647,20.647,0,0,0,8.09,26.851l-1.451.241a.578.578,0,0,0,.094,1.148.545.545,0,0,0,.094-.008l3.219-.533a.578.578,0,0,0,.4-.863Z" transform="translate(0 -100.489)"/>
    </g>
  </g>
</svg>
