<svg xmlns="http://www.w3.org/2000/svg" width="49.972" height="46" viewBox="0 0 49.972 46">
  <g id="Grupo_1186343" data-name="Grupo 1186343" transform="translate(-1026.64 -2052.006)">
    <g id="Grupo_1022340" data-name="Grupo 1022340" transform="translate(612.611 -233.994)">
      <g id="Grupo_77443" data-name="Grupo 77443" transform="translate(177)">
        <rect id="Rect치ngulo_32442" data-name="Rect치ngulo 32442" width="31" height="31" transform="translate(256 2286)" fill="#dc49f8"/>
      </g>
      <rect id="Rect치ngulo_33680" data-name="Rect치ngulo 33680" width="43" height="46" transform="translate(421 2286)" fill="none"/>
    </g>
    <path id="Trazado_1055857" data-name="Trazado 1055857" d="M36.05,24.657A10.347,10.347,0,1,0,25.7,35,10.359,10.359,0,0,0,36.05,24.657ZM25.7,33.682a9.024,9.024,0,1,1,9.024-9.024A9.035,9.035,0,0,1,25.7,33.682Zm-.017-16.054a6.935,6.935,0,1,0,6.935,6.935,6.943,6.943,0,0,0-6.935-6.935Zm0,12.547A5.612,5.612,0,1,1,31.3,24.562,5.619,5.619,0,0,1,25.687,30.175ZM29.8,21.416a1.77,1.77,0,0,0-2.5,0L24.73,23.982l-.654-.654a1.768,1.768,0,0,0-2.5,2.5L23.3,27.55a2.132,2.132,0,0,0,1.492.671A1.694,1.694,0,0,0,26,27.711l3.8-3.8a1.771,1.771,0,0,0,0-2.5Zm-.935,1.565-3.8,3.8c-.312.312-.717-.044-.834-.161l-1.721-1.722a.451.451,0,0,1,0-.63.449.449,0,0,1,.63,0l1.121,1.121a.661.661,0,0,0,.935,0l3.034-3.034a.445.445,0,0,1,.63.63ZM49.449,37.337l-1.2-.461a8.45,8.45,0,0,0-.76-1.833l.522-1.174a.661.661,0,0,0-.137-.736l-1.751-1.751a.661.661,0,0,0-.736-.137l-1.175.522a8.447,8.447,0,0,0-1.832-.76l-.461-1.2a.661.661,0,0,0-.617-.424H39.286q.18-.517.321-1.048l2.331-.9a.661.661,0,0,0,.424-.617v-4.33a.661.661,0,0,0-.424-.617l-2.33-.9a14.284,14.284,0,0,0-1.472-3.55l1.014-2.283a.661.661,0,0,0-.137-.736l-3.062-3.062a.661.661,0,0,0-.736-.137l-2.284,1.014a14.283,14.283,0,0,0-3.549-1.471l-.9-2.331A.661.661,0,0,0,27.868,8h-4.33a.661.661,0,0,0-.617.424l-.9,2.331a14.284,14.284,0,0,0-3.549,1.471l-2.284-1.014a.661.661,0,0,0-.736.137L12.394,14.41a.661.661,0,0,0-.137.736l1.014,2.284A14.282,14.282,0,0,0,11.8,20.979l-2.33.9a.661.661,0,0,0-.424.617v4.33a.661.661,0,0,0,.424.617l2.33.9a14.285,14.285,0,0,0,1.472,3.55l-1.014,2.283a.661.661,0,0,0,.137.736l3.062,3.062a.662.662,0,0,0,.736.137l2.284-1.014a14.287,14.287,0,0,0,3.549,1.471l.9,2.331a.661.661,0,0,0,.617.424h4.33a.661.661,0,0,0,.617-.424l.9-2.33c.295-.078.586-.166.875-.262V40.43a.661.661,0,0,0,.424.617l1.2.461a8.458,8.458,0,0,0,.76,1.833l-.522,1.175a.661.661,0,0,0,.137.736L34.005,47a.662.662,0,0,0,.736.137l1.175-.522a8.445,8.445,0,0,0,1.832.76l.462,1.2a.661.661,0,0,0,.617.424H41.3a.661.661,0,0,0,.617-.424l.461-1.2a8.447,8.447,0,0,0,1.833-.76l1.174.522A.661.661,0,0,0,46.125,47l1.751-1.751a.661.661,0,0,0,.137-.736l-.522-1.175a8.442,8.442,0,0,0,.76-1.833l1.2-.461a.661.661,0,0,0,.424-.617V37.954a.662.662,0,0,0-.424-.617Zm-20.714.023a.661.661,0,0,0-.464.406l-.857,2.226H23.993l-.857-2.227a.661.661,0,0,0-.464-.406,12.972,12.972,0,0,1-3.8-1.577.661.661,0,0,0-.615-.041l-2.183.969L13.65,34.291l.969-2.182a.661.661,0,0,0-.041-.615A12.973,12.973,0,0,1,13,27.689a.661.661,0,0,0-.406-.464l-2.226-.857V22.947L12.6,22.09A.661.661,0,0,0,13,21.626a12.97,12.97,0,0,1,1.577-3.8.661.661,0,0,0,.041-.615l-.969-2.183L16.07,12.6l2.183.969a.661.661,0,0,0,.615-.041,12.971,12.971,0,0,1,3.8-1.577.661.661,0,0,0,.464-.406l.857-2.227h3.422l.857,2.227a.661.661,0,0,0,.464.406,12.975,12.975,0,0,1,3.8,1.577.662.662,0,0,0,.615.041l2.183-.969,2.419,2.419-.969,2.182a.661.661,0,0,0,.041.615,12.971,12.971,0,0,1,1.577,3.8.661.661,0,0,0,.406.464l2.227.857v3.422l-2.227.857a.661.661,0,0,0-.406.464,12.972,12.972,0,0,1-1.444,3.583,8.447,8.447,0,0,0-1.045.494l-1.175-.522a.661.661,0,0,0-.736.137l-1.751,1.751a.661.661,0,0,0-.137.736l.522,1.175a8.453,8.453,0,0,0-.456.949,12.978,12.978,0,0,1-3.448,1.368Zm19.815,2.615-1.092.42a.661.661,0,0,0-.406.464,7.132,7.132,0,0,1-.867,2.092.661.661,0,0,0-.041.615l.475,1.07-1.108,1.108-1.07-.475a.661.661,0,0,0-.615.041,7.13,7.13,0,0,1-2.093.867.661.661,0,0,0-.464.406l-.42,1.092H39.281l-.42-1.092a.661.661,0,0,0-.464-.406,7.138,7.138,0,0,1-2.092-.867.661.661,0,0,0-.615-.041l-1.07.475-1.108-1.108.475-1.07a.661.661,0,0,0-.041-.615,7.136,7.136,0,0,1-.868-2.093.661.661,0,0,0-.406-.464l-1.092-.42V38.408l1.092-.42a.661.661,0,0,0,.406-.464,7.134,7.134,0,0,1,.867-2.092.661.661,0,0,0,.041-.615l-.475-1.07,1.108-1.108,1.07.475a.661.661,0,0,0,.615-.041A7.132,7.132,0,0,1,38.4,32.2a.661.661,0,0,0,.464-.406l.42-1.092h1.568l.42,1.092a.661.661,0,0,0,.464.406,7.135,7.135,0,0,1,2.092.867.661.661,0,0,0,.615.041l1.07-.475,1.108,1.108-.475,1.07a.661.661,0,0,0,.041.615,7.135,7.135,0,0,1,.868,2.093.661.661,0,0,0,.406.464l1.092.42v1.567Zm-8.485-5.807a5.023,5.023,0,1,0,5.024,5.023A5.029,5.029,0,0,0,40.065,34.168Zm0,8.724a3.7,3.7,0,1,1,3.7-3.7A3.705,3.705,0,0,1,40.065,42.893Z" transform="translate(1017.594 2049.006)"/>
  </g>
</svg>
