<svg xmlns="http://www.w3.org/2000/svg" width="43" height="46" viewBox="0 0 43 46">
  <g id="Grupo_1185949" data-name="Grupo 1185949" transform="translate(-372 -2568.312)">
    <g id="Grupo_1022342" data-name="Grupo 1022342" transform="translate(-49 282.312)">
      <g id="Grupo_77443" data-name="Grupo 77443" transform="translate(177)">
        <rect id="Rect치ngulo_32442" data-name="Rect치ngulo 32442" width="31" height="31" transform="translate(256 2286)" fill="#dc49f8"/>
      </g>
      <rect id="Rect치ngulo_33680" data-name="Rect치ngulo 33680" width="43" height="46" transform="translate(421 2286)" fill="none"/>
    </g>
    <path id="Trazado_1055440" data-name="Trazado 1055440" d="M87.805,4.251H82.116V2.732a.607.607,0,0,0-.607-.607H78.359a3.388,3.388,0,0,0-6.288,0H68.92a.607.607,0,0,0-.607.607V4.251H62.625a2.244,2.244,0,0,0-2.242,2.242V36.579a2.244,2.244,0,0,0,2.242,2.242h25.18a2.244,2.244,0,0,0,2.242-2.242V6.493a2.244,2.244,0,0,0-2.242-2.242ZM69.526,3.339h2.987a.607.607,0,0,0,.59-.464,2.174,2.174,0,0,1,4.225,0,.607.607,0,0,0,.59.464H80.9V6.377H69.526Zm19.307,33.24a1.03,1.03,0,0,1-1.029,1.029H62.625A1.03,1.03,0,0,1,61.6,36.579V6.493a1.03,1.03,0,0,1,1.029-1.029h5.688V6.983a.607.607,0,0,0,.607.607H81.51a.607.607,0,0,0,.607-.607V5.464H87.8a1.03,1.03,0,0,1,1.029,1.029V36.579ZM70.556,10.324H65.647A1.249,1.249,0,0,0,64.4,11.571V16.48a1.249,1.249,0,0,0,1.247,1.247h4.909A1.249,1.249,0,0,0,71.8,16.48V11.571A1.249,1.249,0,0,0,70.556,10.324Zm.034,6.156a.036.036,0,0,1-.034.034H65.647a.036.036,0,0,1-.034-.034V11.571a.036.036,0,0,1,.034-.034h4.909a.036.036,0,0,1,.034.034Zm-.711-3.022-1.536,1.9a.607.607,0,0,1-.44.224h-.032a.606.606,0,0,1-.429-.178l-1.076-1.076a.607.607,0,1,1,.858-.858l.6.6,1.112-1.374a.607.607,0,0,1,.943.763Zm.677,5.7H65.647A1.249,1.249,0,0,0,64.4,20.408v4.909a1.249,1.249,0,0,0,1.247,1.247h4.909A1.249,1.249,0,0,0,71.8,25.317V20.408a1.249,1.249,0,0,0-1.247-1.247Zm.034,6.156a.036.036,0,0,1-.034.034H65.647a.036.036,0,0,1-.034-.034V20.408a.036.036,0,0,1,.034-.034h4.909a.036.036,0,0,1,.034.034Zm-.711-3.022-1.536,1.9a.607.607,0,0,1-.44.224h-.032a.606.606,0,0,1-.429-.178l-1.076-1.076a.606.606,0,1,1,.858-.858l.6.6,1.112-1.374a.607.607,0,0,1,.943.763Zm.677,5.7H65.647A1.249,1.249,0,0,0,64.4,29.244v4.909A1.249,1.249,0,0,0,65.647,35.4h4.909A1.249,1.249,0,0,0,71.8,34.153V29.244A1.249,1.249,0,0,0,70.556,28Zm.034,6.157a.036.036,0,0,1-.034.034H65.647a.036.036,0,0,1-.034-.034V29.244a.036.036,0,0,1,.034-.034h4.909a.036.036,0,0,1,.034.034Zm-.711-3.022-1.536,1.9a.607.607,0,0,1-.44.224h-.032a.606.606,0,0,1-.429-.178L66.367,32a.607.607,0,1,1,.858-.858l.6.6,1.112-1.374a.607.607,0,0,1,.943.763ZM83.752,12.756a.607.607,0,0,1-.607.607H75.108a.607.607,0,1,1,0-1.213h8.037A.607.607,0,0,1,83.752,12.756ZM74.5,15.3a.607.607,0,0,1,.607-.607H80.34a.607.607,0,1,1,0,1.213H75.108A.607.607,0,0,1,74.5,15.3Zm9.25,6.3a.607.607,0,0,1-.607.607H75.108a.607.607,0,0,1,0-1.213h8.037A.607.607,0,0,1,83.752,21.592Zm-9.25,2.54a.607.607,0,0,1,.607-.607H80.34a.607.607,0,1,1,0,1.213H75.108A.607.607,0,0,1,74.5,24.132Zm9.25,6.3a.607.607,0,0,1-.607.607H75.108a.607.607,0,1,1,0-1.213h8.037A.607.607,0,0,1,83.752,30.429Zm-2.805,2.54a.607.607,0,0,1-.607.607H75.108a.607.607,0,1,1,0-1.213H80.34A.607.607,0,0,1,80.947,32.969Z" transform="translate(314.953 2574.492)"/>
  </g>
</svg>
