<svg xmlns="http://www.w3.org/2000/svg" width="47" height="46" viewBox="0 0 47 46">
  <g id="Grupo_1185948" data-name="Grupo 1185948" transform="translate(-810 -2572.312)">
    <g id="Grupo_1022340" data-name="Grupo 1022340" transform="translate(393 286.312)">
      <g id="Grupo_77443" data-name="Grupo 77443" transform="translate(177)">
        <rect id="Rect치ngulo_32442" data-name="Rect치ngulo 32442" width="31" height="31" transform="translate(256 2286)" fill="#dc49f8"/>
      </g>
      <rect id="Rect치ngulo_33680" data-name="Rect치ngulo 33680" width="43" height="46" transform="translate(421 2286)" fill="none"/>
    </g>
    <g id="Grupo_1185945" data-name="Grupo 1185945" transform="translate(803 2569.642)">
      <path id="Trazado_1055441" data-name="Trazado 1055441" d="M30.334,28.816a8.333,8.333,0,0,0,3.611-15.844.833.833,0,0,0-.721,1.5,6.667,6.667,0,1,1-5.78,0,.833.833,0,1,0-.721-1.5,8.333,8.333,0,0,0,3.611,15.844Z" transform="translate(-2.499 -0.981)"/>
      <path id="Trazado_1055442" data-name="Trazado 1055442" d="M28.948,19.809a5.041,5.041,0,0,0-2.466,2.521.834.834,0,0,0,0,.676,5.009,5.009,0,0,0,9.174,0,.835.835,0,0,0,0-.678,5.108,5.108,0,0,0-1.05-1.535,5.049,5.049,0,0,0-1.416-.982,2.476,2.476,0,0,0,.38-1.309,2.5,2.5,0,0,0-5,0A2.476,2.476,0,0,0,28.948,19.809Zm5.012,2.858a3.339,3.339,0,0,1-5.781,0,3.333,3.333,0,0,1,5.781,0Zm-2.891-5a.833.833,0,1,1-.833.833A.834.834,0,0,1,31.069,17.667Z" transform="translate(-3.234 -1.499)"/>
      <path id="Trazado_1055443" data-name="Trazado 1055443" d="M32.845,48.644l-2.078,2.078-.745-.744a.833.833,0,1,0-1.178,1.178l1.334,1.333a.854.854,0,0,0,1.178,0l2.667-2.667a.833.833,0,1,0-1.178-1.178Z" transform="translate(-3.599 -6.897)"/>
      <path id="Trazado_1055444" data-name="Trazado 1055444" d="M13.845,48.644l-2.078,2.078-.745-.744a.833.833,0,0,0-1.178,1.178l1.334,1.334a.843.843,0,0,0,1.178,0l2.667-2.667a.833.833,0,1,0-1.178-1.178Z" transform="translate(-0.433 -6.897)"/>
      <path id="Trazado_1055445" data-name="Trazado 1055445" d="M49.178,52.49a.854.854,0,0,0,1.178,0l2.667-2.667a.833.833,0,0,0-1.178-1.178l-2.078,2.078-.745-.744a.833.833,0,1,0-1.178,1.178Z" transform="translate(-6.764 -6.897)"/>
      <path id="Trazado_1055446" data-name="Trazado 1055446" d="M47.836,38.669H39.5a.833.833,0,0,0-.833.833v3.334H32.835V39.5A.833.833,0,0,0,32,38.669H28.668V31.92a4.732,4.732,0,0,0,.605-.165l3.4,6.6a.833.833,0,0,0,1.471.02l1.9-3.443,3.9.452a.84.84,0,0,0,.837-1.209L37.337,27.5A4.687,4.687,0,0,0,38.058,25a3.033,3.033,0,0,1,.894-2.16,4.722,4.722,0,0,0,0-6.679A3.035,3.035,0,0,1,38.058,14a4.728,4.728,0,0,0-4.723-4.722,3.076,3.076,0,0,1-2.161-.9,4.728,4.728,0,0,0-6.679,0,3.076,3.076,0,0,1-2.161.9A4.728,4.728,0,0,0,17.612,14a3.033,3.033,0,0,1-.894,2.16,4.722,4.722,0,0,0,0,6.679A3.035,3.035,0,0,1,17.612,25a4.686,4.686,0,0,0,.5,2.095l-3.214,6.241a.842.842,0,0,0,.837,1.209l3.9-.452,1.9,3.443A.845.845,0,0,0,23,37.517l3.025-5.879A4.706,4.706,0,0,0,27,31.92v6.749H23.668a.833.833,0,0,0-.833.833v3.334H17V39.5a.833.833,0,0,0-.833-.833H7.833A.833.833,0,0,0,7,39.5v8.334a.833.833,0,0,0,.833.833h8.334A.833.833,0,0,0,17,47.837V44.5h5.834v3.334a.833.833,0,0,0,.833.833H32a.833.833,0,0,0,.833-.833V44.5h5.834v3.334a.833.833,0,0,0,.833.833h8.334a.833.833,0,0,0,.833-.833V39.5a.833.833,0,0,0-.833-.833ZM35.673,33.208a.821.821,0,0,0-.826.426L33.435,36.2,30.744,30.97a4.634,4.634,0,0,0,.43-.351,3.076,3.076,0,0,1,2.161-.9,4.692,4.692,0,0,0,2.8-.927l2.445,4.748ZM17,19.5a3.034,3.034,0,0,1,.9-2.161A4.689,4.689,0,0,0,19.279,14a3.059,3.059,0,0,1,3.056-3.056,4.753,4.753,0,0,0,3.339-1.384,3.059,3.059,0,0,1,4.322,0,4.753,4.753,0,0,0,3.339,1.384A3.059,3.059,0,0,1,36.391,14a4.691,4.691,0,0,0,1.383,3.34,3.055,3.055,0,0,1,0,4.321A4.69,4.69,0,0,0,36.391,25a3.059,3.059,0,0,1-3.056,3.056A4.753,4.753,0,0,0,30,29.44a3.059,3.059,0,0,1-4.322,0,4.753,4.753,0,0,0-3.339-1.384A3.059,3.059,0,0,1,19.279,25a4.691,4.691,0,0,0-1.383-3.34A3.032,3.032,0,0,1,17,19.5Zm5.233,15.862L20.823,32.8A.818.818,0,0,0,20,32.374l-2.905.337,2.141-4.158a4.7,4.7,0,0,0,3.1,1.171,3.076,3.076,0,0,1,2.161.9c.039.039.086.065.126.1ZM15.334,47H8.667V40.336h6.667Zm15.834,0H24.5V40.336h6.667ZM47,47H40.336V40.336H47Z" transform="translate(0 0)"/>
      <circle id="Elipse_12828" data-name="Elipse 12828" cx="0.833" cy="0.833" r="0.833" transform="translate(27.001 11.167)"/>
    </g>
  </g>
</svg>
