<svg xmlns="http://www.w3.org/2000/svg" xmlns:xlink="http://www.w3.org/1999/xlink" width="137.226" height="120.761" viewBox="0 0 137.226 120.761">
  <defs>
    <clipPath id="clip-path">
      <rect id="Rectángulo_414049" data-name="Rectángulo 414049" width="137.223" height="70.004" fill="#9000f9"/>
    </clipPath>
  </defs>
  <g id="Grupo_1186355" data-name="Grupo 1186355" transform="translate(11472.869 10073.41)">
    <g id="Grupo_1182529" data-name="Grupo 1182529" transform="translate(-11859.17 -12670.871)">
      <g id="Enmascarar_grupo_1162743" data-name="Enmascarar grupo 1162743" transform="translate(386.301 2597.461)" clip-path="url(#clip-path)">
        <path id="Trazado_151731" data-name="Trazado 151731" d="M65.336,103.163a37.826,37.826,0,1,1,37.826-37.826,37.869,37.869,0,0,1-37.826,37.826m0,27.51A65.336,65.336,0,1,0,0,65.336,65.336,65.336,0,0,0,65.336,130.673Z" transform="translate(2.835 4.668)" fill="#91b3fa"/>
      </g>
      <g id="Grupo_1176352" data-name="Grupo 1176352" transform="translate(436.645 2631.342)">
        <path id="Trazado_145968" data-name="Trazado 145968" d="M43.44,0A43.44,43.44,0,1,1,0,43.44,43.44,43.44,0,0,1,43.44,0Z" transform="translate(0 0)" fill="#31313c" opacity="0.444" style="mix-blend-mode: multiply;isolation: isolate"/>
        <g id="Grupo_78276" data-name="Grupo 78276" transform="translate(16.96 17.958)">
          <g id="Grupo_53306" data-name="Grupo 53306">
            <path id="Trazado_99200" data-name="Trazado 99200" d="M415.394,50.788a.59.59,0,1,1-.59-.564A.577.577,0,0,1,415.394,50.788Z" transform="translate(-414.214 -50.224)" fill="#fff"/>
            <path id="Trazado_99201" data-name="Trazado 99201" d="M423.84,50.788a.59.59,0,1,1-.59-.564A.577.577,0,0,1,423.84,50.788Z" transform="translate(-417.352 -50.224)" fill="#fff"/>
            <path id="Trazado_99202" data-name="Trazado 99202" d="M432.286,50.788a.591.591,0,1,1-.59-.564A.577.577,0,0,1,432.286,50.788Z" transform="translate(-420.489 -50.224)" fill="#fff"/>
            <path id="Trazado_99203" data-name="Trazado 99203" d="M440.733,50.788a.59.59,0,1,1-.59-.564A.577.577,0,0,1,440.733,50.788Z" transform="translate(-423.627 -50.224)" fill="#fff"/>
            <path id="Trazado_99204" data-name="Trazado 99204" d="M449.179,50.788a.59.59,0,1,1-.59-.564A.577.577,0,0,1,449.179,50.788Z" transform="translate(-426.764 -50.224)" fill="#fff"/>
            <path id="Trazado_99205" data-name="Trazado 99205" d="M457.625,50.788a.59.59,0,1,1-.59-.564A.577.577,0,0,1,457.625,50.788Z" transform="translate(-429.902 -50.224)" fill="#fff"/>
            <path id="Trazado_99206" data-name="Trazado 99206" d="M466.072,50.788a.59.59,0,1,1-.59-.564A.578.578,0,0,1,466.072,50.788Z" transform="translate(-433.039 -50.224)" fill="#fff"/>
            <path id="Trazado_99207" data-name="Trazado 99207" d="M474.518,50.788a.59.59,0,1,1-.59-.564A.577.577,0,0,1,474.518,50.788Z" transform="translate(-436.177 -50.224)" fill="#fff"/>
            <path id="Trazado_99208" data-name="Trazado 99208" d="M482.964,50.788a.591.591,0,1,1-.59-.564A.577.577,0,0,1,482.964,50.788Z" transform="translate(-439.314 -50.224)" fill="#fff"/>
            <path id="Trazado_99209" data-name="Trazado 99209" d="M491.411,50.788a.591.591,0,1,1-.59-.564A.578.578,0,0,1,491.411,50.788Z" transform="translate(-442.452 -50.224)" fill="#fff"/>
            <path id="Trazado_99210" data-name="Trazado 99210" d="M499.857,50.788a.59.59,0,1,1-.59-.564A.577.577,0,0,1,499.857,50.788Z" transform="translate(-445.59 -50.224)" fill="#fff"/>
          </g>
          <g id="Grupo_53307" data-name="Grupo 53307" transform="translate(0 4.513)">
            <path id="Trazado_99211" data-name="Trazado 99211" d="M415.394,58.3a.59.59,0,1,1-.59-.564A.577.577,0,0,1,415.394,58.3Z" transform="translate(-414.214 -57.732)" fill="#fff"/>
            <path id="Trazado_99212" data-name="Trazado 99212" d="M423.84,58.3a.59.59,0,1,1-.59-.564A.577.577,0,0,1,423.84,58.3Z" transform="translate(-417.352 -57.732)" fill="#fff"/>
            <path id="Trazado_99213" data-name="Trazado 99213" d="M432.286,58.3a.591.591,0,1,1-.59-.564A.577.577,0,0,1,432.286,58.3Z" transform="translate(-420.489 -57.732)" fill="#fff"/>
            <path id="Trazado_99214" data-name="Trazado 99214" d="M440.733,58.3a.59.59,0,1,1-.59-.564A.577.577,0,0,1,440.733,58.3Z" transform="translate(-423.627 -57.732)" fill="#fff"/>
            <path id="Trazado_99215" data-name="Trazado 99215" d="M449.179,58.3a.59.59,0,1,1-.59-.564A.577.577,0,0,1,449.179,58.3Z" transform="translate(-426.764 -57.732)" fill="#fff"/>
            <path id="Trazado_99216" data-name="Trazado 99216" d="M457.625,58.3a.59.59,0,1,1-.59-.564A.577.577,0,0,1,457.625,58.3Z" transform="translate(-429.902 -57.732)" fill="#fff"/>
            <path id="Trazado_99217" data-name="Trazado 99217" d="M466.072,58.3a.59.59,0,1,1-.59-.564A.578.578,0,0,1,466.072,58.3Z" transform="translate(-433.039 -57.732)" fill="#fff"/>
            <path id="Trazado_99218" data-name="Trazado 99218" d="M474.518,58.3a.59.59,0,1,1-.59-.564A.577.577,0,0,1,474.518,58.3Z" transform="translate(-436.177 -57.732)" fill="#fff"/>
            <path id="Trazado_99219" data-name="Trazado 99219" d="M482.964,58.3a.591.591,0,1,1-.59-.564A.577.577,0,0,1,482.964,58.3Z" transform="translate(-439.314 -57.732)" fill="#fff"/>
            <path id="Trazado_99220" data-name="Trazado 99220" d="M491.411,58.3a.591.591,0,1,1-.59-.564A.578.578,0,0,1,491.411,58.3Z" transform="translate(-442.452 -57.732)" fill="#fff"/>
            <path id="Trazado_99221" data-name="Trazado 99221" d="M499.857,58.3a.59.59,0,1,1-.59-.564A.577.577,0,0,1,499.857,58.3Z" transform="translate(-445.59 -57.732)" fill="#fff"/>
          </g>
          <g id="Grupo_53308" data-name="Grupo 53308" transform="translate(0 9.026)">
            <ellipse id="Elipse_3955" data-name="Elipse 3955" cx="0.59" cy="0.564" rx="0.59" ry="0.564" fill="#fff"/>
            <path id="Trazado_99222" data-name="Trazado 99222" d="M423.84,65.8a.59.59,0,1,1-.59-.564A.578.578,0,0,1,423.84,65.8Z" transform="translate(-417.352 -65.24)" fill="#fff"/>
            <ellipse id="Elipse_3956" data-name="Elipse 3956" cx="0.59" cy="0.564" rx="0.59" ry="0.564" transform="translate(10.617)" fill="#fff"/>
            <path id="Trazado_99223" data-name="Trazado 99223" d="M440.733,65.8a.59.59,0,1,1-.59-.564A.578.578,0,0,1,440.733,65.8Z" transform="translate(-423.627 -65.24)" fill="#fff"/>
            <path id="Trazado_99224" data-name="Trazado 99224" d="M449.179,65.8a.59.59,0,1,1-.59-.564A.578.578,0,0,1,449.179,65.8Z" transform="translate(-426.764 -65.24)" fill="#fff"/>
            <ellipse id="Elipse_3957" data-name="Elipse 3957" cx="0.59" cy="0.564" rx="0.59" ry="0.564" transform="translate(26.544)" fill="#fff"/>
            <path id="Trazado_99225" data-name="Trazado 99225" d="M466.072,65.8a.59.59,0,1,1-.59-.564A.578.578,0,0,1,466.072,65.8Z" transform="translate(-433.039 -65.24)" fill="#fff"/>
            <ellipse id="Elipse_3958" data-name="Elipse 3958" cx="0.59" cy="0.564" rx="0.59" ry="0.564" transform="translate(37.161)" fill="#fff"/>
            <ellipse id="Elipse_3959" data-name="Elipse 3959" cx="0.59" cy="0.564" rx="0.59" ry="0.564" transform="translate(42.47)" fill="#fff"/>
            <path id="Trazado_99226" data-name="Trazado 99226" d="M491.411,65.8a.591.591,0,1,1-.59-.564A.578.578,0,0,1,491.411,65.8Z" transform="translate(-442.452 -65.24)" fill="#fff"/>
            <path id="Trazado_99227" data-name="Trazado 99227" d="M499.857,65.8a.59.59,0,1,1-.59-.564A.578.578,0,0,1,499.857,65.8Z" transform="translate(-445.59 -65.24)" fill="#fff"/>
          </g>
          <g id="Grupo_53309" data-name="Grupo 53309" transform="translate(0 13.538)">
            <ellipse id="Elipse_3960" data-name="Elipse 3960" cx="0.59" cy="0.564" rx="0.59" ry="0.564" transform="translate(0 0)" fill="#fff"/>
            <path id="Trazado_99228" data-name="Trazado 99228" d="M423.84,73.311a.59.59,0,1,1-.59-.564A.577.577,0,0,1,423.84,73.311Z" transform="translate(-417.352 -72.747)" fill="#fff"/>
            <ellipse id="Elipse_3961" data-name="Elipse 3961" cx="0.59" cy="0.564" rx="0.59" ry="0.564" transform="translate(10.617 0)" fill="#fff"/>
            <path id="Trazado_99229" data-name="Trazado 99229" d="M440.733,73.311a.59.59,0,1,1-.59-.564A.577.577,0,0,1,440.733,73.311Z" transform="translate(-423.627 -72.747)" fill="#fff"/>
            <path id="Trazado_99230" data-name="Trazado 99230" d="M449.179,73.311a.59.59,0,1,1-.59-.564A.577.577,0,0,1,449.179,73.311Z" transform="translate(-426.764 -72.747)" fill="#fff"/>
            <ellipse id="Elipse_3962" data-name="Elipse 3962" cx="0.59" cy="0.564" rx="0.59" ry="0.564" transform="translate(26.544 0)" fill="#fff"/>
            <path id="Trazado_99231" data-name="Trazado 99231" d="M466.072,73.311a.59.59,0,1,1-.59-.564A.578.578,0,0,1,466.072,73.311Z" transform="translate(-433.039 -72.747)" fill="#fff"/>
            <ellipse id="Elipse_3963" data-name="Elipse 3963" cx="0.59" cy="0.564" rx="0.59" ry="0.564" transform="translate(37.161 0)" fill="#fff"/>
            <ellipse id="Elipse_3964" data-name="Elipse 3964" cx="0.59" cy="0.564" rx="0.59" ry="0.564" transform="translate(42.47 0)" fill="#fff"/>
            <path id="Trazado_99232" data-name="Trazado 99232" d="M491.411,73.311a.59.59,0,1,1-.59-.564A.578.578,0,0,1,491.411,73.311Z" transform="translate(-442.452 -72.747)" fill="#fff"/>
            <path id="Trazado_99233" data-name="Trazado 99233" d="M499.857,73.311a.59.59,0,1,1-.59-.564A.577.577,0,0,1,499.857,73.311Z" transform="translate(-445.59 -72.747)" fill="#fff"/>
          </g>
          <g id="Grupo_53310" data-name="Grupo 53310" transform="translate(0 18.051)">
            <path id="Trazado_99234" data-name="Trazado 99234" d="M415.394,80.819a.59.59,0,1,1-.59-.564A.577.577,0,0,1,415.394,80.819Z" transform="translate(-414.214 -80.255)" fill="#fff"/>
            <path id="Trazado_99235" data-name="Trazado 99235" d="M423.84,80.819a.59.59,0,1,1-.59-.564A.577.577,0,0,1,423.84,80.819Z" transform="translate(-417.352 -80.255)" fill="#fff"/>
            <path id="Trazado_99236" data-name="Trazado 99236" d="M432.286,80.819a.59.59,0,1,1-.59-.564A.577.577,0,0,1,432.286,80.819Z" transform="translate(-420.489 -80.255)" fill="#fff"/>
            <path id="Trazado_99237" data-name="Trazado 99237" d="M440.733,80.819a.59.59,0,1,1-.59-.564A.577.577,0,0,1,440.733,80.819Z" transform="translate(-423.627 -80.255)" fill="#fff"/>
            <path id="Trazado_99238" data-name="Trazado 99238" d="M449.179,80.819a.59.59,0,1,1-.59-.564A.577.577,0,0,1,449.179,80.819Z" transform="translate(-426.764 -80.255)" fill="#fff"/>
            <path id="Trazado_99239" data-name="Trazado 99239" d="M457.625,80.819a.59.59,0,1,1-.59-.564A.577.577,0,0,1,457.625,80.819Z" transform="translate(-429.902 -80.255)" fill="#fff"/>
            <path id="Trazado_99240" data-name="Trazado 99240" d="M466.072,80.819a.59.59,0,1,1-.59-.564A.578.578,0,0,1,466.072,80.819Z" transform="translate(-433.039 -80.255)" fill="#fff"/>
            <path id="Trazado_99241" data-name="Trazado 99241" d="M474.518,80.819a.59.59,0,1,1-.59-.564A.577.577,0,0,1,474.518,80.819Z" transform="translate(-436.177 -80.255)" fill="#fff"/>
            <path id="Trazado_99242" data-name="Trazado 99242" d="M482.964,80.819a.59.59,0,1,1-.59-.564A.577.577,0,0,1,482.964,80.819Z" transform="translate(-439.314 -80.255)" fill="#fff"/>
            <path id="Trazado_99243" data-name="Trazado 99243" d="M491.411,80.819a.59.59,0,1,1-.59-.564A.578.578,0,0,1,491.411,80.819Z" transform="translate(-442.452 -80.255)" fill="#fff"/>
            <path id="Trazado_99244" data-name="Trazado 99244" d="M499.857,80.819a.59.59,0,1,1-.59-.564A.577.577,0,0,1,499.857,80.819Z" transform="translate(-445.59 -80.255)" fill="#fff"/>
          </g>
          <g id="Grupo_53311" data-name="Grupo 53311" transform="translate(0 22.564)">
            <ellipse id="Elipse_3965" data-name="Elipse 3965" cx="0.59" cy="0.564" rx="0.59" ry="0.564" transform="translate(0 0)" fill="#fff"/>
            <path id="Trazado_99245" data-name="Trazado 99245" d="M423.84,88.327a.59.59,0,1,1-.59-.564A.577.577,0,0,1,423.84,88.327Z" transform="translate(-417.352 -87.763)" fill="#fff"/>
            <ellipse id="Elipse_3966" data-name="Elipse 3966" cx="0.59" cy="0.564" rx="0.59" ry="0.564" transform="translate(10.617 0)" fill="#fff"/>
            <path id="Trazado_99246" data-name="Trazado 99246" d="M440.733,88.327a.59.59,0,1,1-.59-.564A.577.577,0,0,1,440.733,88.327Z" transform="translate(-423.627 -87.763)" fill="#fff"/>
            <path id="Trazado_99247" data-name="Trazado 99247" d="M449.179,88.327a.59.59,0,1,1-.59-.564A.577.577,0,0,1,449.179,88.327Z" transform="translate(-426.764 -87.763)" fill="#fff"/>
            <ellipse id="Elipse_3967" data-name="Elipse 3967" cx="0.59" cy="0.564" rx="0.59" ry="0.564" transform="translate(26.544 0)" fill="#fff"/>
            <path id="Trazado_99248" data-name="Trazado 99248" d="M466.072,88.327a.59.59,0,1,1-.59-.564A.578.578,0,0,1,466.072,88.327Z" transform="translate(-433.039 -87.763)" fill="#fff"/>
            <ellipse id="Elipse_3968" data-name="Elipse 3968" cx="0.59" cy="0.564" rx="0.59" ry="0.564" transform="translate(37.161 0)" fill="#fff"/>
            <ellipse id="Elipse_3969" data-name="Elipse 3969" cx="0.59" cy="0.564" rx="0.59" ry="0.564" transform="translate(42.47 0)" fill="#fff"/>
            <path id="Trazado_99249" data-name="Trazado 99249" d="M491.411,88.327a.59.59,0,1,1-.59-.564A.578.578,0,0,1,491.411,88.327Z" transform="translate(-442.452 -87.763)" fill="#fff"/>
            <path id="Trazado_99250" data-name="Trazado 99250" d="M499.857,88.327a.59.59,0,1,1-.59-.564A.577.577,0,0,1,499.857,88.327Z" transform="translate(-445.59 -87.763)" fill="#fff"/>
          </g>
          <g id="Grupo_53312" data-name="Grupo 53312" transform="translate(0 27.077)">
            <ellipse id="Elipse_3970" data-name="Elipse 3970" cx="0.59" cy="0.564" rx="0.59" ry="0.564" fill="#fff"/>
            <path id="Trazado_99251" data-name="Trazado 99251" d="M423.84,95.835a.59.59,0,1,1-.59-.564A.577.577,0,0,1,423.84,95.835Z" transform="translate(-417.352 -95.271)" fill="#fff"/>
            <ellipse id="Elipse_3971" data-name="Elipse 3971" cx="0.59" cy="0.564" rx="0.59" ry="0.564" transform="translate(10.617)" fill="#fff"/>
            <path id="Trazado_99252" data-name="Trazado 99252" d="M440.733,95.835a.59.59,0,1,1-.59-.564A.577.577,0,0,1,440.733,95.835Z" transform="translate(-423.627 -95.271)" fill="#fff"/>
            <path id="Trazado_99253" data-name="Trazado 99253" d="M449.179,95.835a.59.59,0,1,1-.59-.564A.577.577,0,0,1,449.179,95.835Z" transform="translate(-426.764 -95.271)" fill="#fff"/>
            <ellipse id="Elipse_3972" data-name="Elipse 3972" cx="0.59" cy="0.564" rx="0.59" ry="0.564" transform="translate(26.544)" fill="#fff"/>
            <path id="Trazado_99254" data-name="Trazado 99254" d="M466.072,95.835a.59.59,0,1,1-.59-.564A.578.578,0,0,1,466.072,95.835Z" transform="translate(-433.039 -95.271)" fill="#fff"/>
            <ellipse id="Elipse_3973" data-name="Elipse 3973" cx="0.59" cy="0.564" rx="0.59" ry="0.564" transform="translate(37.161)" fill="#fff"/>
            <ellipse id="Elipse_3974" data-name="Elipse 3974" cx="0.59" cy="0.564" rx="0.59" ry="0.564" transform="translate(42.47)" fill="#fff"/>
            <path id="Trazado_99255" data-name="Trazado 99255" d="M491.411,95.835a.591.591,0,1,1-.59-.564A.578.578,0,0,1,491.411,95.835Z" transform="translate(-442.452 -95.271)" fill="#fff"/>
            <path id="Trazado_99256" data-name="Trazado 99256" d="M499.857,95.835a.59.59,0,1,1-.59-.564A.577.577,0,0,1,499.857,95.835Z" transform="translate(-445.59 -95.271)" fill="#fff"/>
          </g>
          <g id="Grupo_53313" data-name="Grupo 53313" transform="translate(0 31.589)">
            <path id="Trazado_99257" data-name="Trazado 99257" d="M415.394,103.343a.59.59,0,1,1-.59-.564A.577.577,0,0,1,415.394,103.343Z" transform="translate(-414.214 -102.779)" fill="#fff"/>
            <path id="Trazado_99258" data-name="Trazado 99258" d="M423.84,103.343a.59.59,0,1,1-.59-.564A.577.577,0,0,1,423.84,103.343Z" transform="translate(-417.352 -102.779)" fill="#fff"/>
            <path id="Trazado_99259" data-name="Trazado 99259" d="M432.286,103.343a.591.591,0,1,1-.59-.564A.577.577,0,0,1,432.286,103.343Z" transform="translate(-420.489 -102.779)" fill="#fff"/>
            <path id="Trazado_99260" data-name="Trazado 99260" d="M440.733,103.343a.59.59,0,1,1-.59-.564A.577.577,0,0,1,440.733,103.343Z" transform="translate(-423.627 -102.779)" fill="#fff"/>
            <path id="Trazado_99261" data-name="Trazado 99261" d="M449.179,103.343a.59.59,0,1,1-.59-.564A.577.577,0,0,1,449.179,103.343Z" transform="translate(-426.764 -102.779)" fill="#fff"/>
            <path id="Trazado_99262" data-name="Trazado 99262" d="M457.625,103.343a.59.59,0,1,1-.59-.564A.577.577,0,0,1,457.625,103.343Z" transform="translate(-429.902 -102.779)" fill="#fff"/>
            <path id="Trazado_99263" data-name="Trazado 99263" d="M466.072,103.343a.59.59,0,1,1-.59-.564A.578.578,0,0,1,466.072,103.343Z" transform="translate(-433.039 -102.779)" fill="#fff"/>
            <path id="Trazado_99264" data-name="Trazado 99264" d="M474.518,103.343a.59.59,0,1,1-.59-.564A.577.577,0,0,1,474.518,103.343Z" transform="translate(-436.177 -102.779)" fill="#fff"/>
            <path id="Trazado_99265" data-name="Trazado 99265" d="M482.964,103.343a.591.591,0,1,1-.59-.564A.577.577,0,0,1,482.964,103.343Z" transform="translate(-439.314 -102.779)" fill="#fff"/>
            <path id="Trazado_99266" data-name="Trazado 99266" d="M491.411,103.343a.591.591,0,1,1-.59-.564A.578.578,0,0,1,491.411,103.343Z" transform="translate(-442.452 -102.779)" fill="#fff"/>
            <path id="Trazado_99267" data-name="Trazado 99267" d="M499.857,103.343a.59.59,0,1,1-.59-.564A.577.577,0,0,1,499.857,103.343Z" transform="translate(-445.59 -102.779)" fill="#fff"/>
          </g>
          <g id="Grupo_53314" data-name="Grupo 53314" transform="translate(0 36.102)">
            <ellipse id="Elipse_3975" data-name="Elipse 3975" cx="0.59" cy="0.564" rx="0.59" ry="0.564" fill="#fff"/>
            <path id="Trazado_99268" data-name="Trazado 99268" d="M423.84,110.851a.59.59,0,1,1-.59-.564A.578.578,0,0,1,423.84,110.851Z" transform="translate(-417.352 -110.287)" fill="#fff"/>
            <ellipse id="Elipse_3976" data-name="Elipse 3976" cx="0.59" cy="0.564" rx="0.59" ry="0.564" transform="translate(10.617)" fill="#fff"/>
            <path id="Trazado_99269" data-name="Trazado 99269" d="M440.733,110.851a.59.59,0,1,1-.59-.564A.578.578,0,0,1,440.733,110.851Z" transform="translate(-423.627 -110.287)" fill="#fff"/>
            <path id="Trazado_99270" data-name="Trazado 99270" d="M449.179,110.851a.59.59,0,1,1-.59-.564A.578.578,0,0,1,449.179,110.851Z" transform="translate(-426.764 -110.287)" fill="#fff"/>
            <ellipse id="Elipse_3977" data-name="Elipse 3977" cx="0.59" cy="0.564" rx="0.59" ry="0.564" transform="translate(26.544)" fill="#fff"/>
            <path id="Trazado_99271" data-name="Trazado 99271" d="M466.072,110.851a.59.59,0,1,1-.59-.564A.578.578,0,0,1,466.072,110.851Z" transform="translate(-433.039 -110.287)" fill="#fff"/>
            <ellipse id="Elipse_3978" data-name="Elipse 3978" cx="0.59" cy="0.564" rx="0.59" ry="0.564" transform="translate(37.161)" fill="#fff"/>
            <ellipse id="Elipse_3979" data-name="Elipse 3979" cx="0.59" cy="0.564" rx="0.59" ry="0.564" transform="translate(42.47)" fill="#fff"/>
            <path id="Trazado_99272" data-name="Trazado 99272" d="M491.411,110.851a.591.591,0,1,1-.59-.564A.578.578,0,0,1,491.411,110.851Z" transform="translate(-442.452 -110.287)" fill="#fff"/>
            <path id="Trazado_99273" data-name="Trazado 99273" d="M499.857,110.851a.59.59,0,1,1-.59-.564A.578.578,0,0,1,499.857,110.851Z" transform="translate(-445.59 -110.287)" fill="#fff"/>
          </g>
          <g id="Grupo_53315" data-name="Grupo 53315" transform="translate(0 40.615)">
            <path id="Trazado_99274" data-name="Trazado 99274" d="M415.394,118.358a.59.59,0,1,1-.59-.564A.578.578,0,0,1,415.394,118.358Z" transform="translate(-414.214 -117.794)" fill="#fff"/>
            <path id="Trazado_99275" data-name="Trazado 99275" d="M423.84,118.358a.59.59,0,1,1-.59-.564A.578.578,0,0,1,423.84,118.358Z" transform="translate(-417.352 -117.794)" fill="#fff"/>
            <path id="Trazado_99276" data-name="Trazado 99276" d="M432.286,118.358a.59.59,0,1,1-.59-.564A.578.578,0,0,1,432.286,118.358Z" transform="translate(-420.489 -117.794)" fill="#fff"/>
            <path id="Trazado_99277" data-name="Trazado 99277" d="M440.733,118.358a.59.59,0,1,1-.59-.564A.578.578,0,0,1,440.733,118.358Z" transform="translate(-423.627 -117.794)" fill="#fff"/>
            <path id="Trazado_99278" data-name="Trazado 99278" d="M449.179,118.358a.59.59,0,1,1-.59-.564A.578.578,0,0,1,449.179,118.358Z" transform="translate(-426.764 -117.794)" fill="#fff"/>
            <path id="Trazado_99279" data-name="Trazado 99279" d="M457.625,118.358a.59.59,0,1,1-.59-.564A.578.578,0,0,1,457.625,118.358Z" transform="translate(-429.902 -117.794)" fill="#fff"/>
            <path id="Trazado_99280" data-name="Trazado 99280" d="M466.072,118.358a.59.59,0,1,1-.59-.564A.578.578,0,0,1,466.072,118.358Z" transform="translate(-433.039 -117.794)" fill="#fff"/>
            <path id="Trazado_99281" data-name="Trazado 99281" d="M474.518,118.358a.59.59,0,1,1-.59-.564A.578.578,0,0,1,474.518,118.358Z" transform="translate(-436.177 -117.794)" fill="#fff"/>
            <path id="Trazado_99282" data-name="Trazado 99282" d="M482.964,118.358a.59.59,0,1,1-.59-.564A.578.578,0,0,1,482.964,118.358Z" transform="translate(-439.314 -117.794)" fill="#fff"/>
            <path id="Trazado_99283" data-name="Trazado 99283" d="M491.411,118.358a.59.59,0,1,1-.59-.564A.578.578,0,0,1,491.411,118.358Z" transform="translate(-442.452 -117.794)" fill="#fff"/>
            <path id="Trazado_99284" data-name="Trazado 99284" d="M499.857,118.358a.59.59,0,1,1-.59-.564A.578.578,0,0,1,499.857,118.358Z" transform="translate(-445.59 -117.794)" fill="#fff"/>
          </g>
          <g id="Grupo_53316" data-name="Grupo 53316" transform="translate(0 45.128)">
            <ellipse id="Elipse_3980" data-name="Elipse 3980" cx="0.59" cy="0.564" rx="0.59" ry="0.564" transform="translate(0 0)" fill="#fff"/>
            <path id="Trazado_99285" data-name="Trazado 99285" d="M423.84,125.866a.59.59,0,1,1-.59-.564A.577.577,0,0,1,423.84,125.866Z" transform="translate(-417.352 -125.302)" fill="#fff"/>
            <ellipse id="Elipse_3981" data-name="Elipse 3981" cx="0.59" cy="0.564" rx="0.59" ry="0.564" transform="translate(10.617 0)" fill="#fff"/>
            <path id="Trazado_99286" data-name="Trazado 99286" d="M440.733,125.866a.59.59,0,1,1-.59-.564A.577.577,0,0,1,440.733,125.866Z" transform="translate(-423.627 -125.302)" fill="#fff"/>
            <path id="Trazado_99287" data-name="Trazado 99287" d="M449.179,125.866a.59.59,0,1,1-.59-.564A.577.577,0,0,1,449.179,125.866Z" transform="translate(-426.764 -125.302)" fill="#fff"/>
            <ellipse id="Elipse_3982" data-name="Elipse 3982" cx="0.59" cy="0.564" rx="0.59" ry="0.564" transform="translate(26.544 0)" fill="#fff"/>
            <path id="Trazado_99288" data-name="Trazado 99288" d="M466.072,125.866a.59.59,0,1,1-.59-.564A.578.578,0,0,1,466.072,125.866Z" transform="translate(-433.039 -125.302)" fill="#fff"/>
            <ellipse id="Elipse_3983" data-name="Elipse 3983" cx="0.59" cy="0.564" rx="0.59" ry="0.564" transform="translate(37.161 0)" fill="#fff"/>
            <ellipse id="Elipse_3984" data-name="Elipse 3984" cx="0.59" cy="0.564" rx="0.59" ry="0.564" transform="translate(42.47 0)" fill="#fff"/>
            <path id="Trazado_99289" data-name="Trazado 99289" d="M491.411,125.866a.59.59,0,1,1-.59-.564A.578.578,0,0,1,491.411,125.866Z" transform="translate(-442.452 -125.302)" fill="#fff"/>
            <path id="Trazado_99290" data-name="Trazado 99290" d="M499.857,125.866a.59.59,0,1,1-.59-.564A.577.577,0,0,1,499.857,125.866Z" transform="translate(-445.59 -125.302)" fill="#fff"/>
          </g>
          <g id="Grupo_53317" data-name="Grupo 53317" transform="translate(0 49.641)">
            <ellipse id="Elipse_3985" data-name="Elipse 3985" cx="0.59" cy="0.564" rx="0.59" ry="0.564" transform="translate(0 0)" fill="#fff"/>
            <path id="Trazado_99291" data-name="Trazado 99291" d="M423.84,133.374a.59.59,0,1,1-.59-.564A.577.577,0,0,1,423.84,133.374Z" transform="translate(-417.352 -132.81)" fill="#fff"/>
            <ellipse id="Elipse_3986" data-name="Elipse 3986" cx="0.59" cy="0.564" rx="0.59" ry="0.564" transform="translate(10.617 0)" fill="#fff"/>
            <path id="Trazado_99292" data-name="Trazado 99292" d="M440.733,133.374a.59.59,0,1,1-.59-.564A.577.577,0,0,1,440.733,133.374Z" transform="translate(-423.627 -132.81)" fill="#fff"/>
            <path id="Trazado_99293" data-name="Trazado 99293" d="M449.179,133.374a.59.59,0,1,1-.59-.564A.577.577,0,0,1,449.179,133.374Z" transform="translate(-426.764 -132.81)" fill="#fff"/>
            <ellipse id="Elipse_3987" data-name="Elipse 3987" cx="0.59" cy="0.564" rx="0.59" ry="0.564" transform="translate(26.544 0)" fill="#fff"/>
            <path id="Trazado_99294" data-name="Trazado 99294" d="M466.072,133.374a.59.59,0,1,1-.59-.564A.578.578,0,0,1,466.072,133.374Z" transform="translate(-433.039 -132.81)" fill="#fff"/>
            <ellipse id="Elipse_3988" data-name="Elipse 3988" cx="0.59" cy="0.564" rx="0.59" ry="0.564" transform="translate(37.161 0)" fill="#fff"/>
            <ellipse id="Elipse_3989" data-name="Elipse 3989" cx="0.59" cy="0.564" rx="0.59" ry="0.564" transform="translate(42.47 0)" fill="#fff"/>
            <path id="Trazado_99295" data-name="Trazado 99295" d="M491.411,133.374a.59.59,0,1,1-.59-.564A.578.578,0,0,1,491.411,133.374Z" transform="translate(-442.452 -132.81)" fill="#fff"/>
            <path id="Trazado_99296" data-name="Trazado 99296" d="M499.857,133.374a.59.59,0,1,1-.59-.564A.577.577,0,0,1,499.857,133.374Z" transform="translate(-445.59 -132.81)" fill="#fff"/>
          </g>
        </g>
      </g>
    </g>
    <g id="Grupo_1183147" data-name="Grupo 1183147" transform="translate(-15.139 713.486)">
      <g id="Grupo_1183146" data-name="Grupo 1183146" transform="translate(-11450.885 -10786.477)">
        <g id="Grupo_1182617" data-name="Grupo 1182617" transform="translate(0 33.912)">
          <g id="Grupo_1182556" data-name="Grupo 1182556" transform="translate(1.241 1.241)" opacity="0.1">
            <path id="Trazado_1045250" data-name="Trazado 1045250" d="M202.115,224.862v-2.751l71.474-41.269,50.032,28.888v2.751l-71.474,41.269Z" transform="translate(-202.115 -180.842)"/>
            <path id="Trazado_1045251" data-name="Trazado 1045251" d="M202.115,222.111,252.147,251l71.474-41.269-50.032-28.888Z" transform="translate(-202.115 -180.842)"/>
            <path id="Trazado_1045252" data-name="Trazado 1045252" d="M232.835,233.376l42.184,24.357,60.262-34.8L293.1,198.58Z" transform="translate(-223.305 -193.077)"/>
            <path id="Trazado_1045253" data-name="Trazado 1045253" d="M452.412,235.6l-31.844-18.387,2.275-1.313,31.844,18.387Z" transform="translate(-352.801 -205.027)"/>
            <path id="Trazado_1045254" data-name="Trazado 1045254" d="M310.765,298.45l-.525.3-13.683-7.9.528-.306Z" transform="translate(-267.26 -256.517)"/>
            <path id="Trazado_1045255" data-name="Trazado 1045255" d="M299.791,299.088l-.525.3-8.718-5.032.525-.3Z" transform="translate(-263.115 -258.936)"/>
            <path id="Trazado_1045256" data-name="Trazado 1045256" d="M432.066,238.511l-1.086.628-22.986-13.271,1.089-.628Z" transform="translate(-344.128 -211.467)"/>
            <path id="Trazado_1045257" data-name="Trazado 1045257" d="M402.878,229.468l16.39,9.462-.6.349-16.39-9.462Z" transform="translate(-340.184 -214.384)"/>
            <path id="Trazado_1045258" data-name="Trazado 1045258" d="M418.646,243.468l-.6.345-20-11.545.6-.349Z" transform="translate(-337.267 -216.075)"/>
            <path id="Trazado_1045259" data-name="Trazado 1045259" d="M412.61,244.863l-.6.349-18.19-10.5.6-.349Z" transform="translate(-334.35 -217.759)"/>
            <path id="Trazado_1045260" data-name="Trazado 1045260" d="M488.61,281.05l-4.9-2.828,4.9-2.828,4.9,2.828Zm-4.2-2.827,4.2,2.426,4.2-2.426-4.2-2.426Z" transform="translate(-396.358 -246.064)"/>
            <path id="Trazado_1045261" data-name="Trazado 1045261" d="M493.251,283.1l.463-1.746.336.089-.326,1.227,4.328-.7.056.343Z" transform="translate(-402.937 -250.173)"/>
            <path id="Trazado_1045262" data-name="Trazado 1045262" d="M402.813,255.445l-1.086.628L378.741,242.8l1.089-.628Z" transform="translate(-323.949 -223.148)"/>
            <path id="Trazado_1045263" data-name="Trazado 1045263" d="M373.625,246.4l16.39,9.462-.6.349-16.39-9.462Z" transform="translate(-320.006 -226.065)"/>
            <path id="Trazado_1045264" data-name="Trazado 1045264" d="M389.393,260.4l-.6.346-20-11.545.6-.349Z" transform="translate(-317.089 -227.757)"/>
            <path id="Trazado_1045265" data-name="Trazado 1045265" d="M383.357,261.8l-.6.349-18.19-10.5.6-.349Z" transform="translate(-314.172 -229.44)"/>
            <path id="Trazado_1045266" data-name="Trazado 1045266" d="M459.356,297.986l-4.9-2.828,4.9-2.827,4.9,2.827Zm-4.2-2.828,4.2,2.426,4.2-2.426-4.2-2.426Z" transform="translate(-376.179 -257.746)"/>
            <path id="Trazado_1045267" data-name="Trazado 1045267" d="M464,300.033l.463-1.746.336.089-.326,1.227,4.328-.7.056.343Z" transform="translate(-382.758 -261.854)"/>
            <path id="Trazado_1045268" data-name="Trazado 1045268" d="M373.56,272.38l-1.086.628-22.986-13.272,1.089-.628Z" transform="translate(-303.771 -234.83)"/>
            <path id="Trazado_1045269" data-name="Trazado 1045269" d="M344.372,263.338l16.39,9.462-.6.349-16.39-9.462Z" transform="translate(-299.828 -237.747)"/>
            <path id="Trazado_1045270" data-name="Trazado 1045270" d="M360.14,277.337l-.6.345-20-11.544.6-.349Z" transform="translate(-296.91 -239.437)"/>
            <path id="Trazado_1045271" data-name="Trazado 1045271" d="M354.1,278.732l-.6.349-18.19-10.5.6-.349Z" transform="translate(-293.993 -241.121)"/>
            <path id="Trazado_1045272" data-name="Trazado 1045272" d="M430.1,314.92l-4.9-2.828,4.9-2.828,4.9,2.828Zm-4.2-2.828,4.2,2.426,4.2-2.426-4.2-2.426Z" transform="translate(-356 -269.427)"/>
            <path id="Trazado_1045273" data-name="Trazado 1045273" d="M434.744,316.968l.463-1.746.336.089-.326,1.227,4.328-.7.056.343Z" transform="translate(-362.58 -273.536)"/>
            <path id="Trazado_1045274" data-name="Trazado 1045274" d="M344.307,289.314l-1.086.628-22.986-13.271,1.089-.628Z" transform="translate(-283.593 -246.51)"/>
            <path id="Trazado_1045275" data-name="Trazado 1045275" d="M315.118,280.272l16.39,9.462-.6.349-16.39-9.462Z" transform="translate(-279.648 -249.428)"/>
            <path id="Trazado_1045276" data-name="Trazado 1045276" d="M330.887,294.272l-.6.346-20-11.545.6-.349Z" transform="translate(-276.732 -251.119)"/>
            <path id="Trazado_1045277" data-name="Trazado 1045277" d="M324.851,295.667l-.6.349-18.19-10.5.6-.349Z" transform="translate(-273.815 -252.803)"/>
            <path id="Trazado_1045278" data-name="Trazado 1045278" d="M400.85,331.856l-4.9-2.827,4.9-2.828,4.9,2.828Zm-4.2-2.827,4.2,2.426,4.2-2.426-4.2-2.426Z" transform="translate(-335.822 -281.109)"/>
            <path id="Trazado_1045279" data-name="Trazado 1045279" d="M405.49,333.9l.463-1.745.336.089-.326,1.227,4.328-.7.056.343Z" transform="translate(-342.401 -285.217)"/>
            <path id="Trazado_1045280" data-name="Trazado 1045280" d="M505.542,213l-.58-2.4q.074-.071.155-.141l.58,2.4Q505.616,212.929,505.542,213Z" transform="translate(-411.015 -201.271)"/>
            <path id="Trazado_1045281" data-name="Trazado 1045281" d="M503.524,213.314a2.182,2.182,0,0,0-.871,1.992l-.58-2.4a2.182,2.182,0,0,1,.871-1.992Z" transform="translate(-408.998 -201.585)"/>
            <path id="Trazado_1045282" data-name="Trazado 1045282" d="M518.182,209.619l.58,2.4a.65.65,0,0,0-.337-.4,3.894,3.894,0,0,0-3.134.248c-.761.374-1.141.86-1.048,1.246l-.58-2.4c-.093-.387.287-.872,1.048-1.246a3.894,3.894,0,0,1,3.134-.248A.649.649,0,0,1,518.182,209.619Z" transform="translate(-417.007 -200.258)"/>
            <path id="Trazado_1045283" data-name="Trazado 1045283" d="M513.831,208.225l.58,2.4c.242,1-.74,2.252-2.711,3.221a11.955,11.955,0,0,1-2.169.806c-2.262.606-4.632.58-5.932-.171a1.678,1.678,0,0,1-.868-1.029l-.58-2.4a1.68,1.68,0,0,0,.868,1.029c1.3.751,3.671.776,5.933.171a11.93,11.93,0,0,0,2.169-.806C513.091,210.477,514.073,209.225,513.831,208.225Z" transform="translate(-409.077 -199.73)"/>
            <path id="Trazado_1045284" data-name="Trazado 1045284" d="M480,207.54l-7.183,4.6-25.468-14.7,9.177-3.445,8.849,5.109c-1.314,1.152-1.457,2.413-.159,3.163s3.671.776,5.932.171Z" transform="translate(-371.276 -189.909)"/>
            <path id="Trazado_1045285" data-name="Trazado 1045285" d="M512.882,203.577c1.731,1,.906,2.9-1.841,4.251a11.929,11.929,0,0,1-2.169.806c-2.262.606-4.632.58-5.933-.171s-1.156-2.01.159-3.163a7.725,7.725,0,0,1,1.682-1.087C507.526,202.864,511.154,202.58,512.882,203.577Zm-6.895,3.388a3.89,3.89,0,0,0,3.135-.245c1.062-.522,1.384-1.259.713-1.646a3.894,3.894,0,0,0-3.134.248c-1.06.521-1.381,1.258-.714,1.643" transform="translate(-408.997 -196.114)"/>
            <path id="Trazado_1045286" data-name="Trazado 1045286" d="M472.819,219.8l.58,2.4-25.468-14.7-.58-2.4Z" transform="translate(-371.275 -197.569)"/>
            <path id="Trazado_1045287" data-name="Trazado 1045287" d="M536.634,237.677l.58,2.4-7.183,4.6-.58-2.4Z" transform="translate(-427.907 -220.046)"/>
            <path id="Trazado_1045288" data-name="Trazado 1045288" d="M469.033,219.8l-1.7.837-25.469-14.7,1.7-.837Z" transform="translate(-367.49 -197.569)"/>
            <path id="Trazado_1045289" data-name="Trazado 1045289" d="M525.665,252.492l.58,2.4-1.7.837-.58-2.4Z" transform="translate(-424.122 -230.265)"/>
            <path id="Trazado_1045290" data-name="Trazado 1045290" d="M467.331,222.493l.58,2.4-25.469-14.7-.58-2.4Z" transform="translate(-367.49 -199.43)"/>
            <path id="Trazado_1045291" data-name="Trazado 1045291" d="M340.414,343.628a.122.122,0,0,1,.024.211.506.506,0,0,1-.441.105.293.293,0,0,1-.076-.029.122.122,0,0,1-.024-.211.508.508,0,0,1,.441-.105A.271.271,0,0,1,340.414,343.628Z" transform="translate(-297.121 -293.101)"/>
            <path id="Trazado_1045292" data-name="Trazado 1045292" d="M347.842,340.633l-1.135.962a2.868,2.868,0,0,1-1.735.583l-1.833.035a3.3,3.3,0,0,0-.8.117l-1.779.494a2.8,2.8,0,0,1-1.811-.065l-1.311-.6a2.158,2.158,0,0,0-.681-.172l-1.747-.164a1.964,1.964,0,0,1-.793-.229.807.807,0,0,1-.4-.459l-.293-1.014a.757.757,0,0,0-.3-.393l-1.048-.758a.67.67,0,0,1-.12-1.05l.843-1.034a.817.817,0,0,0,.2-.465l.053-1.063c.018-.383.4-.771,1-1.008l1.654-.662a2.256,2.256,0,0,0,.616-.359l1.135-.962a2.871,2.871,0,0,1,1.735-.583l1.831-.034a3.365,3.365,0,0,0,.8-.118l1.779-.493a2.786,2.786,0,0,1,1.809.067l1.314.6a2.079,2.079,0,0,0,.679.17l1.75.165a1.964,1.964,0,0,1,.793.229.807.807,0,0,1,.4.459l.291,1.013a.752.752,0,0,0,.3.394l1.046.759a.67.67,0,0,1,.123,1.049l-.843,1.034a.838.838,0,0,0-.2.466l-.051,1.062c-.02.384-.4.771-1,1.009l-1.654.662A2.234,2.234,0,0,0,347.842,340.633Zm-11.617-.216c2.7,1.562,7.554,1.29,10.811-.607s3.7-4.71,1-6.272-7.552-1.289-10.809.608-3.7,4.711-1,6.271Zm12.951-7.544a.5.5,0,0,0-.45.025c-.136.079-.157.2-.044.262a.506.506,0,0,0,.455-.025c.136-.079.155-.2.039-.262Zm-14.093,8.209a.5.5,0,0,0,.452-.024c.136-.079.155-.2.04-.262a.5.5,0,0,0-.45.025c-.136.079-.155.2-.042.261Zm14.349-2.054a.507.507,0,0,0,.441-.105.123.123,0,0,0-.024-.211.289.289,0,0,0-.076-.029.509.509,0,0,0-.441.105.122.122,0,0,0,.024.211.292.292,0,0,0,.076.029Zm-3.914,2.431c.165-.055.244-.17.18-.257a.166.166,0,0,0-.051-.044.477.477,0,0,0-.364-.013c-.165.055-.246.171-.18.256a.167.167,0,0,0,.051.044.479.479,0,0,0,.364.013Zm-6.54-8.65c.165-.055.244-.169.18-.256a.167.167,0,0,0-.051-.044.476.476,0,0,0-.364-.013c-.165.055-.246.171-.18.257a.166.166,0,0,0,.051.044.476.476,0,0,0,.364.013Zm-4.491,2.464a.507.507,0,0,0,.441-.105.122.122,0,0,0-.024-.211.287.287,0,0,0-.076-.029.508.508,0,0,0-.441.105.122.122,0,0,0,.024.211.275.275,0,0,0,.076.03Zm-1.158,3.173c.177-.025.311-.128.3-.227a.131.131,0,0,0-.073-.1.429.429,0,0,0-.266-.036c-.178.028-.311.128-.3.228a.134.134,0,0,0,.074.1.427.427,0,0,0,.267.037Zm6.539,3.839a.432.432,0,0,0,.392-.175.118.118,0,0,0-.064-.154.364.364,0,0,0-.169-.042.421.421,0,0,0-.389.174.118.118,0,0,0,.064.154.36.36,0,0,0,.166.042Zm4.523-10.613a.426.426,0,0,0-.389.174.12.12,0,0,0,.065.155.362.362,0,0,0,.166.042.421.421,0,0,0,.389-.174.116.116,0,0,0-.062-.155.368.368,0,0,0-.169-.042Zm6.539,3.839c-.177.025-.308.127-.3.226a.133.133,0,0,0,.073.1.432.432,0,0,0,.267.037c.175-.026.31-.128.3-.226a.131.131,0,0,0-.073-.1.427.427,0,0,0-.268-.035Z" transform="translate(-291.611 -284.431)"/>
            <path id="Trazado_1045293" data-name="Trazado 1045293" d="M361.047,339.139l-3.03,1.765-.488-.282,3.03-1.765Z" transform="translate(-309.318 -289.839)"/>
            <path id="Trazado_1045294" data-name="Trazado 1045294" d="M352.393,346.631a1.83,1.83,0,0,1-.368.267,3.773,3.773,0,0,1-.563.273,2.613,2.613,0,0,1-.516.14,1.543,1.543,0,0,1-.448.01.986.986,0,0,1-.364-.119.5.5,0,0,1-.221-.23.346.346,0,0,1,.011-.284l.445-.036a.236.236,0,0,0-.025.194.314.314,0,0,0,.146.156.65.65,0,0,0,.426.06,1.611,1.611,0,0,0,.557-.2.985.985,0,0,1-.321.014.736.736,0,0,1-.288-.092.522.522,0,0,1-.191-.174.287.287,0,0,1-.044-.2.422.422,0,0,1,.1-.209.825.825,0,0,1,.234-.192,1.4,1.4,0,0,1,.341-.141,1.73,1.73,0,0,1,.373-.059,1.49,1.49,0,0,1,.362.026,1.034,1.034,0,0,1,.315.115.491.491,0,0,1,.2.2.294.294,0,0,1,.015.23A.73.73,0,0,1,352.393,346.631Zm-.634.013a.711.711,0,0,0,.179-.074.48.48,0,0,0,.129-.105.26.26,0,0,0,.055-.115.2.2,0,0,0-.017-.112.218.218,0,0,0-.092-.091.474.474,0,0,0-.16-.054.771.771,0,0,0-.189-.01,1.1,1.1,0,0,0-.2.034.78.78,0,0,0-.183.074.428.428,0,0,0-.125.105.278.278,0,0,0-.057.114.171.171,0,0,0,.02.108.276.276,0,0,0,.1.092.535.535,0,0,0,.158.055.748.748,0,0,0,.187.011,1.122,1.122,0,0,0,.2-.033Z" transform="translate(-304.046 -294.632)"/>
            <path id="Trazado_1045295" data-name="Trazado 1045295" d="M346.842,350.125a.247.247,0,0,1,.127.142.182.182,0,0,1-.042.156l-.111-.009a.155.155,0,0,0,.036-.076.129.129,0,0,0-.007-.065.131.131,0,0,0-.039-.056.223.223,0,0,0-.058-.044.443.443,0,0,0-.165-.054.777.777,0,0,0-.188,0,.969.969,0,0,0-.354.117.541.541,0,0,0-.134.105.3.3,0,0,0-.066.114.141.141,0,0,0,0,.108.2.2,0,0,0,.087.089.4.4,0,0,0,.081.036.57.57,0,0,0,.1.02.6.6,0,0,0,.119,0,.724.724,0,0,0,.131-.019l.025.061a.691.691,0,0,1-.151.026.961.961,0,0,1-.151,0,.79.79,0,0,1-.136-.029.563.563,0,0,1-.112-.045.247.247,0,0,1-.109-.116.2.2,0,0,1,0-.136.356.356,0,0,1,.083-.14.685.685,0,0,1,.156-.123.981.981,0,0,1,.2-.088,1.11,1.11,0,0,1,.23-.047.98.98,0,0,1,.235,0A.571.571,0,0,1,346.842,350.125Z" transform="translate(-301.171 -297.557)"/>
            <path id="Trazado_1045296" data-name="Trazado 1045296" d="M358.9,350.008a1.667,1.667,0,0,1-.242.115,1.449,1.449,0,0,1-.235.064.816.816,0,0,1-.209.007.393.393,0,0,1-.163-.047.174.174,0,0,1-.086-.1.163.163,0,0,1,.013-.12.466.466,0,0,1,.109-.137,1.1,1.1,0,0,1,.2-.141,1.508,1.508,0,0,1,.244-.117,1.18,1.18,0,0,1,.238-.065.8.8,0,0,1,.207-.008.413.413,0,0,1,.168.05.162.162,0,0,1,.082.095.165.165,0,0,1-.011.121.485.485,0,0,1-.111.138A1.262,1.262,0,0,1,358.9,350.008Z" transform="translate(-309.617 -297.152)"/>
            <path id="Trazado_1045297" data-name="Trazado 1045297" d="M349.141,351.468l-.083.049-.456-.263-.354.206.4.23-.083.049-.4-.23-.373.217.468.27-.086.05-.548-.316.979-.57Z" transform="translate(-302.487 -298.325)"/>
            <path id="Trazado_1045298" data-name="Trazado 1045298" d="M358.458,349.324a1.443,1.443,0,0,1-.318.243,2.15,2.15,0,0,1-.415.184,2.023,2.023,0,0,1-.424.091,1.471,1.471,0,0,1-.395-.009.929.929,0,0,1-.325-.107.444.444,0,0,1-.189-.189.306.306,0,0,1-.015-.228.639.639,0,0,1,.154-.246,1.454,1.454,0,0,1,.318-.24,2.154,2.154,0,0,1,.415-.187,2.186,2.186,0,0,1,.424-.091,1.619,1.619,0,0,1,.4.007.934.934,0,0,1,.327.109.437.437,0,0,1,.186.188.318.318,0,0,1,.015.23A.619.619,0,0,1,358.458,349.324Zm-.9.162a1.681,1.681,0,0,0,.242-.115,1.253,1.253,0,0,0,.2-.142.486.486,0,0,0,.111-.138.167.167,0,0,0,.011-.121.16.16,0,0,0-.083-.095.413.413,0,0,0-.168-.05.8.8,0,0,0-.207.008,1.21,1.21,0,0,0-.238.065,1.5,1.5,0,0,0-.244.117,1.108,1.108,0,0,0-.2.141.472.472,0,0,0-.109.137.165.165,0,0,0-.013.12.174.174,0,0,0,.086.1.4.4,0,0,0,.163.047.819.819,0,0,0,.209-.007,1.357,1.357,0,0,0,.235-.063Z" transform="translate(-308.513 -296.515)"/>
            <path id="Trazado_1045299" data-name="Trazado 1045299" d="M352.023,353.2h-.1a.241.241,0,0,1-.085-.027l-.266-.154.449-.262.26.15a.105.105,0,0,1,.044.048.108.108,0,0,1,.006.059.241.241,0,0,1-.036.062.325.325,0,0,1-.074.057.475.475,0,0,1-.1.042A.45.45,0,0,1,352.023,353.2Z" transform="translate(-305.209 -299.43)"/>
            <path id="Trazado_1045300" data-name="Trazado 1045300" d="M350.658,353.041l-.177.335-.091-.053.17-.32-.242-.14-.36.21-.079-.046.979-.57.343.2a.15.15,0,0,1,.071.071.125.125,0,0,1,.008.085.234.234,0,0,1-.051.087.376.376,0,0,1-.094.076.7.7,0,0,1-.117.052.866.866,0,0,1-.124.031.563.563,0,0,1-.122,0A.4.4,0,0,1,350.658,353.041Zm-.254-.227.266.154a.241.241,0,0,0,.085.027h.1a.474.474,0,0,0,.1-.024.465.465,0,0,0,.1-.042.308.308,0,0,0,.074-.057.24.24,0,0,0,.036-.062.1.1,0,0,0-.006-.059.1.1,0,0,0-.044-.048l-.26-.15-.449.262Z" transform="translate(-304.04 -299.221)"/>
            <path id="Trazado_1045301" data-name="Trazado 1045301" d="M372.1,348.1a.774.774,0,0,1,.182-.272,1.541,1.541,0,0,1,.33-.25,2.282,2.282,0,0,1,.415-.187,2.366,2.366,0,0,1,.466-.108,1.753,1.753,0,0,1,.462,0,1.063,1.063,0,0,1,.4.132.5.5,0,0,1,.224.224.38.38,0,0,1,.008.265.765.765,0,0,1-.18.273,1.533,1.533,0,0,1-.328.251,2.361,2.361,0,0,1-.885.3,1.834,1.834,0,0,1-.464,0,1.063,1.063,0,0,1-.4-.131.491.491,0,0,1-.228-.228A.388.388,0,0,1,372.1,348.1Z" transform="translate(-319.352 -295.639)"/>
            <path id="Trazado_1045302" data-name="Trazado 1045302" d="M354.268,354.054l-.083.049-.289-.167-.9.521-.079-.046.9-.521-.292-.168.083-.049Z" transform="translate(-306.138 -300.059)"/>
            <path id="Trazado_1045303" data-name="Trazado 1045303" d="M364.17,352.586a.44.44,0,0,1-.111.138,1.07,1.07,0,0,1-.2.143,1.477,1.477,0,0,1-.243.114,1.291,1.291,0,0,1-.235.064.8.8,0,0,1-.207.008.414.414,0,0,1-.163-.047.174.174,0,0,1-.086-.1.165.165,0,0,1,.013-.12.46.46,0,0,1,.109-.137,1.075,1.075,0,0,1,.2-.142,1.521,1.521,0,0,1,.246-.116,1.179,1.179,0,0,1,.238-.065.818.818,0,0,1,.207-.008.418.418,0,0,1,.168.05.154.154,0,0,1,.069.215Z" transform="translate(-313.036 -299.124)"/>
            <path id="Trazado_1045304" data-name="Trazado 1045304" d="M373.466,347.432a1.969,1.969,0,0,1-.476.379,2.986,2.986,0,0,1-.669.284,3.617,3.617,0,0,1-.743.136,3,3,0,0,1-.727-.029,1.808,1.808,0,0,1-.616-.212.871.871,0,0,1-.373-.365.618.618,0,0,1-.04-.425,1.047,1.047,0,0,1,.242-.431,1.936,1.936,0,0,1,.481-.381,2.918,2.918,0,0,1,.674-.284,3.876,3.876,0,0,1,.75-.138,3.234,3.234,0,0,1,.732.029,1.806,1.806,0,0,1,.616.212.821.821,0,0,1,.366.366.632.632,0,0,1,.032.425A1.066,1.066,0,0,1,373.466,347.432Zm-1.376.277a2.318,2.318,0,0,0,.418-.188,1.52,1.52,0,0,0,.328-.251.765.765,0,0,0,.18-.273.379.379,0,0,0-.008-.265.5.5,0,0,0-.224-.224,1.077,1.077,0,0,0-.4-.132,1.757,1.757,0,0,0-.462,0,2.352,2.352,0,0,0-.466.108,2.282,2.282,0,0,0-.415.187,1.549,1.549,0,0,0-.33.25.768.768,0,0,0-.182.272.39.39,0,0,0,0,.265.491.491,0,0,0,.228.228,1.07,1.07,0,0,0,.4.131,1.833,1.833,0,0,0,.464,0,2.312,2.312,0,0,0,.468-.107Z" transform="translate(-317.783 -294.736)"/>
            <path id="Trazado_1045305" data-name="Trazado 1045305" d="M355.563,355.176l-.979.57-.079-.046.979-.57Z" transform="translate(-307.232 -301.064)"/>
            <path id="Trazado_1045306" data-name="Trazado 1045306" d="M363.412,352.183a1.461,1.461,0,0,1-.32.242,2.07,2.07,0,0,1-.839.275,1.472,1.472,0,0,1-.393-.008.936.936,0,0,1-.325-.107.436.436,0,0,1-.189-.189.3.3,0,0,1-.015-.228.605.605,0,0,1,.154-.246,1.361,1.361,0,0,1,.316-.241,2.043,2.043,0,0,1,.417-.185,2.088,2.088,0,0,1,.424-.091,1.55,1.55,0,0,1,.4.007.921.921,0,0,1,.327.109.436.436,0,0,1,.186.188.315.315,0,0,1,.013.229A.663.663,0,0,1,363.412,352.183Zm-.9.161a1.478,1.478,0,0,0,.243-.114,1.07,1.07,0,0,0,.2-.143.436.436,0,0,0,.111-.138.165.165,0,0,0,.013-.12.169.169,0,0,0-.083-.095.412.412,0,0,0-.167-.05.8.8,0,0,0-.207.008,1.183,1.183,0,0,0-.238.065,1.463,1.463,0,0,0-.246.116,1.071,1.071,0,0,0-.2.142.465.465,0,0,0-.109.137.165.165,0,0,0-.013.12.173.173,0,0,0,.086.1.408.408,0,0,0,.163.047.8.8,0,0,0,.207-.008,1.3,1.3,0,0,0,.236-.064Z" transform="translate(-311.93 -298.487)"/>
            <path id="Trazado_1045307" data-name="Trazado 1045307" d="M356.934,355.967l-.083.049-.454-.262-.36.21.383.221-.081.047-.383-.221-.454.264-.081-.047.979-.57Z" transform="translate(-307.863 -301.428)"/>
            <path id="Trazado_1045308" data-name="Trazado 1045308" d="M360.03,357.754l-.084.049-.456-.263-.353.206.4.229-.083.049-.4-.229-.372.217.466.269-.086.05-.547-.316.979-.57Z" transform="translate(-309.996 -302.66)"/>
            <path id="Trazado_1045309" data-name="Trazado 1045309" d="M362.087,359.287a.786.786,0,0,1-.165.123,1.03,1.03,0,0,1-.231.1,1.017,1.017,0,0,1-.233.046.782.782,0,0,1-.221-.014.624.624,0,0,1-.2-.072l-.278-.16.979-.57.278.16a.337.337,0,0,1,.132.121.181.181,0,0,1,.016.131A.3.3,0,0,1,362.087,359.287Zm-.427.161a1.087,1.087,0,0,0,.182-.083.662.662,0,0,0,.141-.107.268.268,0,0,0,.067-.108.129.129,0,0,0-.014-.1.258.258,0,0,0-.1-.094l-.2-.114-.809.472.2.113a.479.479,0,0,0,.164.059.617.617,0,0,0,.183.006.884.884,0,0,0,.186-.039Z" transform="translate(-311.549 -303.555)"/>
            <path id="Trazado_1045310" data-name="Trazado 1045310" d="M362.423,359.364a.271.271,0,0,1-.067.108.653.653,0,0,1-.141.107,1.085,1.085,0,0,1-.182.083.888.888,0,0,1-.186.039.616.616,0,0,1-.183-.006.474.474,0,0,1-.164-.059l-.2-.113.809-.471.2.114a.258.258,0,0,1,.1.094A.128.128,0,0,1,362.423,359.364Z" transform="translate(-311.922 -303.77)"/>
            <path id="Trazado_1045311" data-name="Trazado 1045311" d="M353.809,336.891c2.7,1.562,2.258,4.375-1,6.272s-8.106,2.169-10.811.607-2.256-4.374,1-6.271S351.106,335.331,353.809,336.891Zm-11.66,6.791c2.635,1.522,7.362,1.257,10.536-.592s3.609-4.59.973-6.112-7.36-1.256-10.534.593-3.609,4.591-.976,6.111Z" transform="translate(-297.386 -287.784)"/>
            <path id="Trazado_1045312" data-name="Trazado 1045312" d="M358.578,356.917l-.979.57.079.046.979-.57Z" transform="translate(-309.366 -302.296)"/>
            <path id="Trazado_1045313" data-name="Trazado 1045313" d="M353.787,347.022a.277.277,0,0,1,.057-.114.427.427,0,0,1,.125-.105.778.778,0,0,1,.183-.074,1.092,1.092,0,0,1,.2-.034.741.741,0,0,1,.189.01.481.481,0,0,1,.16.054.219.219,0,0,1,.091.092.2.2,0,0,1,.017.112.253.253,0,0,1-.055.115.473.473,0,0,1-.129.105.71.71,0,0,1-.179.074,1.091,1.091,0,0,1-.2.033.748.748,0,0,1-.187-.011.533.533,0,0,1-.158-.055.274.274,0,0,1-.1-.092A.172.172,0,0,1,353.787,347.022Z" transform="translate(-306.735 -295.244)"/>
            <path id="Trazado_1045314" data-name="Trazado 1045314" d="M386.418,336.907c.115.066.1.183-.04.262a.5.5,0,0,1-.454.026c-.113-.065-.092-.183.044-.262A.5.5,0,0,1,386.418,336.907Z" transform="translate(-328.854 -288.464)"/>
            <path id="Trazado_1045315" data-name="Trazado 1045315" d="M371.535,333.172a.116.116,0,0,1,.062.155.422.422,0,0,1-.39.174.364.364,0,0,1-.166-.042.119.119,0,0,1-.065-.155.426.426,0,0,1,.389-.174A.362.362,0,0,1,371.535,333.172Z" transform="translate(-318.587 -285.888)"/>
            <path id="Trazado_1045316" data-name="Trazado 1045316" d="M353.961,335.735a.163.163,0,0,1,.051.044c.064.087-.015.2-.18.256a.475.475,0,0,1-.364-.013.166.166,0,0,1-.051-.044c-.066-.086.015-.2.18-.257A.476.476,0,0,1,353.961,335.735Z" transform="translate(-306.466 -287.656)"/>
            <path id="Trazado_1045317" data-name="Trazado 1045317" d="M336.064,353.827a.131.131,0,0,1,.073.1c.012.1-.121.2-.3.226a.426.426,0,0,1-.267-.037.135.135,0,0,1-.074-.1c-.01-.1.123-.2.3-.228A.43.43,0,0,1,336.064,353.827Z" transform="translate(-294.12 -300.136)"/>
            <path id="Trazado_1045318" data-name="Trazado 1045318" d="M342.577,362.445c.115.066.1.183-.04.262a.5.5,0,0,1-.452.024c-.113-.065-.094-.182.042-.261A.5.5,0,0,1,342.577,362.445Z" transform="translate(-298.613 -306.08)"/>
            <path id="Trazado_1045319" data-name="Trazado 1045319" d="M357.466,366.187a.118.118,0,0,1,.064.154.431.431,0,0,1-.392.175.369.369,0,0,1-.166-.042.117.117,0,0,1-.064-.154.422.422,0,0,1,.389-.174A.365.365,0,0,1,357.466,366.187Z" transform="translate(-308.882 -308.662)"/>
            <path id="Trazado_1045320" data-name="Trazado 1045320" d="M375.04,363.618a.163.163,0,0,1,.051.044c.064.087-.015.2-.18.257a.482.482,0,0,1-.364-.013.167.167,0,0,1-.051-.044c-.066-.086.015-.2.18-.256A.474.474,0,0,1,375.04,363.618Z" transform="translate(-321.006 -306.889)"/>
            <path id="Trazado_1045321" data-name="Trazado 1045321" d="M388.589,355.728a.123.123,0,0,1,.024.211.507.507,0,0,1-.441.105.294.294,0,0,1-.076-.029.122.122,0,0,1-.024-.211.508.508,0,0,1,.441-.105A.289.289,0,0,1,388.589,355.728Z" transform="translate(-330.351 -301.447)"/>
            <path id="Trazado_1045322" data-name="Trazado 1045322" d="M392.934,345.525a.131.131,0,0,1,.073.1c.012.1-.123.2-.3.226a.432.432,0,0,1-.267-.037.133.133,0,0,1-.073-.1c-.01-.1.121-.2.3-.226A.427.427,0,0,1,392.934,345.525Z" transform="translate(-333.349 -294.41)"/>
            <path id="Trazado_1045323" data-name="Trazado 1045323" d="M365.076,341.738a1.119,1.119,0,0,1,.387.34.972.972,0,0,1,.154.363l-.694.153a.308.308,0,0,0-.01-.1.673.673,0,0,0-.058-.15.893.893,0,0,0-.121-.167.907.907,0,0,0-.579-.27.646.646,0,0,0-.352.09.28.28,0,0,0-.119.111.177.177,0,0,0,0,.127.5.5,0,0,0,.095.152c.045.056.1.12.169.191a2.5,2.5,0,0,1,.206.269.454.454,0,0,1,.084.248.369.369,0,0,1-.083.235.988.988,0,0,1-.3.239,1.715,1.715,0,0,1-.493.2,1.746,1.746,0,0,1-.938-.038,1.971,1.971,0,0,1-.4-.173,1.564,1.564,0,0,1-.458-.384.926.926,0,0,1-.2-.456l.722-.17a.467.467,0,0,0,.015.125,1.1,1.1,0,0,0,.072.185,1.018,1.018,0,0,0,.149.205.986.986,0,0,0,.241.189.678.678,0,0,0,.715.053.254.254,0,0,0,.122-.124.208.208,0,0,0-.011-.145.845.845,0,0,0-.113-.173c-.053-.064-.111-.133-.174-.211a1.411,1.411,0,0,1-.184-.256.42.42,0,0,1-.055-.226.363.363,0,0,1,.089-.206.953.953,0,0,1,.257-.2,1.925,1.925,0,0,1,.977-.258,1.925,1.925,0,0,1,.471.064A1.636,1.636,0,0,1,365.076,341.738Z" transform="translate(-311.963 -291.664)"/>
            <path id="Trazado_1045324" data-name="Trazado 1045324" d="M367.532,354.379l-1.356.79.317.183-.363.211-1.015-.586.363-.211.355.205.915-.533a.761.761,0,0,1-.146,0,1.7,1.7,0,0,1-.179-.02,1.568,1.568,0,0,1-.174-.037.669.669,0,0,1-.128-.052l.375-.218a.453.453,0,0,0,.147.043,1.637,1.637,0,0,0,.211.025c.073.006.141.01.2.009a.744.744,0,0,0,.133-.009Z" transform="translate(-314.55 -300.362)"/>
            <path id="Trazado_1045325" data-name="Trazado 1045325" d="M354.827,338.116c2.461,1.421,2.054,3.969-.907,5.694s-7.356,1.973-9.817.552-2.05-3.969.911-5.694S352.368,336.7,354.827,338.116Zm-2.444,1.943a2.917,2.917,0,0,0-.673.284,1.943,1.943,0,0,0-.481.381,1.041,1.041,0,0,0-.242.431.62.62,0,0,0,.04.425.871.871,0,0,0,.373.365,1.8,1.8,0,0,0,.616.212,3.014,3.014,0,0,0,.727.029,3.661,3.661,0,0,0,.743-.136,3,3,0,0,0,.669-.284,1.963,1.963,0,0,0,.476-.379,1.067,1.067,0,0,0,.247-.434.633.633,0,0,0-.032-.425.82.82,0,0,0-.366-.366,1.8,1.8,0,0,0-.616-.212,3.233,3.233,0,0,0-.732-.029,3.855,3.855,0,0,0-.749.137Zm-2.032.735a1.72,1.72,0,0,0,.493-.2.987.987,0,0,0,.3-.239.369.369,0,0,0,.083-.234.454.454,0,0,0-.084-.248,2.523,2.523,0,0,0-.206-.269c-.066-.072-.123-.135-.169-.191a.5.5,0,0,1-.095-.152.177.177,0,0,1,0-.127.279.279,0,0,1,.119-.111.647.647,0,0,1,.352-.09.821.821,0,0,1,.388.121.832.832,0,0,1,.191.149.892.892,0,0,1,.121.167.68.68,0,0,1,.058.15.292.292,0,0,1,.01.1l.694-.153a.972.972,0,0,0-.154-.363,1.12,1.12,0,0,0-.387-.34,1.638,1.638,0,0,0-.421-.171,1.926,1.926,0,0,0-.471-.064,1.875,1.875,0,0,0-.5.062,1.847,1.847,0,0,0-.48.2.952.952,0,0,0-.257.2.367.367,0,0,0-.089.206.42.42,0,0,0,.055.226,1.413,1.413,0,0,0,.184.256c.063.078.122.148.174.211a.847.847,0,0,1,.113.173.208.208,0,0,1,.011.145.255.255,0,0,1-.122.124.678.678,0,0,1-.715-.053,1.011,1.011,0,0,1-.39-.394,1.18,1.18,0,0,1-.072-.186.465.465,0,0,1-.015-.125l-.722.17a.927.927,0,0,0,.2.456,1.565,1.565,0,0,0,.459.384,1.967,1.967,0,0,0,.4.173,1.753,1.753,0,0,0,.939.038Zm-4.148-.868a1.4,1.4,0,0,0-.341.141.82.82,0,0,0-.234.192.422.422,0,0,0-.1.209.287.287,0,0,0,.044.2.522.522,0,0,0,.191.174.737.737,0,0,0,.289.092.985.985,0,0,0,.321-.014,1.61,1.61,0,0,1-.557.2.652.652,0,0,1-.426-.06.314.314,0,0,1-.146-.156.235.235,0,0,1,.025-.194l-.445.036a.346.346,0,0,0-.011.284.5.5,0,0,0,.221.23.989.989,0,0,0,.364.119,1.543,1.543,0,0,0,.448-.01,2.636,2.636,0,0,0,.516-.14,3.777,3.777,0,0,0,.563-.273,1.849,1.849,0,0,0,.368-.267.736.736,0,0,0,.18-.256.294.294,0,0,0-.015-.23.492.492,0,0,0-.2-.2,1.037,1.037,0,0,0-.315-.115,1.474,1.474,0,0,0-.362-.026,1.733,1.733,0,0,0-.373.059Zm2.675,2.97a1.469,1.469,0,0,0,.393.008,2.117,2.117,0,0,0,.426-.089,2.149,2.149,0,0,0,.413-.185,1.462,1.462,0,0,0,.32-.242.657.657,0,0,0,.152-.247.314.314,0,0,0-.013-.229.436.436,0,0,0-.186-.188.924.924,0,0,0-.327-.109,1.55,1.55,0,0,0-.4-.007,2.068,2.068,0,0,0-.424.091,2.045,2.045,0,0,0-.417.186,1.371,1.371,0,0,0-.316.241.615.615,0,0,0-.154.246.3.3,0,0,0,.016.228.436.436,0,0,0,.189.189.927.927,0,0,0,.325.108Zm-2.051-1.184a.439.439,0,0,0,.189.189.929.929,0,0,0,.325.107,1.486,1.486,0,0,0,.395.009,2,2,0,0,0,.424-.091,2.156,2.156,0,0,0,.415-.184,1.45,1.45,0,0,0,.318-.243.629.629,0,0,0,.154-.246.318.318,0,0,0-.015-.23.437.437,0,0,0-.186-.188.936.936,0,0,0-.327-.109,1.59,1.59,0,0,0-.4-.007,2.1,2.1,0,0,0-.839.277,1.446,1.446,0,0,0-.318.24.643.643,0,0,0-.154.246.3.3,0,0,0,.015.227Zm3.7,2.18.363-.211-.317-.183,1.356-.79-.343-.2a.707.707,0,0,1-.133.009c-.061,0-.13,0-.2-.009a1.634,1.634,0,0,1-.211-.025.449.449,0,0,1-.147-.043l-.375.218a.653.653,0,0,0,.128.052,1.439,1.439,0,0,0,.174.037c.061.01.119.016.179.02a.763.763,0,0,0,.145,0l-.914.533-.355-.205-.363.211,1.015.587Zm-.338-6.183-3.03,1.765.488.282,3.03-1.765-.488-.282Zm-6.172,4.2a.69.69,0,0,0,.151-.026l-.025-.061a.666.666,0,0,1-.131.019.576.576,0,0,1-.119,0,.592.592,0,0,1-.1-.02.4.4,0,0,1-.081-.036.2.2,0,0,1-.087-.089.14.14,0,0,1,0-.108.306.306,0,0,1,.066-.114.544.544,0,0,1,.134-.105.982.982,0,0,1,.165-.074.923.923,0,0,1,.189-.043.78.78,0,0,1,.188,0,.437.437,0,0,1,.165.054.217.217,0,0,1,.058.044.131.131,0,0,1,.039.056.128.128,0,0,1,.007.065.157.157,0,0,1-.036.076l.111.009a.182.182,0,0,0,.042-.156.245.245,0,0,0-.127-.142.576.576,0,0,0-.208-.07.98.98,0,0,0-.235,0,1.114,1.114,0,0,0-.23.047.991.991,0,0,0-.2.088.685.685,0,0,0-.156.123.357.357,0,0,0-.083.14.2.2,0,0,0,0,.136.247.247,0,0,0,.109.116.555.555,0,0,0,.112.045.825.825,0,0,0,.136.029,1.01,1.01,0,0,0,.151,0Zm5.073,2.735a1.043,1.043,0,0,0,.231-.1.787.787,0,0,0,.165-.123.3.3,0,0,0,.082-.133.181.181,0,0,0-.016-.131.333.333,0,0,0-.132-.121l-.278-.16-.979.57.278.16a.622.622,0,0,0,.2.072.785.785,0,0,0,.221.014,1.052,1.052,0,0,0,.233-.046Zm-2.1-1.914.084-.049-.66-.381-.083.049.292.168-.9.521.079.046.9-.521.289.167Zm-1.7.059.091.053.177-.335a.4.4,0,0,0,.114.021.561.561,0,0,0,.122,0,.838.838,0,0,0,.124-.031.724.724,0,0,0,.117-.052.375.375,0,0,0,.094-.076.235.235,0,0,0,.051-.087.125.125,0,0,0-.008-.085.147.147,0,0,0-.071-.071l-.343-.2-.979.57.079.046.36-.21.242.14-.17.32Zm2.715,1.567.086-.05-.466-.269.373-.217.4.229.083-.049-.4-.229.353-.206.456.263.083-.049-.537-.31-.979.57.547.316Zm-3.377-1.95.086-.05-.468-.27.373-.217.4.23.084-.049-.4-.23.353-.206.456.263.083-.049-.535-.309-.979.57.547.316Zm3.3.867.083-.049-.535-.309-.979.57.081.047.454-.264.383.221.081-.047-.383-.221.36-.21.454.262Zm-1.635.095.979-.57-.079-.046-.979.57.079.046Zm.96.554.979-.57-.079-.046-.979.57.079.046Z" transform="translate(-298.948 -288.692)"/>
            <path id="Trazado_1045326" data-name="Trazado 1045326" d="M354.094,337.232c2.635,1.522,2.2,4.264-.973,6.112s-7.9,2.113-10.536.592-2.2-4.263.976-6.111S351.461,335.711,354.094,337.232Zm-11.118,6.475c2.461,1.421,6.856,1.172,9.817-.552s3.368-4.273.907-5.694-6.852-1.173-9.812.552-3.37,4.274-.911,5.694Z" transform="translate(-297.822 -288.037)"/>
          </g>
          <g id="Grupo_1182616" data-name="Grupo 1182616" transform="translate(0 0)">
            <g id="Grupo_1182615" data-name="Grupo 1182615">
              <path id="Trazado_1045327" data-name="Trazado 1045327" d="M198.115,220.862v-2.751l71.474-41.269,50.032,28.889v2.751l-71.474,41.269Z" transform="translate(-198.115 -176.842)" fill="#4e55a4"/>
              <path id="Trazado_1045328" data-name="Trazado 1045328" d="M198.115,218.111,248.147,247l71.474-41.269-50.032-28.889Z" transform="translate(-198.115 -176.842)" fill="#7a83cd"/>
              <path id="Trazado_1045329" data-name="Trazado 1045329" d="M228.835,229.376l42.184,24.357,60.262-34.8L289.1,194.58Z" transform="translate(-219.305 -189.077)" fill="#fff"/>
              <g id="Grupo_1182561" data-name="Grupo 1182561" transform="translate(27.433 10.876)">
                <path id="Trazado_1045330" data-name="Trazado 1045330" d="M448.412,231.6l-31.844-18.387,2.275-1.313,31.844,18.387Z" transform="translate(-376.234 -211.903)" fill="#3f5d89"/>
                <path id="Trazado_1045331" data-name="Trazado 1045331" d="M306.765,294.45l-.525.3-13.683-7.9.528-.306Z" transform="translate(-290.693 -263.393)" fill="#3f5d89"/>
                <path id="Trazado_1045332" data-name="Trazado 1045332" d="M295.791,295.088l-.525.3-8.718-5.032.525-.3Z" transform="translate(-286.548 -265.812)" fill="#3f5d89"/>
                <g id="Grupo_1182557" data-name="Grupo 1182557" transform="translate(32.036 2.896)">
                  <path id="Trazado_1045333" data-name="Trazado 1045333" d="M428.066,234.511l-1.086.628-22.986-13.271,1.089-.628Z" transform="translate(-399.597 -221.24)" fill="#3f5d89"/>
                  <path id="Trazado_1045334" data-name="Trazado 1045334" d="M398.878,225.468l16.39,9.462-.6.349-16.39-9.462Z" transform="translate(-395.653 -224.156)" fill="#253960"/>
                  <path id="Trazado_1045335" data-name="Trazado 1045335" d="M414.646,239.468l-.6.345-20-11.545.6-.349Z" transform="translate(-392.736 -225.848)" fill="#253960"/>
                  <path id="Trazado_1045336" data-name="Trazado 1045336" d="M408.61,240.863l-.6.349-18.19-10.5.6-.349Z" transform="translate(-389.819 -227.532)" fill="#253960"/>
                  <path id="Trazado_1045337" data-name="Trazado 1045337" d="M484.61,277.05l-4.9-2.828,4.9-2.828,4.9,2.828Zm-4.2-2.827,4.2,2.426,4.2-2.426-4.2-2.426Z" transform="translate(-451.827 -255.836)" fill="#3f5d89"/>
                  <path id="Trazado_1045338" data-name="Trazado 1045338" d="M489.251,279.1l.463-1.746.336.089-.326,1.227,4.328-.7.056.343Z" transform="translate(-458.406 -259.946)" fill="#7ae7da"/>
                </g>
                <g id="Grupo_1182558" data-name="Grupo 1182558" transform="translate(22.961 8.15)">
                  <path id="Trazado_1045339" data-name="Trazado 1045339" d="M398.813,251.445l-1.086.628L374.741,238.8l1.089-.628Z" transform="translate(-370.344 -238.174)" fill="#3f5d89"/>
                  <path id="Trazado_1045340" data-name="Trazado 1045340" d="M369.625,242.4l16.39,9.462-.6.349-16.39-9.462Z" transform="translate(-366.4 -241.091)" fill="#253960"/>
                  <path id="Trazado_1045341" data-name="Trazado 1045341" d="M385.393,256.4l-.6.346-20-11.545.6-.349Z" transform="translate(-363.483 -242.782)" fill="#253960"/>
                  <path id="Trazado_1045342" data-name="Trazado 1045342" d="M379.357,257.8l-.6.349-18.19-10.5.6-.349Z" transform="translate(-360.566 -244.466)" fill="#253960"/>
                  <path id="Trazado_1045343" data-name="Trazado 1045343" d="M455.356,293.986l-4.9-2.828,4.9-2.827,4.9,2.827Zm-4.2-2.828,4.2,2.426,4.2-2.426-4.2-2.426Z" transform="translate(-422.573 -272.772)" fill="#3f5d89"/>
                  <path id="Trazado_1045344" data-name="Trazado 1045344" d="M460,296.033l.464-1.746.336.089-.326,1.227,4.328-.7.056.343Z" transform="translate(-429.152 -276.88)" fill="#7ae7da"/>
                </g>
                <g id="Grupo_1182559" data-name="Grupo 1182559" transform="translate(13.887 13.403)">
                  <path id="Trazado_1045345" data-name="Trazado 1045345" d="M369.56,268.38l-1.086.628-22.986-13.271,1.089-.628Z" transform="translate(-341.091 -255.109)" fill="#3f5d89"/>
                  <path id="Trazado_1045346" data-name="Trazado 1045346" d="M340.372,259.338l16.39,9.462-.6.349-16.39-9.462Z" transform="translate(-337.147 -258.026)" fill="#253960"/>
                  <path id="Trazado_1045347" data-name="Trazado 1045347" d="M356.14,273.337l-.6.345-20-11.544.6-.349Z" transform="translate(-334.23 -259.717)" fill="#253960"/>
                  <path id="Trazado_1045348" data-name="Trazado 1045348" d="M350.1,274.732l-.6.349-18.19-10.5.6-.349Z" transform="translate(-331.313 -261.401)" fill="#253960"/>
                  <path id="Trazado_1045349" data-name="Trazado 1045349" d="M426.1,310.92l-4.9-2.828,4.9-2.828,4.9,2.828Zm-4.2-2.828,4.2,2.426,4.2-2.426-4.2-2.426Z" transform="translate(-393.32 -289.706)" fill="#3f5d89"/>
                  <path id="Trazado_1045350" data-name="Trazado 1045350" d="M430.744,312.968l.463-1.746.336.089-.326,1.227,4.328-.7.056.343Z" transform="translate(-399.899 -293.815)" fill="#7ae7da"/>
                </g>
                <g id="Grupo_1182560" data-name="Grupo 1182560" transform="translate(4.812 18.656)">
                  <path id="Trazado_1045351" data-name="Trazado 1045351" d="M340.307,285.314l-1.086.628-22.986-13.271,1.089-.628Z" transform="translate(-311.838 -272.043)" fill="#3f5d89"/>
                  <path id="Trazado_1045352" data-name="Trazado 1045352" d="M311.118,276.272l16.39,9.462-.6.349-16.39-9.462Z" transform="translate(-307.894 -274.96)" fill="#253960"/>
                  <path id="Trazado_1045353" data-name="Trazado 1045353" d="M326.887,290.272l-.6.346-20-11.545.6-.349Z" transform="translate(-304.977 -276.651)" fill="#253960"/>
                  <path id="Trazado_1045354" data-name="Trazado 1045354" d="M320.851,291.667l-.6.349-18.19-10.5.6-.349Z" transform="translate(-302.06 -278.335)" fill="#253960"/>
                  <path id="Trazado_1045355" data-name="Trazado 1045355" d="M396.85,327.856l-4.9-2.827,4.9-2.828,4.9,2.828Zm-4.2-2.827,4.2,2.426,4.2-2.426-4.2-2.426Z" transform="translate(-364.067 -306.641)" fill="#3f5d89"/>
                  <path id="Trazado_1045356" data-name="Trazado 1045356" d="M401.49,329.9l.463-1.745.336.089-.326,1.227,4.328-.7.056.343Z" transform="translate(-370.646 -310.75)" fill="#7ae7da"/>
                </g>
              </g>
              <g id="Grupo_1182575" data-name="Grupo 1182575" transform="translate(74.372 4.078)">
                <g id="Grupo_1182570" data-name="Grupo 1182570" transform="translate(1.702)">
                  <g id="Grupo_1182562" data-name="Grupo 1182562" transform="translate(17.872 5.11)">
                    <path id="Trazado_1045357" data-name="Trazado 1045357" d="M501.542,209l-.58-2.4q.075-.071.155-.141l.58,2.4Q501.616,208.929,501.542,209Z" transform="translate(-500.962 -206.459)" fill="#3f5d89"/>
                  </g>
                  <g id="Grupo_1182563" data-name="Grupo 1182563" transform="translate(16.965 5.251)">
                    <path id="Trazado_1045358" data-name="Trazado 1045358" d="M499.524,209.314a2.182,2.182,0,0,0-.871,1.992l-.58-2.4a2.182,2.182,0,0,1,.871-1.992Q499.235,208.114,499.524,209.314Z" transform="translate(-498.037 -206.914)" fill="#3f5d89"/>
                  </g>
                  <g id="Grupo_1182564" data-name="Grupo 1182564" transform="translate(20.567 4.654)">
                    <path id="Trazado_1045359" data-name="Trazado 1045359" d="M514.182,205.619l.58,2.4a.65.65,0,0,0-.337-.4,3.894,3.894,0,0,0-3.134.248c-.761.374-1.141.86-1.048,1.246l-.58-2.4c-.093-.387.287-.872,1.048-1.246a3.894,3.894,0,0,1,3.134-.248A.649.649,0,0,1,514.182,205.619Z" transform="translate(-509.649 -204.99)" fill="#253960"/>
                  </g>
                  <g id="Grupo_1182565" data-name="Grupo 1182565" transform="translate(17 4.417)">
                    <path id="Trazado_1045360" data-name="Trazado 1045360" d="M509.831,204.225l.58,2.4c.242,1-.74,2.252-2.711,3.221a11.951,11.951,0,0,1-2.169.806c-2.262.606-4.632.58-5.932-.171a1.678,1.678,0,0,1-.868-1.029l-.58-2.4a1.68,1.68,0,0,0,.868,1.029c1.3.751,3.671.776,5.932.171a11.93,11.93,0,0,0,2.169-.806C509.091,206.477,510.073,205.225,509.831,204.225Z" transform="translate(-498.152 -204.225)" fill="#253960"/>
                  </g>
                  <g id="Grupo_1182566" data-name="Grupo 1182566" transform="translate(0)">
                    <path id="Trazado_1045361" data-name="Trazado 1045361" d="M476,203.54l-7.183,4.6-25.468-14.7,9.177-3.445,8.849,5.109c-1.314,1.152-1.457,2.413-.159,3.163s3.671.776,5.932.171Z" transform="translate(-443.351 -189.987)" fill="#3f5d89"/>
                  </g>
                  <g id="Grupo_1182567" data-name="Grupo 1182567" transform="translate(16.964 2.79)">
                    <path id="Trazado_1045362" data-name="Trazado 1045362" d="M508.882,199.577c1.731,1,.906,2.9-1.841,4.251a11.93,11.93,0,0,1-2.169.806c-2.262.606-4.632.58-5.932-.171s-1.156-2.01.159-3.163a7.726,7.726,0,0,1,1.682-1.087C503.526,198.864,507.154,198.58,508.882,199.577Zm-6.895,3.388a3.89,3.89,0,0,0,3.135-.245c1.062-.522,1.383-1.259.713-1.646a3.894,3.894,0,0,0-3.134.248c-1.06.521-1.381,1.258-.713,1.643" transform="translate(-498.036 -198.982)" fill="#3f5d89"/>
                  </g>
                  <g id="Grupo_1182568" data-name="Grupo 1182568" transform="translate(0 3.445)">
                    <path id="Trazado_1045363" data-name="Trazado 1045363" d="M468.819,215.8l.58,2.4-25.468-14.7-.58-2.4Z" transform="translate(-443.35 -201.092)" fill="#3f5d89"/>
                  </g>
                  <g id="Grupo_1182569" data-name="Grupo 1182569" transform="translate(25.469 13.553)">
                    <path id="Trazado_1045364" data-name="Trazado 1045364" d="M532.634,233.677l.58,2.4-7.183,4.6-.58-2.4Z" transform="translate(-525.451 -233.677)" fill="#253960"/>
                  </g>
                </g>
                <g id="Grupo_1182574" data-name="Grupo 1182574" transform="translate(0 3.445)">
                  <g id="Grupo_1182571" data-name="Grupo 1182571">
                    <path id="Trazado_1045365" data-name="Trazado 1045365" d="M465.033,215.8l-1.7.837-25.469-14.7,1.7-.837Z" transform="translate(-437.862 -201.092)" fill="#e2e1e7"/>
                  </g>
                  <g id="Grupo_1182572" data-name="Grupo 1182572" transform="translate(25.469 14.704)">
                    <path id="Trazado_1045366" data-name="Trazado 1045366" d="M521.665,248.492l.58,2.4-1.7.837-.58-2.4Z" transform="translate(-519.963 -248.492)" fill="#c8c6d1"/>
                  </g>
                  <g id="Grupo_1182573" data-name="Grupo 1182573" transform="translate(0 0.837)">
                    <path id="Trazado_1045367" data-name="Trazado 1045367" d="M463.331,218.493l.58,2.4-25.469-14.7-.58-2.4Z" transform="translate(-437.862 -203.789)" fill="#c8c6d1"/>
                  </g>
                </g>
              </g>
            </g>
          </g>
        </g>
        <g id="Grupo_1183145" data-name="Grupo 1183145" transform="translate(86.099 0)">
          <g id="Grupo_1183127" data-name="Grupo 1183127" transform="translate(0 0)">
            <g id="Grupo_1183126" data-name="Grupo 1183126">
              <g id="Grupo_1183125" data-name="Grupo 1183125">
                <g id="Grupo_1183106" data-name="Grupo 1183106" transform="translate(7.463 20.35)">
                  <path id="Trazado_1046376" data-name="Trazado 1046376" d="M499.719,135.28l3.406-2.155.178.293-3.406,2.155Z" transform="translate(-499.719 -133.125)" fill="#fff"/>
                </g>
                <g id="Grupo_1183107" data-name="Grupo 1183107" transform="translate(4.553 13.25)">
                  <path id="Trazado_1046377" data-name="Trazado 1046377" d="M490.34,112.392l3.406-2.155,1.19,1.819-3.406,2.155Z" transform="translate(-490.34 -110.237)" fill="#fff"/>
                </g>
                <g id="Grupo_1183108" data-name="Grupo 1183108" transform="translate(9.615 22.359)">
                  <path id="Trazado_1046378" data-name="Trazado 1046378" d="M508.537,141.754l3.406-2.155-1.88,1.525-3.406,2.155Z" transform="translate(-506.658 -139.599)" fill="#cd4a76"/>
                </g>
                <g id="Grupo_1183109" data-name="Grupo 1183109" transform="translate(11.494 22.221)">
                  <path id="Trazado_1046379" data-name="Trazado 1046379" d="M512.886,141.311l3.406-2.155-.17.137-3.406,2.155Z" transform="translate(-512.716 -139.156)" fill="#fff"/>
                </g>
                <g id="Grupo_1183110" data-name="Grupo 1183110" transform="translate(7.463 20.35)">
                  <path id="Trazado_1046380" data-name="Trazado 1046380" d="M499.719,135.28l3.406-2.155,4.2,1.871-3.406,2.155Z" transform="translate(-499.719 -133.125)" fill="#fff"/>
                </g>
                <g id="Grupo_1183111" data-name="Grupo 1183111" transform="translate(4.388 4.917)">
                  <path id="Trazado_1046381" data-name="Trazado 1046381" d="M489.807,85.53l3.406-2.155,3.813,5.827-3.406,2.155Z" transform="translate(-489.807 -83.375)" fill="#fff"/>
                </g>
                <g id="Grupo_1183112" data-name="Grupo 1183112" transform="translate(4.553 10.744)">
                  <path id="Trazado_1046382" data-name="Trazado 1046382" d="M493.987,104.314l3.406-2.155-3.647,2.506-3.406,2.155Z" transform="translate(-490.34 -102.159)" fill="#fff"/>
                </g>
                <g id="Grupo_1183113" data-name="Grupo 1183113" transform="translate(5.743 12.563)">
                  <path id="Trazado_1046383" data-name="Trazado 1046383" d="M497.823,110.178l3.406-2.155-3.647,2.506-3.406,2.155Z" transform="translate(-494.176 -108.023)" fill="#f6af00"/>
                </g>
                <g id="Grupo_1183114" data-name="Grupo 1183114" transform="translate(9.39 12.563)">
                  <path id="Trazado_1046384" data-name="Trazado 1046384" d="M505.933,110.178l3.406-2.155,3.813,5.827-3.406,2.155Z" transform="translate(-505.933 -108.023)" fill="#fff"/>
                </g>
                <g id="Grupo_1183115" data-name="Grupo 1183115" transform="translate(4.388 4.135)">
                  <path id="Trazado_1046385" data-name="Trazado 1046385" d="M490.945,83.009l3.406-2.155-1.138.782-3.406,2.155Z" transform="translate(-489.807 -80.854)" fill="#fff"/>
                </g>
                <g id="Grupo_1183116" data-name="Grupo 1183116" transform="translate(5.526 4.135)">
                  <path id="Trazado_1046386" data-name="Trazado 1046386" d="M493.477,83.009l3.406-2.155,3.813,5.827-3.406,2.155Z" transform="translate(-493.477 -80.854)" fill="#f6af00"/>
                </g>
                <g id="Grupo_1183117" data-name="Grupo 1183117" transform="translate(8.2 9.962)">
                  <path id="Trazado_1046387" data-name="Trazado 1046387" d="M503.235,101.793l3.406-2.155-1.138.782-3.406,2.155Z" transform="translate(-502.097 -99.638)" fill="#f6af00"/>
                </g>
                <g id="Grupo_1183118" data-name="Grupo 1183118" transform="translate(9.39 11.781)">
                  <path id="Trazado_1046388" data-name="Trazado 1046388" d="M507.071,107.656l3.406-2.155-1.138.782-3.406,2.155Z" transform="translate(-505.933 -105.501)" fill="#f6af00"/>
                </g>
                <g id="Grupo_1183119" data-name="Grupo 1183119" transform="translate(10.529 11.781)">
                  <path id="Trazado_1046389" data-name="Trazado 1046389" d="M509.6,107.656l3.406-2.155,3.813,5.827-3.406,2.155Z" transform="translate(-509.603 -105.501)" fill="#f6af00"/>
                </g>
                <g id="Grupo_1183120" data-name="Grupo 1183120" transform="translate(13.203 17.608)">
                  <path id="Trazado_1046390" data-name="Trazado 1046390" d="M519.362,126.441l3.406-2.155-1.138.782-3.406,2.155Z" transform="translate(-518.223 -124.286)" fill="#f6af00"/>
                </g>
                <g id="Grupo_1183121" data-name="Grupo 1183121" transform="translate(9.339 7.456)">
                  <path id="Trazado_1046391" data-name="Trazado 1046391" d="M509.414,93.715l3.406-2.155-3.647,2.506-3.406,2.155Z" transform="translate(-505.767 -91.56)" fill="#fff"/>
                </g>
                <g id="Grupo_1183122" data-name="Grupo 1183122" transform="translate(0 2.154)">
                  <path id="Trazado_1046392" data-name="Trazado 1046392" d="M494.394,89.9c.1,5.037-3.009,7.824-7.236,6.926l-1.882,1.524L483.3,95.109c-4.268-2.88-7.542-8.509-7.639-13.546-.115-5.778,3.983-8.6,9.156-6.293S494.279,84.123,494.394,89.9Z" transform="translate(-475.662 -74.466)" fill="#e66b99"/>
                </g>
                <g id="Grupo_1183123" data-name="Grupo 1183123" transform="translate(4.389 6.29)">
                  <path id="Trazado_1046393" data-name="Trazado 1046393" d="M499.764,101.272l-1.138.783-3.813-5.827-3.649,2.5-1.19-1.819,3.649-2.5-3.812-5.827,1.138-.783,3.813,5.827,3.646-2.5,1.19,1.819-3.646,2.5Z" transform="translate(-489.811 -87.799)" fill="#fff"/>
                </g>
                <g id="Grupo_1183124" data-name="Grupo 1183124" transform="translate(2.754)">
                  <path id="Trazado_1046394" data-name="Trazado 1046394" d="M503.924,82.955c.059,2.981-1,5.173-2.755,6.279l-3.406,2.157c1.75-1.11,2.814-3.3,2.755-6.279-.115-5.778-4.4-12.329-9.573-14.631-2.5-1.113-4.759-1.03-6.4.011l3.409-2.153c1.642-1.04,3.9-1.127,6.4-.011C499.52,70.63,503.81,77.181,503.924,82.955Z" transform="translate(-484.541 -67.524)" fill="#cd4a76"/>
                </g>
              </g>
            </g>
            <path id="Trazado_1046395" data-name="Trazado 1046395" d="M505.895,166.715c-.215,1.148-2.37,1.207-4.814.132s-4.251-2.878-4.036-4.027,2.37-1.207,4.814-.132S506.109,165.567,505.895,166.715Z" transform="translate(-490.4 -132.637)" fill="#272726" opacity="0.1"/>
          </g>
          <g id="Grupo_1183144" data-name="Grupo 1183144" transform="translate(22.14 12.9)">
            <g id="Grupo_1183143" data-name="Grupo 1183143">
              <g id="Grupo_1183142" data-name="Grupo 1183142">
                <g id="Grupo_1183128" data-name="Grupo 1183128" transform="translate(7.467 20.351)">
                  <path id="Trazado_1046396" data-name="Trazado 1046396" d="M571.1,176.865l3.406-2.155.18.3-3.406,2.155Z" transform="translate(-571.102 -174.71)" fill="#fff"/>
                </g>
                <g id="Grupo_1183129" data-name="Grupo 1183129" transform="translate(9.619 22.361)">
                  <path id="Trazado_1046397" data-name="Trazado 1046397" d="M579.917,183.346l3.406-2.155-1.877,1.526-3.406,2.155Z" transform="translate(-578.04 -181.191)" fill="#5ccac0"/>
                </g>
                <g id="Grupo_1183130" data-name="Grupo 1183130" transform="translate(7.467 22.506)">
                  <path id="Trazado_1046398" data-name="Trazado 1046398" d="M575.3,183.528l-.172.14-1.877,1.526-1.972-3.24-.18-.3Z" transform="translate(-571.102 -181.657)" fill="#7ae7da"/>
                </g>
                <g id="Grupo_1183131" data-name="Grupo 1183131" transform="translate(7.467 20.351)">
                  <path id="Trazado_1046399" data-name="Trazado 1046399" d="M571.1,176.865l3.406-2.155,4.2,1.871-3.406,2.155Z" transform="translate(-571.102 -174.71)" fill="#fff"/>
                </g>
                <g id="Grupo_1183132" data-name="Grupo 1183132" transform="translate(11.496 22.222)">
                  <path id="Trazado_1046400" data-name="Trazado 1046400" d="M584.264,182.9l3.406-2.155-.172.14-3.406,2.155Z" transform="translate(-584.092 -180.74)" fill="#fff"/>
                </g>
                <g id="Grupo_1183133" data-name="Grupo 1183133" transform="translate(4.427 9.906)">
                  <path id="Trazado_1046401" data-name="Trazado 1046401" d="M561.3,143.2l3.406-2.155,2.8,6.281-3.406,2.155Z" transform="translate(-561.304 -141.04)" fill="#fff"/>
                </g>
                <g id="Grupo_1183134" data-name="Grupo 1183134" transform="translate(7.299 7.184)">
                  <path id="Trazado_1046402" data-name="Trazado 1046402" d="M576.317,134.421l3.406-2.155-5.756,6.258-3.406,2.155Z" transform="translate(-570.561 -132.266)" fill="#fff"/>
                </g>
                <g id="Grupo_1183135" data-name="Grupo 1183135" transform="translate(5.609 9.647)">
                  <path id="Trazado_1046403" data-name="Trazado 1046403" d="M565.114,142.361l3.406-2.155,1.69,3.8-3.406,2.155Z" transform="translate(-565.114 -140.206)" fill="#f6af00"/>
                </g>
                <g id="Grupo_1183136" data-name="Grupo 1183136" transform="translate(4.427 9.647)">
                  <path id="Trazado_1046404" data-name="Trazado 1046404" d="M561.3,142.62l3.406-2.155,1.182-.259-3.406,2.155Z" transform="translate(-561.304 -140.206)" fill="#f6af00"/>
                </g>
                <g id="Grupo_1183137" data-name="Grupo 1183137" transform="translate(13.055 7.184)">
                  <path id="Trazado_1046405" data-name="Trazado 1046405" d="M589.117,134.421l3.406-2.155,1.135,1.427-3.406,2.155Z" transform="translate(-589.117 -132.266)" fill="#f6af00"/>
                </g>
                <g id="Grupo_1183138" data-name="Grupo 1183138" transform="translate(7.224 8.611)">
                  <path id="Trazado_1046406" data-name="Trazado 1046406" d="M577.286,139.02l3.406-2.155-6.967,7.576L570.32,146.6Z" transform="translate(-570.32 -136.865)" fill="#f6af00"/>
                </g>
                <g id="Grupo_1183139" data-name="Grupo 1183139" transform="translate(0 2.155)">
                  <path id="Trazado_1046407" data-name="Trazado 1046407" d="M556.194,116.857c5.172,2.3,9.457,8.852,9.572,14.629.1,5.04-3.008,7.829-7.236,6.929l.172-.14-4.2-1.871.18.3c-4.268-2.883-7.545-8.514-7.645-13.554C546.92,117.37,551.022,114.555,556.194,116.857Zm-1.937,15.383,6.966-7.576-1.135-1.427-5.756,6.258-1.69-3.8-1.182.259,2.8,6.281" transform="translate(-547.032 -116.054)" fill="#7ae7da"/>
                </g>
                <g id="Grupo_1183140" data-name="Grupo 1183140" transform="translate(4.427 9.339)">
                  <path id="Trazado_1046408" data-name="Trazado 1046408" d="M569.932,139.212l1.135,1.427-6.966,7.576-2.8-6.281,1.182-.259,1.69,3.8Z" transform="translate(-561.304 -139.212)" fill="#fff"/>
                </g>
                <g id="Grupo_1183141" data-name="Grupo 1183141" transform="translate(2.755)">
                  <path id="Trazado_1046409" data-name="Trazado 1046409" d="M575.3,124.539c.059,2.981-1,5.173-2.755,6.283l-3.406,2.153c1.75-1.106,2.814-3.3,2.755-6.279-.115-5.778-4.4-12.329-9.573-14.631-2.5-1.113-4.759-1.03-6.4.014l3.409-2.157c1.645-1.04,3.9-1.127,6.4-.011C570.9,112.214,575.183,118.764,575.3,124.539Z" transform="translate(-555.915 -109.107)" fill="#5ccac0"/>
                </g>
              </g>
            </g>
            <path id="Trazado_1046410" data-name="Trazado 1046410" d="M577.267,207.941c-.215,1.148-2.37,1.207-4.814.132s-4.251-2.878-4.036-4.027,2.37-1.207,4.814-.132S577.481,206.793,577.267,207.941Z" transform="translate(-561.771 -173.973)" fill="#272726" opacity="0.1"/>
          </g>
        </g>
      </g>
    </g>
  </g>
</svg>
