<svg xmlns="http://www.w3.org/2000/svg" xmlns:xlink="http://www.w3.org/1999/xlink" width="89.312" height="89.312" viewBox="0 0 89.312 89.312">
  <defs>
    <clipPath id="clip-path">
      <path id="path2463" d="M0-682.665H89.312v89.312H0Z" transform="translate(0 682.665)"/>
    </clipPath>
  </defs>
  <g id="g2457" transform="translate(0 682.665)">
    <g id="g2459" transform="translate(0 -682.665)">
      <g id="g2461" clip-path="url(#clip-path)">
        <g id="g2467" transform="translate(37.82 51.978)">
          <path id="path2469" d="M-45.417-168.948h0a6.835,6.835,0,0,1-6.776-7.736l2.353-17.694h8.846l2.353,17.694a6.835,6.835,0,0,1-6.776,7.736" transform="translate(52.254 194.378)" fill="#748fc8"/>
        </g>
        <g id="g2471" transform="translate(37.82 51.979)">
          <path id="path2473" d="M-45.422-168.943A6.837,6.837,0,0,1-52.2-176.68l2.353-17.693H-47.1L-48-176.68c-.207,4.1,1,7.737,2.575,7.737" transform="translate(52.259 194.373)" fill="#576c96"/>
        </g>
        <g id="g2475" transform="translate(37.82 54.625)">
          <path id="path2477" d="M-77.151,0l2,15.046a6.835,6.835,0,0,1-6.775,7.737A6.837,6.837,0,0,1-88.7,15.046L-86.7,0" transform="translate(88.764)" fill="none" stroke="#000" stroke-linecap="round" stroke-linejoin="round" stroke-miterlimit="10" stroke-width="2"/>
        </g>
        <g id="g2479" transform="translate(24.923 15.741)">
          <path id="path2481" d="M-262.2-131.1a19.733,19.733,0,0,1-19.733,19.733A19.733,19.733,0,0,1-301.663-131.1a19.733,19.733,0,0,1,19.733-19.733A19.733,19.733,0,0,1-262.2-131.1" transform="translate(301.663 150.832)" fill="#868c90"/>
        </g>
        <g id="g2483" transform="translate(24.924 15.741)">
          <path id="path2485" d="M-39.947-36.876a19.66,19.66,0,0,1,13.72-5.551A19.734,19.734,0,0,1-6.493-22.694,19.734,19.734,0,0,1-26.228-2.96,19.734,19.734,0,0,1-45.96-22.694a19.632,19.632,0,0,1,2.334-9.317" transform="translate(45.96 42.427)" fill="none" stroke="#000" stroke-linecap="round" stroke-linejoin="round" stroke-miterlimit="10" stroke-width="2"/>
        </g>
        <g id="g2487" transform="translate(30.908 21.725)">
          <path id="path2489" d="M-182.68-91.34a13.748,13.748,0,0,1-13.748,13.748A13.748,13.748,0,0,1-210.177-91.34a13.749,13.749,0,0,1,13.749-13.749A13.749,13.749,0,0,1-182.68-91.34" transform="translate(210.177 105.089)" fill="#faf7f7"/>
        </g>
        <g id="g2491" transform="translate(30.908 21.725)">
          <path id="path2493" d="M-113.24-180.026a13.665,13.665,0,0,1-3.3.4,13.749,13.749,0,0,1-13.749-13.749,13.749,13.749,0,0,1,13.749-13.749,13.675,13.675,0,0,1,3.3.4,13.751,13.751,0,0,0-10.452,13.349,13.751,13.751,0,0,0,10.452,13.349" transform="translate(130.285 207.123)" fill="#dedbee"/>
        </g>
        <g id="g2495" transform="translate(30.908 21.725)">
          <path id="path2497" d="M-182.68-91.34a13.748,13.748,0,0,1-13.748,13.748A13.748,13.748,0,0,1-210.177-91.34a13.749,13.749,0,0,1,13.749-13.749A13.749,13.749,0,0,1-182.68-91.34Z" transform="translate(210.177 105.089)" fill="none" stroke="#000" stroke-linecap="round" stroke-linejoin="round" stroke-miterlimit="10" stroke-width="2"/>
        </g>
        <g id="g2499" transform="translate(53.706 3.383)">
          <path id="path2501" d="M-211.66-220.077l2.4-12.436a1.949,1.949,0,0,0-2.551-2.212l-2.769.957a43.034,43.034,0,0,0-24.432-19.279,3.477,3.477,0,0,0-4.352,2.29,3.477,3.477,0,0,0,2.29,4.352,36.123,36.123,0,0,1,19.758,14.966l-2.467.853a1.949,1.949,0,0,0-.64,3.315l9.57,8.3a1.949,1.949,0,0,0,3.19-1.1" transform="translate(243.519 253.203)" fill="#b03ac7"/>
        </g>
        <g id="g2503" transform="translate(1.309 51.222)">
          <path id="path2505" d="M-16.2-10.505-18.6,1.931a1.949,1.949,0,0,0,2.551,2.212l2.769-.957A43.034,43.034,0,0,0,11.15,22.463a3.477,3.477,0,1,0,2.062-6.642A36.123,36.123,0,0,1-6.546.856L-4.079,0a1.949,1.949,0,0,0,.64-3.315l-9.57-8.3a1.949,1.949,0,0,0-3.19,1.1" transform="translate(18.638 12.087)" fill="#b03ac7"/>
        </g>
        <g id="g2507" transform="translate(3.383 1.309)">
          <path id="path2509" d="M-220.077-16.2l-12.436-2.4a1.949,1.949,0,0,0-2.212,2.551l.957,2.768A43.036,43.036,0,0,0-253.046,11.15a3.477,3.477,0,0,0,2.29,4.352,3.477,3.477,0,0,0,4.352-2.29A36.125,36.125,0,0,1-231.438-6.546l.853,2.467a1.949,1.949,0,0,0,3.315.64l8.3-9.57a1.949,1.949,0,0,0-1.1-3.19" transform="translate(253.203 18.638)" fill="#b03ac7"/>
        </g>
        <g id="g2511" transform="translate(53.706 3.384)">
          <path id="path2513" d="M-211.855-219.055l-.03.154a1.949,1.949,0,0,1-3.19,1.1l-9.569-8.3a1.949,1.949,0,0,1,.64-3.314l2.466-.853A36.117,36.117,0,0,0-241.3-245.227a3.479,3.479,0,0,1-2.29-4.352,3.476,3.476,0,0,1,4.1-2.358,3.447,3.447,0,0,0-.7,1.254,3.478,3.478,0,0,0,2.29,4.352,36.126,36.126,0,0,1,19.758,14.965l-2.467.853a1.95,1.95,0,0,0-.64,3.316Z" transform="translate(243.743 252.027)" fill="#842c95"/>
        </g>
        <g id="g2515" transform="translate(1.308 51.223)">
          <path id="path2517" d="M-222.263-222.557a3.476,3.476,0,0,1-3.667,1.05,43.027,43.027,0,0,1-24.431-19.279l-2.768.958a1.95,1.95,0,0,1-2.552-2.212l2.4-12.436a1.949,1.949,0,0,1,3.065-1.2l-.005.021-2.4,12.437a1.95,1.95,0,0,0,2.552,2.212l2.768-.958a43.034,43.034,0,0,0,24.432,19.279,3.434,3.434,0,0,0,.607.131" transform="translate(255.718 256.057)" fill="#842c95"/>
        </g>
        <g id="g2519" transform="translate(3.383 1.31)">
          <path id="path2521" d="M-22.7-203.107a3.482,3.482,0,0,0,.978,3.6,3.464,3.464,0,0,1-1.948-.033,3.48,3.48,0,0,1-2.29-4.352A43.043,43.043,0,0,1-6.684-228.323l-.958-2.768a1.949,1.949,0,0,1,2.212-2.55l2.9.56a2.337,2.337,0,0,0-1.851,2.775l.958,2.768A43.033,43.033,0,0,0-22.7-203.107" transform="translate(26.119 233.679)" fill="#842c95"/>
        </g>
        <g id="g2523" transform="translate(53.706 3.382)">
          <path id="path2525" d="M-168.4-208.276l3.321,2.88a1.949,1.949,0,0,0,3.19-1.1l2.4-12.436a1.949,1.949,0,0,0-2.55-2.212l-2.768.958a43.043,43.043,0,0,0-24.433-19.279,3.48,3.48,0,0,0-4.352,2.29,3.478,3.478,0,0,0,2.29,4.352,36.133,36.133,0,0,1,19.758,14.965l-2.466.855a1.949,1.949,0,0,0-.64,3.314l1.636,1.418" transform="translate(193.746 239.625)" fill="none" stroke="#000" stroke-linecap="round" stroke-linejoin="round" stroke-miterlimit="10" stroke-width="2"/>
        </g>
        <g id="g2527" transform="translate(1.308 51.222)">
          <path id="path2529" d="M-75.56-154.178a43.114,43.114,0,0,0,18.415,11.344,3.478,3.478,0,0,0,4.352-2.29,3.476,3.476,0,0,0-2.29-4.352,36.139,36.139,0,0,1-19.759-14.965l2.468-.855a1.948,1.948,0,0,0,.638-3.314l-9.57-8.3a1.949,1.949,0,0,0-3.19,1.1l-2.4,12.436a1.95,1.95,0,0,0,2.552,2.212l2.768-.958q.992,1.675,2.118,3.241" transform="translate(86.933 177.385)" fill="none" stroke="#000" stroke-linecap="round" stroke-linejoin="round" stroke-miterlimit="10" stroke-width="2"/>
        </g>
        <g id="g2531" transform="translate(51.222 53.706)">
          <path id="path2533" d="M-10.505-211.66l12.436,2.4a1.949,1.949,0,0,0,2.212-2.551l-.957-2.768A43.035,43.035,0,0,0,22.464-239.01a3.477,3.477,0,0,0-2.29-4.352,3.477,3.477,0,0,0-4.352,2.29A36.124,36.124,0,0,1,.856-221.314L0-223.781a1.949,1.949,0,0,0-3.315-.64l-8.3,9.57a1.949,1.949,0,0,0,1.1,3.19" transform="translate(12.086 243.519)" fill="#b03ac7"/>
        </g>
        <g id="g2535" transform="translate(51.222 72.133)">
          <path id="path2537" d="M-80.31-8.724l.1.283a1.251,1.251,0,0,0-.457.386l-8.3,9.569a1.937,1.937,0,0,0-.246,2.193L-90.818,3.4a1.949,1.949,0,0,1-1.1-3.19l8.3-9.569a1.949,1.949,0,0,1,3.314.64" transform="translate(92.398 10.037)" fill="#842c95"/>
        </g>
        <g id="g2539" transform="translate(64.165 53.707)">
          <path id="path2541" d="M-139.575-8.749a3.474,3.474,0,0,0-3.089,2.439c-2.556,8.233-9.917,16.3-17.067,20.917l-.853-2.466A36.127,36.127,0,0,0-145.619-7.619a3.476,3.476,0,0,1,4.352-2.29,3.456,3.456,0,0,1,1.692,1.16" transform="translate(160.584 10.066)" fill="#842c95"/>
        </g>
        <g id="g2543" transform="translate(51.222 53.706)">
          <path id="path2545" d="M-10.505-211.66l12.436,2.4a1.949,1.949,0,0,0,2.212-2.551l-.957-2.768A43.035,43.035,0,0,0,22.464-239.01a3.477,3.477,0,0,0-2.29-4.352,3.477,3.477,0,0,0-4.352,2.29A36.124,36.124,0,0,1,.856-221.314L0-223.781a1.949,1.949,0,0,0-3.315-.64l-8.3,9.57A1.949,1.949,0,0,0-10.505-211.66Z" transform="translate(12.086 243.519)" fill="none" stroke="#000" stroke-linecap="round" stroke-linejoin="round" stroke-miterlimit="10" stroke-width="2"/>
        </g>
        <g id="g2547" transform="translate(3.383 1.309)">
          <path id="path2549" d="M-220.077-16.2l-12.436-2.4a1.949,1.949,0,0,0-2.212,2.551l.957,2.768A43.036,43.036,0,0,0-253.046,11.15a3.477,3.477,0,0,0,2.29,4.352,3.477,3.477,0,0,0,4.352-2.29A36.125,36.125,0,0,1-231.438-6.546l.853,2.467a1.949,1.949,0,0,0,3.315.64l8.3-9.57A1.949,1.949,0,0,0-220.077-16.2Z" transform="translate(253.203 18.638)" fill="none" stroke="#000" stroke-linecap="round" stroke-linejoin="round" stroke-miterlimit="10" stroke-width="2"/>
        </g>
        <g id="g2551" transform="translate(38.858 29.767)">
          <path id="path2553" d="M0-41.042l4.437,5.5L11.6-47.22" transform="translate(0 47.22)" fill="none" stroke="#000" stroke-linecap="round" stroke-linejoin="round" stroke-miterlimit="10" stroke-width="2"/>
        </g>
      </g>
    </g>
  </g>
</svg>
