<svg xmlns="http://www.w3.org/2000/svg" width="48.36" height="46" viewBox="0 0 48.36 46">
  <g id="Grupo_1185947" data-name="Grupo 1185947" transform="translate(-1193.14 -2572.312)">
    <g id="Grupo_1022341" data-name="Grupo 1022341" transform="translate(777.5 286.312)">
      <g id="Grupo_77443" data-name="Grupo 77443" transform="translate(177)">
        <rect id="Rect치ngulo_32442" data-name="Rect치ngulo 32442" width="31" height="31" transform="translate(256 2286)" fill="#dc49f8"/>
      </g>
      <rect id="Rect치ngulo_33680" data-name="Rect치ngulo 33680" width="43" height="46" transform="translate(421 2286)" fill="none"/>
    </g>
    <g id="Grupo_1185946" data-name="Grupo 1185946" transform="translate(1187.64 2575.645)">
      <path id="Trazado_1055447" data-name="Trazado 1055447" d="M34,44.394a4.586,4.586,0,0,0,.411-7.3.6.6,0,0,0-.785.918,3.383,3.383,0,0,1-1.885,5.945c-.1-.006-.205-.018-.308-.018-.121,0-.236.006-.35.012a3.383,3.383,0,0,1,.35-6.749.6.6,0,0,0,0-1.208,4.588,4.588,0,0,0-2.568,8.392,7.583,7.583,0,0,0-4.338,4,.6.6,0,1,0,1.1.5,6.383,6.383,0,0,1,5.45-3.728,3.521,3.521,0,0,0,.356.018,2.635,2.635,0,0,0,.308-.018A6.377,6.377,0,0,1,37.8,51.505v3.22a.6.6,0,1,0,1.208,0V51.517A7.564,7.564,0,0,0,34,44.394Z" transform="translate(-7.509 -12.663)"/>
      <path id="Trazado_1055448" data-name="Trazado 1055448" d="M24.054,60.69a.606.606,0,0,0-.6.6V64.5a.6.6,0,1,0,1.208,0V61.294A.6.6,0,0,0,24.054,60.69Z" transform="translate(-7.105 -22.439)"/>
      <path id="Trazado_1055449" data-name="Trazado 1055449" d="M18.339,35.308a.606.606,0,0,0-.6-.6h-7.4a3.628,3.628,0,0,1-3.625-3.625v-13.9a3.628,3.628,0,0,1,3.625-3.625h4.833a.6.6,0,0,0,0-1.208H10.333A4.84,4.84,0,0,0,5.5,17.183v13.9a4.84,4.84,0,0,0,4.833,4.833h7.4A.6.6,0,0,0,18.339,35.308Z" transform="translate(0 -3.305)"/>
      <path id="Trazado_1055450" data-name="Trazado 1055450" d="M53.346,49.35H46.084a.6.6,0,1,0,0,1.208h7.262a.6.6,0,1,0,0-1.208Z" transform="translate(-15.825 -17.951)"/>
      <path id="Trazado_1055451" data-name="Trazado 1055451" d="M54.938,12.35H50.1a.6.6,0,1,0,0,1.208h4.833a3.628,3.628,0,0,1,3.625,3.625v13.9a3.616,3.616,0,0,1-1.293,2.773.607.607,0,0,0,.779.93,4.841,4.841,0,0,0,1.728-3.7v-13.9A4.85,4.85,0,0,0,54.938,12.35Z" transform="translate(-17.416 -3.305)"/>
      <path id="Trazado_1055452" data-name="Trazado 1055452" d="M10.1,19.371a.606.606,0,0,0,.6-.6,1.212,1.212,0,0,1,1.208-1.208H16.75a.6.6,0,1,0,0-1.208H11.917A2.416,2.416,0,0,0,9.5,18.767.6.6,0,0,0,10.1,19.371Z" transform="translate(-1.583 -4.888)"/>
      <path id="Trazado_1055453" data-name="Trazado 1055453" d="M9.5,35.457a2.416,2.416,0,0,0,2.417,2.417h7.4a.6.6,0,1,0,0-1.208h-7.4a1.212,1.212,0,0,1-1.208-1.208V24.014a.6.6,0,1,0-1.208,0Z" transform="translate(-1.583 -7.683)"/>
      <path id="Trazado_1055454" data-name="Trazado 1055454" d="M55.763,18.767a2.416,2.416,0,0,0-2.417-2.417H48.513a.6.6,0,1,0,0,1.208h4.833a1.212,1.212,0,0,1,1.208,1.208v13.9a1.212,1.212,0,0,1-1.208,1.208H46.084a.6.6,0,1,0,0,1.208h7.262a2.416,2.416,0,0,0,2.417-2.417Z" transform="translate(-15.825 -4.888)"/>
      <path id="Trazado_1055455" data-name="Trazado 1055455" d="M37.011,14.772A.591.591,0,0,0,37.6,14.4l.719-1.74a.616.616,0,0,0-.151-.683l-.719-.653V10.38l.719-.653a.6.6,0,0,0,.151-.683L37.6,7.3a.607.607,0,0,0-.586-.375L36.039,7l-.665-.671.048-.973a.6.6,0,0,0-.375-.586l-1.74-.719a.616.616,0,0,0-.683.151l-.653.725H31.03L30.378,4.2a.6.6,0,0,0-.683-.151l-1.74.719a.6.6,0,0,0-.375.586l.048.973L26.976,7,26,6.948a.6.6,0,0,0-.586.375L24.7,9.063a.616.616,0,0,0,.151.683l.719.653v.943l-.719.653a.6.6,0,0,0-.151.683l.719,1.74a.6.6,0,0,0,.586.375l.973-.048.671.671-.048.973a.6.6,0,0,0,.375.586l1.74.719a.616.616,0,0,0,.683-.151l.653-.725h.943l.653.725a.6.6,0,0,0,.447.2.507.507,0,0,0,.23-.048l1.74-.719a.6.6,0,0,0,.375-.586l-.048-.973.671-.671Zm-1.637-1.094-1.045,1.045a.6.6,0,0,0-.175.459L34.2,16l-.949.393-.544-.6a.6.6,0,0,0-.447-.2h-1.48a.6.6,0,0,0-.447.2l-.544.6L28.837,16l.042-.816a.618.618,0,0,0-.175-.459l-1.045-1.045A.588.588,0,0,0,27.2,13.5l-.816.042-.393-.949.6-.544a.6.6,0,0,0,.2-.447v-1.48a.6.6,0,0,0-.2-.447l-.6-.544.393-.949.816.042a.588.588,0,0,0,.459-.175L28.7,7.009a.6.6,0,0,0,.175-.459l-.042-.816.949-.393.544.6a.6.6,0,0,0,.447.2h1.48a.6.6,0,0,0,.447-.2l.544-.6.949.393-.042.816a.618.618,0,0,0,.175.459l1.045,1.045a.588.588,0,0,0,.459.175l.816-.042.393.949-.6.544a.6.6,0,0,0-.2.447v1.48a.6.6,0,0,0,.2.447l.6.544-.393.949-.816-.042A.588.588,0,0,0,35.374,13.679Z" transform="translate(-7.58 0)"/>
      <path id="Trazado_1055456" data-name="Trazado 1055456" d="M32.078,11.431a2.879,2.879,0,1,0,4.072,0,2.881,2.881,0,0,0-4.072,0Zm3.22,3.22a1.668,1.668,0,1,1,.006-2.362A1.67,1.67,0,0,1,35.3,14.651Z" transform="translate(-10.187 -2.609)"/>
      <path id="Trazado_1055457" data-name="Trazado 1055457" d="M46.417,29.208a.6.6,0,1,0,0-1.208H44.6a.606.606,0,0,0-.6.6v3.625a.606.606,0,0,0,.6.6H51.25a.606.606,0,0,0,.6-.6V28.6a.606.606,0,0,0-.6-.6H48.833a.6.6,0,1,0,0,1.208h1.813v2.417H45.208V29.208Z" transform="translate(-15.239 -9.5)"/>
      <path id="Trazado_1055458" data-name="Trazado 1055458" d="M22.854,32.229V28.6a.606.606,0,0,0-.6-.6H15.6a.606.606,0,0,0-.6.6v3.625a.606.606,0,0,0,.6.6h1.813a.6.6,0,1,0,0-1.208H16.208V29.208h5.438v2.417H19.882a.6.6,0,1,0,0,1.208H22.25A.606.606,0,0,0,22.854,32.229Z" transform="translate(-3.76 -9.5)"/>
    </g>
  </g>
</svg>
