<svg xmlns="http://www.w3.org/2000/svg" width="45" height="46" viewBox="0 0 45 46">
  <g id="Grupo_1186384" data-name="Grupo 1186384" transform="translate(-287 -2052.006)">
    <g id="Grupo_1022340" data-name="Grupo 1022340" transform="translate(-132 -233.994)">
      <g id="Grupo_77443" data-name="Grupo 77443" transform="translate(177)">
        <rect id="Rect치ngulo_32442" data-name="Rect치ngulo 32442" width="31" height="31" transform="translate(256 2286)" fill="#dc49f8"/>
      </g>
      <rect id="Rect치ngulo_33680" data-name="Rect치ngulo 33680" width="43" height="46" transform="translate(421 2286)" fill="none"/>
    </g>
    <g id="Grupo_1186335" data-name="Grupo 1186335" transform="translate(246 2015.673)">
      <g id="Grupo_1186319" data-name="Grupo 1186319" transform="translate(41 41)">
        <g id="Grupo_1186307" data-name="Grupo 1186307" transform="translate(4.417 4.426)">
          <path id="Trazado_1055816" data-name="Trazado 1055816" d="M89.736,103.977H89.7a.442.442,0,0,1-.412-.476A15.291,15.291,0,0,1,103.4,89.387a.445.445,0,1,1,.064.887,14.467,14.467,0,0,0-13.291,13.291.447.447,0,0,1-.439.412Z" transform="translate(-89.286 -89.386)"/>
        </g>
        <g id="Grupo_1186308" data-name="Grupo 1186308" transform="translate(20.315 20.324)">
          <path id="Trazado_1055817" data-name="Trazado 1055817" d="M263.536,277.777a.456.456,0,0,1-.448-.412.442.442,0,0,1,.412-.476A14.467,14.467,0,0,0,276.79,263.6a.445.445,0,0,1,.887.064,15.291,15.291,0,0,1-14.114,14.114Z" transform="translate(-263.086 -263.186)"/>
        </g>
        <g id="Grupo_1186309" data-name="Grupo 1186309" transform="translate(20.315 4.426)">
          <path id="Trazado_1055818" data-name="Trazado 1055818" d="M277.238,103.977a.456.456,0,0,1-.448-.412A14.467,14.467,0,0,0,263.5,90.275a.445.445,0,0,1,.064-.887A15.291,15.291,0,0,1,277.677,103.5a.442.442,0,0,1-.412.476Z" transform="translate(-263.086 -89.386)"/>
        </g>
        <g id="Grupo_1186310" data-name="Grupo 1186310" transform="translate(4.417 20.324)">
          <path id="Trazado_1055819" data-name="Trazado 1055819" d="M103.438,277.777H103.4a15.291,15.291,0,0,1-14.114-14.114.445.445,0,1,1,.887-.064,14.467,14.467,0,0,0,13.291,13.291.442.442,0,0,1,.412.476A.434.434,0,0,1,103.438,277.777Z" transform="translate(-89.286 -263.186)"/>
        </g>
        <g id="Grupo_1186311" data-name="Grupo 1186311" transform="translate(1.948 1.947)">
          <path id="Trazado_1055820" data-name="Trazado 1055820" d="M62.745,79.357h-.027a.456.456,0,0,1-.421-.476A17.763,17.763,0,0,1,78.89,62.288a.449.449,0,1,1,.055.9A16.851,16.851,0,0,0,63.193,78.936.45.45,0,0,1,62.745,79.357Z" transform="translate(-62.296 -62.287)"/>
        </g>
        <g id="Grupo_1186312" data-name="Grupo 1186312" transform="translate(20.315 20.316)">
          <path id="Trazado_1055821" data-name="Trazado 1055821" d="M263.536,280.165a.449.449,0,0,1-.027-.9,16.851,16.851,0,0,0,15.751-15.751.449.449,0,0,1,.9.055,17.763,17.763,0,0,1-16.593,16.593Z" transform="translate(-263.087 -263.096)"/>
        </g>
        <g id="Grupo_1186313" data-name="Grupo 1186313" transform="translate(20.316 1.948)">
          <path id="Trazado_1055822" data-name="Trazado 1055822" d="M279.717,79.365a.45.45,0,0,1-.448-.421,16.851,16.851,0,0,0-15.751-15.751.449.449,0,0,1,.055-.9A17.763,17.763,0,0,1,280.165,78.89a.45.45,0,0,1-.421.476Z" transform="translate(-263.096 -62.296)"/>
        </g>
        <g id="Grupo_1186314" data-name="Grupo 1186314" transform="translate(1.947 20.315)">
          <path id="Trazado_1055823" data-name="Trazado 1055823" d="M78.908,280.157h-.027a17.763,17.763,0,0,1-16.593-16.593.449.449,0,1,1,.9-.055A16.851,16.851,0,0,0,78.936,279.26a.449.449,0,0,1-.027.9Z" transform="translate(-62.287 -263.087)"/>
        </g>
        <g id="Grupo_1186315" data-name="Grupo 1186315" transform="translate(16.814)">
          <path id="Trazado_1055824" data-name="Trazado 1055824" d="M227.672,51.922a.452.452,0,0,1-.348-.165l-2.406-2.982a.45.45,0,0,1-.055-.476.444.444,0,0,1,.4-.256h.86V41.622a.623.623,0,0,1,.622-.622h1.839a.623.623,0,0,1,.622.622v6.421h.86a.444.444,0,0,1,.4.256.45.45,0,0,1-.055.476l-2.406,2.982A.4.4,0,0,1,227.672,51.922ZM226.2,48.94l1.473,1.829,1.473-1.829h-.375a.449.449,0,0,1-.448-.448V41.9h-1.308v6.6a.449.449,0,0,1-.448.448Z" transform="translate(-224.82 -41)"/>
        </g>
        <g id="Grupo_1186316" data-name="Grupo 1186316" transform="translate(0 16.824)">
          <path id="Trazado_1055825" data-name="Trazado 1055825" d="M48.492,230.617a.492.492,0,0,1-.192-.046.444.444,0,0,1-.256-.4v-.86H41.622a.623.623,0,0,1-.622-.622v-1.839a.623.623,0,0,1,.622-.622h6.421v-.86a.444.444,0,0,1,.256-.4.45.45,0,0,1,.476.055l2.982,2.406a.425.425,0,0,1,.165.348.452.452,0,0,1-.165.348l-2.982,2.4A.466.466,0,0,1,48.492,230.617Zm-6.6-2.2h6.6a.449.449,0,0,1,.448.448v.375l1.829-1.473L48.94,226.29v.375a.449.449,0,0,1-.448.448H41.9Z" transform="translate(-41 -224.92)"/>
        </g>
        <g id="Grupo_1186317" data-name="Grupo 1186317" transform="translate(16.824 28.411)">
          <path id="Trazado_1055826" data-name="Trazado 1055826" d="M228.687,362.522h-1.839a.623.623,0,0,1-.622-.622v-6.421h-.86a.444.444,0,0,1-.4-.256.45.45,0,0,1,.055-.476l2.406-2.982a.425.425,0,0,1,.348-.165.452.452,0,0,1,.348.165l2.406,2.982a.45.45,0,0,1,.055.476.444.444,0,0,1-.4.256h-.86V361.9A.643.643,0,0,1,228.687,362.522Zm-1.573-.9h1.308v-6.6a.449.449,0,0,1,.448-.448h.375l-1.473-1.829-1.473,1.829h.375a.449.449,0,0,1,.448.448v6.6Z" transform="translate(-224.92 -351.6)"/>
        </g>
        <g id="Grupo_1186318" data-name="Grupo 1186318" transform="translate(28.411 16.814)">
          <path id="Trazado_1055827" data-name="Trazado 1055827" d="M355.03,230.526a.466.466,0,0,1-.284-.1l-2.982-2.406a.425.425,0,0,1-.165-.348.452.452,0,0,1,.165-.348l2.982-2.406a.45.45,0,0,1,.476-.055.444.444,0,0,1,.256.4v.86H361.9a.623.623,0,0,1,.622.622v1.839a.623.623,0,0,1-.622.622h-6.421v.86a.444.444,0,0,1-.256.4.384.384,0,0,1-.192.055Zm-2.268-2.854,1.829,1.473v-.375a.449.449,0,0,1,.448-.448h6.6v-1.308h-6.6a.449.449,0,0,1-.448-.448v-.375Z" transform="translate(-351.6 -224.82)"/>
        </g>
      </g>
      <g id="Grupo_1186322" data-name="Grupo 1186322" transform="translate(56.312 52.727)">
        <g id="Grupo_1186321" data-name="Grupo 1186321">
          <g id="Grupo_1186320" data-name="Grupo 1186320">
            <path id="Trazado_1055828" data-name="Trazado 1055828" d="M212.754,177.89a4.345,4.345,0,1,1,4.354-4.345A4.357,4.357,0,0,1,212.754,177.89Zm0-7.793a3.449,3.449,0,1,0,3.458,3.448A3.453,3.453,0,0,0,212.754,170.1Z" transform="translate(-208.4 -169.2)"/>
          </g>
        </g>
      </g>
      <g id="Grupo_1186330" data-name="Grupo 1186330" transform="translate(53.55 60.52)">
        <g id="Grupo_1186329" data-name="Grupo 1186329" transform="translate(0 0)">
          <g id="Grupo_1186328" data-name="Grupo 1186328">
            <g id="Grupo_1186327" data-name="Grupo 1186327">
              <g id="Grupo_1186326" data-name="Grupo 1186326">
                <g id="Grupo_1186325" data-name="Grupo 1186325">
                  <g id="Grupo_1186324" data-name="Grupo 1186324">
                    <g id="Grupo_1186323" data-name="Grupo 1186323">
                      <path id="Trazado_1055829" data-name="Trazado 1055829" d="M191.482,262.486H179.16a.96.96,0,0,1-.96-.96v-2.753a4.362,4.362,0,0,1,4.235-4.372h5.781a4.368,4.368,0,0,1,4.235,4.372v2.753A.974.974,0,0,1,191.482,262.486Zm-9.028-7.19a3.462,3.462,0,0,0-3.357,3.476v2.753a.069.069,0,0,0,.064.064h12.33a.069.069,0,0,0,.064-.064v-2.753A3.462,3.462,0,0,0,188.2,255.3Z" transform="translate(-178.2 -254.4)"/>
                    </g>
                  </g>
                </g>
              </g>
            </g>
          </g>
        </g>
      </g>
      <g id="Grupo_1186331" data-name="Grupo 1186331" transform="translate(56.349 54.728)">
        <path id="Trazado_1055830" data-name="Trazado 1055830" d="M216.663,193.385a3.327,3.327,0,0,1-2.708-1.326,10.573,10.573,0,0,1-4.693,1.3.449.449,0,1,1-.037-.9c.027,0,2.936-.146,4.336-1.235a.7.7,0,0,1,.549-.137.739.739,0,0,1,.467.3,2.467,2.467,0,0,0,2.369,1.079.446.446,0,0,1,.082.887A2.558,2.558,0,0,1,216.663,193.385Z" transform="translate(-208.797 -191.077)"/>
      </g>
      <g id="Grupo_1186332" data-name="Grupo 1186332" transform="translate(56.312 64.957)">
        <path id="Trazado_1055831" data-name="Trazado 1055831" d="M208.848,306.55a.449.449,0,0,1-.448-.448v-2.753a.448.448,0,1,1,.9,0V306.1A.449.449,0,0,1,208.848,306.55Z" transform="translate(-208.4 -302.9)"/>
      </g>
      <g id="Grupo_1186333" data-name="Grupo 1186333" transform="translate(64.124 64.957)">
        <path id="Trazado_1055832" data-name="Trazado 1055832" d="M294.248,306.55a.449.449,0,0,1-.448-.448v-2.753a.448.448,0,0,1,.9,0V306.1A.449.449,0,0,1,294.248,306.55Z" transform="translate(-293.8 -302.9)"/>
      </g>
      <g id="Grupo_1186334" data-name="Grupo 1186334" transform="translate(57.648 60.52)">
        <path id="Trazado_1055833" data-name="Trazado 1055833" d="M226.015,257.333A2.907,2.907,0,0,1,223,254.872a.444.444,0,1,1,.887-.046,2.214,2.214,0,0,0,4.263-.009.449.449,0,0,1,.9.055A2.944,2.944,0,0,1,226.015,257.333Z" transform="translate(-222.996 -254.396)"/>
      </g>
    </g>
  </g>
</svg>
