<svg xmlns="http://www.w3.org/2000/svg" width="72.392" height="89.312" viewBox="0 0 72.392 89.312">
  <g id="Grupo_1186349" data-name="Grupo 1186349" transform="translate(-58.381 -12.425)">
    <g id="Grupo_1186348" data-name="Grupo 1186348" transform="translate(59.842 13.783)">
      <g id="Grupo_1186345" data-name="Grupo 1186345" transform="translate(1.278 15.028)">
        <path id="Trazado_1055858" data-name="Trazado 1055858" d="M94.37,104.353a15.011,15.011,0,0,1,4.4,1.824l2.86-1.269L105,108.278l-1.269,2.86a15.011,15.011,0,0,1,1.824,4.4l2.918,1.123v4.767l-2.918,1.123a15.02,15.02,0,0,1-1.824,4.4l1.269,2.86-3.369,3.371-2.86-1.271a15.017,15.017,0,0,1-4.4,1.826l-1.123,2.916H88.48l-1.123-2.918a15.021,15.021,0,0,1-4.4-1.824l-2.86,1.271-3.371-3.371L78,126.952a15.067,15.067,0,0,1-1.826-4.4l-2.916-1.123v-4.767l2.916-1.123a15.021,15.021,0,0,1,1.826-4.4l-1.271-2.86,3.371-3.369,2.858,1.269a15.056,15.056,0,0,1,4.4-1.824l1.123-2.918h4.767Z" transform="translate(-73.256 -101.435)" fill="#748fc8" fill-rule="evenodd"/>
        <path id="Trazado_1055859" data-name="Trazado 1055859" d="M129.106,105.335l.961-.426,3.369,3.369-1.269,2.86a15.01,15.01,0,0,1,1.824,4.4l2.918,1.123v4.767l-2.918,1.123a15.019,15.019,0,0,1-1.824,4.4l1.269,2.86-3.369,3.371-.961-.426,2.945-2.945-1.271-2.86a15.019,15.019,0,0,0,1.824-4.4l2.918-1.123v-4.767l-2.918-1.123a15.01,15.01,0,0,0-1.824-4.4l1.271-2.86Zm-21,0,.426-.426,2.858,1.269c-.2.112-.4.229-.6.352Zm14.7-.982a15.011,15.011,0,0,1,4.4,1.824l-.788.352a19.641,19.641,0,0,0-5-2.176l-1.123-2.918h1.387ZM111.4,131.91l-2.86,1.271-.426-.426,2.687-1.194q.293.181.6.349Zm15.813,0a15.016,15.016,0,0,1-4.4,1.826l-1.123,2.916H120.3l1.123-2.916a19.685,19.685,0,0,0,5-2.175Z" transform="translate(-101.693 -101.435)" fill="#ffd064" fill-rule="evenodd"/>
        <path id="Trazado_1055860" data-name="Trazado 1055860" d="M132.077,151.947a8.31,8.31,0,1,1-8.309,8.31A8.31,8.31,0,0,1,132.077,151.947Z" transform="translate(-114.469 -142.648)" fill="#eceff1" fill-rule="evenodd"/>
        <path id="Trazado_1055861" data-name="Trazado 1055861" d="M132.077,151.947c.189,0,.376.007.564.02a8.309,8.309,0,0,0,0,16.58c-.187.012-.375.019-.564.019a8.31,8.31,0,0,1,0-16.619Z" transform="translate(-114.469 -142.648)" fill="#d1d1d6" fill-rule="evenodd"/>
      </g>
      <g id="Grupo_1186346" data-name="Grupo 1186346" transform="translate(0 57.838)">
        <path id="Trazado_1055862" data-name="Trazado 1055862" d="M90.563,343.436l13.069-7.57c2.454-1.422,4.947-2.43,7.645-1.556,3.005.977,7.913,3.068,12.919,3.97a3.631,3.631,0,0,1,2.513,4.348c-.508,1.887-2.1,2.86-4.352,2.513l1.753.28a8.124,8.124,0,0,0,5.6-.977l12.565-7.318c9.768-5.687,11.2,3.064,7.956,5.065l-22.806,14.042a8.37,8.37,0,0,1-6.771.953l-16.539-4.431-6.129,3.537a2.476,2.476,0,0,1-3.372-.906l-4.955-8.579A2.478,2.478,0,0,1,90.563,343.436Z" transform="translate(-85.095 -333.984)" fill="#f6dccd" fill-rule="evenodd"/>
        <path id="Trazado_1055863" data-name="Trazado 1055863" d="M90.563,343.436l13.069-7.57c2.454-1.422,4.947-2.43,7.645-1.556,1.607.52,3.762,1.363,6.18,2.17L92.138,351.1l-2.478-4.293A2.478,2.478,0,0,1,90.563,343.436Z" transform="translate(-85.095 -333.984)" fill="#f1cbbc" fill-rule="evenodd"/>
        <path id="Trazado_1055864" data-name="Trazado 1055864" d="M73.3,360.714l10.367,18.316a1.858,1.858,0,0,1-.7,2.521l-3.529,2a1.858,1.858,0,0,1-2.521-.7L66.557,364.531a1.851,1.851,0,0,1,.7-2.521l3.525-2A1.855,1.855,0,0,1,73.3,360.714Z" transform="translate(-66.317 -355.027)" fill="#d1d1d6" fill-rule="evenodd"/>
        <path id="Trazado_1055865" data-name="Trazado 1055865" d="M100.159,373.3l1.832,3.241,1.816,3.206a1.854,1.854,0,0,1-.693,2.517l1.26-.713a1.858,1.858,0,0,0,.7-2.521l-1.82-3.218-3.655-6.46-3.659-6.463L94.7,360.714a1.857,1.857,0,0,0-2.154-.859l2.131,3.765,3.655,6.46,1.82,3.214Z" transform="translate(-87.72 -355.027)" fill="#b1b1b5" fill-rule="evenodd"/>
      </g>
      <g id="Grupo_1186347" data-name="Grupo 1186347" transform="translate(21.818 0)">
        <path id="Trazado_1055866" data-name="Trazado 1055866" d="M208.409,19.853a.624.624,0,0,1,.491,0L232.106,29.8a.623.623,0,0,1,.378.573v18.85a27.808,27.808,0,0,1-22.962,27.291l-.867.154-.867-.154a27.808,27.808,0,0,1-22.957-27.291V30.373a.623.623,0,0,1,.378-.573l23.2-9.948Z" transform="translate(-184.831 -19.802)" fill="#dc49f8" fill-rule="evenodd"/>
        <path id="Trazado_1055867" data-name="Trazado 1055867" d="M310.857,20.014l.377-.162a.624.624,0,0,1,.491,0L334.932,29.8a.623.623,0,0,1,.378.573v18.85a27.808,27.808,0,0,1-22.962,27.291l-.867.154-.623-.111.244-.043a27.808,27.808,0,0,0,22.962-27.291V30.373a.623.623,0,0,0-.378-.573Z" transform="translate(-287.657 -19.802)" fill="#00e499" fill-rule="evenodd"/>
        <path id="Trazado_1055868" data-name="Trazado 1055868" d="M237.036,55.558a.641.641,0,0,0-.505,0L219.7,62.774a.641.641,0,0,0-.389.589V78.128a21.584,21.584,0,0,0,17.477,21.1,21.584,21.584,0,0,0,17.482-21.1V63.363a.641.641,0,0,0-.389-.589Z" transform="translate(-212.96 -48.933)" fill="#eceff1" fill-rule="evenodd"/>
        <path id="Trazado_1055869" data-name="Trazado 1055869" d="M237.425,55.724l-16.447,7.049a.641.641,0,0,0-.389.589V78.128a21.589,21.589,0,0,0,16.835,20.966q-.319.071-.642.132a21.584,21.584,0,0,1-17.477-21.1V63.363a.641.641,0,0,1,.389-.589l16.835-7.216a.641.641,0,0,1,.505,0Z" transform="translate(-212.96 -48.933)" fill="#d1d1d6" fill-rule="evenodd"/>
      </g>
      <path id="Trazado_1055870" data-name="Trazado 1055870" d="M300.9,112.336a3.012,3.012,0,1,1-3.019,3.012,3.013,3.013,0,0,1,3.019-3.012Zm0-5.376a2.354,2.354,0,0,1-2.351-2.267l-.6-16.47a2.353,2.353,0,0,1,2.351-2.434h1.189a2.307,2.307,0,0,1,1.7.716,2.265,2.265,0,0,1,.654,1.718l-.591,16.47A2.359,2.359,0,0,1,300.9,106.96Z" transform="translate(-255.25 -73.641)" fill="#fe646f" fill-rule="evenodd"/>
    </g>
    <path id="Trazado_1055871" data-name="Trazado 1055871" d="M77.544,93.228l.888,1.57,0,0a3.329,3.329,0,0,1-1.255,4.517l-3.514,1.992,0,0a3.329,3.329,0,0,1-4.517-1.256L58.811,81.8a3.323,3.323,0,0,1,1.249-4.522l3.518-1.992h0A3.332,3.332,0,0,1,68.1,76.536l0,0,.7,1.235,9-5.213c2.825-1.633,5.713-2.684,8.816-1.677,2.952.957,7.77,3.022,12.687,3.91a1.491,1.491,0,0,1,.192.048,5.084,5.084,0,0,1,3.47,6.122,6,6,0,0,1-.214.65,6.724,6.724,0,0,0,1.046-.5l12.529-7.3c4.642-2.7,7.741-2.374,9.493-1.2a5.425,5.425,0,0,1-.05,8.774l-22.735,14a9.765,9.765,0,0,1-7.9,1.125h0l-15.9-4.262Zm-1.677,3.018L65.538,77.993v0a.377.377,0,0,0-.508-.142L61.511,79.84h0a.371.371,0,0,0-.137.505h0L71.707,98.606h0a.375.375,0,0,0,.509.139l3.51-1.989h0a.375.375,0,0,0,.139-.509Zm.226-5.581,2.19-1.265a1.472,1.472,0,0,1,1.118-.147l16.491,4.42a6.914,6.914,0,0,0,5.6-.785h0l22.736-14a2.171,2.171,0,0,0,.857-1.828c.058-2.179-2.137-3.686-7.273-.694l-12.529,7.3a9.549,9.549,0,0,1-6.56,1.157h0l-1.553-.253h0l-.059-.011h0c-2.832-.581-5.459-1.436-8.373-2.22a1.473,1.473,0,0,1,.764-2.845c2.834.762,5.389,1.6,8.14,2.166a2.081,2.081,0,0,0,2.491-1.457h0a2.143,2.143,0,0,0-1.451-2.526c-5.027-.925-9.945-3.008-12.963-3.987h0c-2.277-.739-4.358.226-6.431,1.425l-9.027,5.226ZM64.417,79.8a1.459,1.459,0,1,1-1.234,1.652A1.458,1.458,0,0,1,64.417,79.8ZM86.408,61.234a16.426,16.426,0,0,1-3.054,1.224L82.5,64.672a1.472,1.472,0,0,1-1.374.944H76.362a1.473,1.473,0,0,1-1.375-.944l-.852-2.214a16.563,16.563,0,0,1-3.392-1.405l-2.173.963a1.472,1.472,0,0,1-1.638-.305l-3.369-3.369a1.473,1.473,0,0,1-.3-1.64l.965-2.17a16.538,16.538,0,0,1-1.406-3.387L60.6,50.291a1.473,1.473,0,0,1-.944-1.374V44.152a1.473,1.473,0,0,1,.944-1.374l2.216-.853a16.561,16.561,0,0,1,1.407-3.391l-.965-2.171a1.473,1.473,0,0,1,.3-1.64l3.369-3.369a1.473,1.473,0,0,1,1.64-.3l2.171.965a16.457,16.457,0,0,1,3.388-1.4l.857-2.22a1.473,1.473,0,0,1,1.374-.943h3.866V24.1a1.473,1.473,0,0,1,.892-1.354l23.8-10.2a1.474,1.474,0,0,1,1.16,0l23.8,10.2a1.473,1.473,0,0,1,.892,1.354V43.345a29.26,29.26,0,0,1-24.151,28.714l-.867.152a1.475,1.475,0,0,1-.507,0l-.867-.152A29.147,29.147,0,0,1,86.408,61.234Zm-6.18-30.547-.112-.293H77.373l-.764,1.98a1.473,1.473,0,0,1-1.033.9,13.513,13.513,0,0,0-3.968,1.644,1.473,1.473,0,0,1-1.371.092L68.3,34.152,66.363,36.09l.861,1.936a1.473,1.473,0,0,1-.092,1.371,13.63,13.63,0,0,0-1.65,3.976,1.473,1.473,0,0,1-.9,1.031l-1.974.76v2.743l1.974.76a1.473,1.473,0,0,1,.9,1.03,13.6,13.6,0,0,0,1.649,3.97,1.472,1.472,0,0,1,.093,1.373l-.861,1.936L68.3,58.913l1.936-.858a1.473,1.473,0,0,1,1.366.091,13.616,13.616,0,0,0,3.975,1.646,1.473,1.473,0,0,1,1.035.9l.76,1.974h2.742l.76-1.974a1.472,1.472,0,0,1,1.034-.9A13.527,13.527,0,0,0,84.7,58.8a29.34,29.34,0,0,1-1.832-3.386,9.787,9.787,0,1,1-4.124-18.663,9.881,9.881,0,0,1,1.486.112ZM88.21,58.737a26.222,26.222,0,0,0,16.676,10.419l.614.107.615-.107a26.3,26.3,0,0,0,21.713-25.812V25.071L105.5,15.5l-22.327,9.57V43.345a25.953,25.953,0,0,0,1.75,9.374c.014.034.028.067.039.1a26.363,26.363,0,0,0,3.168,5.808c.028.035.054.072.079.109ZM80.228,39.855a6.841,6.841,0,1,0-1.486,13.52,6.815,6.815,0,0,0,3.031-.706,28.863,28.863,0,0,1-1.545-9.325ZM106.08,19.428l17.48,7.484a1.473,1.473,0,0,1,.893,1.354V43.345a22.934,22.934,0,0,1-18.684,22.44,1.468,1.468,0,0,1-.536,0,22.934,22.934,0,0,1-18.678-22.44V28.266a1.473,1.473,0,0,1,.893-1.354l17.474-7.484a1.472,1.472,0,0,1,1.159,0Zm-.58,2.956-16,6.854V43.345a19.977,19.977,0,0,0,16,19.492,19.976,19.976,0,0,0,16.007-19.492V29.238Zm0,28.734a4.484,4.484,0,1,1-4.491,4.484A4.486,4.486,0,0,1,105.5,51.118Zm0,2.945a1.539,1.539,0,1,0,1.539,1.539A1.542,1.542,0,0,0,105.5,54.064Zm0-5.376A3.831,3.831,0,0,1,101.681,45l-.6-16.473v0a3.725,3.725,0,0,1,1.072-2.786l0,0a3.707,3.707,0,0,1,2.747-1.163H106.1a3.739,3.739,0,0,1,2.754,1.163l.008.008a3.689,3.689,0,0,1,1.061,2.792L109.326,45v0a3.834,3.834,0,0,1-3.822,3.683Zm0-2.945a.884.884,0,0,0,.879-.851l.591-16.471v0a.844.844,0,0,0-.242-.633.881.881,0,0,0-.637-.267h-1.189a.856.856,0,0,0-.632.268.874.874,0,0,0-.247.645l.6,16.467v0a.878.878,0,0,0,.879.844Z" transform="translate(0)" fill-rule="evenodd"/>
  </g>
</svg>
