<svg xmlns="http://www.w3.org/2000/svg" width="44.55" height="46" viewBox="0 0 44.55 46">
  <g id="Grupo_1186344" data-name="Grupo 1186344" transform="translate(-535.45 -2052.006)">
    <g id="Grupo_1022340" data-name="Grupo 1022340" transform="translate(116 -233.994)">
      <g id="Grupo_77443" data-name="Grupo 77443" transform="translate(177)">
        <rect id="Rectángulo_32442" data-name="Rectángulo 32442" width="31" height="31" transform="translate(256 2286)" fill="#dc49f8"/>
      </g>
      <rect id="Rectángulo_33680" data-name="Rectángulo 33680" width="43" height="46" transform="translate(421 2286)" fill="none"/>
    </g>
    <g id="Grupo_1186339" data-name="Grupo 1186339" transform="translate(522.788 2049.173)">
      <g id="Grupo_1186338" data-name="Grupo 1186338" transform="translate(13.162 7.5)">
        <path id="Trazado_1055834" data-name="Trazado 1055834" d="M102.687,364.649l.877-3.136H99.926l.873,3.136Z" transform="translate(-93.234 -334.209)" fill="none" stroke="#000" stroke-linecap="round" stroke-linejoin="round" stroke-miterlimit="10" stroke-width="1"/>
        <path id="Trazado_1055835" data-name="Trazado 1055835" d="M27.844,361.827a3.853,3.853,0,0,0-1.527-.314h-9.29a3.866,3.866,0,0,0-3.866,3.866v4.56a1.157,1.157,0,0,0,1.157,1.157H27.942" transform="translate(-13.162 -334.209)" fill="none" stroke="#000" stroke-linecap="round" stroke-linejoin="round" stroke-miterlimit="10" stroke-width="1"/>
        <g id="Grupo_1186336" data-name="Grupo 1186336" transform="translate(15.413 28.893)">
          <path id="Trazado_1055836" data-name="Trazado 1055836" d="M213,385.438a3.316,3.316,0,1,1,6.633,0" transform="translate(-213.002 -382.122)" fill="none" stroke="#000" stroke-linecap="round" stroke-linejoin="round" stroke-miterlimit="10" stroke-width="1"/>
        </g>
        <line id="Línea_3808" data-name="Línea 3808" x1="2.551" y2="3.061" transform="translate(18.729 29.149)" fill="none" stroke="#000" stroke-linecap="round" stroke-linejoin="round" stroke-miterlimit="10" stroke-width="1"/>
        <g id="Grupo_1186337" data-name="Grupo 1186337" transform="translate(16.263 34.947)">
          <line id="Línea_3809" data-name="Línea 3809" x2="0.17" fill="none" stroke="#000" stroke-linecap="round" stroke-linejoin="round" stroke-miterlimit="10" stroke-width="1"/>
          <line id="Línea_3810" data-name="Línea 3810" x2="0.17" transform="translate(2.381)" fill="none" stroke="#000" stroke-linecap="round" stroke-linejoin="round" stroke-miterlimit="10" stroke-width="1"/>
          <line id="Línea_3811" data-name="Línea 3811" x2="0.17" transform="translate(4.762)" fill="none" stroke="#000" stroke-linecap="round" stroke-linejoin="round" stroke-miterlimit="10" stroke-width="1"/>
        </g>
        <path id="Trazado_1055837" data-name="Trazado 1055837" d="M132.377,20.817a.917.917,0,0,0,.172-.535V17.235a.923.923,0,0,0-.923-.923h-1.5a.928.928,0,0,1-.865-.6q-.084-.219-.179-.432a.929.929,0,0,1,.185-1.038l1.059-1.059a.923.923,0,0,0,0-1.3L128.174,9.72a.923.923,0,0,0-1.305,0l-1.059,1.059a.929.929,0,0,1-1.038.185q-.213-.1-.432-.179a.928.928,0,0,1-.6-.865v-1.5a.923.923,0,0,0-.923-.923h-3.047a.923.923,0,0,0-.923.923v1.5a.928.928,0,0,1-.6.865q-.219.084-.432.179a.929.929,0,0,1-1.038-.185L115.713,9.72a.923.923,0,0,0-1.3,0l-2.155,2.154a.923.923,0,0,0,0,1.3l1.059,1.059a.929.929,0,0,1,.186,1.038q-.1.213-.179.432a.928.928,0,0,1-.865.6h-1.5a.923.923,0,0,0-.923.923v.176" transform="translate(-102.562 -7.5)" fill="none" stroke="#000" stroke-linecap="round" stroke-linejoin="round" stroke-miterlimit="10" stroke-width="1"/>
        <path id="Trazado_1055838" data-name="Trazado 1055838" d="M110.033,171v.171a.923.923,0,0,0,.923.923h1.5a.928.928,0,0,1,.865.6q.084.219.179.432a.929.929,0,0,1-.186,1.038l-.488.488" transform="translate(-102.562 -158.39)" fill="none" stroke="#000" stroke-linecap="round" stroke-linejoin="round" stroke-miterlimit="10" stroke-width="1"/>
        <path id="Trazado_1055839" data-name="Trazado 1055839" d="M185.106,254.657l.948-.948a.929.929,0,0,1,1.038-.186q.213.1.432.179a.928.928,0,0,1,.6.865v1.5a.923.923,0,0,0,.923.923H192.1a.923.923,0,0,0,.923-.923v-1.5a.928.928,0,0,1,.6-.865q.219-.084.432-.179a.929.929,0,0,1,1.038.186l.948.948" transform="translate(-171.844 -234.472)" fill="none" stroke="#000" stroke-linejoin="round" stroke-miterlimit="10" stroke-width="1"/>
        <path id="Trazado_1055840" data-name="Trazado 1055840" d="M196.076,86.8h-3.2a1.274,1.274,0,0,0-.9.373l-2.266,2.266a1.274,1.274,0,0,0-.373.9v3.2a1.274,1.274,0,0,0,.373.9l2.266,2.266a1.274,1.274,0,0,0,.9.373h3.2a1.274,1.274,0,0,0,.9-.373l2.266-2.266a1.274,1.274,0,0,0,.373-.9v-3.2a1.274,1.274,0,0,0-.373-.9l-2.266-2.266A1.274,1.274,0,0,0,196.076,86.8Z" transform="translate(-175.745 -80.684)" fill="none" stroke="#000" stroke-linecap="round" stroke-linejoin="round" stroke-miterlimit="10" stroke-width="1"/>
        <circle id="Elipse_12838" data-name="Elipse 12838" cx="2.229" cy="2.229" r="2.229" transform="translate(16.501 9.029)" fill="none" stroke="#000" stroke-linecap="round" stroke-linejoin="round" stroke-miterlimit="10" stroke-width="1"/>
        <path id="Trazado_1055841" data-name="Trazado 1055841" d="M362.187,181.335a2.382,2.382,0,1,0-4.4,0" transform="translate(-331.04 -164.886)" fill="none" stroke="#000" stroke-linejoin="round" stroke-miterlimit="10" stroke-width="1"/>
        <path id="Trazado_1055842" data-name="Trazado 1055842" d="M331.746,215.1h-.52a4.5,4.5,0,0,0-4.5,4.5v2.024a4.764,4.764,0,0,0,4.764,4.764h0a4.764,4.764,0,0,0,4.764-4.764V219.6A4.5,4.5,0,0,0,331.746,215.1Z" transform="translate(-302.538 -199.088)" fill="none" stroke="#000" stroke-linecap="round" stroke-linejoin="round" stroke-miterlimit="10" stroke-width="1"/>
        <line id="Línea_3812" data-name="Línea 3812" x2="9.548" transform="translate(22.679 36.886)" fill="none" stroke="#000" stroke-linecap="round" stroke-linejoin="round" stroke-miterlimit="10" stroke-width="1"/>
        <path id="Trazado_1055843" data-name="Trazado 1055843" d="M320.621,371.1H322a1.157,1.157,0,0,0,1.157-1.157v-4.56a3.866,3.866,0,0,0-3.866-3.866H310a3.851,3.851,0,0,0-1.527.314" transform="translate(-285.695 -334.209)" fill="none" stroke="#000" stroke-linecap="round" stroke-linejoin="round" stroke-miterlimit="10" stroke-width="1"/>
        <path id="Trazado_1055844" data-name="Trazado 1055844" d="M361.385,361.513h-4.943v2.014a.386.386,0,0,0,.072.224l1.132,1.585a.385.385,0,0,1,.072.224V371.1h2.392V365.56a.386.386,0,0,1,.072-.224l1.132-1.585a.386.386,0,0,0,.072-.224v-2.014Z" transform="translate(-329.966 -334.209)" fill="none" stroke="#000" stroke-linecap="round" stroke-linejoin="round" stroke-miterlimit="10" stroke-width="1"/>
        <path id="Trazado_1055845" data-name="Trazado 1055845" d="M336.249,266.813h-.935a2.6,2.6,0,0,1-2.127-1.105.259.259,0,0,0-.424,0,2.6,2.6,0,0,1-2.127,1.105h-3.916" transform="translate(-302.537 -245.691)" fill="none" stroke="#000" stroke-linejoin="round" stroke-miterlimit="10" stroke-width="1"/>
        <path id="Trazado_1055846" data-name="Trazado 1055846" d="M66.766,215.1h-.52a4.5,4.5,0,0,0-4.5,4.5v2.024a4.764,4.764,0,0,0,4.764,4.764h0a4.764,4.764,0,0,0,4.764-4.764V219.6A4.5,4.5,0,0,0,66.766,215.1Z" transform="translate(-57.995 -199.088)" fill="none" stroke="#000" stroke-linecap="round" stroke-linejoin="round" stroke-miterlimit="10" stroke-width="1"/>
        <path id="Trazado_1055847" data-name="Trazado 1055847" d="M71.27,266.813h-.935a2.6,2.6,0,0,1-2.127-1.105.259.259,0,0,0-.424,0,2.6,2.6,0,0,1-2.127,1.105H61.742" transform="translate(-57.995 -245.691)" fill="none" stroke="#000" stroke-linejoin="round" stroke-miterlimit="10" stroke-width="1"/>
        <path id="Trazado_1055848" data-name="Trazado 1055848" d="M100.451,408.617,99.29,402.17H97.4l-1.157,6.447Z" transform="translate(-89.837 -371.73)" fill="none" stroke="#000" stroke-linecap="round" stroke-linejoin="round" stroke-miterlimit="10" stroke-width="1"/>
        <path id="Trazado_1055849" data-name="Trazado 1055849" d="M176.683,350.991a6.12,6.12,0,1,0,.974-2.538" transform="translate(-164.013 -319.652)" fill="none" stroke="#000" stroke-linecap="round" stroke-linejoin="round" stroke-miterlimit="10" stroke-width="1"/>
      </g>
    </g>
  </g>
</svg>
