<svg xmlns="http://www.w3.org/2000/svg" xmlns:xlink="http://www.w3.org/1999/xlink" width="45.953" height="46" viewBox="0 0 45.953 46">
  <defs>
    <clipPath id="clip-path">
      <path id="path5077" d="M0-682.665H36.332v36.332H0Z" transform="translate(0 682.665)"/>
    </clipPath>
  </defs>
  <g id="Grupo_1186342" data-name="Grupo 1186342" transform="translate(-1278.668 -2052.006)">
    <g id="Grupo_1022340" data-name="Grupo 1022340" transform="translate(860.621 -233.994)">
      <g id="Grupo_77443" data-name="Grupo 77443" transform="translate(177)">
        <rect id="Rect치ngulo_32442" data-name="Rect치ngulo 32442" width="31" height="31" transform="translate(256 2286)" fill="#dc49f8"/>
      </g>
      <rect id="Rect치ngulo_33680" data-name="Rect치ngulo 33680" width="43" height="46" transform="translate(421 2286)" fill="none"/>
    </g>
    <g id="g5067" transform="translate(1278.668 2739.671)">
      <g id="g5069" transform="translate(17.808 -664.115)">
        <path id="path5071" d="M0,0V2.782L3.114,5.126,6.228,2.782V0" fill="none" stroke="#000" stroke-linecap="round" stroke-linejoin="round" stroke-miterlimit="10" stroke-width="1"/>
      </g>
      <g id="g5073" transform="translate(0 -682.665)">
        <g id="g5075" clip-path="url(#clip-path)">
          <g id="g5081" transform="translate(13.03 9.349)">
            <path id="path5083" d="M-45.392,0h-1.069a1.483,1.483,0,0,0-1.483,1.483V2.594a1.483,1.483,0,0,0,1.483,1.483h1.069Z" transform="translate(47.944)" fill="none" stroke="#000" stroke-linecap="round" stroke-linejoin="round" stroke-miterlimit="10" stroke-width="1"/>
          </g>
          <g id="g5085" transform="translate(26.261 9.349)">
            <path id="path5087" d="M0,0H1.069A1.483,1.483,0,0,1,2.552,1.483V2.594A1.483,1.483,0,0,1,1.069,4.077H0Z" fill="none" stroke="#000" stroke-linecap="round" stroke-linejoin="round" stroke-miterlimit="10" stroke-width="1"/>
          </g>
          <g id="g5089" transform="translate(23.219 11.29)">
            <path id="path5091" d="M0,0V.7" transform="translate(0)" fill="none" stroke="#000" stroke-linecap="round" stroke-linejoin="round" stroke-miterlimit="10" stroke-width="1"/>
          </g>
          <g id="g5093" transform="translate(18.634 11.29)">
            <path id="path5095" d="M0,0V.7" transform="translate(0)" fill="none" stroke="#000" stroke-linecap="round" stroke-linejoin="round" stroke-miterlimit="10" stroke-width="1"/>
          </g>
          <g id="g5097" transform="translate(19.587 14.882)">
            <path id="path5099" d="M-47.488,0a1.335,1.335,0,0,1-1.335,1.335A1.335,1.335,0,0,1-50.157,0" transform="translate(50.157)" fill="none" stroke="#000" stroke-linecap="round" stroke-linejoin="round" stroke-miterlimit="10" stroke-width="1"/>
          </g>
          <g id="g5101" transform="translate(18.166 0.532)">
            <path id="path5103" d="M-179.875-131.728v1.412h-7.982a2.129,2.129,0,0,1-2.129-2.129V-137a2.129,2.129,0,0,1,2.129-2.129h3.613a4.37,4.37,0,0,1,4.37,4.37v.715" transform="translate(189.986 139.133)" fill="none" stroke="#000" stroke-linecap="round" stroke-linejoin="round" stroke-miterlimit="10" stroke-width="1"/>
          </g>
          <g id="g5105" transform="translate(13.588 2.736)">
            <path id="path5107" d="M0-117.64H2.449a2.129,2.129,0,0,0,2.129-2.129v-4.484H3.193A3.193,3.193,0,0,0,0-121.06Z" transform="translate(0 124.253)" fill="none" stroke="#000" stroke-linecap="round" stroke-linejoin="round" stroke-miterlimit="10" stroke-width="1"/>
          </g>
          <g id="g5109" transform="translate(4.39 21.332)">
            <path id="path5111" d="M-509.758-160.005v5.471H-530.7v-5.508l-3.777,4.563a2.129,2.129,0,0,1-1.771.948h-.038a2.129,2.129,0,0,1-2.129-2.129v-2.28h2.242A1.064,1.064,0,0,0-535.106-160v-1.14l4.037-5.24a2.132,2.132,0,0,1,.941-.7l5.135-1.919,3.112,2.345L-518.77-169l6.956,2.191a2.979,2.979,0,0,1,2.056,2.833v1.651" transform="translate(538.413 169)" fill="none" stroke="#000" stroke-linecap="round" stroke-linejoin="round" stroke-miterlimit="10" stroke-width="1"/>
          </g>
          <g id="g5113" transform="translate(28.636 28.203)">
            <path id="path5115" d="M0,0V7.6" transform="translate(0)" fill="none" stroke="#000" stroke-linecap="round" stroke-linejoin="round" stroke-miterlimit="10" stroke-width="1"/>
          </g>
          <g id="g5117" transform="translate(3.288 24.779)">
            <path id="path5119" d="M-18.936-117.638h2.28a1.064,1.064,0,0,0,1.064-1.064v-4.484a1.064,1.064,0,0,0-1.064-1.064h-2.28A1.064,1.064,0,0,0-20-123.186v4.484A1.064,1.064,0,0,0-18.936-117.638Z" transform="translate(20 124.25)" fill="none" stroke="#000" stroke-linecap="round" stroke-linejoin="round" stroke-miterlimit="10" stroke-width="1"/>
          </g>
          <g id="g5121" transform="translate(5.492 26.983)">
            <path id="path5123" d="M-39.212,0h-2.2" transform="translate(41.416 0)" fill="none" stroke="#000" stroke-linecap="round" stroke-linejoin="round" stroke-miterlimit="10" stroke-width="1"/>
          </g>
          <g id="g5125" transform="translate(5.492 29.187)">
            <path id="path5127" d="M-39.212,0h-2.2" transform="translate(41.416 0)" fill="none" stroke="#000" stroke-linecap="round" stroke-linejoin="round" stroke-miterlimit="10" stroke-width="1"/>
          </g>
          <g id="g5129" transform="translate(7.145 31.259)">
            <path id="path5131" d="M0,0V1.234" transform="translate(0)" fill="none" stroke="#000" stroke-linecap="round" stroke-linejoin="round" stroke-miterlimit="10" stroke-width="1"/>
          </g>
          <g id="g5133" transform="translate(12.104 28.085)">
            <path id="path5135" d="M0-39.212v-2.2" transform="translate(0 41.416)" fill="none" stroke="#000" stroke-linecap="round" stroke-linejoin="round" stroke-miterlimit="10" stroke-width="1"/>
          </g>
          <g id="g5137" transform="translate(4.941 21.332)">
            <path id="path5139" d="M0-61.32H2.2v-2.345a1.1,1.1,0,0,0-1.1-1.1,1.1,1.1,0,0,0-1.1,1.1Z" transform="translate(0 64.767)" fill="none" stroke="#000" stroke-linecap="round" stroke-linejoin="round" stroke-miterlimit="10" stroke-width="1"/>
          </g>
          <g id="g5141" transform="translate(12.104 29.166)">
            <path id="path5143" d="M-122.084-78.8h9.669v-4.429h-16.532V-78.8h4.544" transform="translate(128.946 83.228)" fill="none" stroke="#000" stroke-linecap="round" stroke-linejoin="round" stroke-miterlimit="10" stroke-width="1"/>
          </g>
          <g id="g5145" transform="translate(4.941 12.63)">
            <path id="path5147" d="M0-19.606l1.1,1.1,2.2-2.2" transform="translate(0 20.708)" fill="none" stroke="#000" stroke-linecap="round" stroke-linejoin="round" stroke-miterlimit="10" stroke-width="1"/>
          </g>
          <g id="g5149" transform="translate(3.288 9.299)">
            <path id="path5151" d="M-98.7-157.743h-4.484a1.064,1.064,0,0,1-1.064-1.064v-6.738a1.064,1.064,0,0,1,1.064-1.064H-98.7a1.064,1.064,0,0,1,1.064,1.064v3.369l2.2,2.229h-2.2v1.14A1.064,1.064,0,0,1-98.7-157.743Z" transform="translate(104.25 166.61)" fill="none" stroke="#000" stroke-linecap="round" stroke-linejoin="round" stroke-miterlimit="10" stroke-width="1"/>
          </g>
          <g id="g5153" transform="translate(15.582 9.349)">
            <path id="path5155" d="M0,0V5.077A4.933,4.933,0,0,0,4.933,10.01h.815A4.932,4.932,0,0,0,10.68,5.077V0" fill="none" stroke="#000" stroke-linecap="round" stroke-linejoin="round" stroke-miterlimit="10" stroke-width="1"/>
          </g>
        </g>
      </g>
    </g>
  </g>
</svg>
